<svg width="24" height="24" viewBox="0 0 24 24" xmlns="http://www.w3.org/2000/svg">
    <g stroke="#3E3E3E" fill="none" fill-rule="evenodd" stroke-linejoin="round">
        <path d="M1.52 16.219h4.168v4c0 .431-.35.781-.781.781H2.302a.781.781 0 0 1-.781-.781v-4h0zM18.19 16.219h4.167v4c0 .431-.35.781-.781.781H18.97a.781.781 0 0 1-.781-.781v-4h0zM3.101 7.926a.444.444 0 0 0-.48-.264l-1.22.218A.482.482 0 0 0 1 8.36v.24c0 .232.16.427.38.478l1.726.398.402-.625-.407-.926zM22.598 7.88l-1.22-.213a.438.438 0 0 0-.48.264l-.406.93.407.625 1.722-.407A.485.485 0 0 0 23 8.602v-.24a.478.478 0 0 0-.402-.482z" stroke-linecap="round"/>
        <path d="m21.76 10.696-1.236-1.95-.124-.194L19.352 6c-.344-.843-1.08-1.445-1.953-1.588A34.188 34.188 0 0 0 11.941 4c-1.824-.009-3.652.13-5.453.413A2.582 2.582 0 0 0 4.53 6L3.487 8.55l-.124.195-1.236 1.95a3.94 3.94 0 0 0-.606 2.102v4.213c0 1.422.956 2.246 2.366 2.246h16.104c1.41 0 2.366-.829 2.366-2.246v-4.213a3.853 3.853 0 0 0-.597-2.102h0z" fill="#FFF" stroke-linecap="round"/>
        <path stroke-linecap="round" d="M4 17h16M3.533 11.969s1.859.12 2.11.198c.251.078 1.215 1.978 1.215 1.978l-3.137-.46a.718.718 0 0 1-.585-.552 1.72 1.72 0 0 1-.05-.506c.041-.442.178-.658.447-.658zM20.35 11.969s-1.86.12-2.11.198c-.252.078-1.215 1.978-1.215 1.978l3.137-.46a.718.718 0 0 0 .585-.552c.04-.166.059-.336.045-.506-.036-.442-.173-.658-.443-.658zM9.247 14.426l-.936-2.057s2.297.3 3.63.3c1.334 0 3.63-.3 3.63-.3l-.935 2.057-2.717.221-2.672-.22z"/>
        <path stroke-linecap="square" d="M3.5 8.5h17"/>
    </g>
</svg>
