<svg width="88" height="88" viewBox="0 0 88 88" xmlns="http://www.w3.org/2000/svg">
    <defs>
        <linearGradient x1="100%" y1="50%" x2="0%" y2="50%" id="5ejj0mo7xa">
            <stop stop-color="#005348" offset="0%"/>
            <stop stop-color="#00C2DB" offset="100%"/>
        </linearGradient>
    </defs>
    <g fill="none" fill-rule="evenodd">
        <path d="M27.773 55.897h3.603v1.944a1.56 1.56 0 0 1-1.56 1.559h-5.215a1.56 1.56 0 0 1-1.56-1.56v-6.446c0 2.85 1.912 4.503 4.732 4.503zm36.941-6.088v8.032a1.56 1.56 0 0 1-1.559 1.559h-5.216a1.56 1.56 0 0 1-1.56-1.56v-1.944l3.595.001c2.82 0 4.731-1.662 4.731-4.503v-1.585zm-2.066-17.167.109.013 2.439.427a.957.957 0 0 1 .804.966v.483c0 .464-.32.863-.758.956l-3.287.78-.889-1.406.732-1.677a.88.88 0 0 1 .85-.542zm-37.405.004a.887.887 0 0 1 .959.53l.64 1.46-.116.183-.876 1.383-3.092-.715a.98.98 0 0 1-.751-.842L22 34.531v-.483c0-.483.338-.891.804-.966zM27.067 41.284s3.717.24 4.22.397c.502.157 2.429 3.97 2.429 3.97l-6.275-.924c-.566-.083-1.032-.526-1.169-1.107a3.459 3.459 0 0 1-.1-1.016c.082-.886.356-1.32.895-1.32zM60.699 41.284s-3.717.24-4.22.397c-.502.157-2.43 3.97-2.43 3.97l6.275-.924c.566-.083 1.032-.526 1.17-1.107a3.17 3.17 0 0 0 .09-1.016c-.073-.886-.347-1.32-.885-1.32zM36.22 45.61l-1.598-3.523h0s6.594.6 9.26.6c2.668 0 9.261-.6 9.261-.6l-1.598 3.523a1.1 1.1 0 0 1-.936.643l-6.706.4a1.1 1.1 0 0 1-.132 0l-6.615-.4a1.1 1.1 0 0 1-.936-.643z" stroke="#FFF" stroke-width=".715" stroke-linecap="round"/>
        <path d="M36.674 3.574c-.53-1.4-1.64-2.382-2.984-2.614A68.579 68.579 0 0 0 21.878.001c-2.78-.011-5.6.143-8.38.474L13.14.52a67.433 67.433 0 0 0-3.085.452c-1.334.232-2.454 1.213-2.973 2.614L5.015 9.662h33.97l-2.311-6.088z" fill="url(#5ejj0mo7xa)" transform="translate(22 25.3)"/>
        <path stroke="#FFF" stroke-width=".715" stroke-linecap="round" d="M31.9 51.15h23.947M61.04 34.819l-.248-.39-2.095-5.117c-.69-1.69-2.159-2.897-3.905-3.185a68.166 68.166 0 0 0-10.914-.826 68.052 68.052 0 0 0-10.905.826c-1.745.288-3.225 1.495-3.914 3.185l-2.085 5.117-.248.39-2.471 3.909a7.92 7.92 0 0 0-1.213 4.216v8.45c0 2.85 1.91 4.503 4.731 4.503h32.2c2.821 0 4.732-1.662 4.732-4.503v-8.45a7.744 7.744 0 0 0-1.194-4.216l-2.471-3.91z"/>
    </g>
</svg>
