<svg width="88" height="88" viewBox="0 0 88 88" xmlns="http://www.w3.org/2000/svg">
    <defs>
        <linearGradient x1="100%" y1="50%" x2="0%" y2="50%" id="n8zibw86na">
            <stop stop-color="#005348" offset="0%"/>
            <stop stop-color="#00C2DB" offset="100%"/>
        </linearGradient>
        <linearGradient x1="100%" y1="50%" x2="0%" y2="50%" id="bl8qivdy7b">
            <stop stop-color="#005348" offset="0%"/>
            <stop stop-color="#00C2DB" offset="100%"/>
        </linearGradient>
    </defs>
    <g transform="translate(22 15.4)" fill="none" fill-rule="evenodd">
        <rect fill="#FFF" x="12.766" y="3.85" width="11" height="1" rx=".5"/>
        <rect fill="#FFF" x="12.766" y="9.394" width="11" height="1" rx=".5"/>
        <path d="M24.99 7.005h9.58C43 7.69 47.214 12.223 47.214 20.6c0 7.237-3.088 11.199-9.264 13.167" stroke="#FFF" stroke-width=".715" stroke-linecap="round"/>
        <path d="M3.059 46.14c.975.305 2.303.47 4.117.48l.046.026c.015.011.092.132 0 1.58-.1 1.58-1.297 1.692-1.297 1.692H2.566c-1.492 0-1.9-1.632-1.9-1.632v-4.224a.781.781 0 0 1 .017-.006c.338.948 1.009 1.655 2.376 2.084zm35.008-1.763v3.909s-.408 1.632-1.9 1.632h-3.36s-1.196-.112-1.296-1.692a20.21 20.21 0 0 1-.044-1.018v-.176c.004-.334.034-.379.042-.385.002 0 .016-.01.044-.026 4.176-.004 5.835-.805 6.514-2.244zm-.579-18.42c.82-.068 1.26.433 1.265 1.313.005 1.006-.696 1.722-1.508 2.103-.384.18-.953.384-1.438.373a19.386 19.386 0 0 1-1.393-2.404c.104-.362.541-.712.808-.852.403-.21.891-.341 1.376-.424.305-.052.61-.087.89-.109zm-36.223-.009c.28.023.586.057.89.11.485.082.973.212 1.376.423.3.157.814.58.833.985l.002.067c-.438.86-.854 1.561-1.287 2.192-.51.061-1.151-.165-1.57-.361C.696 28.984-.007 28.266 0 27.26c.005-.88.446-1.38 1.265-1.312z" stroke="#FFF" stroke-width=".715" stroke-linecap="round"/>
        <path d="M8.659 0a3.74 3.74 0 0 1 3.103 1.653l1.348 2.004c.152.227.279.468.378.72h.465c.609 0 1.197.22 1.658.619.453.393.713.963.713 1.562v.893c0 .6-.26 1.17-.713 1.562a2.532 2.532 0 0 1-1.658.618l-.465.001a3.74 3.74 0 0 1-.378.72l-1.348 2.005a3.74 3.74 0 0 1-3.103 1.652H2.2a2.2 2.2 0 0 1-2.2-2.2V2.2A2.2 2.2 0 0 1 2.2 0h6.459z" stroke="#FFF" stroke-width=".715" fill="url(#n8zibw86na)" transform="translate(18.79)"/>
        <path d="M22.59 7.26h2.632a.207.207 0 0 1 .198.266l-1.032 3.42a.207.207 0 0 0 .377.162l2.561-4.494a.207.207 0 0 0-.18-.309h-2.703a.207.207 0 0 1-.196-.27l.961-2.984a.207.207 0 0 0-.374-.17l-2.422 4.066a.207.207 0 0 0 .178.312z" fill="#FFF"/>
        <path d="M18.708 28.833h1.33v-.005c5.375-.038 10.287-.24 14.735-.607l-.404-.825c-1.119-2.285-1.738-4.908-4.018-6.574-.26-.19-.62-.436-1.024-.588-.404-.153-.92-.31-1.399-.338l-7.89-.082V19.8l-.664.007-.665-.007v.014l-7.89.082a4.681 4.681 0 0 0-1.4.338 4.958 4.958 0 0 0-1.022.588c-2.28 1.666-2.899 4.29-4.018 6.574l-.404.825c4.446.367 9.357.57 14.733.607v.005z" fill="url(#bl8qivdy7b)"/>
        <path d="M9.923 44.135c.67-.356 1.448-.333 2.158-.325 2.649.005 4.971.014 7.299.029 2.322-.018 4.644-.027 6.97-.027 1.018-.01 1.806-.037 2.48.322.2.108.387.286.563.522.114.152.618.997.956 1.569l-10.528.035h-.888l-10.028-.033c.017-.85.366-1.452.458-1.573.174-.234.362-.412.56-.519z" stroke="#FFF" stroke-width=".715"/>
        <path d="m18.367 37.12-6.538.112a.22.22 0 0 1-.221-.218c0-.093.056-.176.144-.205 2.784-1.073 5.307-1.609 7.567-1.609 2.259 0 4.795.535 7.611 1.605a.22.22 0 0 1-.077.427l-6.519-.113a.22.22 0 0 0-.213.153l-.583 1.838a.22.22 0 0 1-.421-.005l-.535-1.828a.22.22 0 0 0-.215-.158zM34.622 33.07c-2.015.29-4.163.83-6.445 1.621a.22.22 0 0 0-.052.39l2.806 1.93a.22.22 0 0 0 .16.037l4.3-.69h0c.703-.102.917-.45.85-.93-.066-.482-.116-.859-.182-1.202-.204-.886-.905-1.233-1.437-1.157zM4.108 33.07c2.014.29 4.163.83 6.445 1.621a.22.22 0 0 1 .051.39l-2.806 1.93a.22.22 0 0 1-.16.037l-4.3-.69h0c-.702-.102-.916-.45-.85-.93.066-.482.117-.859.182-1.202.204-.886.905-1.233 1.438-1.157z" stroke="#FFF" stroke-width=".715" stroke-linecap="round"/>
        <path d="M36.271 30.377c-1.06-1.368-1.953-3.02-3.181-5.994-1.228-2.975-3.182-4.283-5.414-4.463-.947-.075-4.19-.115-7.574-.12l-8.897.12c-.315.024-.778.116-1.391.276-1.645.54-3.058 1.847-4.023 4.187-1.209 2.926-2.092 4.544-3.13 5.925l-.088.115C1.639 31.655.385 34.282.254 37.955v.02c-.017.484-.014.985.012 1.503.164 3.335-.278 5.698 2.793 6.662 1.093.342 2.63.507 4.798.477 3.813-.055 8.039-.083 12.244-.078 3.765.002 7.51.028 10.923.078 8.261.118 7.368-2.618 7.592-7.139.224-4.52-1.285-7.734-2.345-9.101z" stroke="#FFF" stroke-width=".715" stroke-linecap="round"/>
    </g>
</svg>
