<svg width="88" height="88" viewBox="0 0 88 88" xmlns="http://www.w3.org/2000/svg">
    <defs>
        <linearGradient x1="100%" y1="50%" x2="0%" y2="50%" id="ufhlgxszya">
            <stop stop-color="#005348" offset="0%"/>
            <stop stop-color="#00C2DB" offset="100%"/>
        </linearGradient>
    </defs>
    <g fill="none" fill-rule="evenodd">
        <path d="M48.176 13.2a3.105 3.105 0 0 1 3.105 3.105l-.001.995h3.308a6.21 6.21 0 0 1 6.21 6.21v26.948a6.21 6.21 0 0 1-6.21 6.21h-20.89a6.21 6.21 0 0 1-6.21-6.21V23.511a6.21 6.21 0 0 1 6.21-6.21l3.307-.001v-.995A3.105 3.105 0 0 1 40.11 13.2h8.066z" stroke="#FFF" stroke-width=".715" stroke-linecap="round"/>
        <path d="M11.94 19.405H36.79v14.947l-1.884 3.158-2.073 1.572-16.81.192c-1.132-.667-1.913-1.255-2.344-1.764-.43-.509-1.01-1.369-1.738-2.58V19.405z" fill="url(#ufhlgxszya)" transform="translate(19.8 13.2)"/>
        <g stroke="#FFF" stroke-width=".715">
            <path d="M44.142 15.917v6.21M40.97 19.022h6.345"/>
        </g>
        <path d="M20.35 66.39a5.678 5.678 0 0 1 5.678-5.678h.377a5.841 5.841 0 0 1 5.841 5.841 5.841 5.841 0 0 0 5.842 5.842h.107a5.948 5.948 0 0 0 5.948-5.948v-5.898h0" stroke="#FFF" stroke-width=".715" stroke-linecap="round"/>
        <path d="M52.951 25.2c.973 0 1.854.395 2.492 1.033a3.513 3.513 0 0 1 1.032 2.491v18.55c0 .948-.382 1.855-1.06 2.518l-1.667 1.632a3.524 3.524 0 0 1-2.464 1.006H37.002c-.921 0-1.806-.361-2.465-1.006l-1.667-1.632a3.524 3.524 0 0 1-1.06-2.518v-18.55c0-.973.395-1.854 1.033-2.491a3.513 3.513 0 0 1 2.491-1.032z" stroke="#FFF" stroke-width=".715"/>
        <path d="M41.277 56.668h5.731v1.94a1.94 1.94 0 0 1-1.94 1.941h-1.85a1.94 1.94 0 0 1-1.94-1.94v-1.94h0zM20.35 69.3v-2.75" stroke="#FFF" stroke-width=".715" stroke-linecap="round"/>
    </g>
</svg>
