<svg width="93" height="40" viewBox="0 0 93 40" xmlns="http://www.w3.org/2000/svg">
    <g fill="none" fill-rule="evenodd">
        <path fill="#FFF" d="M0 0h93v40H0z"/>
        <g fill-rule="nonzero">
            <g fill="#0166B2">
                <path d="M51.3 30.383h-1.995c.006-.086.025-.185.056-.294a.906.906 0 0 1 .475-.56c.13-.066.293-.099.488-.099.3 0 .523.08.67.243.146.161.249.398.306.71zm-1.995.78h3.221a3.174 3.174 0 0 0-.086-.996c-.08-.318-.211-.601-.393-.85a1.984 1.984 0 0 0-.695-.593 2.117 2.117 0 0 0-.993-.221c-.34 0-.65.06-.928.182-.28.121-.52.287-.722.498-.201.21-.356.46-.466.75-.11.289-.164.6-.164.936 0 .346.053.664.16.953.106.289.257.537.453.745.196.208.435.369.717.481.282.113.599.17.95.17.507 0 .938-.116 1.295-.347.357-.231.622-.616.795-1.153h-1.08c-.04.139-.15.27-.328.394a1.09 1.09 0 0 1-.639.187c-.345 0-.61-.09-.794-.269-.185-.18-.285-.468-.303-.867zM55.306 32.047a.828.828 0 0 1-.463-.121.95.95 0 0 1-.299-.312 1.324 1.324 0 0 1-.16-.429 2.517 2.517 0 0 1-.046-.481c0-.168.018-.328.055-.481.036-.153.095-.289.177-.407a.921.921 0 0 1 .303-.282.856.856 0 0 1 .433-.104c.196 0 .36.038.488.113.13.075.233.176.312.303.078.127.134.273.168.438.034.164.05.34.05.524 0 .162-.02.316-.063.464a1.243 1.243 0 0 1-.189.394.928.928 0 0 1-.766.381zm2.155.772v-4.195h-1.137v.598h-.016c-.146-.26-.327-.445-.543-.555a1.641 1.641 0 0 0-.754-.164c-.303 0-.57.06-.803.182a1.74 1.74 0 0 0-.585.49 2.21 2.21 0 0 0-.358.71 2.87 2.87 0 0 0-.122.836c0 .307.035.597.105.871.07.275.181.515.333.72.151.205.345.367.58.485.236.118.517.178.842.178.264 0 .515-.057.753-.17.239-.112.423-.287.552-.524h.016v.59c.006.317-.068.58-.223.788-.154.208-.4.312-.736.312a1.15 1.15 0 0 1-.564-.134c-.163-.09-.272-.25-.328-.481h-1.187c.017.254.086.472.206.654.12.182.272.331.455.447.182.115.384.2.606.255.221.055.439.083.652.083.5 0 .898-.07 1.195-.208.298-.139.525-.308.682-.507.157-.2.26-.415.307-.646.048-.231.072-.436.072-.615zM59.786 28.014V27h-1.063v1.014h1.063zm-1.063.61v4.48h1.063v-4.48h-1.063zM62.048 31.649h-1.166c.011.3.079.55.203.75.124.199.282.359.475.48.193.122.413.208.66.26a3.786 3.786 0 0 0 1.507.004 1.89 1.89 0 0 0 .652-.255 1.42 1.42 0 0 0 .462-.481c.118-.2.177-.446.177-.741 0-.208-.04-.383-.12-.524a1.11 1.11 0 0 0-.32-.356 1.716 1.716 0 0 0-.453-.23 5.166 5.166 0 0 0-.523-.147c-.173-.04-.342-.078-.51-.112a3.929 3.929 0 0 1-.444-.117.931.931 0 0 1-.315-.17.338.338 0 0 1-.121-.268c0-.092.023-.166.069-.221a.454.454 0 0 1 .168-.126.747.747 0 0 1 .22-.056 2.11 2.11 0 0 1 .225-.013c.219 0 .409.042.57.126.161.083.25.244.268.48h1.165a1.474 1.474 0 0 0-.211-.688 1.4 1.4 0 0 0-.445-.438 1.858 1.858 0 0 0-.609-.234 3.525 3.525 0 0 0-.704-.07c-.241 0-.477.022-.708.066-.23.043-.437.118-.621.225a1.243 1.243 0 0 0-.445.438c-.112.185-.169.421-.169.71 0 .197.04.363.121.499.081.135.187.248.32.338.132.09.283.161.453.216.17.055.344.103.523.143.437.093.778.185 1.023.278.245.092.367.23.367.416 0 .11-.026.2-.078.273a.59.59 0 0 1-.194.173.923.923 0 0 1-.259.095 1.307 1.307 0 0 1-.622-.013.906.906 0 0 1-.298-.134.677.677 0 0 1-.294-.576zM67.28 28.624v-1.343h-1.226v1.343h-.743v.823h.743v2.644c0 .225.037.407.112.546a.802.802 0 0 0 .307.32c.13.075.279.126.449.152.17.026.35.039.54.039.12 0 .244-.003.37-.009.128-.005.243-.017.346-.034v-.954a2.188 2.188 0 0 1-.38.035c-.207 0-.345-.035-.414-.104-.07-.07-.104-.208-.104-.416v-2.219h.898v-.823h-.898zM71.908 30.383h-1.995c.006-.086.025-.185.057-.294a.906.906 0 0 1 .475-.56c.13-.066.292-.099.487-.099.3 0 .523.08.67.243.147.161.249.398.306.71zm-1.995.78h3.222a3.174 3.174 0 0 0-.087-.996c-.08-.318-.211-.601-.393-.85a1.984 1.984 0 0 0-.695-.593 2.117 2.117 0 0 0-.993-.221c-.34 0-.65.06-.928.182-.28.121-.52.287-.721.498-.202.21-.357.46-.467.75-.11.289-.164.6-.164.936 0 .346.053.664.16.953.106.289.258.537.453.745.196.208.435.369.717.481.282.113.599.17.95.17.507 0 .938-.116 1.295-.347.357-.231.622-.616.795-1.153h-1.08c-.04.139-.15.27-.328.394a1.09 1.09 0 0 1-.639.187c-.345 0-.61-.09-.794-.269-.185-.18-.285-.468-.303-.867zM73.889 28.624v4.48h1.226v-2.019c0-.202.02-.39.06-.563.04-.173.108-.325.203-.455a.988.988 0 0 1 .376-.308c.155-.075.345-.112.57-.112a2.182 2.182 0 0 1 .44.043v-1.144a.953.953 0 0 0-.267-.043 1.46 1.46 0 0 0-.45.069c-.143.046-.279.111-.405.195a1.53 1.53 0 0 0-.57.689h-.018v-.832H73.89zM80.278 30.383h-1.995c.006-.086.025-.185.057-.294a.906.906 0 0 1 .475-.56c.13-.066.292-.099.487-.099.3 0 .523.08.67.243.147.161.249.398.306.71zm-1.995.78h3.222a3.174 3.174 0 0 0-.087-.996c-.08-.318-.211-.601-.393-.85a1.984 1.984 0 0 0-.695-.593 2.117 2.117 0 0 0-.993-.221c-.34 0-.65.06-.928.182-.28.121-.52.287-.721.498-.202.21-.357.46-.467.75-.11.289-.164.6-.164.936 0 .346.053.664.16.953.106.289.258.537.453.745.196.208.435.369.717.481.282.113.599.17.95.17.507 0 .938-.116 1.295-.347.357-.231.622-.616.795-1.153h-1.08c-.04.139-.15.27-.328.394a1.09 1.09 0 0 1-.639.187c-.345 0-.61-.09-.794-.269-.185-.18-.285-.468-.303-.867zM85.332 30.851c0 .185-.017.364-.052.538a1.46 1.46 0 0 1-.172.463.92.92 0 0 1-.324.325.97.97 0 0 1-.505.122.909.909 0 0 1-.488-.126 1.079 1.079 0 0 1-.337-.33 1.423 1.423 0 0 1-.194-.463 2.29 2.29 0 0 1-.06-.52c0-.185.018-.363.055-.533a1.42 1.42 0 0 1 .182-.455.957.957 0 0 1 .332-.32.993.993 0 0 1 .51-.122c.201 0 .368.04.5.121.133.081.24.187.324.317.084.13.143.28.177.45.035.17.052.348.052.533zm.017 1.682v.572h1.166v-6H85.29v2.065h-.017a1.318 1.318 0 0 0-.566-.498 1.75 1.75 0 0 0-.756-.17c-.328 0-.616.066-.863.196-.248.13-.453.302-.618.515-.164.214-.287.461-.37.741-.084.28-.126.57-.126.871 0 .312.042.613.125.902.084.289.207.544.371.767.165.222.373.398.627.528.253.13.546.195.88.195.294 0 .557-.053.79-.16.234-.107.422-.282.566-.524h.017zM40.776 28.238v1.656h1.318c.288 0 .504-.033.649-.1.255-.117.383-.349.383-.694 0-.374-.124-.625-.37-.754-.14-.072-.348-.108-.625-.108h-1.355zm1.621-1.071c.43.008.761.061.993.159.231.097.428.24.589.43.133.157.238.33.316.52.078.189.116.405.116.648 0 .293-.073.58-.22.864-.147.283-.39.483-.728.6.283.114.483.277.601.487.118.211.177.532.177.965v.414c0 .282.01.473.033.573a.515.515 0 0 0 .233.352v.154h-1.41a3.052 3.052 0 0 1-.137-.862l-.01-.573c-.005-.393-.076-.655-.214-.786-.137-.131-.394-.197-.771-.197h-1.189v2.418h-1.251v-6.166h2.872z"/>
                <path d="M41.518 24.5c3.21 0 5.812 2.612 5.812 5.833 0 3.222-2.602 5.834-5.812 5.834-3.21 0-5.813-2.612-5.813-5.834 0-3.221 2.603-5.833 5.813-5.833zm0 .933c-2.697 0-4.883 2.194-4.883 4.9 0 2.707 2.186 4.9 4.883 4.9 2.696 0 4.882-2.193 4.882-4.9 0-2.706-2.186-4.9-4.882-4.9z"/>
            </g>
            <path d="m27.497 17.172.392-2.121c-3.779 1.418-8.09 2.745-13.074 4.228-3.669 1.09-6.569 2.118-8.832 3.02l-.004.026h5.306c1.999 0 8.05-.244 10.61-5.127l-.471 2.64v.023a129.567 129.567 0 0 0 6.073-2.69z" fill="#F9A61B"/>
            <path d="M46.916 13.332c-.9 4.874-5.256 4.403-5.256 4.403l1.68-9.095c.487-.045 4.477-.181 3.576 4.692zM32.6 10.552c-.159.866-1.111 1.567-2.126 1.567h-1.949l.574-3.107 2.202-.005c.874.105 1.446.752 1.299 1.545zm-14.959 2.78c-.9 4.874-5.255 4.403-5.255 4.403l1.68-9.095c.486-.045 4.476-.181 3.575 4.692zM44.39 5.008c-2.007 0-5.933-.007-5.933-.007l-.535 3a3.425 3.425 0 0 0-.076-.276 3.02 3.02 0 0 0-.508-.982C36.555 5.67 35.157 5 33.44 5h-9.237l-1.074 5.75c-.674-4.694-5.827-5.742-8.016-5.742-2.007 0-5.933-.007-5.933-.007L5.984 22.3c2.262-.903 5.162-1.931 8.831-3.021 4.985-1.484 9.296-2.81 13.074-4.228l.008-.04h.106l-.001-.002c6.435-2.424 11.313-5.121 15.313-9.323 0 0-1.713 2.71-6.081 5.928v-.002l-.699 3.78a4.591 4.591 0 0 0-.109-.261 2.611 2.611 0 0 0-.671-.984 8.686 8.686 0 0 0-.971-.868c-.772.485-1.6.972-2.492 1.455-.426.23-.848.454-1.27.675.308.284.46.69.375 1.142-.16.866-1.112 1.567-2.127 1.567h-1.948l.175-.946c-1.92.914-3.9 1.787-6.072 2.69v-.024l-.445 2.494h9.408c.184 0 .419-.03.687-.085 1.898-.243 3.668-1.373 4.706-2.768l-.527 2.846h5.307c2.729 0 10.426-1.604 11.748-8.766 1.313-7.107-5.349-8.552-7.92-8.552z" fill="#57409A"/>
            <path d="M28 15.01h.002l2.095-.002c.375.044.694.19.926.402.42-.22.842-.445 1.269-.675.892-.483 1.72-.97 2.491-1.456a39.902 39.902 0 0 0 2.45-1.666v.002c4.369-3.218 6.082-5.928 6.082-5.928-4 4.202-8.879 6.898-15.314 9.323z" fill="#F9A61B"/>
        </g>
    </g>
</svg>
