<svg width="112" height="112" viewBox="0 0 112 112" xmlns="http://www.w3.org/2000/svg">
    <defs>
        <linearGradient x1="100%" y1="50%" x2="0%" y2="50%" id="b94xfmypja">
            <stop stop-color="#00B39B" offset="0%"/>
            <stop stop-color="#00C2DB" offset="100%"/>
        </linearGradient>
    </defs>
    <g fill-rule="nonzero" fill="none">
        <path d="M9.601 53.185c.147-.308.361-.462.641-.462.295 0 .552.121.773.363a.816.816 0 0 1 .2.824c-.59 1.684-1.139 3.339-1.647 4.964a111.34 111.34 0 0 0-1.425 4.965c-.06.205-.17.348-.332.429-.162.08-.331.12-.508.12-.413 0-.696-.146-.851-.439a2.084 2.084 0 0 1-.232-.989c.442-1.684.95-3.328 1.525-4.931A120.12 120.12 0 0 1 9.6 53.185zm3.683 11.489c-.191 0-.368-.08-.53-.242a1.346 1.346 0 0 1-.343-.56.998.998 0 0 1-.01-.604c.058-.19.213-.315.463-.373a6.49 6.49 0 0 0 1.16-.407 4.46 4.46 0 0 0 1.05-.648 5.098 5.098 0 0 0 .752-.813c.117-.16.202-.33.254-.505a.58.58 0 0 0-.055-.483.677.677 0 0 0-.221-.242 2.2 2.2 0 0 0-.343-.198 14.658 14.658 0 0 0-.365-.164 6.763 6.763 0 0 1-.309-.143 3.014 3.014 0 0 1-.84-.593 2.737 2.737 0 0 1-.574-.813c-.207-.454-.25-.905-.133-1.351.118-.447.339-.875.663-1.285a6.33 6.33 0 0 1 1.193-1.143 9.957 9.957 0 0 1 2.95-1.516c.48-.146.888-.22 1.227-.22.133 0 .214.008.243.023h.044c.177 0 .31.073.398.22a.958.958 0 0 1 .133.505c0 .19-.04.37-.122.538a.562.562 0 0 1-.387.318c-.191.044-.449.143-.773.297a9.43 9.43 0 0 0-1.006.56c-.346.22-.685.458-1.016.714-.332.256-.597.52-.796.791-.199.271-.305.53-.32.78-.015.249.118.469.398.659.353.234.696.487 1.027.758.332.27.604.567.818.89.214.322.346.673.398 1.054.051.38-.026.79-.232 1.23-.192.41-.464.795-.818 1.154a6.262 6.262 0 0 1-1.193.944c-.442.271-.906.484-1.393.637-.486.154-.95.231-1.392.231zm5.834-16.114c.089-.176.207-.263.354-.263.177 0 .346.091.508.274a.704.704 0 0 1 .177.626 6.838 6.838 0 0 1-.254.747c-.096.235-.221.44-.376.615a1.864 1.864 0 0 1-.552.429c-.214.11-.468.164-.763.164-.206 0-.368-.029-.486-.087a.763.763 0 0 1-.276-.22 1.229 1.229 0 0 1-.155-.264 3.58 3.58 0 0 0-.1-.22 11.47 11.47 0 0 0-.375.352 4.028 4.028 0 0 1-.21.198.308.308 0 0 1-.155.077 1.57 1.57 0 0 1-.21.01c-.486 0-.898-.212-1.237-.636a1.327 1.327 0 0 1-.287-.626 2.798 2.798 0 0 1-.033-.747 3.56 3.56 0 0 1 .154-.77c.081-.256.18-.479.299-.67.22-.38.523-.67.906-.867a2.486 2.486 0 0 1 1.149-.297c.707 0 1.392-.01 2.055-.033a15.773 15.773 0 0 0 2.055-.208c.162 0 .302.058.42.175.118.118.203.257.254.418a.864.864 0 0 1 .022.472.491.491 0 0 1-.298.34c-.663.118-1.308.21-1.934.275-.626.066-1.27.1-1.933.1a2.299 2.299 0 0 0-.442-.045c-.354 0-.634.073-.84.22a1.427 1.427 0 0 0-.453.494 1.138 1.138 0 0 0-.144.527c0 .169.03.282.089.34 0 .06.03.089.088.089.059 0 .125-.037.199-.11.147-.146.306-.264.475-.352.17-.087.357-.131.564-.131.073 0 .14.036.198.11.06.073.115.153.166.241.052.088.103.172.155.253.051.08.121.135.21.165.015.014.066.022.154.022a.49.49 0 0 0 .343-.132 1.13 1.13 0 0 0 .243-.33 3.01 3.01 0 0 0 .166-.395l.11-.33zm3.286 15.63a1.026 1.026 0 0 1-.122.034.624.624 0 0 1-.121.01.661.661 0 0 1-.542-.263 1.374 1.374 0 0 1-.276-.593 1.148 1.148 0 0 1 .055-.648.698.698 0 0 1 .475-.429 4.855 4.855 0 0 0 1.558-.801c.494-.374.94-.799 1.337-1.275a8.532 8.532 0 0 0 1.017-1.515c.28-.535.471-1.048.574-1.538.104-.49.104-.937 0-1.34a1.419 1.419 0 0 0-.685-.912.902.902 0 0 0-.663-.264c-.206 0-.423.052-.652.154-.228.103-.453.23-.674.385a8.525 8.525 0 0 0-.618.472c-.192.161-.361.308-.509.44a.763.763 0 0 1-.486.175.96.96 0 0 1-.563-.198 1.424 1.424 0 0 1-.431-.483 1.271 1.271 0 0 1-.155-.615c0-.22.088-.417.265-.593a9.48 9.48 0 0 1 1.636-1.296 3.619 3.619 0 0 1 1.966-.571c.575 0 1.157.168 1.746.505.53.307.94.688 1.227 1.142.287.454.478.948.574 1.483.096.535.1 1.095.011 1.68a7.452 7.452 0 0 1-.486 1.736 9.182 9.182 0 0 1-.917 1.68c-.376.55-.8 1.055-1.27 1.516a8.188 8.188 0 0 1-1.537 1.187 6.79 6.79 0 0 1-1.734.736zm12.802-5.733a21.05 21.05 0 0 0-.287.593c-.088.19-.192.38-.31.571-.161.293-.33.44-.508.44a.479.479 0 0 1-.31-.132 1.04 1.04 0 0 1-.253-.33 1.622 1.622 0 0 1-.144-.439.872.872 0 0 1 .022-.44c.074-.22.155-.475.243-.768a6.56 6.56 0 0 1 .332-.868 3.66 3.66 0 0 1 .475-.769c.184-.227.401-.384.652-.472.132-.044.258-.066.376-.066a.89.89 0 0 1 .707.34c.191.227.346.502.464.824.31-.293.689-.575 1.138-.846.45-.27.895-.406 1.337-.406.471 0 .88.154 1.226.461.347.308.586.747.719 1.318.088.352.117.729.088 1.132a7.62 7.62 0 0 1-.188 1.208c-.096.403-.214.806-.353 1.208-.14.403-.277.78-.41 1.132a36.303 36.303 0 0 1-1.049 2.438l-1.16 2.439c-.162.293-.369.439-.619.439a.904.904 0 0 1-.52-.176 1.687 1.687 0 0 1-.663-1.065.987.987 0 0 1 .1-.626c.118-.22.265-.517.442-.89s.368-.784.575-1.23a36.1 36.1 0 0 0 1.149-2.801c.162-.454.295-.868.398-1.241.103-.374.154-.67.154-.89a.737.737 0 0 0 .089-.33v-.285a.553.553 0 0 1-.243.066l-1.017.834c-.339.279-.626.6-.862.967-.147.278-.368.417-.663.417-.235 0-.453-.095-.652-.285a1.322 1.322 0 0 1-.386-.66c0-.087-.008-.204-.022-.35a5.791 5.791 0 0 0-.067-.462zm19.19-5.558c.058-.205.147-.348.265-.428a.726.726 0 0 1 .42-.121c.162 0 .327.04.497.12.17.081.32.191.453.33.132.14.24.297.32.472a.886.886 0 0 1 .077.528c0 .073-.018.197-.055.373-.037.176-.08.385-.132.626-.052.242-.118.502-.2.78a36.02 36.02 0 0 1-.253.835c-.104.337-.207.685-.31 1.043-.103.36-.213.729-.331 1.11.25.176.456.454.619.835a2.8 2.8 0 0 1 .243 1.098c.088.806-.019 1.545-.32 2.219a4.052 4.052 0 0 1-1.382 1.67.783.783 0 0 1-.442.131 1.08 1.08 0 0 1-.597-.186 1.75 1.75 0 0 1-.486-.473 2.373 2.373 0 0 1-.42-1.197 7.265 7.265 0 0 1 .067-1.461c0-.19.033-.443.099-.758s.1-.567.1-.758c-.442.308-.837.593-1.183.857a9.14 9.14 0 0 0-.983.868c-.31.315-.612.677-.906 1.087-.295.41-.612.923-.95 1.538-.148.278-.34.417-.575.417a.753.753 0 0 1-.475-.186 1.68 1.68 0 0 1-.398-.473 2.29 2.29 0 0 1-.243-.593 1 1 0 0 1 .011-.571c.28-.79.523-1.618.73-2.482.206-.865.412-1.692.618-2.483l.188-.736a15.3 15.3 0 0 0 .21-.933c.059-.308.088-.575.088-.802 0-.227-.059-.34-.177-.34-.073 0-.176.054-.309.164-.133.11-.302.29-.508.538-.221.264-.442.396-.663.396-.25 0-.457-.132-.619-.396-.162-.263-.184-.564-.066-.9.177-.455.471-.872.884-1.253.412-.38.913-.57 1.502-.57.34 0 .623.069.851.208.229.139.409.318.542.538.132.22.228.469.287.747.059.278.096.556.11.835.045.85-.007 1.589-.154 2.219a88.18 88.18 0 0 1-.464 1.889c.294-.22.556-.41.784-.571.228-.161.457-.304.685-.429.229-.124.472-.234.73-.33.257-.094.57-.186.939-.274a21.8 21.8 0 0 0 .64-2.383 21.8 21.8 0 0 1 .64-2.384zm1.325-1.384a17.79 17.79 0 0 0-1.79-.373 11.83 11.83 0 0 0-1.79-.132c-.913 0-1.856.11-2.828.33a.778.778 0 0 1-.243.043.568.568 0 0 1-.442-.198.982.982 0 0 1-.2-.977.595.595 0 0 1 .376-.363 10.236 10.236 0 0 1 3.669-.68c.78 0 1.62.102 2.52.307.014-.088.025-.165.032-.23.008-.067.011-.129.011-.187.044-.147.11-.337.2-.572a4.78 4.78 0 0 1 .32-.68c.125-.22.265-.407.42-.56.154-.155.32-.232.497-.232.147 0 .29.04.43.121.14.08.262.183.365.308.103.124.173.26.21.406a.81.81 0 0 1-.01.44 44.632 44.632 0 0 1-.487 1.384 22.66 22.66 0 0 0-.199.57c-.074.22-.147.477-.22.77 0 .146-.075.27-.222.373a.8.8 0 0 1-.464.154c-.088 0-.14-.007-.155-.022zm-.84-7.47c-.044-.087-.099-.142-.165-.164a.822.822 0 0 0-.254-.033c-.148 0-.299.022-.453.066a2.195 2.195 0 0 0-.365.132.099.099 0 0 0-.044.01.099.099 0 0 1-.044.012.453.453 0 0 1-.343-.154.89.89 0 0 1-.21-.78c.03-.14.11-.245.243-.319.413-.234.825-.351 1.238-.351.294 0 .578.073.85.22.273.146.49.373.653.68.235.455.28.923.132 1.407.472-.088.94-.19 1.403-.308a5.712 5.712 0 0 1 1.404-.176h.442c.059 0 .125.015.199.044.176.03.32.125.43.286.11.161.18.33.21.505a.767.767 0 0 1-.066.483c-.074.147-.214.22-.42.22-.353 0-.707.033-1.06.099-.354.066-.708.135-1.061.209-.354.073-.707.143-1.061.208a5.777 5.777 0 0 1-1.06.1c-.251 0-.494-.023-.73-.067a.716.716 0 0 1-.398-.131.832.832 0 0 1-.375-.791.702.702 0 0 1 .22-.44c.03-.029.089-.084.177-.164.089-.081.177-.165.265-.253.089-.088.159-.183.21-.286.052-.102.063-.19.034-.263z" fill="url(#b94xfmypja)" transform="translate(21.78 21.54)"/>
        <g fill="#FFF">
            <path d="m26.94 34.004-1.584-8.768h1.456l.624 3.808c.053.31.107.71.16 1.2.053.49.117 1.072.192 1.744h.048c.096-.459.19-.87.28-1.232a48.178 48.178 0 0 1 .472-1.76l1.072-3.76h1.168l1.088 3.76a48.178 48.178 0 0 1 .472 1.76c.09.363.184.773.28 1.232h.064c.064-.672.123-1.253.176-1.744.053-.49.107-.89.16-1.2l.64-3.808h1.456l-1.584 8.768h-1.392l-1.472-4.768a23.4 23.4 0 0 1-.216-.832c-.07-.288-.136-.667-.2-1.136h-.064a9.71 9.71 0 0 1-.304 1.44c-.053.181-.107.357-.16.528l-1.44 4.768H26.94zM40.636 34.164c-1.259 0-2.16-.288-2.704-.864-.544-.576-.816-1.397-.816-2.464v-5.6h1.424v5.616c0 .715.17 1.248.512 1.6.341.352.87.528 1.584.528.725 0 1.261-.176 1.608-.528.347-.352.52-.885.52-1.6v-5.616h1.424v5.6c0 1.067-.275 1.888-.824 2.464-.55.576-1.459.864-2.728.864zM50.3 34.164c-1.259 0-2.16-.288-2.704-.864-.544-.576-.816-1.397-.816-2.464v-5.6h1.424v5.616c0 .715.17 1.248.512 1.6.341.352.87.528 1.584.528.725 0 1.261-.176 1.608-.528.347-.352.52-.885.52-1.6v-8.768h1.424v8.752c0 1.067-.275 1.888-.824 2.464-.55.576-1.459.864-2.728.864zM58.924 34.164c-.63 0-1.213-.061-1.752-.184a7.125 7.125 0 0 1-1.368-.44l.416-1.152c.224.085.48.176.768.272.288.096.6.173.936.232.336.059.68.088 1.032.088.565 0 1.035-.107 1.408-.32.373-.213.56-.523.56-.928 0-.245-.067-.456-.2-.632s-.339-.339-.616-.488a6.346 6.346 0 0 0-1.072-.432c-.672-.213-1.24-.44-1.704-.68-.464-.24-.816-.528-1.056-.864-.24-.336-.36-.755-.36-1.256 0-.448.12-.845.36-1.192s.613-.619 1.12-.816c.507-.197 1.155-.296 1.944-.296.512 0 .995.045 1.448.136.453.09.808.216 1.064.376v1.2a5.473 5.473 0 0 0-.68-.256 6.586 6.586 0 0 0-.888-.208c-.32-.053-.65-.08-.992-.08-.715 0-1.219.11-1.512.328-.293.219-.44.467-.44.744 0 .235.067.432.2.592.133.16.363.315.688.464.325.15.765.32 1.32.512.512.17.981.368 1.408.592.427.224.765.504 1.016.84.25.336.376.765.376 1.288 0 .448-.11.867-.328 1.256-.219.39-.579.704-1.08.944-.501.24-1.173.36-2.016.36zM65.42 28.5c-.437 0-.792-.067-1.064-.2s-.467-.304-.584-.512a1.33 1.33 0 0 1-.176-.664c0-.16.024-.325.072-.496.048-.17.11-.315.184-.432l1.2.192a2.272 2.272 0 0 0-.072.224c-.027.096-.04.192-.04.288 0 .139.037.253.112.344.075.09.213.136.416.136h2.288v1.12H65.42zm0 4.48c-.437 0-.792-.067-1.064-.2s-.467-.304-.584-.512a1.33 1.33 0 0 1-.176-.664c0-.16.024-.325.072-.496.048-.17.11-.315.184-.432l1.2.192a2.272 2.272 0 0 0-.072.224c-.027.096-.04.192-.04.288 0 .139.037.253.112.344.075.09.213.136.416.136h2.288v1.12H65.42zM69.596 34.004v-3.04c0-.672.15-1.16.448-1.464a2.382 2.382 0 0 1 1.136-.632l.016-.048-1.76-.672v-.528c0-.437.144-.85.432-1.24.288-.39.701-.704 1.24-.944s1.181-.36 1.928-.36c.65 0 1.253.104 1.808.312.555.208 1 .533 1.336.976.336.443.504 1.021.504 1.736v5.904H75.26v-5.76c0-.715-.216-1.224-.648-1.528-.432-.304-.963-.456-1.592-.456-.65 0-1.168.136-1.552.408-.384.272-.576.616-.576 1.032l1.728.864-.128.768c-.395 0-.739.13-1.032.392-.293.261-.44.675-.44 1.24v3.04h-1.424zM74.492 23.844c-.448 0-.805-.064-1.072-.192s-.461-.293-.584-.496a1.217 1.217 0 0 1-.184-.64c0-.16.024-.333.072-.52a1.59 1.59 0 0 1 .184-.456l1.2.208a.983.983 0 0 0-.064.216 1.367 1.367 0 0 0-.032.28c0 .139.043.259.128.36.085.101.23.152.432.152h4.048v1.088h-4.128zM82.3 34.164c-.63 0-1.17-.11-1.624-.328a2.274 2.274 0 0 1-1.04-1c-.24-.448-.36-1.03-.36-1.744v-5.856H80.7v5.776c0 .64.163 1.125.488 1.456.325.33.797.496 1.416.496.747 0 1.325-.24 1.736-.72.41-.48.616-1.125.616-1.936v-5.072h1.424v8.768h-1.184l-.064-1.296h-.08c-.192.427-.525.776-1 1.048s-1.059.408-1.752.408zM25.38 56.164c-1.152 0-2.013-.301-2.584-.904-.57-.603-.856-1.55-.856-2.84 0-.213.008-.445.024-.696.016-.25.035-.499.056-.744h3.36v1.12h-2.016v.32c0 .672.075 1.197.224 1.576.15.379.37.643.664.792.293.15.659.224 1.096.224.48 0 .896-.09 1.248-.272.352-.181.624-.512.816-.992.192-.48.288-1.168.288-2.064 0-.79-.085-1.435-.256-1.936-.17-.501-.45-.875-.84-1.12-.39-.245-.915-.368-1.576-.368a5.491 5.491 0 0 0-1.92.344 5.543 5.543 0 0 0-.88.424V47.7a3.93 3.93 0 0 1 .784-.312c.31-.09.65-.165 1.024-.224a7.518 7.518 0 0 1 1.168-.088c.939 0 1.699.19 2.28.568.581.379 1.005.912 1.272 1.6.267.688.4 1.501.4 2.44 0 .939-.123 1.744-.368 2.416-.245.672-.643 1.184-1.192 1.536-.55.352-1.288.528-2.216.528zM21.78 45.844v-.624l1.168-.512h5.632v1.136h-6.8zm5.472-.624v-1.808h1.344v1.808h-1.344zM31.38 56.004v-3.04c0-.672.15-1.16.448-1.464a2.382 2.382 0 0 1 1.136-.632l.016-.048-1.76-.672v-.528c0-.437.144-.85.432-1.24.288-.39.701-.704 1.24-.944s1.181-.36 1.928-.36c.65 0 1.253.104 1.808.312.555.208 1 .533 1.336.976.336.443.504 1.021.504 1.736v5.904h-1.424v-5.76c0-.715-.216-1.224-.648-1.528-.432-.304-.963-.456-1.592-.456-.65 0-1.168.136-1.552.408-.384.272-.576.616-.576 1.032l1.728.864-.128.768c-.395 0-.739.13-1.032.392-.293.261-.44.675-.44 1.24v3.04H31.38zM45.284 56.164c-.683 0-1.272-.136-1.768-.408-.496-.272-.835-.653-1.016-1.144h-.064l-.08 1.392h-1.168v-8.768h1.424v5.072c0 .533.093 1 .28 1.4.187.4.459.71.816.928.357.219.787.328 1.288.328.63 0 1.099-.165 1.408-.496.31-.33.464-.816.464-1.456v-5.776h1.424v5.872c0 .704-.12 1.28-.36 1.728-.24.448-.584.781-1.032 1-.448.219-.987.328-1.616.328zM53.364 56.004V49.78c0-.523-.12-.907-.36-1.152-.24-.245-.643-.368-1.208-.368-.384 0-.744.05-1.08.152a4.449 4.449 0 0 0-.968.424v-1.28c.213-.107.517-.213.912-.32.395-.107.864-.16 1.408-.16.555 0 1.035.08 1.44.24.405.16.72.424.944.792.224.368.336.856.336 1.464v6.432h-1.424zM57.3 56.004v-3.04c0-.672.15-1.16.448-1.464a2.382 2.382 0 0 1 1.136-.632l.016-.048-1.76-.672v-.528c0-.437.144-.85.432-1.24.288-.39.701-.704 1.24-.944s1.181-.36 1.928-.36c.65 0 1.253.104 1.808.312.555.208 1 .533 1.336.976.336.443.504 1.021.504 1.736v5.904h-1.424v-5.76c0-.715-.216-1.224-.648-1.528-.432-.304-.963-.456-1.592-.456-.65 0-1.168.136-1.552.408-.384.272-.576.616-.576 1.032l1.728.864-.128.768c-.395 0-.739.13-1.032.392-.293.261-.44.675-.44 1.24v3.04H57.3zM71.204 56.164c-.683 0-1.272-.136-1.768-.408-.496-.272-.835-.653-1.016-1.144h-.064l-.08 1.392h-1.168v-8.768h1.424v5.072c0 .533.093 1 .28 1.4.187.4.459.71.816.928.357.219.787.328 1.288.328.63 0 1.099-.165 1.408-.496.31-.33.464-.816.464-1.456v-5.776h1.424v5.872c0 .704-.12 1.28-.36 1.728-.24.448-.584.781-1.032 1-.448.219-.987.328-1.616.328zM79.284 56.004V49.78c0-.523-.12-.907-.36-1.152-.24-.245-.643-.368-1.208-.368-.384 0-.744.05-1.08.152a4.449 4.449 0 0 0-.968.424v-1.28c.213-.107.517-.213.912-.32.395-.107.864-.16 1.408-.16.555 0 1.035.08 1.44.24.405.16.72.424.944.792.224.368.336.856.336 1.464v6.432h-1.424zM86.676 56.148c-.864 0-1.555-.112-2.072-.336-.517-.224-.89-.539-1.12-.944-.23-.405-.344-.885-.344-1.44 0-.49.072-.883.216-1.176.144-.293.325-.51.544-.648.219-.139.445-.23.68-.272v-.064a2.725 2.725 0 0 1-.672-.32 1.782 1.782 0 0 1-.584-.624c-.155-.267-.232-.603-.232-1.008 0-.373.085-.725.256-1.056.17-.33.448-.603.832-.816.384-.213.89-.32 1.52-.32a6 6 0 0 1 .8.056c.277.037.49.099.64.184l-.256 1.104a3.219 3.219 0 0 0-1.04-.176c-.448 0-.779.104-.992.312-.213.208-.32.483-.32.824 0 .373.093.656.28.848.187.192.427.323.72.392.293.07.6.104.92.104h.304v1.04h-.304c-.64 0-1.112.115-1.416.344-.304.23-.456.61-.456 1.144 0 .31.061.592.184.848s.336.459.64.608c.304.15.728.224 1.272.224s.968-.075 1.272-.224c.304-.15.52-.365.648-.648.128-.283.192-.621.192-1.016v-5.856h1.424v5.76c0 1.12-.285 1.925-.856 2.416-.57.49-1.464.736-2.68.736z"/>
        </g>
    </g>
</svg>
