<svg width="88" height="88" viewBox="0 0 88 88" xmlns="http://www.w3.org/2000/svg">
    <defs>
        <linearGradient x1="100%" y1="50%" x2="0%" y2="50%" id="qgci68712a">
            <stop stop-color="#005348" offset="0%"/>
            <stop stop-color="#00C2DB" offset="100%"/>
        </linearGradient>
    </defs>
    <g stroke="#FFF" stroke-width=".715" fill="none" fill-rule="evenodd">
        <path d="M43.024 64.49c.259.263.61.41.98.41.368 0 .72-.147.978-.41l11.075-11.222 5.748-5.823.767-.778c7.336-7.43 2.123-20.267-8.309-20.267-6.265 0-9.14 4.604-10.26 5.463C42.877 31 40.021 26.4 33.743 26.4c-10.4 0-15.676 12.804-8.307 20.267L43.024 64.49z" fill="url(#qgci68712a)"/>
        <path stroke-linecap="round" stroke-linejoin="round" d="M30.8 43.78h7.7l2.75-6.38 5.5 11 2.75-4.62h7.7"/>
    </g>
</svg>
