<svg width="32" height="32" viewBox="0 0 32 32" xmlns="http://www.w3.org/2000/svg">
    <defs>
        <linearGradient x1="100%" y1="50%" x2="0%" y2="50%" id="j2z9fzj4la">
            <stop stop-color="#005348" offset="0%"/>
            <stop stop-color="#00C2DB" offset="100%"/>
        </linearGradient>
    </defs>
    <g transform="translate(.5 4.5)" stroke="#FFF" stroke-width=".5" fill="none" fill-rule="evenodd">
        <path d="M27.25 4.028c3.333 0 4.998 4.026 2.655 6.357-.109.108-.19.19-.245.243l-.954.95-.244.242-.296.295-.213.211-.052.052-.077.077-3.538 3.52a.44.44 0 0 1-.626 0l-1.79-1.782a2.933 2.933 0 0 0 1.288-2.427c0-1.625-1.327-2.942-2.964-2.942a2.968 2.968 0 0 0-2.429 1.255c-1.932-2.368-.252-6.051 2.93-6.051 2.006 0 2.918 1.442 3.278 1.713.358-.27 1.276-1.713 3.278-1.713z" fill="url(#j2z9fzj4la)"/>
        <path d="M1.962 10.121c1.425 2.214 3.092 3.321 5.002 3.321 1.91 0 3.584-1.107 5.025-3.32M4.062 1.98c.528-.09.882-.57.792-1.07-.09-.5-.592-.832-1.119-.741-.528.09-1.2.624-1.11 1.124.09.5.91.777 1.437.687zM2.527 1.396C1.244 1.779.337 2.08.073 3.23c-.3 2.047.33 4.344 1.893 6.891M9.937 1.98c-.527-.09-.881-.57-.791-1.07.09-.5.591-.832 1.119-.741.527.09 1.2.624 1.11 1.124-.09.5-.91.777-1.438.687zM11.428 1.396c1.282.383 2.189.684 2.453 1.834.301 2.047-.33 4.344-1.892 6.891M7 13.442v2.969a6.593 6.593 0 1 0 13.185 0v-1.703h0" stroke-linecap="round"/>
        <circle cx="1.112" cy="1.103" r="1" transform="translate(19.082 10.663)"/>
        <ellipse cx="20.194" cy="11.766" rx="2.965" ry="2.942"/>
    </g>
</svg>
