<svg width="36" height="36" viewBox="0 0 36 36" xmlns="http://www.w3.org/2000/svg">
    <g fill="#F1EFE3" fill-rule="nonzero">
        <path d="M18 1.8c8.947 0 16.2 7.253 16.2 16.2S26.947 34.2 18 34.2 1.8 26.947 1.8 18 9.053 1.8 18 1.8zm-.01 6.48c-5.964 0-10.814 3.939-10.814 8.778 0 4.334 3.848 7.969 9.042 8.657.354.081.83.233.952.537.111.273.07.699.03.982 0 0-.131.76-.152.921-.05.274-.212 1.074.942.588 1.124-.474 5.962-3.5 8.31-6.07l.185-.208c1.57-1.731 2.318-3.473 2.318-5.407 0-4.84-4.85-8.778-10.813-8.778z"/>
        <path d="M25.209 19.853a.203.203 0 0 0 .202-.203v-.77a.203.203 0 0 0-.202-.202h-2.066v-.8h2.066a.203.203 0 0 0 .202-.202v-.77a.203.203 0 0 0-.202-.202h-2.066v-.8h2.066a.203.203 0 0 0 .202-.202v-.77a.203.203 0 0 0-.202-.202H22.17a.203.203 0 0 0-.202.202v4.708c0 .112.091.203.202.203h3.038v.01zM13.97 19.853a.203.203 0 0 0 .203-.203v-.77a.203.203 0 0 0-.203-.202h-2.065v-3.746a.203.203 0 0 0-.203-.202h-.77a.203.203 0 0 0-.202.202v4.718c0 .112.091.203.203.203h3.037zM15.793 14.72h-.77a.203.203 0 0 0-.202.202v4.718c0 .112.09.203.202.203h.77a.203.203 0 0 0 .202-.203v-4.718c.01-.111-.08-.203-.202-.203zM21.017 14.72h-.77a.203.203 0 0 0-.202.202v2.805L17.89 14.81c0-.01-.01-.01-.02-.02l-.01-.01-.01-.01h-.011l-.01-.011h-.01s-.01 0-.01-.01h-.01s-.01 0-.01-.01h-.841a.203.203 0 0 0-.203.202v4.718c0 .112.092.203.203.203h.77a.203.203 0 0 0 .202-.203v-2.804l2.167 2.916c.01.02.03.04.05.05l.01.01h.051c.02 0 .03.01.05.01h.76a.203.203 0 0 0 .203-.202v-4.718a.189.189 0 0 0-.193-.203z"/>
    </g>
</svg>
