<svg width="75" height="32" viewBox="0 0 75 32" xmlns="http://www.w3.org/2000/svg">
    <g fill="none" fill-rule="evenodd">
        <path fill="#FFF" d="M0 0h75v32H0z"/>
        <path d="M34.102 15.944H31.49v-.42c.506 0 .562-.168.562-.56V9.476c0-.952-.927-1.372-1.854-1.372-.926 0-1.853.42-1.853 1.372v2.408c.112-.28.561-.756.814-.952.281-.224.618-.42 1.067-.42.618 0 .927.336.927.728 0 .336-.28.56-.562.616-.477.084-.561-.392-.926-.392-.73 0-1.348 1.204-1.348 1.68v1.876c0 .392.056.56.561.56V16h-2.611v-.42c.505 0 .561-.168.561-.56V9.588c0-1.26 1.601-1.96 3.342-1.96s3.342.672 3.342 1.96v5.404c0 .392.056.56.562.56v.392h.028zm19.462-.56c0 .364-.281.672-.618.672a.664.664 0 0 1-.674-.672c0-.364.28-.616.702-.616.28 0 .59.308.59.616zm-9.633.672c-.646 0-.983-.364-.983-.756 0-.336.281-.56.59-.644.393-.056.534.224.758.364l-.028-4.256c0-.476.899-.42.843-.728-.056-.252-.927-.224-.927-.224 0-1.372 1.713-2.184 3.398-2.184 1.713 0 3.342.644 3.342 2.184v5.152c0 .392.056.56.562.56v.42h-2.612v-.42c.505 0 .562-.168.562-.56V9.588c0-.868-.646-1.484-1.854-1.484-1.208 0-1.853.616-1.853 1.484v4.9c-.14 1.68-1.798 1.568-1.798 1.568zm-8.144-7.504c-.225.112-.365.42-.758.364-.31-.056-.59-.28-.59-.616 0-.364.309-.7.899-.728 0 0 1.965-.252 1.91 1.764l.027 4.872c0 .952.899 1.372 1.854 1.372.955 0 1.853-.42 1.853-1.372V6.032c0-.392-.056-.56-.561-.56V5.08h2.611v.42c-.505 0-.561.168-.561.56v8.064c0 1.26-1.545 1.96-3.342 1.96-1.797 0-3.342-.672-3.342-1.96V8.552z" fill="#184E84" fill-rule="nonzero"/>
        <g fill="#184E84">
            <path d="M27.446 22.804v1.176h.225v-1.176c-.028-.7-1.292-.616-1.292.056h.225s-.085.028-.085.14v.98h.225V23s0-.14.112-.14h.14v-.14h-.448c.112-.392.898-.42.898.084zM28.907 23.952v-1.316c0-.28-.169-.364-.45-.364-.253 0-.393.168-.421.196v.112s.168-.196.393-.168c.197 0 .253.084.253.252v1.316h.225v-.028zM30.198 22.888c0-.084-.112-.14-.14-.14l-.618-.14c.056-.14.14-.196.534-.084 0 0 .28.084.365-.196 0-.056-.028-.056-.056-.028-.113.112-.365-.056-.59-.056-.31 0-.421.364-.45.42l.618.14c.057 0 .085.056.057.112v.56c0-.028-.057-.028-.113-.028-.337 0-.365.476.028.476.365 0 .337-.252.337-.28v-.756h.028zm-.337.7c.085 0 .14.056.14.112s-.055.112-.112.14c-.056 0-.14-.056-.14-.112-.028-.084.028-.14.112-.14zM30.872 22.412c.085 0 .14.056.14.112s-.055.14-.112.14c-.084 0-.14-.056-.14-.112-.028-.084.028-.14.112-.14zm.983 1.232c0 .112-.084.168-.196.168h-.45v-1.26c0-.028.028-.28-.337-.28-.393 0-.365.476-.028.476.028 0 .085 0 .113-.028v1.12h-.14v.14h.982c.225 0 .309-.168.309-.28v-2.38h-.225l-.028 2.324zM33.344 22.888c0-.084-.113-.14-.14-.14l-.619-.14c.057-.14.14-.196.534-.084 0 0 .28.084.365-.196 0-.056-.028-.056-.056-.028-.112.112-.365-.056-.59-.056-.309 0-.421.364-.45.42l.619.14c.056 0 .084.056.056.112v.56c0-.028-.056-.028-.112-.028-.337 0-.366.476 0 .476.365 0 .337-.252.337-.28v-.756h.056zm-.337.7c.084 0 .14.056.14.112s-.056.112-.112.14c-.056 0-.14-.056-.14-.112 0-.084.056-.14.112-.14zM34.102 22.412c-.309 0-.253.28-.253.28.028.196.337.224.337.224.337.028.674-.084.73-.504h-.168s0 .364-.45.364c0 0 .057-.056.029-.196 0-.112-.085-.168-.225-.168zm0 .98c-.309 0-.253.28-.253.28.028.196.337.224.337.224.337.028.674-.084.73-.504h-.168s0 .364-.45.364c0 0 .057-.056.029-.196 0-.112-.085-.168-.225-.168zm0 .084c.084 0 .14.056.14.112s-.056.14-.14.14c-.056 0-.14-.056-.14-.112a.338.338 0 0 1 .14-.14zm0-.98c.056 0 .14.056.14.112s-.056.14-.14.14c-.056 0-.14-.056-.14-.112s.056-.14.14-.14zM36.32 22.804v1.176h.225v-1.176c-.028-.7-1.292-.616-1.292.056h.225s-.084.028-.084.14v.98h.224V23s0-.14.113-.14h.14v-.14h-.477c.14-.392.927-.42.927.084zM37.528 22.272c-.393 0-.562.308-.562.308l.085.056c.028 0 .14-.224.477-.224.337 0 .393.196.393.224 0 0 .028.084.028.14v.84c0 .336-.617.336-.617 0v-.504c.42.112.477-.42.112-.448a.316.316 0 0 0-.337.308v.588c0 .364.365.42.562.42.14 0 .533-.084.533-.42v-.812c0-.168-.028-.224-.028-.224-.084-.028-.225-.252-.646-.252zm-.14.504c.084 0 .14.056.14.112s-.056.14-.112.14c-.084 0-.14-.056-.14-.112 0-.084.056-.14.112-.14zM38.82 22.384c.056 0 .14.056.14.112s-.056.14-.112.14-.14-.056-.14-.112c-.028-.056.028-.112.112-.14zm1.18-.112h-.253v1.344c0 .14-.084.196-.169.196h-.45v-1.26c0-.028.029-.28-.336-.28-.393 0-.365.476-.028.476.028 0 .084 0 .112-.028v1.12h-.14v.14h.955c.224 0 .309-.084.309-.28v-1.428zM41.01 23.84h-.196v-.952h-.225v.952h-.112v.14h.702c.309 0 .337-.14.337-.336v-.7c0-.084-.084-.14-.14-.14l-.787-.196c.056-.14.169-.168.59-.056 0 0 .337.112.421-.196.028-.056-.028-.056-.028-.028-.112.14-.477-.028-.674-.028-.337 0-.421.336-.45.42l.787.196c.056.028.056.056.056.112v.672c-.084.084-.14.14-.28.14zM41.507 24.66v.455h.461v-.662c-.05-.248-.256-.372-.615-.33-.513.04-.513.62 0 .62.103-.042.103-.083.154-.083zm-.205-.124c-.257 0-.257-.29 0-.29.307 0 .307.29 0 .29zM42.78 22.888c0-.084-.113-.14-.14-.14l-.618-.14c.056-.14.14-.196.533-.084 0 0 .28.084.365-.196 0-.056-.028-.056-.056-.028-.112.112-.365-.056-.59-.056-.309 0-.421.364-.45.42l.619.14c.056 0 .084.056.056.112v.56c0-.028-.056-.028-.112-.028-.337 0-.365.476 0 .476s.337-.252.337-.28v-.756h.056zm-.337.7c.084 0 .14.056.14.112s-.056.112-.112.14c-.056 0-.14-.056-.14-.112 0-.084.028-.14.112-.14zM44.268 22.804v1.176h.225v-1.176c-.028-.7-1.292-.616-1.292.056h.225s-.085.028-.085.14v.98h.225V23s0-.14.112-.14h.14v-.14h-.477c.14-.392.927-.42.927.084z"/>
            <path d="M43.931 21.517c-.309-.041-.59.29-.646.664 0 0 .281-.083.618 0 .253.042.674.333.674.333 0-.623-.28-.955-.646-.997zm.506.706s-.225-.166-.506-.208c-.168-.041-.45 0-.45 0 .085-.166.254-.29.45-.249a.605.605 0 0 1 .506.457zM46.178 22.776c0-.308-.253-.504-.646-.504-.337 0-.562.252-.59.392l.113.056a.593.593 0 0 1 .505-.28c.225 0 .393.14.393.308v.98c0 .056-.056.112-.112.112-.084 0-.112-.056-.112-.112v-.812c0-.14-.057-.252-.31-.252-.14 0-.252.084-.252.196 0 .14.084.252.253.252h.084v.56c0 .168.168.308.365.308.225 0 .365-.14.365-.308v-.896h-.056zm-.786 0c.084 0 .14.056.14.112s-.056.14-.112.14c-.085 0-.14-.056-.14-.112-.029-.084.027-.14.112-.14zM46.824 22.412c.084 0 .14.056.14.112s-.056.14-.112.14c-.084 0-.14-.056-.14-.112-.029-.084.028-.14.112-.14zm.983 1.232c0 .112-.085.168-.197.168h-.45v-1.26c0-.028.029-.28-.336-.28-.393 0-.365.476-.028.476.028 0 .084 0 .112-.028v1.12h-.14v.14h.983c.224 0 .308-.168.308-.28v-2.38h-.224l-.028 2.324zM49.295 22.888c0-.084-.112-.14-.14-.14l-.618-.14c.056-.14.14-.196.533-.084 0 0 .281.084.366-.196 0-.056-.029-.056-.057-.028-.112.112-.365-.056-.59-.056-.308 0-.42.364-.449.42l.618.14c.056 0 .084.056.056.112v.56c-.028-.028-.056-.028-.112-.028-.337 0-.365.476 0 .476s.337-.252.337-.28v-.756h.056zm-.337.7c.084 0 .14.056.14.112s-.056.112-.112.14c-.056 0-.14-.056-.14-.112 0-.084.056-.14.112-.14zM50.053 22.412c-.309 0-.252.28-.252.28.028.196.337.224.337.224.337.028.674-.084.73-.504h-.169s0 .364-.449.364c0 0 .056-.056.028-.196 0-.112-.084-.168-.225-.168zm0 .98c-.309 0-.252.28-.252.28.028.196.337.224.337.224.337.028.674-.084.73-.504h-.169s0 .364-.449.364c0 0 .056-.056.028-.196 0-.112-.084-.168-.225-.168zm0 .084c.085 0 .14.056.14.112s-.055.14-.14.14c-.056 0-.14-.056-.14-.112a.338.338 0 0 1 .14-.14zm0-.98c.057 0 .14.056.14.112s-.055.14-.14.14c-.056 0-.14-.056-.14-.112s.056-.14.14-.14zM52.272 22.804v1.176h.225v-1.176c-.028-.7-1.292-.616-1.292.056h.224s-.084.028-.084.14v.98h.225V23s0-.14.112-.14h.14v-.14h-.477c.14-.392.927-.42.927.084z"/>
            <path d="M52.16 21.619c-.281 0-.225.515-.225.515.028.36.309.36.309.36.309.103.73-.154.786-.978h-.168s0 .721-.45.721c0 0 .057-.103.029-.309-.057-.206-.14-.309-.281-.309zm0 .154c.056 0 .14.103.14.206s-.056.258-.112.258c-.085 0-.14-.103-.14-.206s.055-.206.112-.258zM54.266 23.868c-.14 0-.14-.224 0-.224.168 0 .168.224 0 .224zm-1.067-1.484c.056 0 .14.056.14.112s-.056.14-.112.14-.14-.056-.14-.112.056-.14.112-.14zm1.207-.112h-.252v1.204c-.45-.028-.618.224-.618.224v-1.176c0-.028.028-.28-.337-.28-.393 0-.365.504-.028.476.028 0 .084 0 .112-.028v1.204h.225s.14-.336.533-.336c0 0-.056.084-.028.196s.113.168.225.168c.309 0 .337-.392.084-.448l.056-.056v-1.148h.028zM55.08 23.504c-.337 0-.337.448 0 .448.14 0 .253-.084.253-.224v-.784s0-.14.112-.14h.113v-.14h-.506c.113-.364.899-.42.899.084v1.176h.253V22.72c-.056-.7-1.292-.616-1.292.056h.253s-.085.028-.085.14v.588zm-.028.112c.056 0 .14.056.14.112s-.055.14-.112.14c-.084 0-.14-.056-.14-.112 0-.084.056-.14.112-.14z"/>
            <path d="M55.839 21.619c-.281 0-.225.515-.225.515.028.36.309.36.309.36.309.103.73-.154.786-.978h-.168s0 .721-.45.721c0 0 .057-.103.028-.309-.056-.206-.168-.309-.28-.309zm0 .154c.056 0 .14.103.14.206s-.056.258-.112.258c-.085 0-.14-.103-.14-.206-.029-.103.027-.206.112-.258zM57.074 22.384c.056 0 .14.056.14.112s-.055.14-.112.14c-.056 0-.14-.056-.14-.112s.056-.112.112-.14zm.787-.112h-.225v1.26c0 .168-.084.308-.309.28-.168 0-.309-.112-.309-.252v-.308c0-.084.056-.196.169-.196h.112v-.14h-.14c-.113 0-.197-.112-.197-.224 0 0 .056.056.168.056.337 0 .337-.476 0-.476-.196 0-.308.112-.337.252-.056.112-.028.224 0 .336a.287.287 0 0 0 .169.14c-.056.028-.14.084-.169.252v.28c0 .28.253.448.562.448.309 0 .534-.196.534-.476v-1.232h-.028zM59.209 24.512c-.534-.392-.59-.896-.59-1.456 0-.532.112-1.008.59-1.316l-.028-.056c-.562.336-.871.812-.871 1.4 0 .728.393 1.204.842 1.484l.057-.056zM59.546 22.776c0-.168.196-.364.477-.364.253 0 .45.084.45.392v1.148h.252v-1.148c0-.392-.337-.532-.702-.532-.309 0-.618.224-.618.504 0 .252.169.364.169.476v.7h.224v-.7c0-.028 0-.14.028-.168 0 0 .057.056.169.056.337.028.365-.448 0-.448-.28 0-.337.224-.365.336.056-.028-.084-.056-.084-.252zm.505 0c.084 0 .14.056.14.112s-.056.14-.112.14c-.084 0-.14-.056-.14-.112-.028-.084.028-.14.112-.14zM61.371 22.412c.084 0 .14.056.14.112s-.056.14-.112.14c-.084 0-.14-.056-.14-.112-.028-.084.028-.14.112-.14zm.983 1.232c0 .112-.084.168-.197.168h-.449v-1.26c0-.028.028-.28-.337-.28-.393 0-.365.476-.028.476.028 0 .084 0 .112-.028v1.12h-.14v.14h.983c.224 0 .309-.168.309-.28v-2.38h-.225l-.028 2.324zM63.196 23.504c-.337 0-.337.448 0 .448.14 0 .253-.084.253-.224v-.784s0-.14.113-.14h.112v-.14h-.506c.113-.364.9-.42.9.084v1.176h.252V22.72c-.056-.7-1.292-.616-1.292.056h.253s-.085.028-.085.14v.588zm0 .112c.057 0 .14.056.14.112s-.055.14-.111.14c-.085 0-.14-.056-.14-.112-.029-.084.027-.14.111-.14zM65.05 23.616a.192.192 0 0 0-.197.196c0 .084.085.196.197.196a.192.192 0 0 0 .197-.196.192.192 0 0 0-.197-.196zM65.668 24.568c.505-.28.842-.812.842-1.372 0-.952-.702-1.456-.842-1.512l-.028.056c.505.364.59.896.59 1.456 0 .532-.113 1.008-.59 1.316l.028.056z"/>
            <g>
                <path d="M27.446 19.164s-.168-.112-.45-.112a.769.769 0 0 0-.645.364l.084.056a.552.552 0 0 1 .478-.252c.308 0 .393.112.393.112-.028 0-.113.112-.31.112-.308 0-.505.196-.505.42v.588c0 .112.085.308.337.308.365 0 .31-.56-.112-.448v-.42c0-.14.112-.28.309-.28.196 0 .337.112.337.28v.84h.225v-1.204a.43.43 0 0 0-.057-.224c.169-.168.169-.392.169-.392h-.197c.028-.028.028.112-.056.252zm-.225.308s.085 0 .14-.056c0 0 .029.056.029.168 0-.028-.084-.084-.169-.112zm-.393.896c.085 0 .14.056.14.112s-.055.14-.112.14c-.084 0-.14-.056-.14-.112-.028-.084.028-.14.112-.14zM27.362 18.856c.365 0 .365-.532 0-.532s-.365.532 0 .532zm1.488 1.876v-1.316c0-.28-.168-.364-.477-.364-.253 0-.393.168-.421.196v.112s.168-.168.393-.168c.196 0 .253.084.253.252v1.288h.252zm-1.488-2.268c.056 0 .14.056.14.112s-.056.14-.112.14c-.084 0-.14-.056-.14-.112 0-.084.056-.14.112-.14zM30.535 20.62c-.14 0-.14-.224 0-.224.197 0 .197.224 0 .224zm-1.039-1.484c.056 0 .14.056.14.112s-.055.14-.112.14c-.056 0-.14-.056-.14-.112-.028-.056.028-.112.112-.14zm1.18-.084h-.253v1.204c-.45-.028-.618.224-.618.224v-1.176c0-.028.028-.28-.337-.28-.393 0-.365.504-.028.476.028 0 .084 0 .112-.028v1.204h.225s.14-.336.534-.336c0 0-.056.084-.028.196s.112.168.224.168c.31 0 .337-.392.085-.448l.056-.056v-1.148h.028z"/>
                <path d="M30.367 18.371c-.281 0-.225.515-.225.515.028.36.31.36.31.36.308.103.73-.154.785-.978h-.196s0 .721-.45.721c0 0 .057-.103.029-.309-.028-.155-.113-.309-.253-.309zm0 .206c.056 0 .14.103.14.206s-.056.257-.112.257c-.084 0-.14-.103-.14-.206-.029-.154.056-.257.112-.257zM32.22 19.556v1.176h.225v-1.176c-.028-.7-1.292-.616-1.292.056h.225s-.084.028-.084.14v.98h.224v-.98s0-.14.113-.14h.14v-.14h-.45c.113-.392.9-.42.9.084zM33.865 19.332c0-.028.03-.28-.353-.28-.382 0-.382.476 0 .476.03 0 .088 0 .118-.028v.952l-.736-.616v.168l.736.7h.264c-.03.028-.03-1.372-.03-1.372zm-.324-.168c.089 0 .147.056.147.112s-.058.14-.117.14c-.088 0-.147-.056-.147-.112-.03-.084.03-.14.117-.14zM35.057 20.732v-1.316c0-.28-.169-.364-.45-.364-.252 0-.393.168-.42.196v.112s.168-.196.392-.168c.197 0 .253.084.253.252v1.316h.225v-.028zM36.77 20.62c-.14 0-.14-.224 0-.224.168 0 .168.224 0 .224zm-1.067-1.484c.056 0 .14.056.14.112s-.056.14-.112.14-.14-.056-.14-.112.056-.112.112-.14zm1.207-.084h-.252v1.204c-.45-.028-.618.224-.618.224v-1.176c0-.028.028-.28-.337-.28-.393 0-.365.504-.028.476.028 0 .084 0 .112-.028v1.204h.225s.14-.336.533-.336c0 0-.056.084-.028.196s.112.168.225.168c.309 0 .337-.392.084-.448l.056-.056v-1.148h.028zM37.444 19.528c0-.168.196-.364.477-.364.253 0 .45.084.45.392v1.148h.252v-1.148c0-.392-.337-.532-.702-.532-.309 0-.618.224-.618.504 0 .252.169.364.169.476v.7h.225v-.7c0-.028 0-.14.028-.168 0 0 .056.056.168.056.337.028.365-.448 0-.448-.28 0-.337.224-.365.336.028 0-.084-.028-.084-.252zm.477 0c.085 0 .14.056.14.112s-.055.14-.112.14c-.084 0-.14-.056-.14-.112-.028-.056.056-.112.112-.14zM40.73 20.62c-.169 0-.169-.224 0-.224.168 0 .168.224 0 .224zm-1.264-.252c.056 0 .14.056.14.112s-.056.14-.112.14-.14-.056-.14-.112c-.029-.056.028-.112.112-.14zm1.376-1.316h-.253v1.204c-.28 0-.393.168-.393.168v-.896c-.028-.7-1.208-.616-1.208.056h.225s-.084.028-.084.14v.7c0 .112.056.336.337.308.365 0 .309-.56-.112-.448v-.588s0-.112.112-.112h.14v-.14h-.477c.112-.364.814-.42.842.084v1.176h.225s.084-.308.309-.336c0 0-.084.084-.028.196.028.112.112.168.225.168.308 0 .308-.392.056-.448 0 0 .056 0 .056-.056v-1.176h.028zM41.572 19.164c-.309 0-.253.28-.253.28.028.196.337.224.337.224.337.028.674-.084.73-.504h-.168s0 .364-.45.364c0 0 .057-.056.029-.196 0-.112-.084-.168-.225-.168zm0 .98c-.309 0-.253.28-.253.28.028.196.337.224.337.224.337.028.674-.084.73-.504h-.168s0 .364-.45.364c0 0 .057-.056.029-.196 0-.084-.084-.168-.225-.168zm0 .112c.084 0 .14.056.14.112s-.056.14-.14.14c-.056 0-.14-.056-.14-.112.028-.084.084-.14.14-.14zm0-.98c.056 0 .14.056.14.112s-.056.14-.14.14c-.056 0-.14-.056-.14-.112 0-.084.056-.14.14-.14zM43.79 19.556v1.176h.225v-1.176c-.028-.7-1.291-.616-1.291.056h.224s-.084.028-.084.14v.98h.225v-.98s0-.14.112-.14h.14v-.14h-.477c.14-.392.927-.42.927.084zM45.307 19.64c0-.084-.112-.14-.14-.14l-.618-.14c.056-.14.14-.196.534-.084 0 0 .28.084.365-.196 0-.056-.028-.056-.056-.028-.113.112-.366-.056-.59-.056-.31 0-.421.364-.45.42l.618.14c.056 0 .085.056.056.112v.56c-.028-.028-.056-.028-.112-.028-.337 0-.365.476 0 .476s.337-.252.337-.28v-.756h.056zm-.337.7c.085 0 .14.056.14.112s-.055.112-.112.14c-.056 0-.14-.056-.14-.112s.056-.112.112-.14zM46.627 19.64c0-.084-.112-.14-.14-.14l-.618-.14c.056-.14.14-.196.534-.084 0 0 .28.084.365-.196 0-.056-.028-.056-.057-.028-.112.112-.365-.056-.59-.056-.308 0-.42.364-.449.42l.618.14c.056 0 .084.056.056.112v.56c0-.028-.056-.028-.112-.028-.337 0-.365.476 0 .476s.337-.252.337-.28v-.756h.056zm-.337.7c.084 0 .14.056.14.112s-.056.112-.112.14c-.056 0-.14-.056-.14-.112s.056-.112.112-.14zM47.414 20.536c0 .056-.057.056-.085.056-.084-.056-.084-.308.085-.28v.224zm-.113-1.372c.056 0 .14.056.14.112s-.056.14-.112.14c-.084 0-.14-.056-.14-.112-.028-.084.028-.14.112-.14zm1.152-.112h-.225v1.428c-.197-.224-.562-.308-.562-.308v-.868c0-.028.028-.28-.337-.28-.393 0-.365.476-.028.476.028 0 .084 0 .113-.028v.644c-.394 0-.422.588 0 .588.252 0 .252-.14.252-.392 0 0 .365.056.562.392h.253v-1.652h-.028zM49.913 19.556v1.176h.225v-1.176c-.028-.7-1.292-.616-1.292.056h.224s-.084.028-.084.14v.98h.225v-.98s0-.14.112-.14h.14v-.14h-.449c.113-.392.899-.42.899.084zM51.373 20.732v-1.316c0-.28-.168-.364-.449-.364-.253 0-.393.168-.421.196v.112s.168-.196.393-.168c.196 0 .253.084.253.252v1.316h.224v-.028zM52.665 19.64c0-.084-.112-.14-.14-.14l-.618-.14c.056-.14.14-.196.533-.084 0 0 .281.084.366-.196 0-.056-.029-.056-.057-.028-.112.112-.365-.056-.59-.056-.308 0-.42.364-.449.42l.618.14c.056 0 .084.056.056.112v.56c0-.028-.056-.028-.112-.028-.337 0-.365.476 0 .476s.337-.252.337-.28v-.756h.056zm-.337.7c.084 0 .14.056.14.112s-.056.112-.112.14c-.056 0-.14-.056-.14-.112s.056-.112.112-.14zM54.154 19.556v1.176h.224v-1.176c-.028-.7-1.292-.616-1.292.056h.225s-.084.028-.084.14v.98h.224v-.98s0-.14.113-.14h.14v-.14h-.477c.14-.392.927-.42.927.084zM54.154 18.856c.365 0 .365-.532 0-.532-.366 0-.366.532 0 .532zm1.46 1.876v-1.316c0-.28-.169-.364-.477-.364-.253 0-.394.168-.422.196v.112s.169-.168.393-.168c.197 0 .253.084.253.252v1.288h.253zm-1.46-2.268c.056 0 .14.056.14.112s-.056.14-.112.14c-.085 0-.14-.056-.14-.112-.029-.084.027-.14.112-.14zM57.074 19.556v1.176h.225v-1.176c-.028-.7-1.292-.616-1.292.056h.225s-.084.028-.084.14v.98h.224v-.98s0-.14.113-.14h.14v-.14h-.477c.14-.392.926-.42.926.084z"/>
                <path d="M56.962 18.371c-.28 0-.225.515-.225.515.028.36.31.36.31.36.308.103.73-.154.786-.978h-.169s0 .721-.45.721c0 0 .057-.103.029-.309-.056-.155-.14-.309-.281-.309zm0 .206c.056 0 .14.103.14.206s-.056.257-.112.257c-.084 0-.14-.103-.14-.206 0-.154.056-.257.112-.257zM58.001 19.164c.056 0 .14.056.14.112s-.056.14-.112.14-.14-.056-.14-.112c0-.084.056-.14.112-.14zm1.208-.112h-.253v1.344c0 .14-.084.196-.169.196h-.449v-1.26c0-.028.028-.28-.337-.28-.393 0-.365.476-.028.476.028 0 .084 0 .112-.028v1.092h-.14v.14h.955c.224 0 .309-.084.309-.28v-1.4zM59.995 19.052h-.225v1.4c0 .14.113.308.31.308.336 0 .336-.448 0-.448h-.057v-1.26h-.028zm.758 0h-.224v1.4c0 .14.112.308.308.308.337 0 .31-.448 0-.448h-.056v-1.26h-.028zm-.702 1.316c.084 0 .14.056.14.112s-.056.14-.112.14c-.084 0-.14-.056-.14-.112-.028-.056.028-.112.112-.14zm.786.028c.057 0 .14.056.14.112s-.055.14-.111.14c-.057 0-.14-.056-.14-.112-.029-.084.027-.14.111-.14zM62.326 19.556s-.14-.14-.393-.14c-.31 0-.506.196-.506.42v.588c0 .112.084.308.337.308.365 0 .31-.56-.112-.448v-.448c0-.14.112-.28.309-.28.196 0 .337.112.337.28v.868h.224v-1.232c.057-.476-.87-.7-1.291-.112l.084.056a.552.552 0 0 1 .477-.252c.281.028.562.084.534.392zm-.562.812c.084 0 .14.056.14.112s-.056.14-.112.14c-.084 0-.14-.056-.14-.112-.028-.056.028-.112.112-.14zM63.28 19.164c-.308 0-.252.28-.252.28.028.196.337.224.337.224.337.028.674-.084.73-.504h-.168s0 .364-.45.364c0 0 .056-.056.028-.196 0-.112-.084-.168-.224-.168zm0 .98c-.308 0-.252.28-.252.28.028.196.337.224.337.224.337.028.674-.084.73-.504h-.168s0 .364-.45.364c0 0 .056-.056.028-.196 0-.084-.084-.168-.224-.168zm0 .112c.085 0 .141.056.141.112s-.056.14-.14.14c-.056 0-.14-.056-.14-.112.027-.084.084-.14.14-.14zm0-.98c.057 0 .141.056.141.112s-.056.14-.14.14c-.056 0-.14-.056-.14-.112 0-.084.055-.14.14-.14zM65.5 19.164s-.17-.112-.45-.112a.769.769 0 0 0-.646.364l.084.056a.552.552 0 0 1 .478-.252c.309 0 .393.112.393.112-.028 0-.112.112-.309.112-.309 0-.506.196-.506.42v.588c0 .112.085.308.337.308.366 0 .31-.56-.112-.448v-.42c0-.14.112-.28.31-.28.196 0 .336.112.336.28v.84h.225v-1.204c0-.14-.056-.224-.056-.224.168-.168.168-.392.168-.392h-.168c0-.028.028.112-.085.252zm-.225.308s.084 0 .14-.056c0 0 .028.056.028.168 0-.028-.056-.084-.168-.112zm-.394.896c.085 0 .14.056.14.112s-.055.14-.111.14c-.085 0-.14-.056-.14-.112-.029-.084.027-.14.111-.14zM65.527 18.856h.197l.028-.644h-.28zM67.144 19.332c0-.028.03-.28-.353-.28-.382 0-.382.476 0 .476.03 0 .088 0 .118-.028v.952l-.736-.616v.168l.736.7h.264c-.03.028-.03-1.372-.03-1.372zm-.353-.168c.088 0 .147.056.147.112s-.059.14-.118.14c-.088 0-.147-.056-.147-.112-.03-.084.03-.14.118-.14zM68.062 19.052h-.4v1.4c0 .14.2.308.55.308.6 0 .6-.448 0-.448h-.1v-1.26h-.05zm.1 1.316c.15 0 .25.056.25.112s-.1.14-.2.14-.25-.056-.25-.112c-.05-.056.05-.14.2-.14z"/>
                <path d="M69.515 19.164s-.168-.112-.45-.112a.769.769 0 0 0-.645.364l.084.056a.552.552 0 0 1 .478-.252c.309 0 .393.112.393.112-.028 0-.112.112-.31.112-.308 0-.505.196-.505.42v.588c0 .112.085.308.337.308.366 0 .31-.56-.112-.448v-.42c0-.14.112-.28.309-.28s.337.112.337.28v.84h.225v-1.204c0-.14-.056-.224-.056-.224.168-.168.168-.392.168-.392h-.197c.029-.028.057.112-.056.252zm-.224.308s.084 0 .14-.056c0 0 .028.056.028.168 0-.028-.056-.084-.168-.112zm-.394.896c.085 0 .14.056.14.112s-.055.14-.111.14c-.085 0-.14-.056-.14-.112-.029-.084.027-.14.111-.14zM70.976 19.64c0-.084-.113-.14-.14-.14l-.619-.14c.057-.14.14-.196.534-.084 0 0 .28.084.365-.196 0-.056-.028-.056-.056-.028-.112.112-.365-.056-.59-.056-.309 0-.421.364-.45.42l.619.14c.056 0 .084.056.056.112v.56c0-.028-.056-.028-.113-.028-.337 0-.365.476 0 .476.366 0 .337-.252.337-.28v-.756h.057zm-.337.7c.084 0 .14.056.14.112s-.056.112-.112.14c-.056 0-.14-.056-.14-.112s.055-.112.112-.14z"/>
                <path d="M70.442 18.27c-.309-.042-.59.29-.646.663 0 0 .28-.083.618 0 .253.042.674.333.674.333 0-.582-.28-.955-.646-.997zm.506.747s-.225-.167-.506-.208c-.168-.042-.45 0-.45 0 .085-.166.253-.29.45-.25.225 0 .421.125.506.458zM71.818 20.536c0 .056-.056.056-.084.056-.084-.056-.084-.308.084-.28v.224zm-.112-1.372c.056 0 .14.056.14.112s-.056.14-.112.14c-.084 0-.14-.056-.14-.112-.029-.084.028-.14.112-.14zm1.151-.112h-.253v1.428c-.196-.224-.561-.308-.561-.308v-.868c0-.028.028-.28-.337-.28-.393 0-.365.476-.028.476.028 0 .084 0 .112-.028v.644c-.393 0-.421.588 0 .588.253 0 .253-.14.253-.392 0 0 .365.056.561.392h.253v-1.652z"/>
            </g>
        </g>
        <path fill="#FFF" d="M2.143 16 12.646 4.8 23.121 16 12.646 27.2z"/>
        <path d="m2.845 16 9.801-10.444L22.42 16l-9.773 10.444z" fill="#184E84"/>
        <path d="m12.646 26.192.393-10.22h-.28l-.113 10.22zm.646-10.22-.674 10.22.955-10.22h-.28zm-.646 10.22L12 15.972h-.309l.955 10.22zm-.421-10.22.393 10.22-.112-10.22h-.281zm.421 10.22-1.207-10.22 1.207-10.108 1.208 10.108-1.208 10.22zm0-20.468L4.614 15.972h-.196l8.228-10.248 8.2 10.248h-.224L12.646 5.724l6.937 10.248h-.197l-6.74-10.248 5.785 10.248h-.196L12.646 5.724l4.662 10.248h-.197L12.646 5.724l3.51 10.248h-.196L12.646 5.724l2.387 10.248h-.196l-2.19-10.248-2.163 10.248h-.225l2.387-10.248-3.314 10.248h-.196l3.51-10.248-4.465 10.248h-.197l4.662-10.248-5.588 10.248H6.86l5.785-10.248-6.74 10.248H5.71l6.936-10.248z" fill="#EFD395" fill-rule="nonzero"/>
    </g>
</svg>
