<svg width="88" height="88" viewBox="0 0 88 88" xmlns="http://www.w3.org/2000/svg">
    <defs>
        <linearGradient x1="100%" y1="50%" x2="0%" y2="50%" id="tj84bygu1a">
            <stop stop-color="#005348" offset="0%"/>
            <stop stop-color="#00C2DB" offset="100%"/>
        </linearGradient>
    </defs>
    <g fill="none" fill-rule="evenodd">
        <path d="M34.135 62.172h-7.578a3.46 3.46 0 0 1-2.439-.997 3.422 3.422 0 0 1-1.018-2.43v-.703c0-.581.15-1.154.435-1.664 3.033-5.42 6.536-10.096 11.684-13.672l.186-.13a22.483 22.483 0 0 1 4.554-2.438m7.924-.02c1.717.163 3.679.978 5.885 2.445 2.518 1.65 4.45 3.453 5.573 6.209.767 1.865 1.16 4.588 1.159 6.599v12.676M53.02 32.953c1.033 0 1.87-1.145 1.87-2.559 0-1.413-.837-2.558-1.87-2.558M35.068 27.836c-1.033 0-1.87 1.145-1.87 2.558 0 1.414.837 2.56 1.87 2.56" stroke="#FFF" stroke-width=".715" stroke-linecap="round"/>
        <path d="M43.872 57.914c5.27-4.567 8.194-9.856 8.774-15.868M39.959 62.172l-4.933-19.324c-1.363.96-3.467 3.077-4.702 4.193l2.788 15.131h6.847zM54.89 55.618v12.428M33.156 62.454v5.592" stroke="#FFF" stroke-width=".715" stroke-linecap="round"/>
        <path d="m11.925 12.794 17.621-6.462C28.251 2.11 25.34 0 20.812 0c-3.258 0-5.903 1.491-7.934 4.474-.803 1.352-1.193 2.45-1.173 3.293.021.843.094 2.52.22 5.027z" fill="url(#tj84bygu1a)" transform="translate(23.1 17.6)"/>
        <path d="M44.044 17.6a9.122 9.122 0 0 1 9.103 9.704l-.35 5.48a8.77 8.77 0 0 1-17.506 0l-.35-5.48a9.122 9.122 0 0 1 9.103-9.704zM35.442 30.394l17.204-6.58M37.094 20.987l4.512 2.945M43.022 57.294a2.951 2.951 0 0 0-2.097-.87h-2.433c.064.279.553 2.195 1.467 5.748h.99c1.614 0 2.922-1.28 2.923-2.861a2.83 2.83 0 0 0-.824-1.992l-.026-.025z" stroke="#FFF" stroke-width=".715" stroke-linecap="round"/>
        <path d="M41.8 34.781c1.503.975 2.999.975 4.488 0M34.975 26.293l16.022-5.437" stroke="#FFF" stroke-width=".715" stroke-linecap="round"/>
    </g>
</svg>
