<?xml version="1.0" encoding="UTF-8"?>
<svg width="92px" height="92px" viewBox="0 0 92 92" version="1.1" xmlns="http://www.w3.org/2000/svg" xmlns:xlink="http://www.w3.org/1999/xlink">
    <title>image/logo/insurance/allianz-ayudhya</title>
    <defs>
        <polygon id="path-1" points="0 0 11.0443067 0 11.0443067 7.37682766 0 7.37682766"></polygon>
        <polygon id="path-3" points="0 0 11.0442899 0 11.0442899 7.37682766 0 7.37682766"></polygon>
    </defs>
    <g id="Symbols" stroke="none" stroke-width="1" fill="none" fill-rule="evenodd">
        <g id="image/logo/insurance/allianz-ayudhya">
            <rect id="Mask" stroke="#EBEBEB" fill="#FFFFFF" x="0.5" y="0.5" width="91" height="91" rx="12"></rect>
            <g id="Group" transform="translate(6.000000, 6.000000)">
                <g id="Group-33" transform="translate(6.240000, 29.120000)">
                    <path d="M13.02076,6.06933219 L11.3751787,6.06933219 L12.2480508,3.2287883 L13.02076,6.06933219 Z M10.5228743,9.20271737 L11.0853919,7.33591674 L13.3010154,7.33591674 L13.824237,9.20271737 L15.8831784,9.20271737 L13.8397882,2.07980801 C13.7229036,1.66167808 13.4658913,1.46305383 13.02076,1.46305383 L10.1126913,1.46305383 L10.1126913,2.13894425 L10.3598378,2.13894425 C10.6614971,2.13894425 10.8263729,2.25454389 10.8263729,2.48691254 C10.8263729,2.6369248 10.7910902,2.76388395 10.6743728,3.1130216 L8.63148422,9.20271737 L10.5228743,9.20271737 Z" id="Fill-1" fill="#005496"></path>
                    <path d="M18.4478003,9.20278419 L18.4478003,2.05598647 C18.4478003,1.6834616 18.2238969,1.46312066 17.8637118,1.46312066 L16.0641238,1.46312066 L16.0641238,2.13884402 L16.1835166,2.13884402 C16.4843398,2.13884402 16.6137657,2.26379855 16.6137657,2.56699704 L16.6137657,9.20278419 L18.4478003,9.20278419 Z" id="Fill-3" fill="#005496"></path>
                    <path d="M21.686139,9.20278419 L21.686139,2.05598647 C21.686139,1.6834616 21.4629045,1.46312066 21.1010472,1.46312066 L19.3027969,1.46312066 L19.3027969,2.13884402 L19.420852,2.13884402 C19.7243507,2.13884402 19.8511011,2.26379855 19.8511011,2.56699704 L19.8511011,9.20278419 L21.686139,9.20278419 Z" id="Fill-5" fill="#005496"></path>
                    <path d="M24.7602206,2.17018288 C24.7602206,1.64914922 24.3746185,1.337097 23.7085937,1.337097 C23.0561134,1.337097 22.6578029,1.64914922 22.6578029,2.17018288 C22.6578029,2.69656219 23.0561134,3.00878146 23.7085937,3.00878146 C24.3746185,3.00878146 24.7602206,2.69656219 24.7602206,2.17018288 L24.7602206,2.17018288 Z M24.7236001,9.20271737 L24.7236001,3.99355012 C24.7236001,3.62236166 24.5023722,3.40319008 24.1400132,3.40319008 L22.3653405,3.40319008 L22.3653405,4.06270944 L22.4701855,4.06270944 C22.7738514,4.06270944 22.9051166,4.20319976 22.9051166,4.50222197 L22.9051166,9.20271737 L24.7236001,9.20271737 Z" id="Fill-7" fill="#005496"></path>
                    <path d="M28.6660556,6.41771811 L28.6660556,7.54331119 C28.3615537,7.85686688 27.9910011,8.04563508 27.6726202,8.04563508 C27.3473834,8.04563508 27.2301643,7.88142345 27.2301643,7.45210107 C27.2301643,7.02344689 27.3217992,6.82615906 27.6503803,6.69719529 C27.8946842,6.59211989 28.2102224,6.50040861 28.6660556,6.41771811 L28.6660556,6.41771811 Z M26.199774,5.06075869 C26.808945,4.77059022 27.4737993,4.60921846 28.0012013,4.60921846 C28.4884713,4.60921846 28.6660556,4.78395434 28.6660556,5.2939626 L28.6660556,5.41975239 C27.9162552,5.53702255 27.6870008,5.58396402 27.2671193,5.67868223 C27.0183006,5.73431038 26.7979087,5.80296855 26.5736709,5.89701855 C25.8395888,6.18568356 25.49044,6.75549627 25.49044,7.62449823 C25.49044,8.72703819 25.9681786,9.26177008 26.9599419,9.26177008 C27.3217992,9.26177008 27.6503803,9.19110729 27.9410033,9.0760088 C28.1985173,8.96174557 28.3505174,8.86752852 28.7240799,8.57619068 L28.7240799,8.65721066 C28.7240799,9.01937834 28.9113628,9.2028009 29.2732201,9.2028009 L30.9433822,9.2028009 L30.9433822,8.57619068 L30.8611115,8.57619068 C30.5470783,8.57619068 30.4298592,8.43653562 30.4298592,8.06818704 L30.4298592,5.30448685 C30.4298592,3.83042432 29.9160018,3.32058311 28.4324537,3.32058311 C27.953879,3.32058311 27.4873439,3.37754767 27.0318451,3.48329128 C26.5736709,3.58719732 26.3410722,3.67974385 25.7926009,3.94836268 L26.199774,5.06075869 Z" id="Fill-9" fill="#005496"></path>
                    <path d="M33.8241611,9.20278419 L33.8241611,5.28241934 C34.1283286,4.94430708 34.4423619,4.79462893 34.8042192,4.79462893 C35.1913263,4.79462893 35.2831283,4.94430708 35.2831283,5.52581339 L35.2831283,9.20278419 L37.1051234,9.20278419 L37.1051234,5.25719456 C37.1051234,4.34141818 37.0345579,4.05275317 36.7429317,3.73786107 C36.4976245,3.47124686 36.125567,3.33292821 35.6449857,3.33292821 C34.9314713,3.33292821 34.4319945,3.54976107 33.7535956,4.17921117 L33.7535956,3.94834598 C33.7535956,3.58718061 33.5656438,3.4032569 33.1934191,3.4032569 L31.4648982,3.4032569 L31.4648982,4.06277626 L31.5699104,4.06277626 C31.8740779,4.06277626 32.0016644,4.20326658 32.0016644,4.50212174 L32.0016644,9.20278419 L33.8241611,9.20278419 Z" id="Fill-11" fill="#005496"></path>
                    <path d="M42.6318418,7.98701671 L40.0909814,7.98701671 L42.5186359,4.59620515 L42.5186359,3.40329031 L38.7091011,3.40329031 C38.2785177,3.40329031 38.0778574,3.60041109 38.0778574,4.02839706 L38.0778574,5.08533197 L38.7557546,5.08533197 L38.7557546,4.97925426 C38.7557546,4.7128071 38.8970529,4.5853468 39.1868397,4.5853468 L40.4974856,4.5853468 L38.0445812,8.00739699 L38.0445812,9.2028176 L42.6318418,9.2028176 L42.6318418,7.98701671 Z" id="Fill-13" fill="#005496"></path>
                    <path d="M53.1613713,9.31295466 L53.1613713,2.91087257 C53.1613713,2.40002905 52.9921478,2.22846715 52.472605,2.22846715 L50.9703286,2.22846715 L50.9703286,2.93309042 L51.0622979,2.93309042 L51.2253343,2.94495108 C51.2808503,2.94495108 51.3375368,2.97953074 51.383187,3.02546991 C51.4535853,3.10415117 51.4748219,3.18450295 51.4748219,3.35406023 L51.4748219,9.31295466 L53.1613713,9.31295466 Z M53.9178604,9.31295466 L55.5853471,9.31295466 L55.5853471,4.47998741 C55.5853471,3.98885597 55.4034151,3.79808314 54.8997579,3.79808314 L53.9178604,3.79808314 L53.9178604,9.31295466 Z M50.7313757,9.31295466 L50.7313757,3.79808314 L49.7367697,3.79808314 C49.2444832,3.79808314 49.0480034,3.98885597 49.0480034,4.47998741 L49.0480034,9.31295466 L50.7313757,9.31295466 Z M57.2461451,6.09721308 C57.2461451,8.97133432 55.1634589,11.0663273 52.322277,11.0663273 C49.4734031,11.0663273 47.3984089,8.97133432 47.3984089,6.09721308 C47.3984089,3.23044211 49.4734031,1.13494796 52.322277,1.13494796 C55.1634589,1.13494796 57.2461451,3.23044211 57.2461451,6.09721308 L57.2461451,6.09721308 Z M58.4608085,6.09721308 C58.4608085,2.60433305 55.835838,0 52.322277,0 C48.8097193,0 46.1743814,2.60433305 46.1743814,6.09721308 C46.1743814,9.59727633 48.8097193,12.2022776 52.322277,12.2022776 C55.835838,12.2022776 58.4608085,9.59727633 58.4608085,6.09721308 L58.4608085,6.09721308 Z" id="Fill-15" fill="#005496"></path>
                    <path d="M27.7669807,14.6365856 L27.7669807,18.6976078 C27.7669807,19.6245767 27.7156451,20.546701 26.7778929,21.2464798 C25.9931441,21.8416843 24.7562408,22.0526704 23.6649835,22.0526704 C22.5651981,22.0526704 21.3343147,21.8416843 20.5468905,21.2464798 C19.612817,20.546701 19.5638225,19.6245767 19.5638225,18.6976078 L19.5638225,14.6365856 L22.0043528,14.6365856 L22.0043528,18.6217664 C22.0043528,19.5632688 22.0926433,20.5939766 23.6649835,20.5939766 C25.2348155,20.5939766 25.3237749,19.5632688 25.3237749,18.6217664 L25.3237749,14.6365856 L27.7669807,14.6365856 Z" id="Fill-17" fill="#005496"></path>
                    <path d="M31.7684637,20.4547559 L32.6254502,20.4547559 C34.2270535,20.4547559 35.7796621,19.8303173 35.7796621,18.3928391 C35.7796621,17.069457 34.3787192,16.3244073 32.6478573,16.3244073 L31.7684637,16.3244073 L31.7684637,20.4547559 Z M29.327599,14.6998313 L33.1473341,14.6998313 C36.0251365,14.6998313 38.3014598,16.2904958 38.3014598,18.363438 C38.3014598,20.4380507 36.0147691,22.08 33.1473341,22.08 L29.327599,22.08 L29.327599,14.6998313 Z" id="Fill-19" fill="#005496"></path>
                    <polygon id="Fill-21" fill="#005496" points="45.4256678 17.475626 45.4256678 14.6838612 47.8625194 14.6838612 47.8625194 22.0767258 45.4256678 22.0767258 45.4256678 18.9433406 42.0144436 18.9433406 42.0144436 22.0767258 39.566723 22.0767258 39.566723 14.6838612 42.0144436 14.6838612 42.0144436 17.475626"></polygon>
                    <g id="Group-25" transform="translate(0.000000, 14.675876)">
                        <mask id="mask-2" fill="white">
                            <use xlink:href="#path-1"></use>
                        </mask>
                        <g id="Clip-24"></g>
                        <path d="M4.59893225,3.94592373 L5.52163496,2.34891129 L6.44968861,3.94592373 L4.59893225,3.94592373 Z M8.43037249,7.37682766 L11.0443067,7.37682766 L6.33380732,0 L4.70595105,0 L-3.34433749e-05,7.37682766 L2.6165762,7.37682766 L3.61987745,5.63832258 L7.42406134,5.63832258 L8.43037249,7.37682766 Z" id="Fill-23" fill="#005496" mask="url(#mask-2)"></path>
                    </g>
                    <polygon id="Fill-26" fill="#005496" points="48.8646668 14.6758928 51.6225747 14.6758928 53.7241564 17.559536 55.8322595 14.6758928 58.5053885 14.6758928 54.8615656 19.1737548 54.8615656 22.0560615 52.4198648 22.0560615 52.4165204 19.1844461"></polygon>
                    <g id="Group-30" transform="translate(56.475710, 14.675876)">
                        <mask id="mask-4" fill="white">
                            <use xlink:href="#path-3"></use>
                        </mask>
                        <g id="Clip-29"></g>
                        <path d="M4.59629022,3.94592373 L5.52367501,2.34891129 L6.44503998,3.94592373 L4.59629022,3.94592373 Z M8.43140923,7.37682766 L11.0443401,7.37682766 L6.33400798,0 L4.70949605,0 L0,7.37682766 L2.61025541,7.37682766 L3.61991089,5.63832258 L7.41907828,5.63832258 L8.43140923,7.37682766 Z" id="Fill-28" fill="#005496" mask="url(#mask-4)"></path>
                    </g>
                    <polygon id="Fill-31" fill="#005496" points="8.77600977 14.6758928 11.5322455 14.6758928 13.6381748 17.559536 15.7389204 14.6758928 18.4143904 14.6758928 14.7722397 19.1737548 14.7722397 22.0560615 12.3308733 22.0560615 12.3250207 19.1844461"></polygon>
                </g>
            </g>
        </g>
    </g>
</svg>