<?xml version="1.0" encoding="UTF-8"?>
<svg width="92px" height="92px" viewBox="0 0 92 92" version="1.1" xmlns="http://www.w3.org/2000/svg" xmlns:xlink="http://www.w3.org/1999/xlink">
    <title>image/logo/insurance/axa</title>
    <g id="Symbols" stroke="none" stroke-width="1" fill="none" fill-rule="evenodd">
        <g id="image/logo/insurance/axa">
            <rect id="Mask" stroke="#EBEBEB" fill="#FFFFFF" x="0.5" y="0.5" width="91" height="91" rx="12"></rect>
            <rect id="Mask" stroke="#EBEBEB" fill="#FFFFFF" x="0.5" y="0.5" width="91" height="91" rx="12"></rect>
            <g id="Group" transform="translate(10.000000, 10.000000)" fill-rule="nonzero">
                <g id="Group-Copy">
                    <polygon id="Path" fill="#00008F" points="0.0879120879 0 72 0 72 72 0.0879120879 72"></polygon>
                    <path d="M55.1208791,50.8274706 C56.3956044,54.4733626 58.9450549,63.8736142 59.956044,64.5325104 L53.2307692,64.5325104 C53.2307692,64.5325104 53.2307692,63.0829389 52.8351648,62.0726315 C52.5714286,61.0183976 50.0659341,52.9359383 50.0659341,52.9359383 L39.2967033,52.9359383 L37.6703297,55.3958172 C37.6703297,55.3958172 39.6923077,61.9408522 39.8241758,62.2922635 L40.967033,64.6203632 L34.4615385,64.6203632 C34.4615385,64.6203632 34.3296703,63.5661294 34.1978022,63.1707917 C34.1978022,62.775454 33.5824176,60.9305448 33.5824176,60.9305448 C33.5824176,60.9305448 32.043956,62.6436748 31.6923077,63.3904237 C31.2967033,64.1810991 31.0769231,64.5764368 31.0769231,64.5764368 L25.978022,64.5764368 C25.978022,64.5764368 25.8461538,63.522203 25.7142857,63.1268653 C25.7142857,62.7315276 25.0989011,60.7548392 25.0989011,60.7548392 C25.0989011,60.7548392 23.6923077,62.5997484 23.3406593,63.3464973 C22.9450549,64.1371727 22.7252747,64.5325104 22.7252747,64.5325104 L17.5824176,64.5325104 L19.4725275,62.555822 C20.3516484,61.5015881 23.3846154,57.3285792 23.3846154,57.3285792 L22.1538462,53.0677175 L11.5164835,53.0677175 C11.5164835,53.0677175 5.45054945,61.2819561 5.18681319,61.5455145 C4.92307692,61.809073 3.16483516,64.4007312 3.16483516,64.6642896 L0,64.6642896 L0,62.555822 L0.131868132,62.4240427 C0.263736264,62.2922635 4.7032967,56.5379039 8.87912088,50.9153234 C12.5714286,45.9516392 16.0879121,41.1197341 16.3516484,40.5926172 C17.0989011,39.4066042 18.1098901,37.0785045 18.1098901,37.0785045 L23.6923077,37.0785045 C23.6923077,37.0785045 23.8241758,39.3187513 24.0879121,39.8019418 C24.2197802,40.3290588 27.6483516,51.6620724 27.6483516,51.7938516 L29.5384615,49.3339727 L26.3736264,39.2748249 C26.3736264,39.2748249 25.6263736,37.2981365 25.3626374,37.034578 L31.8241758,37.034578 C31.8241758,37.034578 31.8241758,37.9570326 32.0879121,38.8794872 C32.3516484,39.6701626 33.7582418,44.8974053 33.7582418,44.8974053 C33.7582418,44.8974053 38.1978022,39.1430457 38.4615385,38.747708 C38.989011,38.0888119 38.989011,37.034578 38.989011,37.034578 L44.3076923,37.034578 C44.3076923,37.034578 43.2967033,37.8252534 41.6263736,40.0215739 C41.010989,40.8122493 35.4285714,48.2358125 35.4285714,48.2358125 C35.4285714,48.2358125 35.956044,49.9489424 36.1758242,50.8274706 C36.3076923,51.0910291 36.3076923,51.2228083 36.3076923,51.2228083 L36.7032967,50.8274706 C38.2417582,48.8507822 44.8351648,39.8458682 45.1868132,39.2308985 C45.5824176,38.5720024 45.9340659,37.9131062 46.3296703,37.1224309 L51.5164835,37.1224309 C51.5164835,37.1224309 51.6483516,38.7037816 51.7802198,39.2308985 C51.6923077,39.3626777 55.1208791,50.8274706 55.1208791,50.8274706 L55.1208791,50.8274706 Z M47.1208791,42.3496736 C46.3736264,44.0628036 41.8021978,49.7732368 41.8021978,49.7732368 L49.010989,49.7732368 C49.010989,49.7732368 47.6043956,45.3366694 47.3846154,44.4142148 C47.1208791,43.5356866 47.1208791,42.4814528 47.1208791,42.3496736 C47.1208791,42.2178944 47.1208791,42.0861151 47.1208791,42.3496736 Z M19.5164835,42.3496736 C18.7692308,44.0628036 14.1978022,49.7732368 14.1978022,49.7732368 L21.4065934,49.7732368 C21.4065934,49.7732368 20,45.3366694 19.7802198,44.4142148 C19.6043956,43.5356866 19.6043956,42.4814528 19.5164835,42.3496736 C19.6043956,42.2178944 19.6043956,42.0861151 19.5164835,42.3496736 L19.5164835,42.3496736 Z M30.2857143,59.6127525 L32.3076923,56.8893151 C32.1758242,56.6257567 31.032967,53.2434231 31.032967,53.2434231 L29.1428571,55.8350813 L30.2857143,59.6127525 L30.2857143,59.6127525 L30.2857143,59.6127525 Z" id="Shape" fill="#FFFFFF"></path>
                    <path d="M70.4964286,0 L44.7472527,34.5307727 L40.5714286,34.5307727 L66.5694286,0 L70.4964286,0 Z" id="Combined-Shape" fill="#FF1721"></path>
                </g>
            </g>
        </g>
    </g>
</svg>