<?xml version="1.0" encoding="UTF-8"?>
<svg width="92px" height="92px" viewBox="0 0 92 92" version="1.1" xmlns="http://www.w3.org/2000/svg" xmlns:xlink="http://www.w3.org/1999/xlink">
    <title>image/logo/insurance/bangkok</title>
    <g id="Symbols" stroke="none" stroke-width="1" fill="none" fill-rule="evenodd">
        <g id="image/logo/insurance/bangkok">
            <rect id="Mask" stroke="#EBEBEB" fill="#FFFFFF" x="0.5" y="0.5" width="91" height="91" rx="12"></rect>
            <g id="Group" transform="translate(10.000000, 10.000000)">
                <polygon id="Fill-1" fill="#163A68" points="0 72 72 72 72 0 0 0"></polygon>
                <g id="Group-70" transform="translate(6.768000, 50.112000)" fill="#FFFFFF">
                    <path d="M1.32409241,13.1362935 C1.62719021,13.1426737 1.99972714,13.1426737 2.20824405,13.0724925 C2.46764309,12.9823736 2.64203906,12.7879798 2.64203906,12.4777473 C2.64203906,12.2526493 2.56621473,12.0303425 2.36607839,11.9039367 C2.16454529,11.7882974 1.85346599,11.7882974 1.32409241,11.8036495 L1.32409241,13.1362935 Z M1.32409241,10.9746348 C1.60743598,10.9746348 1.97438584,10.9746348 2.14479106,10.8964786 C2.23338581,10.8546091 2.50096589,10.6994929 2.50096589,10.3310419 C2.50096589,9.879849 2.16454529,9.74746186 1.78701992,9.74746186 C1.66869406,9.74746186 1.47254848,9.75862704 1.32409241,9.75862704 L1.32409241,10.9746348 Z M0.161984722,13.9144668 L0.114095669,13.8837625 C0.130856838,12.9006285 0.137441582,11.918292 0.137441582,10.9283791 C0.137441582,9.97255987 0.130856838,9.71376694 0.10172433,9.04824242 L0.142629563,9.00776864 L1.11657318,8.99201776 C1.3552203,8.98882771 1.77484812,8.97846004 2.0164883,8.97846004 C2.69711147,8.97846004 3.14726857,9.06479082 3.43999041,9.37322893 C3.66526849,9.62384736 3.71635015,9.93009231 3.71635015,10.1525984 C3.71635015,10.3113035 3.68921302,10.4767874 3.6107947,10.6376856 C3.42761907,11.0069341 3.14726857,11.1349349 2.91500666,11.2344247 C3.05967151,11.256755 3.21072157,11.284668 3.34301507,11.355846 C3.73750115,11.5492429 3.92586476,11.9585664 3.92586476,12.4035786 C3.92586476,12.7941605 3.80554351,13.2513348 3.34301507,13.5795113 C2.82282024,13.941981 2.02247444,13.9262301 1.37457545,13.9144668 L0.161984722,13.9144668 Z" id="Fill-4"></path>
                    <path d="M6.41024906,12.1080602 C5.93894097,12.1688705 5.38901501,12.2428398 5.38901501,12.7036029 C5.38901501,12.9919038 5.59753193,13.1244904 5.84914899,13.1244904 C6.07901645,13.1244904 6.26638237,13.0289882 6.41024906,12.9464456 L6.41024906,12.1080602 Z M7.55439836,12.3548904 C7.55439836,13.0084522 7.55439836,13.1813132 7.60448233,13.8657786 L7.56736831,13.9144269 C7.11461722,13.9062524 6.96117271,13.9144269 6.46033303,13.9341653 L6.42062503,13.8837226 L6.42062503,13.627721 C6.27216896,13.7477467 5.97545637,13.9987639 5.44967447,13.9987639 C4.77204437,13.9987639 4.23389114,13.5174648 4.23389114,12.7717903 C4.23389114,12.459564 4.36678326,12.0633994 4.75608136,11.8227499 C5.17471149,11.5651533 5.56640404,11.4915827 6.4014694,11.3753452 C6.4014694,11.2728648 6.38211425,11.144864 6.30848483,11.0766766 C6.21609886,10.9879533 6.11213971,10.9440901 5.85653189,10.9440901 C5.38901501,10.9440901 4.94085329,11.1223342 4.69422466,11.2228208 L4.63875318,11.1953067 L4.67606673,10.4330837 L4.71757058,10.3812454 C5.11046035,10.2630141 5.47820837,10.1525585 6.07901645,10.1525585 C6.9695533,10.1525585 7.25189917,10.4294949 7.38558945,10.6553904 C7.56736831,10.9440901 7.56736831,11.219232 7.5609831,11.8424884 L7.55439836,12.3548904 Z" id="Fill-6"></path>
                    <path d="M11.5450331,13.9045577 C10.9899191,13.9045577 10.8715933,13.9143272 10.410262,13.9262899 L10.3723499,13.8838223 C10.3723499,13.6455653 10.3753429,13.407109 10.3753429,13.1700483 C10.3753429,12.9044765 10.3723499,11.9540405 10.354591,11.7215655 C10.3312451,11.4737383 10.3005163,11.0646142 9.91461034,11.0646142 C9.69571746,11.0646142 9.52591086,11.1808517 9.3806474,11.2793446 C9.38483769,12.5218697 9.39301874,12.7942203 9.43711657,13.8642833 L9.39301874,13.9045577 C8.83491173,13.9045577 8.73474379,13.9045577 8.23510134,13.9262899 L8.18880859,13.8838223 C8.19698964,13.4396076 8.20537022,12.9920035 8.20537022,12.5539696 C8.20537022,11.4193081 8.16127238,10.9800779 8.10879396,10.3769587 L8.15049735,10.3273136 C8.67149034,10.2565343 8.78881852,10.2367958 9.3245773,10.1247453 L9.39301874,10.1719979 L9.3806474,10.5548041 C9.70210267,10.3667904 10.0720456,10.1466769 10.4936688,10.1466769 C10.7442882,10.1466769 11.1443613,10.2029015 11.3554722,10.5611842 C11.531265,10.8478901 11.5376502,11.1649015 11.5450331,11.837803 L11.5450331,12.3757254 C11.5599984,13.0568015 11.5599984,13.2511952 11.5937203,13.8642833 L11.5450331,13.9045577 Z" id="Fill-8"></path>
                    <path d="M19.6239562,13.8837825 L18.3734533,13.9342251 L18.3090026,13.891957 C17.9572176,13.1528619 17.8809942,12.9985431 17.2718056,11.8882058 L17.2785899,12.6871143 L17.3222886,13.8658384 L17.2785899,13.9144867 C16.7492163,13.9144867 16.6175214,13.9144867 16.1557911,13.9342251 L16.104909,13.8837825 C16.1136886,12.7620806 16.1136886,11.631606 16.0985238,10.5055178 C16.0841571,9.59515683 16.0634051,9.27236349 16.0167133,8.59308187 L16.0562218,8.54543048 L17.2654204,8.36698697 L17.3222886,8.41144831 C17.2857732,9.45519332 17.2785899,9.73392408 17.2718056,11.0344682 L17.2718056,11.8080558 C17.5972516,11.3267567 17.6605051,11.2192919 18.2064403,10.2792235 L18.2748817,10.2287808 L19.4090541,10.214625 L19.4417783,10.2852049 C18.9483215,10.9180314 18.9010311,10.9878137 18.4227391,11.6395812 C18.9483215,12.5914128 19.0177606,12.7162236 19.6736411,13.8221746 L19.6239562,13.8837825 Z" id="Fill-10"></path>
                    <path d="M21.8643458,11.0827975 C21.7721594,10.9747345 21.6127287,10.8660734 21.4195762,10.8660734 C21.199087,10.8660734 21.0175077,10.9938748 20.9117527,11.1808916 C20.7736726,11.4233355 20.7736726,11.8701421 20.7736726,12.0711154 C20.7736726,12.7458113 20.9023745,12.9824732 21.021698,13.0991095 C21.1069006,13.176867 21.2304145,13.2592102 21.4135901,13.2592102 C21.9890569,13.2592102 22.0644821,12.6257856 22.0644821,12.0579564 C22.0644821,11.6819291 22.0331547,11.2845683 21.8643458,11.0827975 M21.3996225,13.9987041 C20.402732,13.9987041 20.061323,13.6214805 19.8811404,13.3451422 C19.6219409,12.972305 19.5532999,12.5217102 19.5532999,12.0786918 C19.5532999,10.797886 20.2403083,10.1524987 21.447312,10.1524987 C21.6278936,10.1524987 21.9890569,10.1670533 22.2935514,10.2852846 C23.2674951,10.6698852 23.2674951,11.7939796 23.2674951,12.063539 C23.2674951,13.1086797 22.8752039,13.9987041 21.3996225,13.9987041" id="Fill-12"></path>
                    <path d="M27.2669892,13.8837825 L26.0120965,13.9342251 L25.9530333,13.891957 C25.5982553,13.1528619 25.5204356,12.9985431 24.9154372,11.8882058 L24.9236182,12.6871143 L24.9599341,13.8658384 L24.9236182,13.9144867 C24.3954419,13.9144867 24.2599558,13.9144867 23.7950329,13.9342251 L23.7449489,13.8837825 C23.7539281,12.7620806 23.7539281,11.631606 23.7385637,10.5055178 C23.7255938,9.59515683 23.7054405,9.27236349 23.6571523,8.59308187 L23.7002525,8.54543048 L24.909052,8.36698697 L24.9599341,8.41144831 C24.9288062,9.45519332 24.9236182,9.73392408 24.9154372,11.0344682 L24.9154372,11.8080558 C25.2329017,11.3267567 25.3055334,11.2192919 25.8440858,10.2792235 L25.9199101,10.2287808 L27.0514885,10.214625 L27.0862081,10.2852049 C26.5933499,10.9180314 26.5454608,10.9878137 26.0639763,11.6395812 C26.5933499,12.5914128 26.6617913,12.7162236 27.3156764,13.8221746 L27.2669892,13.8837825 Z" id="Fill-14"></path>
                    <path d="M30.3375156,9.02603169 C30.3161651,9.98583846 30.30539,10.9440502 30.30539,11.9040564 C30.30539,12.9109164 30.3161651,13.2305197 30.350286,13.8675331 L30.3121743,13.914387 C29.7347121,13.914387 29.5904464,13.914387 29.0684557,13.9341255 L29.0363301,13.8918573 C29.0654626,13.1699087 29.0746414,12.7458312 29.0746414,11.9265861 C29.0746414,10.1525187 29.0550867,9.79603039 29.0145805,9.04836205 L29.0457084,9.00788827 C29.5425573,9.01486651 29.7039833,9.01486651 30.30539,8.98874796 L30.3375156,9.02603169 Z" id="Fill-16"></path>
                    <path d="M34.436639,13.9045577 C33.8827223,13.9045577 33.7620019,13.9143272 33.2988749,13.9262899 L33.2597655,13.8838223 C33.2597655,13.6455653 33.2681461,13.407109 33.2681461,13.1700483 C33.2681461,12.9044765 33.2597655,11.9540405 33.2473941,11.7215655 C33.2246468,11.4737383 33.1893287,11.0646142 32.8074135,11.0646142 C32.5821354,11.0646142 32.4167186,11.1808517 32.2700584,11.2793446 C32.2760445,12.5218697 32.2860214,12.7942203 32.3301192,13.8642833 L32.2860214,13.9045577 C31.7281139,13.9045577 31.6233566,13.9045577 31.1211202,13.9262899 L31.0818113,13.8838223 C31.0867997,13.4396076 31.0951803,12.9920035 31.0951803,12.5539696 C31.0951803,11.4193081 31.0526788,10.9800779 30.998205,10.3769587 L31.0403074,10.3273136 C31.5622981,10.2565343 31.681023,10.2367958 32.2131901,10.1247453 L32.2860214,10.1719979 L32.2700584,10.5548041 C32.590516,10.3667904 32.9594612,10.1466769 33.3796877,10.1466769 C33.6344973,10.1466769 34.0319765,10.2029015 34.2478763,10.5611842 C34.421075,10.8478901 34.4284579,11.1649015 34.436639,11.837803 L34.436639,12.3757254 C34.4480126,13.0568015 34.4480126,13.2511952 34.4835303,13.8642833 L34.436639,13.9045577 Z" id="Fill-18"></path>
                    <path d="M36.8868624,11.6396011 C37.270773,11.7881379 37.8095248,11.9867186 37.8095248,12.7535272 C37.8095248,12.8037705 37.8095248,12.8520201 37.799548,12.9044565 C37.6754355,13.899952 36.6298578,13.9986442 36.1012824,13.9986442 C35.5950552,13.9986442 35.300338,13.8838024 34.961922,13.7621817 L34.9254066,13.6973838 C34.9545391,13.3516619 34.961922,13.2727081 34.9720984,12.911036 L35.0353519,12.8847181 C35.141905,12.9646688 35.1963788,13.0163077 35.3196932,13.0793113 C35.5709111,13.2089071 35.8564496,13.2727081 36.0525952,13.2727081 C36.4406961,13.2727081 36.6015235,13.0860901 36.6015235,12.911036 C36.6015235,12.6596201 36.2970289,12.5575384 36.1116584,12.4951331 L35.8428811,12.3948458 C35.5168364,12.2752189 34.9373789,12.0503202 34.9373789,11.3050444 C34.9373789,11.024918 35.0353519,10.8225491 35.1279374,10.6957446 C35.4900984,10.1753674 36.1681275,10.1466569 36.5133278,10.1466569 C36.9614895,10.1466569 37.2518169,10.2288008 37.5728731,10.3211129 L37.6123816,10.3611879 L37.5415457,11.1172301 L37.4752992,11.1399593 C37.3062907,11.024918 37.0331236,10.8516583 36.6099041,10.8516583 C36.1749118,10.8516583 36.123032,11.0767564 36.123032,11.1583021 C36.123032,11.3558859 36.3088016,11.4314502 36.5454534,11.517781 L36.8868624,11.6396011 Z" id="Fill-20"></path>
                    <path d="M41.5599361,10.2510514 C41.5441726,10.9046132 41.5381865,11.5555831 41.5381865,12.2105406 C41.5381865,13.1147208 41.5515555,13.3777007 41.588869,13.8707631 L41.5441726,13.9144269 C41.0930178,13.9144269 40.9413691,13.9144269 40.4317498,13.9341653 L40.3830626,13.8918971 L40.3882506,13.5794715 C40.1424201,13.7740646 39.8570812,13.9987639 39.3624272,13.9987639 C39.0126375,13.9987639 38.6744211,13.8837226 38.4519365,13.627721 C38.1969273,13.3370275 38.1642031,13.016228 38.1745791,12.2607839 L38.1745791,11.7741016 C38.1745791,11.0706953 38.1642031,10.8745071 38.1264905,10.2935189 L38.1745791,10.2510514 L39.3173316,10.1950261 L39.3712068,10.2510514 L39.3510535,11.6540759 C39.3490581,11.8303263 39.3490581,12.0087698 39.3490581,12.1830264 C39.3490581,12.591353 39.3490581,13.120104 39.8453084,13.120104 C40.0378623,13.120104 40.1837244,13.016228 40.3732852,12.8902209 C40.3742829,12.6120883 40.3742829,12.5038259 40.3742829,12.2988651 C40.3742829,12.1890077 40.3742829,11.0766766 40.3291874,10.2935189 L40.3742829,10.2510514 L41.5110493,10.1950261 L41.5599361,10.2510514 Z" id="Fill-22"></path>
                    <path d="M44.135569,11.3656554 C44.0385937,11.3050444 43.9691545,11.2671626 43.8492324,11.2671626 C43.3759289,11.2671626 43.3759289,11.7215455 43.3759289,12.0365631 C43.3759289,12.5154696 43.4228202,13.2988267 43.4525514,13.8642633 L43.413442,13.9145066 C42.8601239,13.9045377 42.7437934,13.9145066 42.2301833,13.9342451 L42.1896771,13.8919769 C42.2068374,13.3129825 42.2078351,12.7459509 42.2078351,12.1747322 C42.2078351,11.2081466 42.1896771,10.8965184 42.1457788,10.3769388 L42.1896771,10.3310818 C42.6992965,10.2565143 42.8309914,10.2367759 43.3459982,10.1247253 L43.4008711,10.1789562 L43.3759289,10.8225491 C43.601207,10.3067577 43.9236599,10.1466569 44.207203,10.1466569 C44.2558902,10.1466569 44.3035797,10.1526383 44.3534642,10.1526383 L44.3917754,10.2028816 L44.199022,11.3367456 L44.135569,11.3656554 Z" id="Fill-24"></path>
                    <path d="M46.5498158,12.1080602 C46.0767118,12.1688705 45.5273845,12.2428398 45.5273845,12.7036029 C45.5273845,12.9919038 45.7315116,13.1244904 45.9879176,13.1244904 C46.2167873,13.1244904 46.4061486,13.0289882 46.5498158,12.9464456 L46.5498158,12.1080602 Z M47.6897748,12.3548904 C47.6897748,13.0084522 47.6897748,13.1813132 47.7374643,13.8657786 L47.7003503,13.9144269 C47.2509913,13.9062524 47.0999413,13.9144269 46.5981039,13.9341653 L46.5540061,13.8837226 L46.5540061,13.627721 C46.4091417,13.7477467 46.1104337,13.9987639 45.5864477,13.9987639 C44.905625,13.9987639 44.3698662,13.5174648 44.3698662,12.7717903 C44.3698662,12.459564 44.4997652,12.0633994 44.8930541,11.8227499 C45.310487,11.5651533 45.6995856,11.4915827 46.5348505,11.3753452 C46.5348505,11.2728648 46.5131008,11.144864 46.4456571,11.0766766 C46.3536702,10.9879533 46.2485138,10.9440901 45.9921079,10.9440901 C45.5273845,10.9440901 45.0736357,11.1223342 44.8288029,11.2228208 L44.7727328,11.1953067 L44.8090487,10.4330837 L44.8531465,10.3812454 C45.2490294,10.2630141 45.6149816,10.1525585 46.2167873,10.1525585 C47.1049297,10.1525585 47.3846816,10.4294949 47.5219636,10.6553904 C47.7003503,10.9440901 47.7003503,11.219232 47.6981554,11.8424884 L47.6897748,12.3548904 Z" id="Fill-26"></path>
                    <path d="M51.6126265,13.9045577 C51.0521251,13.9045577 50.9359941,13.9143272 50.4784541,13.9262899 L50.4321614,13.8838223 C50.4321614,13.6455653 50.440941,13.407109 50.440941,13.1700483 C50.440941,12.9044765 50.4321614,11.9540405 50.4213863,11.7215655 C50.3972423,11.4737383 50.3645181,11.0646142 49.9792107,11.0646142 C49.7577239,11.0646142 49.5899126,11.1808517 49.4478418,11.2793446 C49.4498372,12.5218697 49.4602131,12.7942203 49.5007193,13.8642833 L49.4602131,13.9045577 C48.9048996,13.9045577 48.7997433,13.9045577 48.2991031,13.9262899 L48.2570007,13.8838223 C48.2643836,13.4396076 48.2669775,12.9920035 48.2669775,12.5539696 C48.2669775,11.4193081 48.2272695,10.9800779 48.1704013,10.3769587 L48.2148982,10.3273136 C48.7364898,10.2565343 48.8522217,10.2367958 49.390774,10.1247453 L49.4602131,10.1719979 L49.4478418,10.5548041 C49.7623132,10.3667904 50.1368455,10.1466769 50.5572715,10.1466769 C50.811283,10.1466769 51.2067668,10.2029015 51.4204717,10.5611842 C51.5958654,10.8478901 51.6012529,11.1649015 51.6126265,11.837803 L51.6126265,12.3757254 C51.6249979,13.0568015 51.6249979,13.2511952 51.657722,13.8642833 L51.6126265,13.9045577 Z" id="Fill-28"></path>
                    <path d="M54.8846461,12.9464057 L54.854915,13.7819999 L54.8108171,13.8222743 C54.5202902,13.9046175 54.283838,13.978188 53.9162895,13.978188 C52.3503175,13.978188 51.9364762,12.8901811 51.9364762,12.0950607 C51.9364762,11.3830811 52.2549384,10.1467367 53.8889528,10.1467367 C54.292019,10.1467367 54.5578033,10.2286811 54.8648918,10.327174 L54.8980151,10.3668503 C54.8425436,10.7337062 54.833764,10.832199 54.8056291,11.2030425 L54.7351923,11.222781 C54.5266754,11.0828175 54.36066,10.9747545 54.0575622,10.9747545 C53.3809298,10.9747545 53.1600415,11.5573376 53.1600415,12.0635589 C53.1600415,12.4776675 53.3176763,13.1362138 54.1046531,13.1362138 C54.458234,13.1362138 54.6400128,13.0205744 54.8275783,12.9109164 L54.8846461,12.9464057 Z" id="Fill-30"></path>
                    <path d="M57.4790156,11.6117878 C57.4790156,11.4534815 57.4726304,11.2846082 57.3704671,11.1350745 C57.2968376,11.0068743 57.1609524,10.8904374 56.9268947,10.8904374 C56.8313161,10.8904374 56.7349394,10.9101759 56.650934,10.9646061 C56.386347,11.1350745 56.3378593,11.4233754 56.317706,11.6395014 L57.4790156,11.6117878 Z M58.4761056,12.9043569 L58.4232281,13.694094 L58.3865131,13.7477268 C58.0165702,13.8918772 57.7637559,13.9987439 57.1842984,13.9987439 C56.6866513,13.9987439 55.738049,13.9144069 55.3389735,12.9723448 C55.2228426,12.7336891 55.1659743,12.3913567 55.1659743,12.0635789 C55.1659743,10.8623251 55.8920921,10.1467566 56.9827653,10.1467566 C57.1437922,10.1467566 57.3032228,10.1589187 57.4790156,10.2065701 C57.7134724,10.2629941 58.2516256,10.429475 58.4958598,11.2507139 C58.592037,11.6022177 58.5978236,11.9463445 58.608,12.2868825 L58.5643012,12.3353314 L56.317706,12.3728145 C56.3452422,12.5153699 56.3635997,12.657726 56.4701529,12.8038702 C56.6351705,13.0489061 56.9217067,13.1814926 57.3369447,13.1814926 C57.8495571,13.1814926 58.1630309,13.0205944 58.4232281,12.8846184 L58.4761056,12.9043569 Z" id="Fill-32"></path>
                    <path d="M13.9417604,13.0603703 C13.204269,13.0603703 13.2084591,12.1631683 13.2084591,11.9747559 C13.2084591,11.5492828 13.3722798,10.9180513 14.1500778,10.9180513 C14.2103382,10.9180513 14.2831695,10.9180513 14.3516109,10.928419 L14.3697689,12.9237962 C14.2296934,13.0047438 14.1227412,13.0603703 13.9417604,13.0603703 M15.5248927,11.9801391 C15.5268881,11.1692679 15.5422525,10.7675207 15.5655984,10.1669935 L15.5145168,10.1201396 C13.8637412,10.1025944 13.328182,10.1025944 12.7600981,10.4531013 C12.1375404,10.8516583 11.9838963,11.5895572 11.979706,12.1181088 C11.979706,13.0793113 12.4779517,13.8919769 13.5209354,13.8919769 C13.9447535,13.8919769 14.1788113,13.7536084 14.3707665,13.6359753 L14.3759545,13.6359753 L14.3697689,13.7478264 C14.3583952,14.1304333 14.3474206,14.3653008 14.1704307,14.5616884 C14.0102019,14.7239822 13.7865201,14.7524933 13.6205047,14.7524933 C13.1430109,14.7524933 12.8826142,14.5391586 12.770474,14.4448527 L12.6948492,14.4610024 C12.6748955,14.5876075 12.6507514,14.7152096 12.6140364,14.8424129 C12.585303,14.9522703 12.5495858,15.0585389 12.5138685,15.1650069 L12.5372144,15.2296054 C12.6822783,15.3133443 12.8433053,15.4078495 13.2208307,15.4838126 C13.4642667,15.5214951 13.7077027,15.552 13.9417604,15.552 C14.5477565,15.552 15.0567772,15.3592013 15.3161763,14.9265505 C15.4390915,14.7152096 15.4961593,14.4448527 15.5215006,14.135019 L15.5268881,14.1368134 C15.5248927,14.067031 15.5248927,13.7898952 15.5248927,13.5837382 L15.5298812,13.5837382 C15.5215006,13.0490058 15.5215006,12.5154696 15.5248927,11.9801391" id="Fill-34"></path>
                    <path d="M24.9974672,1.79701588 L24.9974672,5.20518726 L23.9985813,2.13855078 L23.7737023,2.13855078 L22.7869883,5.23888218 L22.7869883,1.79701588 L20.9895525,1.79701588 L20.9895525,1.89750251 C21.2022597,2.07813918 21.3195879,2.35128735 21.3225809,2.56541956 L21.3225809,5.05625173 C21.3225809,5.75547116 21.3407389,6.31931278 22.5992233,6.31931278 L23.3369142,6.31931278 L23.8816522,4.31336846 L24.5085997,6.31931278 L25.3759902,6.31931278 C25.7920264,6.31931278 26.4790347,6.10837062 26.4790347,5.38721958 L26.4790347,1.79701588 L24.9974672,1.79701588 Z" id="Fill-36"></path>
                    <path d="M15.4584467,5.56522446 L15.4540568,1.80335611 L14.0189815,1.80335611 L14.0189815,5.80049076 L14.0189815,6.31468721 L15.8152201,6.31468721 L15.8152201,6.22735954 C15.573979,6.10394442 15.4584467,5.80368082 15.4584467,5.56522446" id="Fill-38"></path>
                    <path d="M6.47180645,3.02430848 C6.38520708,2.88195243 6.38520708,2.69593255 6.47459998,2.58986333 C6.50353295,2.54480385 6.6302394,2.34682127 7.12509295,2.34682127 C7.60877239,2.34682127 8.44264052,2.65007555 8.48155038,2.66303514 L8.48155038,1.8136839 C8.06551423,1.68029987 7.60059134,1.61151438 7.16879171,1.61151438 C6.75794354,1.61151438 6.39199136,1.67372039 6.07093517,1.79055603 C5.41824728,2.02083788 5.10118184,2.3950708 5.01019264,3.03806558 C5.00081437,3.14094474 4.93776045,3.7035901 5.34980584,4.11430924 C5.78918791,4.55314071 6.4604328,4.53599418 6.60370089,4.54396931 C6.88544815,4.55972019 7.18335797,4.57487294 7.43557365,4.70107936 C7.61136638,4.76607666 7.74365989,4.98020887 7.72490334,5.18895787 C7.70734402,5.40986895 7.54691569,5.57515349 7.29130787,5.62519743 C7.1422532,5.65968986 6.99020545,5.6776339 6.83476557,5.6776339 C6.02743595,5.6776339 5.18339139,5.17300761 5.16962328,5.1630387 L5.16962328,6.11666475 C5.1929692,6.12284548 5.23487212,6.1427833 5.2945339,6.16052796 C5.94821947,6.39878494 6.72142814,6.47195675 7.56726854,6.36907759 C8.10123148,6.28693376 8.50788936,6.05645253 8.76649025,5.68381463 C9.08854413,5.25874025 9.13204335,4.54097864 8.86945171,4.05449577 C8.73775681,3.81603941 8.50050646,3.58535881 8.07569066,3.43502763 C7.59520382,3.26635365 7.05964458,3.30483365 6.8180044,3.24840961 C6.56479103,3.19019117 6.48916623,3.05640838 6.47180645,3.02430848" id="Fill-40"></path>
                    <path d="M19.439723,1.70763462 C18.4943133,1.70763462 17.6913735,2.80580989 17.6913735,2.80580989 L17.6913735,1.79695607 L15.9677667,1.79695607 L15.9677667,1.89764207 C16.0924778,2.00829699 16.2505117,2.23279687 16.2718622,2.57712306 L16.2718622,6.30968281 L17.6913735,6.30968281 L17.6913735,4.8438541 C17.6913735,4.27084108 17.7366686,3.86012194 17.9483781,3.53354041 C17.9483781,3.53354041 18.4226793,2.85565444 18.7988079,2.85565444 C19.1807231,2.85565444 19.2274149,3.21473463 19.2274149,3.32479141 L19.2274149,6.31466727 L20.6523138,6.31466727 L20.6523138,3.06500158 C20.6523138,2.55578959 20.3881258,1.70763462 19.439723,1.70763462" id="Fill-42"></path>
                    <path d="M33.5053765,3.02430848 C33.4271577,2.88195243 33.4271577,2.69593255 33.5117617,2.58986333 C33.5390983,2.54480385 33.6658048,2.34682127 34.1636514,2.34682127 C34.6485281,2.34682127 35.4782059,2.65007555 35.5203084,2.66303514 L35.5203084,1.8136839 C35.1028755,1.68029987 34.6401475,1.61151438 34.2041576,1.61151438 C33.7974997,1.61151438 33.4331438,1.67372039 33.1090946,1.79055603 C32.4568057,2.02083788 32.1423343,2.3950708 32.0521432,3.03806558 C32.0373775,3.14094474 31.9739245,3.7035901 32.3871671,4.11430924 C32.8267487,4.55314071 33.5015853,4.53599418 33.640264,4.54396931 C33.9266006,4.55972019 34.2187238,4.57487294 34.4721367,4.70107936 C34.6485281,4.76607666 34.7772299,4.98020887 34.7624641,5.18895787 C34.7451043,5.40986895 34.5840774,5.57515349 34.3294673,5.62519743 C34.1830066,5.65968986 34.0269681,5.6776339 33.8753194,5.6776339 C33.0669921,5.6776339 32.2225485,5.17300761 32.209778,5.1630387 L32.209778,6.11666475 C32.233523,6.12284548 32.2740292,6.1427833 32.3320947,6.16052796 C32.9817895,6.39878494 33.7579912,6.47195675 34.6044302,6.36907759 C35.1377946,6.28693376 35.5434548,6.05645253 35.8076427,5.68381463 C36.1282998,5.25874025 36.1682074,4.54097864 35.907212,4.05449577 C35.7753176,3.81603941 35.5376682,3.58535881 35.1176413,3.43502763 C34.6327646,3.26635365 34.0994003,3.30483365 33.8609527,3.24840961 C33.6033495,3.19019117 33.5225367,3.05640838 33.5053765,3.02430848" id="Fill-44"></path>
                    <path d="M47.2155135,6.33548236 C46.7637601,6.33548236 46.5857725,5.87033296 46.5857725,5.87033296 C46.5857725,5.87033296 46.1260376,6.48760794 45.1183721,6.48760794 C44.8424114,6.48760794 44.5526826,6.43895965 44.2851026,6.3552208 C43.7910472,6.18295801 43.5621774,5.65799515 43.5512028,5.21856554 L43.5512028,2.62345856 C43.5512028,2.58976364 43.4660002,2.14215953 43.2524948,1.92384037 L43.2524948,1.79703582 L45.0052342,1.79703582 L45.0052342,5.1649328 C45.0052342,5.3288217 45.1475046,5.61393256 45.6236016,5.61393256 C46.104288,5.61393256 46.6053272,5.15675829 46.6053272,4.4168657 L46.6053272,1.82155934 L48.0697345,1.82155934 L48.0697345,6.33548236 L47.2155135,6.33548236 Z" id="Fill-46"></path>
                    <path d="M13.3039381,2.52650093 C13.2598403,2.43438819 13.099412,2.04360687 12.7621932,1.83126906 C12.4461255,1.63169146 11.956859,1.60736731 11.7992242,1.61394679 C11.3861811,1.61913063 11.0260155,1.80814119 10.9978807,1.80814119 L10.9978807,2.66307501 C11.1573113,2.65370424 11.9983628,2.29302903 11.9983628,3.73792303 L11.9983628,4.19210662 C11.9889845,4.55497499 11.9636432,4.85344419 11.9131602,5.03188771 C11.8491086,5.22827526 11.6675293,5.43562861 11.483755,5.54548601 C11.4282835,5.58197223 11.2902034,5.65793533 11.1309723,5.64318134 C10.9978807,5.63181679 10.9825163,5.54109969 10.9607667,5.49384705 C10.9110818,5.37541639 10.235447,2.16881639 10.235447,2.16881639 L9.05178928,2.88199231 C9.05178928,2.88199231 9.63862972,5.06059817 9.77451491,5.57499399 C9.92855803,6.16236224 10.5000341,6.41956015 11.1132135,6.41956015 C11.7275901,6.41956015 12.3389737,6.27760286 12.7823465,5.88462837 C13.0269798,5.66591046 13.2115522,5.4073169 13.3222956,5.11263589 C13.4078973,4.89750678 13.4262547,4.64589146 13.4262547,4.48738577 L13.4262547,3.36309196 C13.4284497,3.07638607 13.4078973,2.80582982 13.3039381,2.52650093" id="Fill-48"></path>
                    <path d="M2.31264219,1.58358149 C0.309283468,1.58358149 0,2.47659656 0,2.47659656 L0.716939033,2.95450617 C0.716939033,2.95450617 0.171203365,3.16425206 0.171203365,3.85828766 L0.171203365,6.3228019 L1.63501209,6.3228019 L1.63501209,3.50319504 C1.66234876,3.22924936 2.00395733,3.03625124 2.00395733,3.03625124 L1.68749051,2.77127758 C1.76989959,2.51707034 1.97442575,2.32865792 2.34117608,2.32865792 C2.81128695,2.32865792 3.03337244,2.68733934 3.03337244,3.14790304 L3.03337244,6.3228019 L4.51932985,6.3228019 L4.51932985,2.77825581 C4.51932985,2.1621771 3.96401637,1.58358149 2.31264219,1.58358149" id="Fill-50"></path>
                    <path d="M40.5490979,1.58358149 C38.5980181,1.58358149 38.3003078,2.47659656 38.3003078,2.47659656 L39.0166482,2.95450617 C39.0166482,2.95450617 38.4689172,3.16425206 38.4689172,3.85828766 L38.4689172,6.3228019 L39.9359185,6.3228019 L39.9359185,3.50937577 C39.9522806,3.23243941 40.303467,3.03625124 40.303467,3.03625124 L39.9866011,2.76948317 C40.0716042,2.51707034 40.263759,2.32865792 40.6610386,2.32865792 C41.2307188,2.32865792 41.3845624,2.76031177 41.3845624,3.14790304 L41.3845624,6.3228019 L42.8715175,6.3228019 L42.8715175,2.77825581 C42.8715175,2.23275699 42.466855,1.58358149 40.5490979,1.58358149" id="Fill-52"></path>
                    <path d="M29.3869778,6.41168471 C30.4786486,6.37320472 31.5910714,6.21868659 31.5910714,5.14383858 L31.5910714,0.0479305253 L30.1057126,0.0479305253 L30.1057126,4.9101673 C30.1057126,5.5455857 29.758517,5.62533699 29.4027412,5.62533699 C29.0383854,5.62533699 28.7197236,5.42296809 28.7197236,4.95881559 L28.7197236,1.79707569 L26.9336615,1.79707569 L26.9336615,1.86586118 C27.0599689,1.97850988 27.2317708,2.20420603 27.2317708,2.4342885 L27.2317708,5.14383858 C27.2317708,6.27550938 28.5112067,6.38098047 29.3486665,6.41168471 L29.3869778,6.41168471 Z" id="Fill-54"></path>
                    <path d="M56.4701928,5.71336248 C56.2451142,5.81006092 55.9047029,5.77975543 55.6514895,5.6372 C55.2829433,5.34650655 55.2585997,4.8213443 55.3914918,4.45947282 C55.545535,4.15821232 55.8093238,4.0330028 56.0842868,3.94607389 L56.0842868,3.31125362 C55.9827221,3.31324741 55.8831528,3.33278647 55.7841821,3.34654357 C55.7380889,3.35531621 55.6959864,3.35730999 55.6514895,3.36309196 C55.503233,3.35033176 55.3946844,3.28892326 55.3240481,3.19481674 C55.246827,3.08475996 55.2176945,2.92864681 55.254609,2.77133739 C55.2779549,2.63536144 55.3505866,2.52650093 55.4547453,2.45911109 C55.5612984,2.39889887 55.6732391,2.36679897 55.8015419,2.36679897 C56.0625372,2.36679897 56.2658661,2.54903067 56.2658661,2.54903067 L56.2658661,1.80335611 C56.1601111,1.76607238 55.8045349,1.63807156 55.1739957,1.6871186 C54.3481091,1.7531128 54.074942,2.15127111 53.9707833,2.40488021 C53.826717,2.70813449 53.8909682,3.12643001 54.1270213,3.40236947 C54.2164142,3.49288719 54.2527301,3.53356034 54.4438872,3.64561091 L54.5578232,3.71001007 L54.4359057,3.767431 C54.4359057,3.767431 54.3513017,3.81249048 54.2417555,3.88047846 C53.8889728,4.10298456 53.7876076,4.74617871 53.8540537,5.10206884 C53.9059335,5.63181679 54.3704573,6.15418774 54.9010281,6.29853757 C55.2903262,6.39882482 55.7167383,6.45544823 56.1297814,6.45544823 C56.6934755,6.45544823 57.2392111,6.35516099 57.7045331,6.16236224 C58.071483,5.96398091 58.3953327,5.6481658 58.3953327,4.99241082 L58.3953327,1.82149953 L56.9227443,1.82149953 L56.9227443,5.07276024 C56.9227443,5.29307318 56.7295918,5.6252373 56.4701928,5.71336248" id="Fill-56"></path>
                    <path d="M50.9266557,1.58358149 C48.9787685,1.58358149 48.6808587,2.47659656 48.6808587,2.47659656 L49.3969996,2.95450617 C49.3969996,2.95450617 48.8488695,3.16425206 48.8488695,3.85828766 L48.8488695,5.52947594 C48.8364981,5.61381293 48.7493001,6.01237 48.5491638,6.21872647 L48.5491638,6.3228019 L48.672079,6.3228019 L49.8820758,6.3228019 L49.9197884,6.3228019 C50.2931235,6.3228019 50.3164694,5.77411302 50.3164694,5.77411302 L50.3164694,3.73307813 L50.3224555,3.53170613 C50.3224555,3.24300646 50.690004,3.03625124 50.690004,3.03625124 L50.3689478,2.76788815 C50.4533523,2.51088962 50.6453076,2.32865792 51.039195,2.32865792 C51.6126664,2.32865792 51.7619206,2.76031177 51.7619206,3.14790304 L51.7619206,6.3228019 L53.2490753,6.3228019 L53.2490753,2.77825581 C53.2490753,2.23275699 52.8486031,1.58358149 50.9266557,1.58358149" id="Fill-58"></path>
                    <path d="M6.74956296,7.01205242 L6.74956296,7.25868329 C6.74956296,7.25868329 6.76392968,7.26267085 6.78986958,7.26267085 C6.93473397,7.26267085 7.08897662,7.35079603 7.08897662,7.55954503 L7.08897662,8.57119014 L8.40692327,8.57119014 L8.40692327,7.49155706 C8.40692327,7.15281345 8.18882854,7.01205242 7.91606048,7.01205242 L6.74956296,7.01205242 Z" id="Fill-60"></path>
                    <path d="M42.6505893,0.537324317 C42.4949499,0.537324317 42.3438998,0.523367841 42.1980378,0.48867603 C41.945423,0.437037069 41.783997,0.27633822 41.7674354,0.0584178199 L41.7674354,0 L40.5143385,0 C40.5520511,0.206157085 40.6288731,0.392974482 40.7410133,0.546894471 C41.003605,0.910360976 41.4014832,1.13685464 41.9270655,1.22278665 C42.7605346,1.3184882 43.5203742,1.25269339 44.1656792,1.01064822 L44.1656792,0.102281029 C43.9066793,0.238456357 43.2689567,0.537324317 42.6505893,0.537324317" id="Fill-62"></path>
                    <path d="M52.9969993,0.537324317 C52.8433552,0.537324317 52.6909084,0.523367841 52.5428514,0.48867603 C52.2902367,0.437037069 52.1298083,0.27633822 52.1138453,0.0584178199 L52.1138453,0 L50.8623447,0 C50.8984611,0.206157085 50.974884,0.392974482 51.0896182,0.546894471 C51.34782,0.910360976 51.7474941,1.13685464 52.2748723,1.22278665 C53.1059469,1.3184882 53.8667842,1.25269339 54.5116901,1.01064822 L54.5116901,0.102281029 C54.2473026,0.238456357 53.614369,0.537324317 52.9969993,0.537324317" id="Fill-64"></path>
                    <path d="M37.8923729,2.67110996 L37.8456811,2.69184529 C37.4410186,2.82144114 37.1093869,2.89222041 36.9122436,2.89222041 C36.612937,2.89222041 36.438142,2.68725959 36.4287637,2.67768944 L36.3623177,2.59973255 L36.276716,2.62924053 L36.276716,3.34859717 L36.2884887,3.38129519 L36.2968693,3.39126411 C36.3192175,3.42176897 36.5423007,3.66979549 36.9122436,3.66979549 C37.1295402,3.66979549 37.4733437,3.59143984 37.8923729,3.45745768 L37.8923729,2.67110996 Z" id="Fill-66"></path>
                    <path d="M37.8923729,4.54707961 L37.8456811,4.56781495 C37.4410186,4.69960396 37.1093869,4.76938634 36.9122436,4.76938634 C36.612937,4.76938634 36.438142,4.56302987 36.4287637,4.55485536 L36.3623177,4.47929102 L36.276716,4.50680521 L36.276716,5.22815563 L36.2884887,5.25885988 L36.2968693,5.26882879 C36.3192175,5.29654236 36.5423007,5.54297385 36.9122436,5.54297385 C37.1295402,5.54297385 37.4733437,5.46960266 37.8923729,5.33063604 L37.8923729,4.54707961 Z" id="Fill-68"></path>
                </g>
                <path d="M24.7034114,22.9416213 C24.7034114,22.6441233 24.457231,22.3881367 24.1492391,22.3881367 C23.849773,22.3881367 23.6089212,22.6441233 23.6089212,22.9416213 C23.6089212,23.2486988 23.849773,23.4887195 24.1492391,23.4887195 C24.457231,23.4887195 24.7034114,23.2486988 24.7034114,22.9416213 M51.2082988,25.5743984 C51.2082988,25.5743984 51.1582102,25.8208055 50.9754399,26.1465099 L50.9887614,26.1465099 C50.9477313,26.2444341 50.8832555,26.3412939 50.8118525,26.4296386 C50.5816579,26.752682 50.2033287,27.1268163 49.6294407,27.4221854 C49.5591035,27.4573104 49.5063505,27.4839203 49.4578605,27.5126589 C49.3369017,27.5648142 49.2324616,27.5956816 49.1029771,27.6520944 C48.5541334,27.8532648 47.8395709,28.0102628 46.9512967,28.0368726 L46.4413516,28.0368726 C45.9425965,28.0586927 45.4534329,28.0634825 44.9589408,28.0938177 C43.2431382,28.0938177 41.6562872,28.3657702 40.3529166,29.309355 C39.2818721,29.99376 38.4181094,31.0735871 37.3848978,31.7755546 C35.1815302,33.5419155 31.8367808,34.0363262 29.1474467,33.0001392 C27.5232957,32.4003535 25.8911518,31.1017935 24.9996804,29.5440537 C24.2627379,28.3263877 23.849773,26.9889773 23.5449782,25.6010083 C23.1900948,24.5382114 22.0583045,23.5488578 20.9403685,23.3929241 C21.0261587,23.2332651 21.1359274,23.0762671 21.2616819,22.9331062 C22.270382,21.7564192 23.7773043,21.1725994 25.2719708,21.6100651 C26.501807,21.9698301 27.0394607,23.2971287 27.5414129,24.2928688 C27.796119,24.7133042 28.2756911,25.1949422 28.8549077,25.1949422 C29.2321711,25.189088 29.6062374,24.9112813 29.7469119,24.5584349 C29.9158279,23.9911132 29.5311044,23.5488578 29.2534855,23.1156496 C28.3449626,22.0379513 27.0394607,20.846895 27.796119,19.3860151 C28.4504685,18.3067201 29.6062374,17.6265727 30.7875835,17.3796334 C30.7875835,17.3796334 31.7978822,17.1811241 32.3296744,17.1811241 L44.7521919,17.1811241 C45.7262562,17.1284366 46.6241219,16.8357284 47.5054689,16.3695241 L47.527849,16.3514294 C47.5028046,17.3636675 46.7845121,18.225294 45.9122236,18.6409397 C45.4811416,18.8389168 44.6013931,19.0768088 44.166581,19.0768088 C43.8463334,19.0768088 33.5493863,19.0592463 33.5493863,19.0592463 C33.2834902,19.0980966 33.0032069,19.1678144 32.8982339,19.4323162 C32.8097794,19.5621722 32.8342909,19.7878236 32.927541,19.9166152 C33.1033842,20.1608935 33.3127973,20.1773916 33.6154607,20.1773916 L44.4575214,20.1608935 C45.3553871,20.1417344 46.0752782,19.8091114 46.7845121,19.466909 C46.8596451,19.7000111 46.5814932,20.1944219 46.3955258,20.5057569 C45.5685303,21.5414117 44.4575214,22.0028263 43.1903852,22.0597713 L35.5529322,22.0597713 C35.2316188,22.0597713 34.968387,22.2758432 34.8905897,22.5217181 C34.8799326,22.670201 34.8799326,22.8357142 35.0067528,22.9549262 C35.2119031,23.1513068 35.4564849,23.1624829 35.7580825,23.1624829 L43.0358564,23.1624829 C44.0472208,23.1624829 44.9722622,22.8703069 45.8818507,22.5791953 C45.8552078,23.0821212 45.4187972,23.47914 45.0777681,23.8681758 C44.0291036,24.8383704 42.6751116,25.1034044 41.2118836,25.0725369 L37.3225534,25.0725369 C37.0108315,25.0725369 36.8472441,25.1364006 36.6724667,25.3290558 C36.5504423,25.4408171 36.5451137,25.7095764 36.6202467,25.8431578 C36.7630526,26.0677448 37.0769059,26.1465099 37.3225534,26.1465099 L48.5221619,26.1465099 C48.7944523,26.1465099 49.7141651,26.0885005 51.2082988,25.5743984 M54.0958561,27.0794508 C54.0958561,17.0954404 45.9756337,8.96560339 35.99627,8.96560339 C26.0195705,8.96560339 17.9041439,17.0954404 17.9041439,27.0794508 C17.9041439,30.5041366 18.8648868,33.8191899 20.6824653,36.7026317 C21.4140792,36.4556925 22.1291746,36.3481887 22.8469343,36.3481887 C24.8419545,36.3481887 26.4373312,37.2311031 27.844609,38.0224796 C28.2783554,38.2529208 28.6748017,38.4684604 29.0627223,38.6547293 C29.7138747,38.9745795 31.4739045,39.7138007 33.6841993,39.7138007 C35.4964492,39.7138007 37.2186461,39.2039563 38.7660656,38.2167314 C39.263755,37.888366 39.7816929,37.5317942 40.2777836,37.1879951 L40.6800914,36.9213646 C42.5147213,35.6222724 44.4239514,34.2779435 46.6241219,33.6808188 C47.4111531,33.4551674 48.2258929,33.3386163 49.0155884,33.3386163 C50.2187816,33.3386163 51.4294349,33.5946029 52.6768554,34.1092372 C53.6237439,31.8814617 54.0958561,29.5115897 54.0958561,27.0794508 M52.2308533,35.0788996 C51.1358302,34.6424983 50.0855671,34.4211044 49.0406327,34.4211044 C46.1227025,34.4211044 43.671556,36.1395676 41.2966081,37.8053433 C40.6720985,38.2433412 39.9985661,38.702627 39.3442165,39.1209336 C37.6230853,40.225774 35.7106581,40.7787264 33.6841993,40.7787264 C31.235717,40.7787264 29.3110341,39.9649976 28.576223,39.6233273 C28.1952296,39.4370585 27.8046447,39.2215188 27.3975412,39.0011893 C25.9865333,38.2167314 24.5829855,37.4296125 22.8469343,37.4296125 C22.352975,37.4296125 21.8515556,37.498798 21.3293548,37.6541995 C21.538768,37.9490364 21.7604369,38.2300363 21.9986244,38.5328562 C23.1639848,38.5855437 24.4002152,38.9485019 25.6939943,39.6073614 L26.8646833,40.2172588 C29.791672,41.7457278 31.697172,42.7584982 34.9049769,42.7584982 C37.4914694,42.7584982 40.2777836,41.0560009 42.7406531,39.5541417 C43.6838117,38.98682 44.6013931,38.413112 45.4411772,37.9921444 C46.7711907,37.3439288 48.1097298,37.0059839 49.3869904,37.0059839 C49.9331698,37.0059839 50.476152,37.0693153 50.9999514,37.1879951 C51.4614064,36.5083799 51.8727727,35.7984295 52.2308533,35.0788996 M50.3051046,38.1565932 C50.0008427,38.1092277 49.6949823,38.0826178 49.3816618,38.0826178 C48.2679887,38.0826178 47.0935697,38.3763904 45.9122236,38.9607424 C45.1720839,39.3449884 44.3157812,39.8574939 43.3518412,40.4466356 C40.7589544,42.030453 37.8324985,43.8271492 34.9049769,43.8271492 C31.4072973,43.8271492 29.4032185,42.7739319 26.3605996,41.1688266 L25.2053636,40.5589291 C24.4849396,40.2071471 23.79702,39.9325336 23.1160276,39.7718102 C26.5188584,43.2119298 31.1712412,45.1858474 35.99627,45.1858474 C41.5609056,45.1858474 46.890018,42.5536024 50.3051046,38.1565932 M55.728,27.0794508 C55.728,37.953294 46.890018,46.8 35.99627,46.8 C25.1238363,46.8 16.272,37.953294 16.272,27.0794508 C16.272,16.1912382 25.1238363,7.344 35.99627,7.344 C46.890018,7.344 55.728,16.1912382 55.728,27.0794508" id="Fill-2" fill="#FFFFFF"></path>
            </g>
        </g>
    </g>
</svg>