<?xml version="1.0" encoding="UTF-8"?>
<svg width="92px" height="92px" viewBox="0 0 92 92" version="1.1" xmlns="http://www.w3.org/2000/svg" xmlns:xlink="http://www.w3.org/1999/xlink">
    <title>image/logo/insurance/chubb</title>
    <defs>
        <polygon id="path-1" points="0 0 51.4478736 0 51.4478736 5.458032 0 5.458032"></polygon>
    </defs>
    <g id="Symbols" stroke="none" stroke-width="1" fill="none" fill-rule="evenodd">
        <g id="image/logo/insurance/chubb">
            <rect id="Mask" stroke="#EBEBEB" fill="#FFFFFF" x="0.5" y="0.5" width="91" height="91" rx="12"></rect>
            <g id="image/logo/square-big/chubb" transform="translate(10.000000, 10.000000)">
                <rect id="Rectangle" fill="#150F96" x="0" y="0" width="72" height="72"></rect>
                <g id="Group-8" transform="translate(9.072000, 33.045000)">
                    <g id="Group-3" transform="translate(0.000000, 0.285787)">
                        <mask id="mask-2" fill="white">
                            <use xlink:href="#path-1"></use>
                        </mask>
                        <g id="Clip-2"></g>
                        <path d="M7.4361456,0.97632 L7.4361456,0 L1.3952016,0 C0.4674096,0 -1.44e-05,0.477072 -1.44e-05,1.247328 L-1.44e-05,4.210848 C-1.44e-05,4.982112 0.4674096,5.458032 1.3952016,5.458032 L7.4361456,5.458032 L7.4361456,4.483728 L1.0537776,4.483728 L1.0537776,0.97632 L7.4361456,0.97632 Z M11.4697296,2.230416 L11.4697296,0 L10.4379696,0 L10.4379696,5.458032 L11.4697296,5.458032 L11.4697296,3.19104 L16.9657776,3.19104 L16.9657776,5.458032 L17.9937936,5.458032 L17.9937936,0 L16.9657776,0 L16.9657776,2.230416 L11.4697296,2.230416 Z M27.9896976,0 L27.9896976,4.483728 L22.5706896,4.483728 L22.5706896,0 L21.5429616,0 L21.5429616,4.210848 C21.5429616,4.982112 22.0088016,5.458032 22.9367376,5.458032 L27.6236496,5.458032 C28.5491376,5.458032 29.0198736,4.982112 29.0198736,4.210848 L29.0198736,0 L27.9896976,0 Z M38.8964016,5.458032 C39.9098736,5.458032 40.3785936,5.036688 40.3785936,4.312944 L40.3785936,3.672432 C40.3785936,3.47112 40.3096176,3.377232 40.1600016,3.251952 L39.5050896,2.690496 L40.1600016,2.12976 C40.3096176,2.005776 40.3785936,1.912032 40.3785936,1.709568 L40.3785936,1.147104 C40.3785936,0.422208 39.9098736,0 38.8964016,0 L32.5661616,0 L32.5661616,5.458032 L38.8964016,5.458032 Z M33.5936016,2.253744 L39.3255216,2.253744 L39.3255216,0.928224 L33.5936016,0.928224 L33.5936016,2.253744 Z M33.5936016,4.529952 L39.3255216,4.529952 L39.3255216,3.166128 L33.5936016,3.166128 L33.5936016,4.529952 Z M49.9682736,5.458032 C50.9816016,5.458032 51.4478736,5.036688 51.4478736,4.312944 L51.4478736,3.672432 C51.4478736,3.47112 51.3804816,3.377232 51.2304336,3.251952 L50.5753776,2.690496 L51.2304336,2.12976 C51.3804816,2.005776 51.4478736,1.912032 51.4478736,1.709568 L51.4478736,1.147104 C51.4478736,0.422208 50.9816016,0 49.9682736,0 L43.6374576,0 L43.6374576,5.458032 L49.9682736,5.458032 Z M44.6674896,2.253744 L50.3953776,2.253744 L50.3953776,0.928224 L44.6674896,0.928224 L44.6674896,2.253744 Z M44.6673456,4.529952 L50.3952336,4.529952 L50.3952336,3.166128 L44.6673456,3.166128 L44.6673456,4.529952 Z" id="Fill-1" fill="#FFFFFF" mask="url(#mask-2)"></path>
                    </g>
                    <path d="M53.2348848,0 C53.6380151,0 53.9640768,0.316489189 53.9640768,0.710904 C53.9640768,1.10471162 53.6372992,1.423536 53.2348848,1.423536 C52.8345347,1.423536 52.5090048,1.10447289 52.5090048,0.710904 C52.5090048,0.316727506 52.833823,0 53.2348848,0 Z M53.2348848,0.15 C52.9158307,0.15 52.6590048,0.400428817 52.6590048,0.710904 C52.6590048,1.02094903 52.9167112,1.273536 53.2348848,1.273536 C53.5552724,1.273536 53.8140768,1.02103046 53.8140768,0.710904 C53.8140768,0.400348631 53.5561561,0.15 53.2348848,0.15 Z" id="Stroke-4" fill="#FFFFFF" fill-rule="nonzero"></path>
                    <path d="M53.0296272,0.6661632 L53.1766512,0.6598272 C53.3298672,0.6533472 53.4246192,0.5894112 53.4202992,0.5021472 C53.4146832,0.4046592 53.3085552,0.3656352 53.1573552,0.3721152 C53.0878032,0.3758592 53.0401392,0.3834912 53.0163792,0.3888192 L53.0296272,0.6661632 Z M52.8692112,0.3264672 C52.9412112,0.3127872 53.0456112,0.3015552 53.1435312,0.2970912 C53.2968912,0.2896032 53.3966832,0.3040032 53.4673872,0.3431712 C53.5259952,0.3748512 53.5596912,0.4258272 53.5621392,0.4852992 C53.5673232,0.5855232 53.4780432,0.6559392 53.3629872,0.6893472 L53.3629872,0.6929472 C53.4496752,0.7100832 53.5039632,0.7612032 53.5337712,0.8399712 C53.5746672,0.9439392 53.6062032,1.0160832 53.6293872,1.0451712 L53.4810672,1.0512192 C53.4617712,1.0320672 53.4344112,0.9662592 53.3984112,0.8732352 C53.3602512,0.7695552 53.2983312,0.7322592 53.1690192,0.7357152 L53.0335152,0.7424832 L53.0490672,1.0728192 L52.9052112,1.0803072 L52.8692112,0.3264672 Z" id="Fill-6" fill="#FFFFFF"></path>
                </g>
            </g>
        </g>
    </g>
</svg>