<?xml version="1.0" encoding="UTF-8"?>
<svg width="92px" height="92px" viewBox="0 0 92 92" version="1.1" xmlns="http://www.w3.org/2000/svg" xmlns:xlink="http://www.w3.org/1999/xlink">
    <title>image/logo/insurance/ergo</title>
    <g id="Symbols" stroke="none" stroke-width="1" fill="none" fill-rule="evenodd">
        <g id="image/logo/insurance/ergo">
            <rect id="Mask" stroke="#EBEBEB" fill="#FFFFFF" x="0.5" y="0.5" width="91" height="91" rx="12"></rect>
            <g id="Group" transform="translate(6.000000, 6.000000)" fill="#C10022" fill-rule="nonzero">
                <g id="Group-Copy-6" transform="translate(10.200000, 31.333333)">
                    <path d="M51.7481108,0.0297823597 C47.5163728,0.0297823597 43.3450882,2.97823597 43.3450882,8.69644903 C43.3450882,14.0274914 46.8513854,17.3333333 51.5969773,17.3333333 C56.5843829,17.3333333 60,13.7296678 60,8.69644903 C59.9697733,2.82932417 55.7984887,0.0297823597 51.7481108,0.0297823597 Z M51.6574307,13.8785796 C49.209068,13.8785796 47.4256927,11.8831615 47.4256927,8.69644903 C47.4256927,5.86712486 48.8765743,3.51431844 51.6574307,3.51431844 C54.7103275,3.51431844 55.8891688,6.31386025 55.8891688,8.69644903 C55.8891688,11.1088202 54.7103275,13.8785796 51.6574307,13.8785796 Z" id="Shape"></path>
                    <path d="M35.2745592,7.26689576 L35.2745592,10.5727377 L38.1460957,10.5727377 L38.1460957,13.4914089 C37.9042821,13.6403207 37.1486146,13.8487973 36.1209068,13.8487973 C33.279597,13.8487973 31.6473552,11.8235968 31.6473552,8.66666667 C31.6473552,5.74799542 32.8564232,3.63344788 36.4534005,3.63344788 C37.9042821,3.63344788 39.1435768,3.90148912 40.2015113,4.31844215 L41.6221662,1.07216495 C40.231738,0.387170676 38.6599496,0 36.2115869,0 C31.2544081,0 27.4760705,3.48453608 27.4760705,8.75601375 C27.4760705,13.4318442 30.256927,17.2737686 35.9093199,17.2737686 C38.7808564,17.2737686 40.8967254,16.3802978 41.8942065,15.7250859 L41.8942065,7.2371134 L35.2745592,7.2371134 L35.2745592,7.26689576 Z" id="Path"></path>
                    <path d="M23.3047859,10.5429553 L23.3047859,10.4833906 C24.1511335,9.97709049 24.9370277,9.20274914 25.4206549,8.45819015 C25.9647355,7.62428408 26.2065491,6.64146621 26.2065491,5.65864834 C26.2065491,4.88430699 26.0554156,4.16953036 25.7833753,3.51431844 C25.511335,2.82932417 25.0881612,2.20389462 24.4836272,1.6975945 C23.9093199,1.19129439 23.1536524,0.804123711 22.2166247,0.506300115 C21.279597,0.208476518 20.1612091,0.0595647194 18.8312343,0.0595647194 C17.8337531,0.0595647194 16.9269521,0.119129439 16.1108312,0.178694158 C15.2342569,0.268041237 14.6599496,0.327605956 13.813602,0.476517755 L13.813602,17.0355097 L17.743073,17.0355097 L17.743073,11.4959908 C18.2267003,11.5257732 18.5894207,11.5257732 19.1032746,11.4959908 C19.1032746,11.4959908 19.6171285,11.674685 20.2518892,12.5085911 C21.0377834,13.4914089 21.9748111,15.0103093 22.5188917,17.0355097 L27.1738035,17.0355097 C26.2367758,14.1168385 25.1486146,11.3768614 23.3047859,10.5429553 Z M21.4005038,7.74341352 C20.8564232,8.16036655 19.9798489,8.42840779 19.0125945,8.42840779 C18.559194,8.42840779 18.0151134,8.39862543 17.7732997,8.36884307 L17.7732997,3.60366552 C17.9546599,3.57388316 18.5289673,3.51431844 18.7405542,3.51431844 C18.9521411,3.51431844 19.3148615,3.51431844 19.4357683,3.51431844 C20.2821159,3.51431844 20.97733,3.72279496 21.4911839,4.10996564 C22.0050378,4.49713631 22.2468514,5.06300115 22.2468514,5.74799542 C22.2468514,6.58190149 21.9748111,7.29667812 21.4005038,7.74341352 Z" id="Shape"></path>
                    <path d="M5.50125945,13.4914089 C4.62468514,13.4914089 3.95969773,13.0148912 3.95969773,11.8831615 L3.95969773,10.0962199 L10.4282116,10.0962199 L10.4282116,6.73081329 L3.92947103,6.73081329 L3.92947103,3.87170676 L11.5465995,3.87170676 L11.5465995,0.297823597 L0,0.297823597 L0,13.0744559 C0,15.6953036 1.02770781,17.0355097 3.98992443,17.0355097 L11.8790932,17.0355097 L11.8790932,13.4914089 C11.8790932,13.4914089 7.25440806,13.4914089 5.50125945,13.4914089 Z" id="Path"></path>
                </g>
            </g>
        </g>
    </g>
</svg>