<?xml version="1.0" encoding="UTF-8"?>
<svg width="92px" height="92px" viewBox="0 0 92 92" version="1.1" xmlns="http://www.w3.org/2000/svg" xmlns:xlink="http://www.w3.org/1999/xlink">
    <title>image/logo/insurance/kpi</title>
    <defs>
        <polygon id="path-1" points="0 35.97248 66.17168 35.97248 66.17168 0 0 0"></polygon>
    </defs>
    <g id="Symbols" stroke="none" stroke-width="1" fill="none" fill-rule="evenodd">
        <g id="image/logo/insurance/kpi">
            <rect id="Mask" stroke="#EBEBEB" fill="#FFFFFF" x="0.5" y="0.5" width="91" height="91" rx="12"></rect>
            <g id="Group" transform="translate(-9.000000, -11.000000)">
                <g id="image/logo/square-big/kpi" transform="translate(15.000000, 17.000000)">
                    <g id="Group-60" transform="translate(6.880000, 22.080000)">
                        <path d="M44.591904,0 L44.591904,6.80608 L47.065184,3.85904 C47.528064,3.30736 47.907104,2.26864 47.907104,1.55408 L47.907104,0 L44.591904,0 Z" id="Fill-1" fill="#1DB9EC"></path>
                        <path d="M47.065184,10.089936 L44.591904,7.140656 L44.591904,21.050736 L47.907104,21.050736 L47.907104,12.398256 C47.907104,11.675056 47.528064,10.640016 47.065184,10.089936 L47.065184,10.089936 Z M18.264544,21.050736 L21.577984,21.050736 L21.577984,7.301456 L18.264544,7.301456 L18.264544,21.050736 Z M39.473184,13.082096 C39.473184,13.820976 38.933344,15.294256 37.101984,15.294256 L34.468384,15.294256 L34.468384,12.017296 C34.468384,10.856176 35.538784,9.884176 36.746624,9.884176 L37.176064,9.884176 C38.960704,9.884176 39.473184,11.458736 39.473184,12.200656 L39.473184,13.082096 Z M36.994624,7.001136 C33.610144,7.001136 31.181024,9.226896 31.151264,11.987696 L31.151264,20.783696 L25.608544,14.176976 L31.371424,7.303056 L27.186624,7.303056 L22.919744,12.382576 C22.064704,13.408496 22.064704,14.952176 22.919744,15.976976 L27.186624,21.050736 L34.498144,21.050736 L34.498144,17.139216 C34.784544,17.523376 35.933024,18.180176 37.071744,18.180176 L37.184544,18.180176 C39.864864,18.180176 42.758944,16.244176 42.758944,13.260176 L42.758944,12.015856 C42.758944,9.245136 40.284064,7.001136 36.994624,7.001136 L36.994624,7.001136 Z" id="Fill-3" fill="#2A598D"></path>
                        <path d="M7.913872,35.941216 L7.291952,34.830816 L6.925552,35.265856 L6.925552,35.941216 L6.466352,35.941216 L6.466352,33.647296 L6.925552,33.647296 L6.925552,34.294336 C6.925552,34.380416 6.922032,34.589696 6.917552,34.659616 C6.951312,34.607296 7.035632,34.500416 7.098992,34.427136 L7.742032,33.647296 L8.295472,33.647296 L7.624592,34.437856 L8.468912,35.941216 L7.913872,35.941216 Z" id="Fill-5" fill="#2A598D"></path>
                        <path d="M9.813552,34.086704 L9.217392,34.086704 L9.217392,34.682544 L9.813552,34.682544 C10.028432,34.682544 10.142672,34.580784 10.142672,34.380464 C10.142672,34.175664 10.018992,34.086704 9.813552,34.086704 L9.813552,34.086704 Z M10.084752,35.941264 L9.674352,35.111824 L9.217392,35.111824 L9.217392,35.941264 L8.757392,35.941264 L8.757392,33.647184 L9.823472,33.647184 C10.256592,33.647184 10.616112,33.884304 10.616112,34.372944 C10.616112,34.717744 10.467472,34.932464 10.178352,35.046864 L10.616112,35.941264 L10.084752,35.941264 Z" id="Fill-7" fill="#2A598D"></path>
                        <path d="M11.913312,35.97248 C11.360032,35.97248 10.987872,35.60256 10.987872,34.93248 L10.987872,33.6472 L11.447072,33.6472 L11.447072,34.92496 C11.447072,35.29536 11.623232,35.5256 11.913312,35.5256 C12.204992,35.5256 12.388512,35.3024 12.388512,34.93248 L12.388512,33.6472 L12.848992,33.6472 L12.848992,34.92496 C12.848992,35.592 12.497632,35.97248 11.913312,35.97248" id="Fill-9" fill="#2A598D"></path>
                        <path d="M14.792656,35.941216 L13.951536,34.687616 C13.896496,34.601696 13.819856,34.484576 13.791696,34.427136 C13.791696,34.512896 13.798416,34.801216 13.798416,34.928416 L13.798416,35.941216 L13.344656,35.941216 L13.344656,33.647296 L13.783696,33.647296 L14.596656,34.855136 C14.654416,34.945376 14.727536,35.056096 14.755056,35.114976 C14.755056,35.031136 14.752496,34.743616 14.752496,34.614016 L14.752496,33.647296 L15.203536,33.647296 L15.203536,35.941216 L14.792656,35.941216 Z" id="Fill-11" fill="#2A598D"></path>
                        <path d="M16.60296,35.97248 C16.00168,35.97248 15.60088,35.51712 15.60088,34.79072 C15.60088,34.0936 16.01832,33.60656 16.6164,33.60656 C17.08968,33.60656 17.33624,33.82496 17.48632,34.18256 L17.04872,34.36064 C16.96504,34.19312 16.85752,34.06384 16.61096,34.06384 C16.26776,34.06384 16.0716,34.36608 16.0716,34.79072 C16.0716,35.21488 16.27048,35.5256 16.6164,35.5256 C16.92664,35.5256 17.03736,35.37728 17.06136,35.17792 L16.69992,35.17792 L16.69992,34.74864 L17.52472,34.74864 L17.52472,35.05248 C17.52472,35.64032 17.13304,35.97248 16.60296,35.97248" id="Fill-13" fill="#2A598D"></path>
                        <polygon id="Fill-15" fill="#2A598D" points="18.891408 34.096016 18.891408 35.941136 18.432048 35.941136 18.432048 34.096016 17.773168 34.096016 17.773168 33.647216 19.549968 33.647216 19.549968 34.096016"></polygon>
                        <polygon id="Fill-17" fill="#2A598D" points="21.27488 35.941216 21.27488 34.975296 20.33536 34.975296 20.33536 35.941216 19.87648 35.941216 19.87648 33.647296 20.33536 33.647296 20.33536 34.521536 21.27488 34.521536 21.27488 33.647296 21.736 33.647296 21.736 35.941216"></polygon>
                        <path d="M23.261616,34.575376 C23.214736,34.440976 23.170896,34.299856 23.146096,34.217936 C23.124016,34.299856 23.076176,34.440976 23.032176,34.575376 L22.884496,34.991376 L23.408496,34.991376 L23.261616,34.575376 Z M23.745776,35.941296 L23.565136,35.425936 L22.726896,35.425936 L22.545776,35.941296 L22.056336,35.941296 L22.930736,33.647216 L23.378256,33.647216 L24.253136,35.941296 L23.745776,35.941296 Z" id="Fill-19" fill="#2A598D"></path>
                        <mask id="mask-2" fill="white">
                            <use xlink:href="#path-1"></use>
                        </mask>
                        <g id="Clip-22"></g>
                        <polygon id="Fill-21" fill="#2A598D" mask="url(#mask-2)" points="24.5848 35.94112 25.04576 35.94112 25.04576 33.6472 24.5848 33.6472"></polygon>
                        <path d="M28.327936,34.086704 L27.798816,34.086704 L27.798816,34.682544 L28.335136,34.682544 C28.549376,34.682544 28.663136,34.580784 28.663136,34.380464 C28.663136,34.182544 28.529856,34.086704 28.327936,34.086704 M28.306016,35.125904 L27.798816,35.125904 L27.798816,35.941264 L27.342976,35.941264 L27.342976,33.647184 L28.344576,33.647184 C28.778336,33.647184 29.134816,33.884304 29.134816,34.372944 C29.134816,34.902384 28.779616,35.125904 28.306016,35.125904" id="Fill-23" fill="#2A598D" mask="url(#mask-2)"></path>
                        <path d="M30.316784,34.575376 C30.269264,34.440976 30.223984,34.299856 30.200624,34.217936 C30.177584,34.299856 30.128784,34.440976 30.084144,34.575376 L29.937744,34.991376 L30.461744,34.991376 L30.316784,34.575376 Z M30.800304,35.941296 L30.617744,35.425936 L29.780944,35.425936 L29.598544,35.941296 L29.108624,35.941296 L29.986544,33.647216 L30.433104,33.647216 L31.306704,35.941296 L30.800304,35.941296 Z" id="Fill-24" fill="#2A598D" mask="url(#mask-2)"></path>
                        <path d="M33.073168,35.941216 L32.229648,34.687616 C32.176048,34.601696 32.099408,34.484576 32.071728,34.427136 C32.071728,34.512896 32.074448,34.801216 32.074448,34.928416 L32.074448,35.941216 L31.623248,35.941216 L31.623248,33.647296 L32.061488,33.647296 L32.878128,34.855136 C32.931408,34.945376 33.007248,35.056096 33.037488,35.114976 C33.037488,35.031136 33.031088,34.743616 33.031088,34.614016 L33.031088,33.647296 L33.483248,33.647296 L33.483248,35.941216 L33.073168,35.941216 Z" id="Fill-25" fill="#2A598D" mask="url(#mask-2)"></path>
                        <polygon id="Fill-26" fill="#2A598D" mask="url(#mask-2)" points="34.01184 35.94112 34.46992 35.94112 34.46992 33.6472 34.01184 33.6472"></polygon>
                        <path d="M36.31712,34.312352 C36.23584,34.158272 36.1072,34.063872 35.90048,34.063872 C35.55552,34.063872 35.36032,34.365952 35.36032,34.790592 C35.36032,35.203872 35.55824,35.518752 35.9016,35.518752 C36.1072,35.518752 36.23152,35.431392 36.35136,35.226752 L36.73712,35.457312 C36.58208,35.784032 36.30528,35.972512 35.88704,35.972512 C35.29072,35.972512 34.88352,35.517152 34.88352,34.790592 C34.88352,34.093632 35.30784,33.606432 35.90512,33.606432 C36.33904,33.606432 36.60336,33.817952 36.74304,34.116672 L36.31712,34.312352 Z" id="Fill-27" fill="#2A598D" mask="url(#mask-2)"></path>
                        <polygon id="Fill-28" fill="#2A598D" mask="url(#mask-2)" points="38.487648 35.941216 38.487648 34.975296 37.550048 34.975296 37.550048 35.941216 37.086528 35.941216 37.086528 33.647296 37.550048 33.647296 37.550048 34.521536 38.487648 34.521536 38.487648 33.647296 38.947968 33.647296 38.947968 35.941216"></polygon>
                        <polygon id="Fill-29" fill="#2A598D" mask="url(#mask-2)" points="41.24336 35.94112 41.7008 35.94112 41.7008 33.6472 41.24336 33.6472"></polygon>
                        <path d="M43.683088,35.941216 L42.836688,34.687616 C42.783568,34.601696 42.708848,34.484576 42.676848,34.427136 C42.676848,34.512896 42.686288,34.801216 42.686288,34.928416 L42.686288,35.941216 L42.233008,35.941216 L42.233008,33.647296 L42.671568,33.647296 L43.484848,34.855136 C43.541808,34.945376 43.618128,35.056096 43.644848,35.114976 C43.644848,35.031136 43.639408,34.743616 43.639408,34.614016 L43.639408,33.647296 L44.093328,33.647296 L44.093328,35.941216 L43.683088,35.941216 Z" id="Fill-30" fill="#2A598D" mask="url(#mask-2)"></path>
                        <path d="M45.342976,35.97248 C44.963776,35.97248 44.628896,35.81552 44.450976,35.5584 L44.785696,35.26576 C44.944736,35.45072 45.149216,35.5256 45.371136,35.5256 C45.643776,35.5256 45.769536,35.45072 45.769536,35.2776 C45.769536,35.12768 45.694176,35.06272 45.259136,34.96496 C44.837216,34.8656 44.539936,34.73296 44.539936,34.28272 C44.539936,33.86336 44.910816,33.60656 45.360256,33.60656 C45.716896,33.60656 45.979456,33.74448 46.199456,33.97168 L45.865696,34.2896 C45.716896,34.14272 45.551776,34.052 45.342976,34.052 C45.096896,34.052 45.015136,34.15984 45.015136,34.26 C45.015136,34.40672 45.113536,34.45024 45.478656,34.53728 C45.839936,34.62304 46.245536,34.7472 46.245536,35.24416 C46.245536,35.68096 45.972096,35.97248 45.342976,35.97248" id="Fill-31" fill="#2A598D" mask="url(#mask-2)"></path>
                        <path d="M47.53272,35.97248 C46.97624,35.97248 46.60312,35.60256 46.60312,34.93248 L46.60312,33.6472 L47.0604,33.6472 L47.0604,34.92496 C47.0604,35.29536 47.23816,35.5256 47.53272,35.5256 C47.82216,35.5256 48.00376,35.3024 48.00376,34.93248 L48.00376,33.6472 L48.4636,33.6472 L48.4636,34.92496 C48.4636,35.592 48.114,35.97248 47.53272,35.97248" id="Fill-32" fill="#2A598D" mask="url(#mask-2)"></path>
                        <path d="M50.017632,34.086704 L49.420192,34.086704 L49.420192,34.682544 L50.017632,34.682544 C50.231392,34.682544 50.346592,34.580784 50.346592,34.380464 C50.346592,34.175664 50.221952,34.086704 50.017632,34.086704 L50.017632,34.086704 Z M50.293792,35.941264 L49.880032,35.111824 L49.420192,35.111824 L49.420192,35.941264 L48.958112,35.941264 L48.958112,33.647184 L50.028672,33.647184 C50.462112,33.647184 50.821312,33.884304 50.821312,34.372944 C50.821312,34.717744 50.672512,34.932464 50.380032,35.046864 L50.821312,35.941264 L50.293792,35.941264 Z" id="Fill-33" fill="#2A598D" mask="url(#mask-2)"></path>
                        <path d="M52.295056,34.575376 C52.252176,34.440976 52.203696,34.299856 52.180336,34.217936 C52.159696,34.299856 52.110896,34.440976 52.064176,34.575376 L51.921136,34.991376 L52.444976,34.991376 L52.295056,34.575376 Z M52.781296,35.941296 L52.602576,35.425936 L51.760336,35.425936 L51.582256,35.941296 L51.088016,35.941296 L51.968016,33.647216 L52.417776,33.647216 L53.286896,35.941296 L52.781296,35.941296 Z" id="Fill-34" fill="#2A598D" mask="url(#mask-2)"></path>
                        <path d="M55.055632,35.941216 L54.212272,34.687616 C54.155952,34.601696 54.082192,34.484576 54.054672,34.427136 C54.054672,34.512896 54.058192,34.801216 54.058192,34.928416 L54.058192,35.941216 L53.606192,35.941216 L53.606192,33.647296 L54.045552,33.647296 L54.858032,34.855136 C54.913232,34.945376 54.990512,35.056096 55.020272,35.114976 C55.020272,35.031136 55.012112,34.743616 55.012112,34.614016 L55.012112,33.647296 L55.465712,33.647296 L55.465712,35.941216 L55.055632,35.941216 Z" id="Fill-35" fill="#2A598D" mask="url(#mask-2)"></path>
                        <path d="M57.291248,34.312352 C57.213008,34.158272 57.081648,34.063872 56.876368,34.063872 C56.526288,34.063872 56.331408,34.365952 56.331408,34.790592 C56.331408,35.203872 56.531568,35.518752 56.876368,35.518752 C57.081648,35.518752 57.204688,35.431392 57.326608,35.226752 L57.713168,35.457312 C57.556848,35.784032 57.280848,35.972512 56.863568,35.972512 C56.264688,35.972512 55.858288,35.517152 55.858288,34.790592 C55.858288,34.093632 56.279088,33.606432 56.880368,33.606432 C57.316528,33.606432 57.574608,33.817952 57.721328,34.116672 L57.291248,34.312352 Z" id="Fill-36" fill="#2A598D" mask="url(#mask-2)"></path>
                        <polygon id="Fill-37" fill="#2A598D" mask="url(#mask-2)" points="58.062784 35.941216 58.062784 33.647296 59.657184 33.647296 59.657184 34.093696 58.522944 34.093696 58.522944 34.490496 59.180544 34.490496 59.180544 34.937056 58.522944 34.937056 58.522944 35.490496 59.705344 35.490496 59.705344 35.941216"></polygon>
                        <path d="M2.621792,30.998416 L2.621792,28.086096 C2.621792,27.969456 2.597952,27.866576 2.543552,27.780816 C2.493152,27.702416 2.426432,27.637776 2.344672,27.588496 C2.260512,27.536336 2.168352,27.500816 2.072032,27.476976 C1.968832,27.454416 1.871232,27.445296 1.772352,27.445296 C1.677792,27.445296 1.580352,27.454416 1.480512,27.476976 C1.375392,27.500816 1.286912,27.536336 1.205472,27.588496 C1.124512,27.637776 1.059552,27.702416 1.005472,27.780816 C0.952992,27.866576 0.928992,27.969456 0.928992,28.086096 L0.928992,30.998416 L3.19999999e-05,30.998416 L3.19999999e-05,28.033456 C3.19999999e-05,27.780816 0.056032,27.573936 0.170752,27.407216 C0.286272,27.232336 0.431232,27.092976 0.607392,26.989776 C0.785312,26.884976 0.974112,26.811536 1.180512,26.766256 C1.391552,26.719536 1.588992,26.698416 1.772352,26.698416 C1.964512,26.698416 2.167392,26.719536 2.373792,26.766256 C2.584032,26.811536 2.772192,26.884976 2.945152,26.989776 C3.121472,27.092976 3.264512,27.232336 3.376512,27.407216 C3.491392,27.573936 3.547392,27.780816 3.547392,28.033456 L3.547392,30.998416 L2.621792,30.998416 Z" id="Fill-38" fill="#2A598D" mask="url(#mask-2)"></path>
                        <path d="M7.567056,29.615424 C7.567056,29.875744 7.519056,30.095904 7.423856,30.275744 C7.325456,30.460544 7.189936,30.608704 7.029136,30.724224 C6.865296,30.840224 6.676336,30.923584 6.462736,30.978784 C6.246896,31.029664 6.024976,31.056224 5.794736,31.056224 C5.426736,31.056224 5.114096,31.019584 4.858096,30.951744 C4.599216,30.883104 4.378416,30.790784 4.192336,30.680704 L4.192336,29.848224 C4.430576,30.015104 4.681776,30.135584 4.947856,30.209024 C5.208496,30.284544 5.457456,30.320704 5.688176,30.320704 C5.799216,30.320704 5.912176,30.309024 6.028656,30.287744 C6.145296,30.268064 6.250416,30.234304 6.341776,30.188544 C6.435696,30.139424 6.509296,30.074464 6.569616,29.990944 C6.625616,29.910624 6.655216,29.807264 6.655216,29.685984 C6.655216,29.500704 6.588336,29.357024 6.460016,29.254144 C6.326736,29.151264 6.110416,29.081504 5.813136,29.041664 C5.607376,29.018464 5.404976,28.985664 5.205776,28.943584 C5.007376,28.902144 4.828656,28.842784 4.667536,28.758624 C4.514256,28.676384 4.385616,28.564544 4.288496,28.426464 C4.186416,28.284864 4.141616,28.102624 4.141616,27.875264 C4.141616,27.695424 4.183696,27.534464 4.270736,27.388064 C4.359856,27.245024 4.479056,27.122464 4.628976,27.019104 C4.776336,26.913184 4.947856,26.836704 5.145296,26.783424 C5.341776,26.726624 5.551856,26.698464 5.771696,26.698464 C5.986256,26.698464 6.180976,26.712864 6.350896,26.744064 C6.522416,26.770144 6.676336,26.804704 6.808176,26.842944 C6.941456,26.885024 7.054576,26.929024 7.147536,26.977984 C7.245136,27.029824 7.322896,27.077504 7.384496,27.122464 L7.384496,27.924384 C7.308336,27.851104 7.210256,27.780864 7.094736,27.722944 C6.976336,27.663584 6.852656,27.613504 6.719216,27.571424 C6.588336,27.530464 6.460016,27.498304 6.323216,27.475424 C6.187376,27.450944 6.061616,27.441504 5.945136,27.441504 C5.673776,27.441504 5.457456,27.480704 5.301136,27.564544 C5.142576,27.645024 5.066256,27.740384 5.066256,27.862464 C5.066256,27.934624 5.094576,27.986944 5.149776,28.030464 C5.208496,28.075744 5.282096,28.112544 5.377296,28.136384 C5.470096,28.165984 5.574896,28.186144 5.688176,28.203104 C5.805616,28.221024 5.915856,28.238144 6.028656,28.255424 C6.246896,28.287264 6.449616,28.330944 6.637456,28.388064 C6.825936,28.452864 6.987216,28.533504 7.125776,28.637984 C7.263856,28.746304 7.373296,28.880384 7.449616,29.039264 C7.529456,29.194624 7.567056,29.388384 7.567056,29.615424" id="Fill-39" fill="#2A598D" mask="url(#mask-2)"></path>
                        <path d="M16.898016,30.998416 L16.898016,28.068656 C16.898016,27.855536 16.848416,27.702416 16.751136,27.604176 C16.654016,27.504816 16.509056,27.454416 16.327616,27.454416 C16.166336,27.454416 16.011776,27.485296 15.872736,27.540176 C15.737696,27.601136 15.617536,27.668976 15.519456,27.752496 C15.419136,27.840016 15.342496,27.936016 15.285696,28.037296 C15.228576,28.142256 15.199136,28.229776 15.199136,28.318736 L15.199136,30.998416 L14.271136,30.998416 L14.271136,26.773296 L15.199136,26.773296 L15.199136,27.206576 C15.269696,27.145136 15.345216,27.091216 15.434976,27.029776 C15.519456,26.968656 15.612896,26.916336 15.716416,26.869136 C15.820416,26.824176 15.932256,26.787696 16.044256,26.763056 C16.161376,26.730736 16.282016,26.719536 16.410176,26.719536 C16.617376,26.719536 16.805536,26.744016 16.980576,26.797776 C17.149696,26.849776 17.298176,26.928976 17.422816,27.040496 C17.545696,27.148816 17.643136,27.288816 17.715616,27.461136 C17.786816,27.635856 17.822976,27.836976 17.822976,28.079536 L17.822976,30.998416 L16.898016,30.998416 Z" id="Fill-40" fill="#2A598D" mask="url(#mask-2)"></path>
                        <polygon id="Fill-41" fill="#2A598D" mask="url(#mask-2)" points="26.879616 30.998416 25.994496 30.998416 25.147616 28.229776 24.296256 30.998416 23.412736 30.998416 22.448896 26.773296 23.352096 26.773296 23.957056 29.646896 24.766816 26.993616 24.692736 26.773296 25.468736 26.773296 26.337696 29.646896 26.941856 26.773296 27.842816 26.773296"></polygon>
                        <path d="M29.727872,30.998416 L29.727872,28.020336 C29.727872,27.843696 29.665632,27.702416 29.539072,27.601136 C29.411232,27.496656 29.207552,27.441456 28.921632,27.441456 C28.748192,27.441456 28.581152,27.461136 28.421632,27.500816 C28.258112,27.540176 28.115552,27.595696 27.984992,27.666256 L27.984992,26.907856 C28.118272,26.843056 28.273152,26.789136 28.450112,26.754096 C28.629152,26.715856 28.824512,26.698416 29.030592,26.698416 C29.337312,26.698416 29.596032,26.737136 29.804992,26.811536 C30.015232,26.884976 30.180352,26.981136 30.307712,27.106576 C30.433312,27.229456 30.524192,27.377776 30.575712,27.540176 C30.630432,27.703856 30.653792,27.876656 30.653792,28.056336 L30.653792,30.998416 L29.727872,30.998416 Z" id="Fill-42" fill="#2A598D" mask="url(#mask-2)"></path>
                        <path d="M34.007456,30.998416 L34.007456,30.560176 C33.938336,30.622576 33.858656,30.684496 33.772576,30.744016 C33.688896,30.804816 33.590016,30.858256 33.489856,30.903536 C33.388256,30.951696 33.278016,30.988336 33.161376,31.014256 C33.044096,31.042416 32.921216,31.056336 32.793696,31.056336 C32.584576,31.056336 32.399936,31.029616 32.228896,30.981296 C32.055456,30.930736 31.906656,30.848336 31.781216,30.738256 C31.652416,30.628496 31.555296,30.487216 31.488576,30.312016 C31.414816,30.140816 31.379136,29.934736 31.379136,29.694416 L31.379136,26.773296 L32.312256,26.773296 L32.312256,29.715376 C32.312256,29.926256 32.361536,30.081936 32.455136,30.181616 C32.548896,30.275696 32.688896,30.327376 32.877856,30.327376 C33.040256,30.327376 33.191776,30.298096 33.332096,30.240976 C33.469376,30.186256 33.590016,30.115536 33.691616,30.028016 C33.791136,29.942096 33.867776,29.848176 33.924576,29.747056 C33.979776,29.643696 34.007456,29.542416 34.007456,29.450416 L34.007456,26.773296 L34.930016,26.773296 L34.930016,30.998416 L34.007456,30.998416 Z" id="Fill-43" fill="#2A598D" mask="url(#mask-2)"></path>
                        <path d="M42.906544,30.373456 C42.800784,30.542256 42.668944,30.680656 42.500144,30.783696 C42.331024,30.888496 42.141424,30.960176 41.927344,31.005136 C41.715824,31.049136 41.505424,31.069936 41.295504,31.069936 C41.089904,31.069936 40.888624,31.049136 40.679024,31.005136 C40.467024,30.960176 40.276464,30.888496 40.104784,30.783696 C39.932144,30.680656 39.792784,30.542256 39.682864,30.373456 C39.572784,30.204496 39.519344,29.992496 39.519344,29.742896 L39.519344,26.773296 L40.451664,26.773296 L40.451664,29.690416 C40.451664,29.811216 40.475504,29.912336 40.530224,29.996816 C40.580944,30.078256 40.649584,30.140816 40.727504,30.194896 C40.810224,30.242576 40.902064,30.275696 40.998224,30.301936 C41.101584,30.323216 41.198224,30.333296 41.295504,30.333296 C41.395184,30.333296 41.490864,30.323216 41.589904,30.301936 C41.687984,30.275696 41.782864,30.242576 41.863984,30.194896 C41.946864,30.140816 42.012304,30.078256 42.069904,29.996816 C42.119984,29.912336 42.148624,29.811216 42.148624,29.690416 L42.148624,25.828976 L43.068624,25.828976 L43.068624,29.742896 C43.068624,29.992496 43.015344,30.204496 42.906544,30.373456" id="Fill-44" fill="#2A598D" mask="url(#mask-2)"></path>
                        <path d="M47.069936,29.615424 C47.069936,29.875744 47.023376,30.095904 46.923536,30.275744 C46.825136,30.460544 46.694896,30.608704 46.530576,30.724224 C46.363536,30.840224 46.178416,30.923584 45.965616,30.978784 C45.749296,31.029664 45.525136,31.056224 45.294096,31.056224 C44.928176,31.056224 44.613296,31.019584 44.361296,30.951744 C44.102576,30.883104 43.880336,30.790784 43.695056,30.680704 L43.695056,29.848224 C43.935376,30.015104 44.183216,30.135584 44.449456,30.209024 C44.711856,30.284544 44.963056,30.320704 45.189616,30.320704 C45.301136,30.320704 45.416816,30.309024 45.531536,30.287744 C45.649776,30.268064 45.751856,30.234304 45.844656,30.188544 C45.940656,30.139424 46.014416,30.074464 46.075696,29.990944 C46.130896,29.910624 46.156656,29.807264 46.156656,29.685984 C46.156656,29.500704 46.093456,29.357024 45.963696,29.254144 C45.828816,29.151264 45.616016,29.081504 45.315216,29.041664 C45.109616,29.018464 44.906736,28.985664 44.706736,28.943584 C44.508176,28.902144 44.334736,28.842784 44.174736,28.758624 C44.013616,28.676384 43.888976,28.564544 43.788976,28.426464 C43.692496,28.284864 43.642576,28.102624 43.642576,27.875264 C43.642576,27.695424 43.685136,27.534464 43.772336,27.388064 C43.859536,27.245024 43.981456,27.122464 44.128336,27.019104 C44.278736,26.913184 44.451056,26.836704 44.645296,26.783424 C44.847216,26.726624 45.053616,26.698464 45.273136,26.698464 C45.489456,26.698464 45.682416,26.712864 45.853456,26.744064 C46.024176,26.770144 46.178416,26.804704 46.308816,26.842944 C46.443376,26.885024 46.557136,26.929024 46.652496,26.977984 C46.746416,27.029824 46.824176,27.077504 46.890096,27.122464 L46.890096,27.924384 C46.809616,27.851104 46.712016,27.780864 46.593776,27.722944 C46.478256,27.663584 46.352656,27.613504 46.219856,27.571424 C46.093456,27.530464 45.960176,27.498304 45.826096,27.475424 C45.690576,27.450944 45.563216,27.441504 45.448496,27.441504 C45.175536,27.441504 44.963056,27.480704 44.801616,27.564544 C44.645296,27.645024 44.564976,27.740384 44.564976,27.862464 C44.564976,27.934624 44.596336,27.986944 44.652176,28.030464 C44.709456,28.075744 44.786896,28.112544 44.879376,28.136384 C44.971376,28.165984 45.073936,28.186144 45.189616,28.203104 C45.305296,28.221024 45.420016,28.238144 45.531536,28.255424 C45.749296,28.287264 45.953776,28.330944 46.141616,28.388064 C46.324976,28.452864 46.484976,28.533504 46.628976,28.637984 C46.766416,28.746304 46.872816,28.880384 46.949776,29.039264 C47.029776,29.194624 47.069936,29.388384 47.069936,29.615424" id="Fill-45" fill="#2A598D" mask="url(#mask-2)"></path>
                        <path d="M52.302352,30.998416 L52.302352,28.086096 C52.302352,27.969456 52.277712,27.866576 52.224752,27.780816 C52.173232,27.702416 52.107312,27.637776 52.022832,27.588496 C51.942992,27.536336 51.849392,27.500816 51.750512,27.476976 C51.649392,27.454416 51.554032,27.445296 51.450032,27.445296 C51.358032,27.445296 51.263952,27.454416 51.160592,27.476976 C51.058672,27.500816 50.966992,27.536336 50.888432,27.588496 C50.806672,27.637776 50.738352,27.702416 50.685552,27.780816 C50.636752,27.866576 50.604592,27.969456 50.604592,28.086096 L50.604592,30.998416 L49.678672,30.998416 L49.678672,28.033456 C49.678672,27.780816 49.733712,27.573936 49.852912,27.407216 C49.966832,27.232336 50.110832,27.092976 50.291472,26.989776 C50.464912,26.884976 50.656112,26.811536 50.865072,26.766256 C51.072592,26.719536 51.270352,26.698416 51.450032,26.698416 C51.643792,26.698416 51.846672,26.719536 52.056592,26.766256 C52.262192,26.811536 52.456272,26.884976 52.628912,26.989776 C52.801552,27.092976 52.944592,27.232336 53.058512,27.407216 C53.172272,27.573936 53.229232,27.780816 53.229232,28.033456 L53.229232,30.998416 L52.302352,30.998416 Z" id="Fill-46" fill="#2A598D" mask="url(#mask-2)"></path>
                        <path d="M56.578336,30.998416 L56.578336,30.560176 C56.506016,30.622576 56.430656,30.684496 56.346176,30.744016 C56.261696,30.804816 56.163616,30.858256 56.063296,30.903536 C55.957216,30.951696 55.847936,30.988336 55.734496,31.014256 C55.615776,31.042416 55.497536,31.056336 55.368256,31.056336 C55.160096,31.056336 54.969536,31.029616 54.799616,30.981296 C54.629856,30.930736 54.481056,30.848336 54.353856,30.738256 C54.226176,30.628496 54.128096,30.487216 54.058496,30.312016 C53.993056,30.140816 53.954656,29.934736 53.954656,29.694416 L53.954656,26.773296 L54.882656,26.773296 L54.882656,29.715376 C54.882656,29.926256 54.929856,30.081936 55.029056,30.181616 C55.123616,30.275696 55.262176,30.327376 55.451936,30.327376 C55.615776,30.327376 55.765376,30.298096 55.904896,30.240976 C56.041696,30.186256 56.163616,30.115536 56.261696,30.028016 C56.360576,29.942096 56.440576,29.848176 56.491936,29.747056 C56.548096,29.643696 56.578336,29.542416 56.578336,29.450416 L56.578336,26.773296 L57.504736,26.773296 L57.504736,30.998416 L56.578336,30.998416 Z" id="Fill-47" fill="#2A598D" mask="url(#mask-2)"></path>
                        <path d="M38.8076,28.452832 C38.74808,28.276352 38.66712,28.122432 38.56552,27.987072 C38.46856,27.852832 38.35464,27.740352 38.22648,27.647712 C38.1012,27.551712 37.97128,27.480832 37.83976,27.430272 L38.82344,26.773312 L37.54168,26.773312 L36.6908,27.560512 C37.15544,27.695392 37.48216,27.882272 37.67592,28.129632 C37.8748,28.370912 37.97128,28.671232 37.97128,29.030912 C37.97128,29.249312 37.93368,29.441312 37.85736,29.608672 C37.78104,29.776352 37.67592,29.912192 37.54968,30.022592 C37.42232,30.132352 37.27304,30.212832 37.10904,30.265312 C36.9356,30.315872 36.76392,30.337312 36.58408,30.327392 L36.58408,26.773312 L35.6572,26.773312 L35.6572,30.939072 C36.15176,31.038112 36.59752,31.067712 36.99512,31.031072 C37.3948,30.995232 37.73464,30.893792 38.01592,30.729632 C38.29784,30.560192 38.51496,30.337312 38.66712,30.053632 C38.82152,29.770912 38.89656,29.427232 38.89656,29.030912 C38.89656,28.817632 38.86632,28.625472 38.8076,28.452832" id="Fill-48" fill="#2A598D" mask="url(#mask-2)"></path>
                        <path d="M61.771424,27.407264 C61.658624,27.232384 61.515424,27.092864 61.344704,26.989824 C61.170304,26.885024 60.978784,26.811424 60.773184,26.766304 C60.562784,26.719584 60.363104,26.698464 60.169344,26.698464 C59.983264,26.698464 59.786784,26.719584 59.581824,26.766304 C59.373184,26.811424 59.181824,26.885024 59.004704,26.989824 C58.828544,27.092864 58.683584,27.232384 58.566944,27.407264 C58.447744,27.573984 58.396224,27.780864 58.396224,28.033504 L58.396224,30.323104 L57.901344,30.323104 L57.901344,30.998464 L59.323904,30.998464 L59.323904,28.086144 C59.323904,27.969504 59.351584,27.866624 59.402144,27.780864 C59.456864,27.702464 59.524864,27.637664 59.603424,27.588544 C59.684384,27.536384 59.775104,27.500864 59.875264,27.477024 C59.978784,27.454304 60.074944,27.445344 60.169344,27.445344 C60.266944,27.445344 60.366944,27.454304 60.469024,27.477024 C60.567904,27.500864 60.657664,27.536384 60.740224,27.588544 C60.822144,27.637664 60.889024,27.702464 60.940544,27.780864 C60.996864,27.866624 61.022624,27.969504 61.022624,28.086144 L61.022624,30.998464 L61.944384,30.998464 L61.944384,28.033504 C61.944384,27.780864 61.887264,27.573984 61.771424,27.407264" id="Fill-49" fill="#2A598D" mask="url(#mask-2)"></path>
                        <polygon id="Fill-50" fill="#2A598D" mask="url(#mask-2)" points="5.955968 31.426224 5.955968 32.054864 6.455968 32.054864 6.455968 32.743024 7.384608 32.743024 7.384608 31.426224"></polygon>
                        <path d="M21.121376,26.773264 L21.121376,30.275664 L20.392096,30.275664 C20.265536,30.280784 20.137376,30.275664 20.010816,30.267984 C19.882016,30.258384 19.764576,30.228304 19.663936,30.188624 C19.561056,30.140784 19.476096,30.076144 19.409696,29.989584 C19.346336,29.900624 19.312576,29.800464 19.312576,29.643664 C19.312576,29.523504 19.341856,29.409424 19.403296,29.313584 C19.462976,29.220784 19.546656,29.139504 19.651136,29.077744 C19.760256,29.016624 19.888896,28.971504 20.038816,28.943664 C20.143616,28.921904 20.262816,28.913424 20.382976,28.913424 L20.565536,28.913424 L20.564416,28.269424 L20.119776,28.269424 C20.050016,28.273424 19.975456,28.269424 19.906016,28.260784 C19.805856,28.248304 19.713696,28.225264 19.637216,28.196144 C19.556416,28.161424 19.496736,28.115664 19.449856,28.059024 C19.401536,27.999184 19.377536,27.924464 19.377536,27.839984 C19.377536,27.757904 19.405056,27.691664 19.462976,27.630704 C19.519776,27.571504 19.588416,27.510544 19.682816,27.476944 C19.778656,27.445264 19.883936,27.426064 20.005056,27.424624 C20.121536,27.424624 20.244896,27.438544 20.369536,27.468464 L20.369536,26.744144 C20.107136,26.706864 19.857216,26.706864 19.624096,26.730704 C19.392576,26.763184 19.190656,26.818384 19.019936,26.907824 C18.844576,26.998064 18.709216,27.119344 18.606016,27.266064 C18.504096,27.421424 18.454816,27.613424 18.454816,27.817264 C18.454816,27.928944 18.474176,28.037264 18.517216,28.129584 C18.563616,28.225264 18.617056,28.309744 18.686976,28.377584 C18.753696,28.451184 18.829216,28.506704 18.914016,28.551984 C18.998656,28.599664 19.080416,28.629264 19.162976,28.640784 C19.076736,28.672784 18.989696,28.712464 18.896896,28.770864 C18.807136,28.827024 18.725376,28.897904 18.648576,28.987184 C18.575936,29.076144 18.510816,29.177264 18.464736,29.297744 C18.415456,29.413424 18.391616,29.542384 18.391616,29.694384 C18.391616,29.971664 18.440896,30.183184 18.541056,30.356944 C18.646016,30.529424 18.775936,30.664784 18.946656,30.757264 C19.110816,30.858384 19.300736,30.919344 19.515296,30.953104 C19.728096,30.988304 19.947616,31.000144 20.175776,30.998384 L22.043296,30.998384 L22.043296,26.773264 L21.121376,26.773264 Z" id="Fill-51" fill="#2A598D" mask="url(#mask-2)"></path>
                        <path d="M65.247136,26.773264 L65.247136,30.275664 L64.516736,30.275664 C64.392096,30.280784 64.264736,30.275664 64.135456,30.267984 C64.008416,30.258384 63.894816,30.228304 63.790496,30.188624 C63.686496,30.140784 63.606016,30.076144 63.540736,29.989584 C63.474816,29.900624 63.440896,29.800464 63.440896,29.643664 C63.440896,29.523504 63.468576,29.409424 63.532576,29.313584 C63.591296,29.220784 63.674656,29.139504 63.779456,29.077744 C63.887456,29.016624 64.014016,28.971504 64.163616,28.943664 C64.273696,28.921904 64.386656,28.913424 64.509376,28.913424 L64.691136,28.913424 L64.691136,28.269424 L64.246176,28.269424 C64.172096,28.273424 64.103776,28.269424 64.032576,28.260784 C63.933056,28.248304 63.841856,28.225264 63.762016,28.196144 C63.686496,28.161424 63.622496,28.115664 63.576256,28.059024 C63.528096,27.999184 63.507616,27.924464 63.507616,27.839984 C63.507616,27.757904 63.532576,27.691664 63.591296,27.630704 C63.642816,27.571504 63.716736,27.510544 63.811936,27.476944 C63.902496,27.445264 64.008416,27.426064 64.130656,27.424624 C64.246976,27.424624 64.370016,27.438544 64.496736,27.468464 L64.496736,26.744144 C64.233536,26.706864 63.986496,26.706864 63.752416,26.730704 C63.523456,26.763184 63.315296,26.818384 63.143616,26.907824 C62.970176,26.998064 62.834656,27.119344 62.732576,27.266064 C62.631456,27.421424 62.579456,27.613424 62.579456,27.817264 C62.579456,27.928944 62.600896,28.037264 62.646336,28.129584 C62.690176,28.225264 62.746176,28.309744 62.811616,28.377584 C62.878496,28.451184 62.955776,28.506704 63.038816,28.551984 C63.126976,28.599664 63.205856,28.629264 63.290336,28.640784 C63.205056,28.672784 63.117856,28.712464 63.025216,28.770864 C62.933536,28.827024 62.851776,28.897904 62.777856,28.987184 C62.702336,29.076144 62.637376,29.177264 62.588576,29.297744 C62.541056,29.413424 62.516256,29.542384 62.516256,29.694384 C62.516256,29.971664 62.568256,30.183184 62.671136,30.356944 C62.772736,30.529424 62.904256,30.664784 63.068096,30.757264 C63.237216,30.858384 63.426496,30.919344 63.642816,30.953104 C63.854496,30.988304 64.072736,31.000144 64.302976,30.998384 L66.171616,30.998384 L66.171616,26.773264 L65.247136,26.773264 Z" id="Fill-52" fill="#2A598D" mask="url(#mask-2)"></path>
                        <path d="M12.386848,24.479504 L10.978528,24.479504 L10.494368,25.050064 L12.197568,25.050064 C12.531808,25.072944 12.700128,25.175504 12.700128,25.343344 C12.700128,25.438224 12.651008,25.545744 12.559168,25.666064 C12.382208,25.898864 12.294048,26.164304 12.294048,26.346864 L12.294048,30.998384 L13.219648,30.998384 L13.215008,26.436464 C13.215008,26.162064 13.355168,25.949264 13.437728,25.815344 C13.568288,25.594864 13.656288,25.455344 13.656288,25.221104 C13.656288,24.725264 13.234048,24.479504 12.386848,24.479504" id="Fill-53" fill="#2A598D" mask="url(#mask-2)"></path>
                        <path d="M11.287456,27.807392 C11.186656,27.534432 11.048096,27.316032 10.862816,27.145152 C10.674976,26.975712 10.443616,26.853792 10.165856,26.787712 C9.888736,26.714272 9.571136,26.687232 9.204416,26.705312 L9.204416,27.445312 C9.455936,27.445312 9.659616,27.475552 9.827136,27.532672 C9.992576,27.593792 10.126176,27.677312 10.227296,27.789152 C10.328096,27.904832 10.401856,28.046432 10.443616,28.211552 C10.485216,28.377632 10.506016,28.581472 10.506016,28.800512 C10.506016,29.057312 10.478496,29.301472 10.411616,29.481472 C10.344736,29.668032 10.259456,29.818592 10.142816,29.934592 C10.028096,30.057632 9.895456,30.155232 9.745376,30.209152 C9.595456,30.265312 9.486176,30.287712 9.246016,30.301792 L8.693536,26.705312 L7.953216,27.589792 L8.517376,31.012512 C9.022976,31.073152 9.396256,31.069952 9.770336,31.000032 C10.144736,30.930752 10.455456,30.799392 10.702496,30.607072 C10.944576,30.414912 11.127936,30.169312 11.250816,29.863872 C11.370496,29.557312 11.433696,29.201792 11.433696,28.790272 C11.433696,28.407552 11.383136,28.079552 11.287456,27.807392" id="Fill-54" fill="#2A598D" mask="url(#mask-2)"></path>
                        <polygon id="Fill-55" fill="#2A598D" mask="url(#mask-2)" points="31.928432 25.682464 31.445072 26.256544 34.930032 26.256544 34.930032 25.682464"></polygon>
                        <polygon id="Fill-56" fill="#2A598D" mask="url(#mask-2)" points="54.505168 25.682464 52.277648 25.682464 52.277648 25.266464 51.344048 25.266464 51.344048 26.256544 54.025328 26.256544"></polygon>
                        <polygon id="Fill-57" fill="#2A598D" mask="url(#mask-2)" points="63.028016 25.682464 60.808016 25.682464 60.808016 25.266464 59.872336 25.266464 59.872336 26.256544 62.552976 26.256544"></polygon>
                        <polygon id="Fill-58" fill="#2A598D" mask="url(#mask-2)" points="49.197184 27.632256 48.454144 27.632256 48.454144 27.260896 47.528864 27.260896 47.528864 28.239616 48.688224 28.239616"></polygon>
                        <polygon id="Fill-59" fill="#2A598D" mask="url(#mask-2)" points="49.197184 29.858384 48.454144 29.858384 48.454144 29.488304 47.528864 29.488304 47.528864 30.464464 48.688224 30.464464"></polygon>
                    </g>
                </g>
            </g>
        </g>
    </g>
</svg>