<?xml version="1.0" encoding="UTF-8"?>
<svg width="92px" height="92px" viewBox="0 0 92 92" version="1.1" xmlns="http://www.w3.org/2000/svg" xmlns:xlink="http://www.w3.org/1999/xlink">
    <title>image/logo/insurance/lmg</title>
    <g id="Symbols" stroke="none" stroke-width="1" fill="none" fill-rule="evenodd">
        <g id="image/logo/insurance/lmg">
            <rect id="Mask" stroke="#EBEBEB" fill="#FFFFFF" x="0.5" y="0.5" width="91" height="91" rx="12"></rect>
            <g id="Group-37" transform="translate(10.000000, 10.000000)">
                <polygon id="Fill-1" fill="#FFDA00" points="0 72 72 72 72 0 0 0"></polygon>
                <g id="Group-36" transform="translate(15.787723, 9.134393)">
                    <path d="M18.3225719,28.1616492 C17.6406672,27.8335566 16.942857,27.4976805 16.207652,27.1438684 C16.253338,27.6824546 16.2927632,28.1684175 16.3387876,28.6538727 C16.3428485,28.6978666 16.3804125,28.751336 16.4181457,28.7777323 C16.9440414,29.1447426 17.4728137,29.5078611 18.0428725,29.9009292 C18.0428725,29.5658991 18.0088619,29.2826464 18.0523481,29.011915 C18.0961727,28.7401684 18.217325,28.480943 18.3225719,28.1616492 L18.3225719,28.1616492 Z M4.12710945,12.2213229 C4.78989375,11.5362033 5.61190195,11.4241882 6.47384304,11.4246958 C7.35676581,11.4252034 8.13207285,11.7196238 8.81533122,12.3201399 C8.87438451,11.6763068 8.70720787,11.2862844 8.2615163,10.9580225 C7.36708745,10.29913 5.55775568,10.2632581 4.63337716,10.8861095 C4.16771915,11.1998195 4.00155776,11.6162382 4.12710945,12.2213229 L4.12710945,12.2213229 Z M4.09123753,15.0580803 C4.05790373,15.035745 4.02473914,15.0134097 3.99157454,14.9910743 C3.82744363,15.2193347 3.65823651,15.444211 3.50205833,15.6777168 C3.44808126,15.7584286 3.37599902,15.8760276 3.39850357,15.9503095 C3.50764217,16.3090286 3.67211149,16.6420282 4.00121935,16.9207124 C4.19157736,16.3161353 4.58989093,15.9535244 5.12560068,15.7037747 C5.23744659,15.6516589 5.30529865,15.448272 5.33863245,15.302077 C5.36570559,15.1831244 5.31088248,15.0453898 5.29125446,14.9068092 C5.40513085,14.892765 5.50936244,14.8897193 5.60885623,14.8658611 C5.85809832,14.8059617 6.00598535,14.5149255 5.97434361,14.1866637 C5.94727047,13.905103 5.73609998,13.9431746 5.55487915,13.9367447 C5.33930928,13.9292996 5.12323178,13.9350527 4.90732349,13.9350527 C5.4965027,13.505605 5.56012457,13.3484116 5.36469035,12.7432977 C4.95402466,12.7407888 4.44961822,12.9039045 3.81441468,13.2445184 C3.31982226,13.509666 3.32016067,13.509666 3.48987542,14.0453757 C3.49545925,14.0633117 3.48818335,14.0853086 3.48682969,14.1078131 C3.36669263,14.1210113 3.24672478,14.1342095 3.07294906,14.1533299 C3.10019141,14.4298143 3.11965023,14.6848094 3.15247641,14.9381125 C3.17413492,15.1044431 3.27278268,15.1486062 3.44131297,15.1186565 C3.65468316,15.0804157 3.874314,15.0766931 4.09123753,15.0580803 L4.09123753,15.0580803 Z M15.1941014,18.2648938 C15.1756578,18.2841834 15.1573834,18.3033038 15.1391091,18.3225934 C16.444542,20.550036 17.749975,22.7773093 19.0845116,25.054668 C19.445938,24.2500881 20.0033062,23.7035491 20.6748893,23.2365375 C18.8303625,21.5634174 17.0122319,19.9141556 15.1941014,18.2648938 L15.1941014,18.2648938 Z M33.1997698,29.0410186 C34.9771214,27.3631608 36.791191,25.6506155 38.6052606,23.9380702 C38.5932469,23.9181038 38.581064,23.8979681 38.568881,23.8780017 C36.4099674,24.8350372 34.2507152,25.7922419 32.1642222,26.717128 C32.5176959,27.5102018 32.8537412,28.2643579 33.1997698,29.0410186 L33.1997698,29.0410186 Z M32.0363016,32.4732159 C31.4689501,32.8563009 31.0159827,33.2461541 30.6530334,33.7343166 C30.3885627,34.08999 30.3306938,34.4842426 30.5295122,34.8815409 C31.1476258,36.1167529 31.7772455,37.3462119 32.4117722,38.5731327 C32.4550893,38.6568903 32.5743803,38.7511386 32.6615219,38.7543536 C33.1537455,38.7716127 33.646815,38.7626447 34.1798175,38.7626447 C34.0987673,38.5753324 34.0480051,38.4404743 33.9837064,38.3123846 C33.4241384,37.1978172 32.8566178,36.0871417 32.3063562,34.9680058 C32.2090621,34.7698642 32.146117,34.5402501 32.1283503,34.3202809 C32.0811415,33.7322861 32.0670973,33.1417533 32.0363016,32.4732159 L32.0363016,32.4732159 Z M30.6760456,25.3204924 C31.7845214,22.955992 32.8901208,20.5979216 33.9955509,18.2400203 C33.9644168,18.2165005 33.9334519,18.1928115 33.9023178,18.1692917 C32.0868946,20.0407225 30.2714713,21.9121533 28.4975038,23.7406055 C29.1746707,24.2318138 29.90683,24.7626165 30.6760456,25.3204924 L30.6760456,25.3204924 Z M6.25167409,15.6254318 C6.12290747,15.7636741 6.031028,15.9036083 5.90327662,15.9909192 C5.63829827,16.1719708 5.34150897,16.3078442 5.08431414,16.498033 C4.98329749,16.5726533 4.89598661,16.7449062 4.89987838,16.869781 C4.92289055,17.6073549 4.98482035,18.3439135 5.00783252,19.0814873 C5.01257032,19.2352966 4.90613904,19.3914748 4.85605373,19.5481606 C4.79733886,19.7319195 4.70190604,19.9163553 4.69818349,20.1021447 C4.69243045,20.3913197 4.83236474,20.4532495 5.09362054,20.3300667 C5.8552218,19.9711784 6.62646787,19.8962196 7.41141971,20.2571384 C7.56861313,20.3293899 7.72800624,20.3963959 7.89112191,20.4679705 C8.08790979,20.1845486 8.15677709,19.8902974 7.91142676,19.6572992 C7.7080398,19.4644031 7.71210077,19.2786136 7.74780348,19.044431 C7.97149529,17.5799433 7.4562596,16.437626 6.25167409,15.6254318 L6.25167409,15.6254318 Z M25.8593956,22.5168996 C25.3431446,19.5908008 24.8179257,16.6142783 24.2927068,13.6377557 C24.2693562,13.6402939 24.2460057,13.6430012 24.2226551,13.6455393 C23.8363552,16.5298439 23.4500553,19.4139793 23.0681549,22.2649502 C24.0101309,22.3498921 24.9157274,22.4316192 25.8593956,22.5168996 L25.8593956,22.5168996 Z M1.60490806,11.4805341 C1.62808944,10.8900013 1.84552059,10.3862717 2.24857196,9.96223861 C2.65246936,9.53735952 3.15112276,9.26087508 3.69833859,9.07034786 C5.02949104,8.60655114 6.39465411,8.58624628 7.77013882,8.79115611 C8.69790148,8.92956753 9.57202548,9.22246507 10.3202594,9.81367476 C10.8162055,10.2053892 11.1822005,10.6857683 11.2947232,11.3277401 C11.3025067,11.3724108 11.3341485,11.4128513 11.3830493,11.5131911 C11.5133388,10.9140287 11.5590247,10.3817031 11.3322872,9.86189879 C11.0695085,9.25918301 10.7911628,8.6627279 11.0238226,7.97997716 C11.0255147,7.97507015 11.0109629,7.96474852 10.9886275,7.93987507 C10.871367,7.96813266 10.743108,7.99875915 10.6150182,8.02989326 C9.72735762,8.24647838 9.6414004,7.97591619 9.53412308,7.35966384 C9.45882591,6.92700123 9.26119199,6.79857302 8.82886779,6.8718397 C8.69671703,6.89417504 8.55982846,6.92700123 8.44172189,6.98740817 C7.88266155,7.27286059 7.40702033,7.18808782 6.92934862,6.77031543 C6.47350463,6.37183265 6.20328085,6.39382958 5.74929814,6.8053413 C5.32154253,7.19299483 4.86654458,7.29638038 4.311376,7.13732568 C3.67498801,6.95508961 3.52946988,7.03935476 3.21660591,7.62802634 C3.02303296,7.99232928 2.73774975,8.11449682 2.33283711,8.01161889 C2.18731898,7.97473174 2.03960116,7.94715098 1.83824468,7.90349554 C2.10085414,8.50671893 1.97530245,9.01163299 1.69272656,9.50317968 C1.58967942,9.68253923 1.51252097,9.87831188 1.43908508,10.0723924 C1.25346486,10.5624163 1.32656234,11.0294279 1.60490806,11.4805341 L1.60490806,11.4805341 Z M15.5929226,45.3089299 C16.6819396,44.3498639 17.8784032,43.6331026 19.1242752,43.0053441 C20.363379,42.3809698 21.6314172,41.8136184 22.8522466,41.2374681 C22.2160278,41.115639 22.1390385,41.0520171 21.8244825,40.4058151 C21.3329358,39.395987 20.8424044,38.3856512 20.3371519,37.3825914 C20.2764065,37.2621159 20.1335957,37.1123676 20.0175196,37.102046 C19.2880677,37.0363936 18.6107316,37.1839422 18.0459182,37.6920712 C17.4031004,38.2707596 17.0223843,39.0047801 16.838287,39.8327106 C16.5675556,41.0501558 16.3470787,42.2785995 16.0807467,43.49706 C15.9509648,44.090977 15.7660214,44.6730495 15.5929226,45.3089299 L15.5929226,45.3089299 Z M13.8182782,2.07295647 C12.549394,3.235071 11.080507,3.05588065 10.0568039,2.57854736 C10.1820172,2.26737546 10.2784652,1.95552673 10.1013054,1.63487923 C9.86153886,1.69393251 9.6414004,1.74977087 9.42041589,1.80205587 C8.44392158,2.03285438 7.47216507,1.84401923 6.49820887,1.77447511 C5.92730403,1.73369619 5.37721167,1.82743694 4.87077475,2.1140738 C3.57650946,2.84690985 3.35434051,4.69549768 4.4443728,5.6650545 C4.7508069,5.93747797 4.91510702,5.94661515 5.24353805,5.71006359 C5.38719489,5.60650883 5.52476029,5.49246323 5.67670828,5.40295266 C6.19177477,5.09939508 6.59431851,5.14135845 7.04542471,5.53307294 C7.17909833,5.64914903 7.30735733,5.7719934 7.4466148,5.88096279 C7.68858098,6.07013635 7.95457458,6.08198085 8.1995865,5.90651306 C8.58707081,5.62901338 8.95644996,5.49618579 9.31381541,5.97030415 C9.71297501,5.31141161 10.2886176,4.96149128 10.9554629,4.73052356 C11.3485311,4.59431182 11.7456602,4.46233026 12.122146,4.28804693 C12.5544702,4.0878749 12.991363,3.87924252 13.3798626,3.6080035 C13.855673,3.27584991 14.0179426,2.5914071 13.8182782,2.07295647 L13.8182782,2.07295647 Z M11.7632577,49.3414741 C12.0334815,48.9984912 12.3182571,48.6659992 12.5705449,48.3103259 C13.1240214,47.530281 13.7353668,46.7788322 14.1885034,45.9426106 C15.0145726,44.4183928 15.2758284,42.7224298 15.4705858,41.0191909 C15.5795552,40.0645243 15.7562074,39.1211946 16.2208502,38.2656834 C16.7959852,37.2072928 17.589059,36.3908685 18.8378076,36.1945882 C19.2609946,36.1280898 19.703302,36.1840974 20.1650682,36.1840974 C20.140364,36.094756 20.136303,36.0538079 20.1185363,36.0201356 C19.6467868,35.1279065 19.1772371,34.2344929 18.695166,33.3478475 C18.6489724,33.2630748 18.5315427,33.1882852 18.433741,33.1647654 C17.5169768,32.944627 16.6044427,32.9635782 15.7463934,33.3732286 C14.29595,34.0656242 13.3820623,35.2493972 12.8451681,36.7336821 C12.4040451,37.9531578 12.2630956,39.2239033 12.3216412,40.5147845 C12.3742647,41.6794371 12.4847569,42.8423977 12.5075999,44.0072195 C12.5429642,45.8162129 12.3226565,47.596441 11.7632577,49.3414741 L11.7632577,49.3414741 Z M11.6136786,36.9671879 C11.8938856,35.9321479 12.2762937,35.0461794 12.7827306,34.2148648 C13.436547,33.1415841 14.3666785,32.4358211 15.590046,32.129387 C15.765683,32.0853932 15.9480883,32.0688109 16.1491064,32.0358155 C16.082608,31.9004498 16.032015,31.7985871 15.9824374,31.6962168 C15.5315004,30.7657468 15.1401243,29.8227555 15.0748103,28.7660571 C15.0448607,28.2822939 14.9721016,27.7790719 14.8006948,27.3296578 C13.0647989,22.7790014 11.3063985,18.2369746 9.54326027,13.696809 C9.48302253,13.5414769 9.32836722,13.401035 9.18386433,13.3045869 C8.87370768,13.0974774 8.54206171,12.9225172 8.21769166,12.7372354 C8.14662467,12.6966257 8.07200433,12.6506014 7.99366143,12.6360496 C7.39754473,12.5248805 6.80007438,12.4209873 6.17891503,12.3106643 C5.91867447,12.7656622 6.06588467,13.3025564 6.61597703,13.548922 C6.95151475,13.6993471 7.3232628,13.7692297 7.70685535,13.8836137 C7.74797268,14.7978398 7.80076531,15.7327091 7.82546955,16.6684245 C7.83342228,16.9650446 7.9478063,17.1433889 8.21667642,17.2305306 C8.42158624,17.2968598 8.63072625,17.3498216 8.83800497,17.4087057 C8.8600019,17.4347636 8.88199883,17.4609907 8.90399575,17.4872178 C8.85255679,17.5041385 8.79959496,17.5171675 8.75018648,17.5384876 C8.34730432,17.7115865 8.30009553,18.0298651 8.32936836,18.4290247 C8.40906492,19.5195646 8.45272035,20.6128118 8.51126602,21.7048746 C8.62057382,23.7436512 8.72683589,25.782597 8.8434196,27.8208661 C8.8623708,28.151666 8.8791223,28.4951564 8.97895451,28.8064976 C9.66745829,30.9566125 10.3794819,33.0991131 11.0796609,35.2455054 C11.2564824,35.7874759 11.417906,36.3345225 11.6136786,36.9671879 L11.6136786,36.9671879 Z M31.7104087,28.9097139 C31.7283447,28.7728253 31.7418812,28.7154641 31.7422377,28.6581029 C31.7445885,28.2100424 31.512944,27.8640139 31.2344291,27.5472581 C29.8122432,25.9298072 28.160274,24.6172676 26.1599074,23.7803692 C25.0114987,23.2999901 23.8284025,23.1015102 22.5882835,23.3840861 C20.7506941,23.8027045 19.1936501,25.5049282 19.5785964,27.625601 C19.5975476,27.7308479 19.5356177,27.887026 19.4576133,27.9672302 C19.1543941,28.2789097 18.9611596,28.640167 18.9286718,29.0706299 C18.9048136,29.3875548 18.9537144,29.6961886 19.2374748,29.9662432 C19.4012673,29.0234211 19.8933216,28.4242587 20.7444334,28.1308535 C20.861694,28.5350893 20.8424044,28.8581057 20.4337692,29.1190231 C20.2300438,29.2489742 20.049669,29.5286736 20.0044907,29.7681016 C19.9335929,30.1444183 19.9857087,30.5442547 19.9857087,31.0022984 C20.3738698,30.7794526 20.6755661,30.6063537 21.0427456,30.3955217 C21.2493475,31.3160084 20.8271757,32.1361553 20.8542489,33.0109562 C21.4121247,32.783711 21.8160221,33.1216176 22.2606985,33.287779 C22.0246545,33.7107968 21.4073869,33.7877861 21.3784525,34.3844104 C21.959679,34.1688405 22.9739065,34.4405871 23.0035177,34.8182574 L22.1936924,34.8182574 L21.3584861,34.8182574 C21.3843748,35.2499048 21.5469828,35.3790099 21.8857355,35.239414 C22.2006299,35.1098013 22.4864208,35.1798531 22.7877787,35.2749475 C22.5759313,35.6754607 22.5522423,35.6999958 22.1683114,35.700165 C21.8820129,35.700165 21.7847188,35.8903538 21.8075618,36.1059237 C21.9001181,36.9785248 22.0145021,37.563643 23.2399001,37.2702379 C23.4421026,37.2218446 23.6412594,37.1597456 23.8400778,37.0981542 C24.1438045,37.0042443 24.4460085,36.9050889 24.8182641,36.7859671 C24.5231669,37.2013706 24.3081047,37.5907162 24.0116538,37.9027341 C23.4772977,38.4651786 23.3668054,39.0458974 23.6986206,39.7543677 C23.870535,40.1213779 23.9395715,40.5366122 24.0615699,40.9525233 C26.3357136,40.0804298 28.6257628,39.4431958 30.9826489,39.0321917 C30.6352666,38.2826041 30.2907609,37.5612741 29.9652064,36.8314838 C29.5371124,35.8715718 29.1232318,34.9053991 28.705121,33.9410877 C28.5912446,33.6784783 28.7347322,33.2735656 28.9494561,33.2590138 C29.9777278,33.1898081 30.4804421,32.4502038 31.0093836,31.6990933 C30.6459267,31.4726942 30.4186815,31.6699897 30.1657169,31.8454575 C30.0572551,31.9205855 29.8597904,31.9613644 29.7511594,31.9117867 C29.6692632,31.8742227 29.660126,31.6693129 29.6278074,31.5366545 C29.6190087,31.5001058 29.6533577,31.4549275 29.6499736,31.4151638 C29.6396519,31.2967188 29.6533577,31.1001001 29.5983654,31.0772572 C29.4824585,31.0292023 29.3091904,31.0310636 29.1939604,31.0855483 C28.6215327,31.3554337 28.3809201,31.3127935 27.9056173,30.9087269 C27.1913941,30.3016117 26.4654955,29.7073563 25.7269064,29.13036 C25.0030383,28.5647006 24.1578487,28.3049676 23.2475144,28.3355941 C22.7549525,28.3521764 22.2672975,28.4866961 21.7749048,28.5487951 C21.6298943,28.5670695 21.4112787,28.575699 21.3390273,28.4919415 C21.1258263,28.2440531 20.9689713,27.9477714 20.7935035,27.6760248 C21.081494,27.7054668 21.3743916,27.8166359 21.6150041,27.7470918 C23.2742491,27.2684048 24.8910232,27.4447186 26.4989985,27.9726448 C26.8120317,28.0755228 27.1062829,28.1665562 27.1776883,28.5540405 C27.1964703,28.6569185 27.2913955,28.7518437 27.3660158,28.8374625 C27.8848048,29.4318871 28.5179779,29.8647189 29.2723033,30.0919641 C29.8477767,30.2654014 30.4009148,30.1753832 30.9301947,29.8097266 C30.387209,29.3295168 29.8613133,28.8645356 29.3256035,28.3909249 C29.6110559,28.0308521 29.8734962,27.6997138 30.19279,27.2968316 C30.7031187,27.8393096 31.1846822,28.350992 31.7104087,28.9097139 L31.7104087,28.9097139 Z M14.5250564,53.7313837 C14.1541544,53.5770668 13.7808835,53.4279953 13.4135348,53.2653873 C13.3133642,53.221055 13.2309603,53.1362822 13.0933949,53.0354348 C16.0426751,47.9104894 20.2753913,44.2393717 25.5937404,41.7027877 C24.4654673,41.5230897 19.8743704,43.8100932 17.612748,45.5265303 C15.1903788,47.3649657 13.578681,49.8472342 11.9326341,52.3866947 C11.6427823,52.1316995 11.3498847,51.9142684 11.1052112,51.6521666 C9.21550607,49.6277725 7.9525441,47.2409368 7.0904338,44.6288865 C6.26876401,42.1396805 5.85539101,39.5775462 5.75031338,36.9621117 C5.59430441,33.0781314 5.97789696,29.2653873 7.2520266,25.5699037 C7.27554639,25.5017132 7.30245033,25.4282773 7.30008143,25.3580564 C7.27300829,24.5685359 7.24035131,23.7790155 7.20837117,22.9683442 C6.90329072,22.9683442 6.61513099,22.969021 6.32697126,22.968175 C5.44252562,22.9658061 4.64589849,22.4189286 4.29902388,21.6050424 C4.23743249,21.4607087 4.1069738,21.3178979 3.97093127,21.2383705 C3.46381752,20.9420889 3.23826442,20.2178824 3.52625495,19.6121209 C3.64706884,19.3579718 3.68497123,19.1298806 3.59444542,18.8677787 C3.55417412,18.7510258 3.54216042,18.6234436 3.52676257,18.4997532 C3.47701568,18.0997476 3.44080535,17.752027 2.98936075,17.5059998 C2.5654969,17.2752013 2.29391947,16.811743 2.31828529,16.2738335 C2.32674565,16.0849984 2.4135489,15.8998858 2.46464946,15.7125735 C1.7602402,15.5179853 1.6248745,15.2132433 1.9145571,14.4096786 C0.970719761,13.9088256 0.387124392,13.1204896 0.125868593,12.0893414 C-0.121512222,11.1140315 0.0167299981,10.1664716 0.357851559,9.23870895 C0.487125802,8.88726575 0.621137844,8.53666859 0.776131569,8.19605465 C0.955152706,7.8028173 1.03281878,7.40687263 0.89017717,6.97776336 C1.24568134,6.72513713 1.57885016,6.78402121 1.9336775,7.03292489 C2.22031437,6.71210818 2.50356709,6.39484482 2.80983199,6.05186198 C2.50238264,5.5367955 2.26921523,4.931034 2.20610097,4.26757286 C2.01286644,2.23218037 3.36280087,1.04586923 4.7910782,0.6294505 C5.74472955,0.351273989 6.70142662,0.427247987 7.66979899,0.57530422 C8.21786087,0.659061746 8.78673522,0.666845274 9.34105775,0.630296535 C9.79554809,0.600346875 10.1886162,0.357703859 10.4867592,0 C10.9480178,0.141457155 11.2940464,0.665830031 11.3299183,1.26956105 C11.3559762,1.70577701 11.3563146,1.71119164 11.7959147,1.68547216 C12.6593787,1.63471002 13.2587103,1.14603985 13.7522875,0.488500966 C13.8077874,0.414557453 13.8526273,0.332830412 13.9270784,0.216246704 C14.5961234,0.579534398 15.0206641,1.11084477 15.1406319,1.85434087 C15.3829365,3.35520805 14.687326,4.58348256 13.2801996,5.15963282 C12.7317993,5.38417067 12.167832,5.57131375 11.6228158,5.80346593 C11.2762796,5.95101454 10.9493715,6.14509511 10.8622298,6.56794371 C10.7969158,6.88537627 10.9128227,6.99722218 11.2378696,6.96778014 C11.4618998,6.94747529 11.7020047,6.93749207 11.9148673,6.99603773 C12.3184263,7.10703761 12.4214734,7.41600981 12.2069188,7.7696527 C12.040419,8.04410666 12.0537864,8.3207603 12.1634326,8.60908924 C12.3664811,9.14344534 12.6118315,9.66781822 12.7524426,10.2185874 C12.990517,11.1502418 12.8487214,12.0681905 12.4185969,12.9208252 C12.1810301,13.3918978 11.8578445,13.819315 11.5832213,14.2724517 C11.531444,14.3579013 11.4793282,14.4888676 11.507755,14.5707638 C11.874596,15.6201864 12.2559889,16.6645328 12.6465189,17.7457663 C14.1964562,16.5961731 15.8726219,15.8440474 17.7058119,15.4360891 C19.5234348,15.0315148 21.3562864,14.9795682 23.2368544,15.186847 C23.3388863,14.6572287 23.4388877,14.1394549 23.5382123,13.6216811 C23.6400749,13.0902015 23.7256937,12.5548302 23.8536143,12.0296112 C23.8881326,11.8883233 24.0509098,11.7781695 24.154803,11.6538022 C24.259373,11.7688631 24.4224887,11.8678492 24.459545,12.0018613 C24.7685172,13.1145673 25.0581998,14.232688 25.3431446,15.3519931 C25.3947528,15.5547033 25.4854478,15.6567351 25.6961107,15.719511 C27.8805747,16.3694356 29.7514978,17.5359495 31.3291851,19.177597 C31.3714868,19.2215908 31.4210645,19.258478 31.4897626,19.3182081 C32.097893,18.8209084 32.7009472,18.3285156 33.3031554,17.8351077 C33.7143287,17.4983855 34.1243175,17.1599712 34.53566,16.8234183 C34.5918368,16.7773939 34.6481828,16.7183406 34.7138351,16.7004047 C34.8178975,16.6719779 34.9468334,16.6362752 35.0321137,16.6755312 C35.0860908,16.7004047 35.0953972,16.8560752 35.0953972,16.9530309 C35.095228,17.0325583 35.0552951,17.1132701 35.0266991,17.1911053 C34.4962348,18.636811 33.9674625,20.0833627 33.4298915,21.5263611 C33.3622086,21.7080895 33.3787909,21.8429476 33.4718549,22.0175693 C33.8584931,22.7424527 34.2204272,23.4807033 34.5904832,24.2143854 C34.6409069,24.3147252 34.6854083,24.4181108 34.7436156,24.5434933 C35.5311056,24.2527954 36.3001519,23.9698811 37.0683523,23.6849363 C37.9950997,23.3411075 38.9216779,22.9962633 39.8477485,22.650404 C40.0496126,22.5751068 40.2467389,22.5226526 40.4244064,22.7020122 L40.4244064,22.8272254 C40.3238973,22.9573457 40.2310026,23.0944035 40.1215256,23.2167402 C38.7595775,24.7379123 37.3971217,26.2585767 36.0292513,27.7741649 C35.8927012,27.9254361 35.841939,28.0547103 35.8901631,28.270111 C36.6551485,31.6926635 36.8138648,35.154472 36.5226593,38.642 C36.4805267,39.1464065 36.4087829,39.6482748 36.3505757,40.1533581 C36.2483746,40.1616492 36.1871216,40.1706172 36.1258686,40.1711248 C34.3051999,40.1871995 32.516173,40.4420254 30.757265,40.9046377 C26.3944285,42.0522004 22.5811768,44.1809952 19.369964,47.3549824 C17.7692646,48.9374075 16.4631548,50.7579069 15.2550159,52.649981 C15.0270939,53.007008 14.809832,53.3708033 14.587663,53.7313837 L14.5250564,53.7313837 Z" id="Fill-2" fill="#191344"></path>
                    <path d="M20.2917198,27.3668664 C20.7409647,27.0338668 21.1636441,26.7204952 21.6159347,26.3852959 C21.4563724,26.0215006 21.2922415,25.646876 21.1066213,25.2231814 C20.5556829,25.859231 20.1423099,26.4869894 20.2917198,27.3668664 M26.7498481,25.0617578 C26.5391852,25.6082968 26.3505193,26.097813 26.1718365,26.5616097 C27.0019667,26.981751 27.797071,27.3841256 28.6145106,27.797837 C28.8549539,27.4573922 29.1038576,27.105103 29.385249,26.7071279 C28.4991113,26.1539898 27.6446153,25.6204797 26.7498481,25.0617578 M23.1230626,30.7796049 C23.5834752,30.5320549 24.2330613,30.5171647 24.6980425,30.7349342 C24.9271489,30.8422115 25.8131174,30.6848489 25.9809709,30.5021052 C26.0114282,30.4689406 26.0188733,30.4144559 26.0388397,30.3652167 C24.8829859,29.4636811 23.6758622,29.0169743 22.2883638,29.7931274 C22.1617969,29.8638559 22.0186477,29.989746 21.9824374,30.118005 C21.9242301,30.3237609 21.9430121,30.5356082 22.220681,30.6417011 C22.3760131,30.7009236 22.5228849,30.8389966 22.6213635,30.9784233 C22.8085065,31.2435708 23.0096938,31.2337568 23.2609664,31.0779171 C23.214096,30.9763928 23.1684101,30.8774066 23.1230626,30.7796049 M22.4277905,26.1988297 C23.3963321,26.0702322 24.3354316,25.983429 25.2880677,26.3018768 C25.331554,26.0500966 25.3735173,25.8059307 25.4156499,25.561934 C25.5775811,24.6238497 25.5796116,24.6140357 24.648634,24.4231701 C23.8054749,24.2504096 22.9744987,24.2754523 22.1734722,24.6419549 C21.9819297,24.729435 21.9365822,24.8294364 22.0152635,25.02927 C22.1633198,25.4057559 22.2859949,25.7920557 22.4277905,26.1988297 M31.7103241,28.909697 C31.1847668,28.3509751 30.7032033,27.8392927 30.1927054,27.2968147 C29.8734116,27.6996968 29.6111405,28.0308352 29.3256881,28.3910771 C29.8612287,28.8645187 30.3871244,29.3294999 30.9302793,29.8097097 C30.4008302,30.1753663 29.8478613,30.2653845 29.2723879,30.0919472 C28.5178933,29.864702 27.8847202,29.4318702 27.3661004,28.8374455 C27.2913109,28.7518267 27.1965549,28.6569015 27.1776037,28.5540236 C27.1063675,28.1665393 26.8121163,28.0755059 26.4990831,27.9727971 C24.8909386,27.4447017 23.2741645,27.2683879 21.6150887,27.7470748 C21.374307,27.816619 21.0814094,27.7054499 20.7934189,27.6760078 C20.9688867,27.9477545 21.1259109,28.2440362 21.3391119,28.4919246 C21.4113633,28.5758513 21.6298097,28.5670526 21.7749894,28.5487782 C22.2672129,28.4866792 22.7550371,28.3521595 23.2474298,28.3355772 C24.1579333,28.3049507 25.0029537,28.5646837 25.726991,29.1303431 C26.4654109,29.7075086 27.1914787,30.3015948 27.9055327,30.9087099 C28.3810047,31.3127765 28.6216173,31.3554167 29.194045,31.0855314 C29.309275,31.0312159 29.4825431,31.0291854 29.5982808,31.0772402 C29.6532731,31.1000832 29.6397365,31.2967019 29.649889,31.4151469 C29.6532731,31.4549105 29.6189241,31.500258 29.6277228,31.5366376 C29.6602106,31.669296 29.6691786,31.874375 29.7510748,31.9117698 C29.8597058,31.9613475 30.0573397,31.9205685 30.1658015,31.8454406 C30.4187661,31.6699728 30.6458421,31.4726773 31.0094682,31.6990764 C30.4803575,32.4501868 29.9776432,33.1897912 28.9495407,33.2589969 C28.7348168,33.2735487 28.5913292,33.6784613 28.7052056,33.9410708 C29.1231472,34.9053822 29.537197,35.8715549 29.965291,36.8314669 C30.2906763,37.5612572 30.635182,38.2825872 30.9827335,39.0321747 C28.6258474,39.4431788 26.3357982,40.0804129 24.0616545,40.9525064 C23.9394869,40.5365953 23.8704504,40.121361 23.698536,39.7543507 C23.36689,39.0458805 23.4772131,38.4651617 24.0115692,37.9027172 C24.3080201,37.5906992 24.5232515,37.2013537 24.8183487,36.7859502 C24.4459239,36.905072 24.1438892,37.0042274 23.8399932,37.0983065 C23.6411748,37.1597287 23.442018,37.2218277 23.2398155,37.270221 C22.0144175,37.5636261 21.9002027,36.9785079 21.8074772,36.1059067 C21.7846342,35.8903369 21.8820975,35.7001481 22.168396,35.7001481 C22.5521577,35.7001481 22.5758467,35.6754438 22.7878633,35.2749306 C22.4865054,35.1798362 22.2005453,35.1097844 21.8858201,35.2393971 C21.5470674,35.3789929 21.3844594,35.2498879 21.3584015,34.8182405 L22.1936078,34.8182405 L23.0034331,34.8182405 C22.9739911,34.4405702 21.9597636,34.1688236 21.3785371,34.3843935 C21.4073023,33.7877691 22.0247391,33.7107799 22.2607831,33.2879313 C21.8161068,33.1216007 21.4122093,32.7836941 20.8541643,33.0109392 C20.8272603,32.1361384 21.2494321,31.3159915 21.042661,30.3955047 C20.6754815,30.6063368 20.3739544,30.7794357 19.9856241,31.0022815 C19.9856241,30.5442378 19.9335083,30.1444014 20.0045753,29.7680847 C20.0497536,29.5286566 20.2301284,29.2489573 20.4338538,29.1190062 C20.842489,28.8580888 20.8617786,28.5350724 20.7443488,28.1308366 C19.893237,28.4242417 19.4011827,29.0234042 19.2373902,29.9662263 C18.9536298,29.6961717 18.9048982,29.3875379 18.9287564,29.0707822 C18.961075,28.64015 19.1543095,28.2788928 19.4576979,27.9672133 C19.5357023,27.8870091 19.5976322,27.7308309 19.5785117,27.6255841 C19.1937347,25.5049112 20.7507787,23.8026876 22.5881989,23.3840691 C23.8283179,23.1014933 25.0114141,23.2999732 26.159992,23.7805214 C28.1601894,24.6172507 29.8121586,25.9297903 31.2343445,27.5472412 C31.5130286,27.863997 31.7446731,28.2100255 31.7423223,28.658086 C31.7419658,28.7154472 31.7282601,28.7728084 31.7103241,28.909697" id="Fill-4" fill="#FEFEFE"></path>
                    <path d="M11.6136448,36.9672725 C11.4178721,36.3346071 11.2564486,35.7875605 11.0796271,35.24559 C10.379448,33.0991977 9.66742445,30.9566971 8.97892067,28.8065822 C8.87925767,28.4950718 8.86233696,28.1515814 8.84338576,27.8209507 C8.72697126,25.7825124 8.62070919,23.7437358 8.51123218,21.7049592 C8.45268651,20.6127272 8.40903107,19.5196492 8.32933452,18.4289401 C8.30006169,18.0299497 8.34743968,17.7115019 8.75015264,17.5385722 C8.79956112,17.5172521 8.85269215,17.5040539 8.90396191,17.4871332 C8.88196498,17.4609061 8.85996806,17.4348482 8.83797113,17.4086211 C8.63069241,17.349737 8.4215524,17.2969444 8.21681178,17.2306152 C7.94777245,17.1434735 7.83338844,16.9651292 7.82560491,16.6685091 C7.80073146,15.7327938 7.74793884,14.7977552 7.70699072,13.8836983 C7.32322896,13.7691451 6.95165012,13.6992625 6.61594318,13.5490066 C6.06585083,13.3024718 5.91864063,12.7655776 6.17888118,12.3105797 C6.80004054,12.4210719 7.39751089,12.5249651 7.99362759,12.635965 C8.07197048,12.6505168 8.14659083,12.6967103 8.21765782,12.73732 C8.54219708,12.9226018 8.87367384,13.097562 9.18383049,13.3045023 C9.32850258,13.4011196 9.48298869,13.5415615 9.54339563,13.6968936 C11.3063647,18.2370592 13.0649343,22.779086 14.8008302,27.3297424 C14.972237,27.7791565 15.0448268,28.2823785 15.0747765,28.7661417 C15.1400905,29.8228401 15.5314665,30.7658314 15.9824035,31.6961322 C16.0319812,31.7985025 16.0825741,31.9003652 16.1490725,32.0359001 C15.9480545,32.0687263 15.7656492,32.0854778 15.5900122,32.1294717 C14.3666447,32.4359058 13.4365131,33.1414995 12.7826968,34.2147802 C12.2762599,35.0460948 11.8938518,35.9322325 11.6136448,36.9672725" id="Fill-6" fill="#FEFEFE"></path>
                    <path d="M11.7633254,49.3414741 C12.3227242,47.596441 12.5428626,45.8162129 12.5074983,44.0072195 C12.4848246,42.8423977 12.3743323,41.6794371 12.3215397,40.5147845 C12.2631633,39.2239033 12.4039436,37.9531578 12.8450666,36.7336821 C13.38213,35.2493972 14.2960176,34.0656242 15.7464611,33.3732286 C16.6043412,32.9635782 17.5170444,32.944627 18.4336394,33.1647654 C18.5314411,33.1882852 18.6490401,33.2630748 18.6952336,33.3478475 C19.1773047,34.2344929 19.6468545,35.1279065 20.1184348,36.0201356 C20.1363707,36.0538079 20.1402625,36.094756 20.1651359,36.1840974 C19.7033697,36.1840974 19.2608931,36.1280898 18.8378752,36.1945882 C17.5889575,36.3908685 16.7958837,37.2072928 16.2209179,38.2656834 C15.7561059,39.1211946 15.5796229,40.0645243 15.4704843,41.0191909 C15.2758961,42.7224298 15.0146403,44.4183928 14.1885711,45.9426106 C13.7354344,46.7788322 13.1240891,47.530281 12.5706126,48.3103259 C12.3183248,48.6659992 12.03338,48.9984912 11.7633254,49.3414741" id="Fill-8" fill="#FEFEFE"></path>
                    <path d="M13.8182444,2.07300723 C14.0179088,2.59145786 13.8556392,3.27590068 13.379998,3.60805426 C12.9913292,3.87929328 12.5544364,4.08792566 12.1222814,4.28809769 C11.7456263,4.46238103 11.3484972,4.59419338 10.9554291,4.73040511 C10.2885838,4.96154204 9.71294117,5.31146237 9.31378156,5.97035491 C8.95658533,5.49606734 8.58703697,5.62906414 8.19972186,5.90656383 C7.95454074,6.08203161 7.68871635,6.07018711 7.44675016,5.88101355 C7.3074927,5.77204416 7.17906449,5.64919979 7.04539086,5.5331237 C6.59428467,5.14140921 6.19174093,5.09944585 5.67667444,5.40300343 C5.52472644,5.49251399 5.38716105,5.6065596 5.24350421,5.70994515 C4.91507318,5.94666591 4.75077306,5.93752873 4.44433896,5.66510526 C3.35430667,4.69554844 3.57647562,2.84696062 4.87074091,2.11412456 C5.37717783,1.82731849 5.92727019,1.73374695 6.49817503,1.77452587 C7.47213123,1.84407 8.44405695,2.03273594 9.42038205,1.80193742 C9.64136656,1.74982163 9.86150502,1.69381407 10.1014407,1.63492999 C10.2784314,1.95557749 10.1819833,2.26742622 10.0569393,2.57859812 C11.0806423,3.05593141 12.5493602,3.23495255 13.8182444,2.07300723" id="Fill-10" fill="#FEFEFE"></path>
                    <path d="M15.5929056,45.3089807 C15.7660045,44.6729311 15.9509479,44.0910278 16.0807298,43.4971108 C16.3470618,42.2786503 16.5677079,41.0502066 16.8382701,39.8327613 C17.0223674,39.0048309 17.4030834,38.2708104 18.0460705,37.692122 C18.6107147,37.1838238 19.28822,37.0364444 20.0175027,37.1019276 C20.1335788,37.1124184 20.2763896,37.2621667 20.337135,37.3826422 C20.8423874,38.3855328 21.3329189,39.3960377 21.8244656,40.4056966 C22.1391908,41.0518986 22.2161801,41.1155205 22.8522297,41.2375189 C21.6314003,41.8136691 20.3635313,42.3808514 19.1242583,43.0052257 C17.8783863,43.6329841 16.6819227,44.3499147 15.5929056,45.3089807" id="Fill-12" fill="#FEFEFE"></path>
                    <path d="M1.6048573,11.4805849 C1.32651158,11.0293095 1.2534141,10.5622978 1.43903432,10.0724432 C1.51247021,9.87836264 1.58979786,9.68242079 1.6926758,9.50323045 C1.97525169,9.01151454 2.10080338,8.50660049 1.83819392,7.9035463 C2.0395504,7.94720174 2.18743742,7.97461329 2.33278634,8.01166965 C2.73769899,8.11454758 3.0229822,7.99238004 3.21655515,7.6280771 C3.52941912,7.03940552 3.67493725,6.95514037 4.31132524,7.13737644 C4.86649381,7.29643114 5.32149177,7.19304559 5.74924738,6.80522286 C6.20323009,6.39388034 6.47345387,6.37188342 6.92929786,6.77036619 C7.40696957,7.18813858 7.88261079,7.27291135 8.44167113,6.98745893 C8.55994691,6.92705199 8.69666626,6.89422581 8.82898623,6.87172126 C9.26114123,6.79862378 9.45877515,6.92705199 9.53424153,7.3597146 C9.64151884,7.97579774 9.72730685,8.24635993 10.6149674,8.02994402 C10.7430572,7.9986407 10.8713162,7.96801421 10.9885768,7.93975662 C11.0109121,7.96479928 11.0254639,7.97512091 11.0237718,7.98002792 C10.791112,8.66260946 11.0694578,9.25923377 11.3322364,9.86178034 C11.5591432,10.3817538 11.513288,10.9140794 11.3829986,11.5130727 C11.3342669,11.4127328 11.302456,11.3722923 11.2946724,11.3277909 C11.1821497,10.685819 10.8163239,10.20544 10.3202086,9.81355631 C9.57197471,9.22251583 8.69785071,8.9296183 7.77008805,8.79120687 C6.39460335,8.58612784 5.02944027,8.6066019 3.69845704,9.07022942 C3.15107199,9.26092584 2.65258781,9.53741028 2.2486904,9.96228937 C1.84546983,10.3863224 1.62803867,10.890052 1.6048573,11.4805849" id="Fill-14" fill="#FEFEFE"></path>
                    <path d="M25.8594802,22.5168319 C24.915812,22.4317207 24.0100463,22.3499937 23.0682395,22.2648825 C23.4501399,19.4139116 23.8364398,16.5297762 24.2225705,13.6454716 C24.245921,13.6429335 24.2692716,13.6403954 24.2926222,13.6376881 C24.8178411,16.6142106 25.3432292,19.5909023 25.8594802,22.5168319" id="Fill-16" fill="#FEFEFE"></path>
                    <path d="M6.25167409,15.6253811 C7.4560904,16.4375753 7.97149529,17.5798926 7.74780348,19.0445494 C7.71210077,19.2785629 7.7080398,19.4643523 7.91142676,19.6574176 C8.15677709,19.8902466 8.08790979,20.1844978 7.89112191,20.4679197 C7.72800624,20.3963451 7.56861313,20.3293391 7.41141971,20.2570877 C6.62646787,19.8961689 5.8552218,19.9711276 5.09362054,20.3301851 C4.83236474,20.4533679 4.69243045,20.3912689 4.69818349,20.1020939 C4.70190604,19.9164737 4.79733886,19.7318688 4.85605373,19.548279 C4.90613904,19.391424 5.01257032,19.2352458 5.00783252,19.0814366 C4.98482035,18.3438627 4.92289055,17.6074733 4.89987838,16.8697303 C4.89598661,16.7448554 4.98329749,16.5726025 5.08431414,16.4979822 C5.34150897,16.3077934 5.63829827,16.1719201 5.90327662,15.9908685 C6.031028,15.9035576 6.12290747,15.7636233 6.25167409,15.6253811" id="Fill-18" fill="#FEFEFE"></path>
                    <path d="M30.6760117,25.3204416 C29.9067961,24.762735 29.1748061,24.231763 28.49747,23.7407239 C30.2714375,21.9121025 32.0868607,20.0406718 33.9022839,18.169241 C33.9334181,18.19293 33.9645522,18.2164498 33.9955171,18.2399695 C32.8900869,20.59804 31.7844876,22.9559413 30.6760117,25.3204416" id="Fill-20" fill="#FEFEFE"></path>
                    <path d="M32.0363185,32.4732667 C32.0671142,33.1416348 32.0811584,33.7323369 32.1283672,34.3201624 C32.146134,34.5401317 32.2089098,34.769915 32.3063731,34.9680565 C32.8566347,36.0871924 33.4241554,37.1976988 33.9837233,38.3124353 C34.048022,38.4405251 34.0987842,38.5753832 34.1798344,38.7626955 C33.6468319,38.7626955 33.1537624,38.7716634 32.6615389,38.7542351 C32.5743972,38.7511894 32.4551062,38.656941 32.4116199,38.5731835 C31.7770932,37.3462626 31.1476427,36.1168037 30.5295291,34.8814225 C30.3307107,34.4842933 30.3885796,34.0898715 30.6528811,33.7341982 C31.0159996,33.2462048 31.4689671,32.8561824 32.0363185,32.4732667" id="Fill-22" fill="#FEFEFE"></path>
                    <path d="M33.199719,29.0409848 C32.8536905,28.2643241 32.5176451,27.5101679 32.1643407,26.7170941 C34.2508337,25.792208 36.4099166,24.8350033 38.5689995,23.8779678 C38.5810132,23.8979343 38.5931961,23.9180699 38.605379,23.9380364 C36.7911402,25.6505816 34.9770707,27.3631269 33.199719,29.0409848" id="Fill-24" fill="#FEFEFE"></path>
                    <path d="M15.1940675,18.2648768 C17.0121981,19.9141387 18.8303286,21.5634005 20.6748555,23.2365205 C20.0032724,23.7035322 19.4459041,24.2500712 19.0846469,25.0546511 C17.7499411,22.7774616 16.4445082,20.550019 15.1390752,18.3225765 C15.1573496,18.3032868 15.1757932,18.2841664 15.1940675,18.2648768" id="Fill-26" fill="#FEFEFE"></path>
                    <path d="M4.09116985,15.0579957 C3.87424632,15.0766085 3.65478468,15.0805003 3.4414145,15.1185719 C3.272715,15.1486908 3.17406724,15.1045277 3.15257794,14.9380279 C3.11975176,14.6847248 3.10029294,14.4298989 3.07288138,14.1532453 C3.2466571,14.1341248 3.36662495,14.1209267 3.48676201,14.1077285 C3.48811566,14.0853932 3.49556078,14.0632271 3.48980773,14.0452911 C3.32009299,13.5095814 3.31992378,13.5095814 3.8145162,13.2444338 C4.44971975,12.9039891 4.95412618,12.7408734 5.36462266,12.7432169 C5.5602261,13.3484962 5.49643501,13.5055204 4.90742502,13.9349681 C5.1231641,13.9349681 5.3392416,13.9293842 5.55481147,13.9368293 C5.7360323,13.94309 5.94720279,13.9050184 5.97444514,14.1867483 C6.00591766,14.5148409 5.85819984,14.8060463 5.60878854,14.8657764 C5.50946396,14.8896347 5.40506317,14.8928496 5.29118677,14.9068938 C5.31098401,15.0453052 5.36580711,15.1830398 5.33856477,15.3021616 C5.30523096,15.4483566 5.23754811,15.6517435 5.125533,15.7038593 C4.58982325,15.953609 4.19167888,16.3162199 4.00115166,16.920797 C3.67204381,16.6419436 3.50757448,16.308944 3.39843589,15.9503941 C3.37593134,15.875943 3.44818278,15.758344 3.50199065,15.6778014 C3.65833803,15.4442956 3.82737595,15.2194193 3.99150686,14.9911589 C4.02467145,15.0134943 4.05800526,15.0356604 4.09116985,15.0579957" id="Fill-28" fill="#FEFEFE"></path>
                    <path d="M4.12709252,12.2213737 C4.00154084,11.616289 4.16787144,11.1998703 4.63336024,10.8859911 C5.55773875,10.2633088 7.36707053,10.2991808 8.26149938,10.9580733 C8.70719095,11.2863351 8.87436758,11.6763575 8.8153143,12.3200214 C8.13205593,11.7196746 7.35674889,11.4252542 6.47382612,11.4247465 C5.61188503,11.4240697 4.78987683,11.536254 4.12709252,12.2213737" id="Fill-30" fill="#FEFEFE"></path>
                    <path d="M18.3225719,28.1616492 C18.217325,28.480943 18.0961727,28.7401684 18.0523481,29.011915 C18.0088619,29.2826464 18.0428725,29.5658991 18.0428725,29.9009292 C17.4728137,29.5078611 16.9440414,29.1447426 16.4181457,28.7777323 C16.3804125,28.751336 16.3428485,28.6978666 16.3387876,28.6538727 C16.2927632,28.1684175 16.253338,27.6824546 16.207652,27.1438684 C16.942857,27.4976805 17.6406672,27.8335566 18.3225719,28.1616492" id="Fill-32" fill="#FEFEFE"></path>
                    <path d="M26.7497804,25.0617916 C26.5392867,25.6081614 26.3506208,26.0978468 26.1717688,26.5616436 C27.0020682,26.9817849 27.7970033,27.3841594 28.6144429,27.7977016 C28.8548862,27.4574261 29.1037899,27.1051368 29.3851813,26.7071617 C28.4992128,26.1538544 27.6445476,25.6203443 26.7497804,25.0617916 M22.2882962,29.7931612 C22.1617292,29.8638898 22.01858,29.9896107 21.9823697,30.1178697 C21.9241624,30.3237948 21.9429444,30.5356421 22.2207825,30.6415657 C22.3761146,30.7009574 22.5229864,30.8390304 22.621465,30.9784571 C22.8084388,31.2436047 23.0096261,31.2337907 23.2610679,31.0779509 C23.2141975,30.9764266 23.1683424,30.8774405 23.1231641,30.7796387 C23.5835767,30.5319195 24.2331628,30.5171985 24.6979748,30.7349681 C24.9270812,30.8422454 25.813219,30.6848828 25.9809032,30.5021391 C26.0115297,30.4689745 26.0188056,30.4144898 26.0389413,30.3652505 C24.8830874,29.4637149 23.6757946,29.0168389 22.2882962,29.7931612 M22.4277228,26.1988635 C23.3964336,26.0702661 24.3355331,25.9834628 25.288,26.3017414 C25.3314863,26.0499612 25.3736188,25.8059646 25.4157514,25.5619679 C25.5776826,24.6237144 25.5797131,24.6140696 24.6487355,24.4232039 C23.8054072,24.2504435 22.974431,24.2754861 22.1734045,24.6418195 C21.9820313,24.7294688 21.9366837,24.8294702 22.0151959,25.0293039 C22.1632521,25.4057897 22.2859273,25.7920896 22.4277228,26.1988635 M20.2916521,27.3669003 C20.7410662,27.0339006 21.1635764,26.7205291 21.615867,26.3853297 C21.4564739,26.0215344 21.292343,25.6469099 21.1067228,25.2232152 C20.5556152,25.8592648 20.1422422,26.4870232 20.2916521,27.3669003" id="Fill-34" fill="#191344"></path>
                </g>
            </g>
        </g>
    </g>
</svg>