<?xml version="1.0" encoding="UTF-8"?>
<svg width="92px" height="92px" viewBox="0 0 92 92" version="1.1" xmlns="http://www.w3.org/2000/svg" xmlns:xlink="http://www.w3.org/1999/xlink">
    <title>image/logo/insurance/msig</title>
    <defs>
        <polygon id="path-1" points="0 68.28288 59.96816 68.28288 59.96816 0 0 0"></polygon>
    </defs>
    <g id="Symbols" stroke="none" stroke-width="1" fill="none" fill-rule="evenodd">
        <g id="image/logo/insurance/msig">
            <rect id="Mask" stroke="#EBEBEB" fill="#FFFFFF" x="0.5" y="0.5" width="91" height="91" rx="12"></rect>
            <g id="Group" transform="translate(6.000000, 6.000000)">
                <g id="Group-30" transform="translate(10.080000, 5.920000)">
                    <polygon id="Fill-1" fill="#211E1F" points="15.82592 55.577152 15.79808 55.577152 13.43408 48.022592 10.23392 48.022592 10.23392 57.991872 12.13936 57.991872 12.13936 49.799392 12.17376 49.767712 14.85968 57.991872 16.76272 57.991872 19.4536 49.767712 19.48496 49.767712 19.48496 57.991872 21.39568 57.991872 21.39568 48.022592 18.19632 48.022592"></polygon>
                    <g id="Group-29">
                        <path d="M27.490048,50.807664 C27.490048,49.721584 28.371328,49.428304 29.058688,49.428304 C29.750208,49.428304 30.451008,49.582064 31.074688,49.854704 L31.263488,48.215984 C30.537568,47.970704 29.736928,47.853904 28.884288,47.853904 C27.128448,47.853904 25.400768,48.671824 25.400768,50.894704 C25.400768,54.197424 29.770848,53.408944 29.770848,55.306384 C29.770848,56.207024 28.757728,56.589584 27.999328,56.589584 C27.211968,56.589584 26.427648,56.345104 25.745248,55.979184 L25.555968,57.776304 C26.541408,58.019344 27.028928,58.161584 28.111488,58.161584 C30.121088,58.161584 31.854848,57.334544 31.854848,55.150704 C31.854848,51.811664 27.490048,52.538384 27.490048,50.807664" id="Fill-2" fill="#211E1F"></path>
                        <mask id="mask-2" fill="white">
                            <use xlink:href="#path-1"></use>
                        </mask>
                        <g id="Clip-5"></g>
                        <polygon id="Fill-4" fill="#211E1F" mask="url(#mask-2)" points="35.87424 57.99184 37.86784 57.99184 37.86784 48.02256 35.87424 48.02256"></polygon>
                        <path d="M45.819216,53.973072 L47.821936,53.973072 L47.821936,56.372112 C47.570576,56.429392 47.281296,56.482032 46.571056,56.482032 C44.651056,56.482032 43.252336,55.028592 43.252336,53.033232 C43.252336,50.995312 44.651056,49.577072 46.639696,49.577072 C47.909616,49.577072 48.551216,49.821872 49.110096,50.185072 L49.499216,50.441072 L49.658256,48.389872 L49.464176,48.316272 C48.691216,48.053392 48.024016,47.826512 46.571056,47.826512 C43.447216,47.826512 41.260336,49.945872 41.260336,52.983152 C41.260336,56.126832 43.389616,58.226832 46.562736,58.226832 C47.715856,58.226832 48.695856,58.087952 49.560176,57.797232 L49.734256,57.726032 L49.734256,52.302352 L45.819216,52.302352 L45.819216,53.973072 Z" id="Fill-6" fill="#211E1F" mask="url(#mask-2)"></path>
                        <polygon id="Fill-7" fill="#211E1F" mask="url(#mask-2)" points="0 68.19872 0.83584 68.19872 0.83584 64.61792 0 64.61792"></polygon>
                        <path d="M2.340944,66.746064 C2.340944,66.898384 2.359024,67.031184 2.399024,67.149424 C2.442544,67.268304 2.494864,67.366224 2.567664,67.446704 C2.637744,67.528464 2.728944,67.592944 2.821424,67.632944 C2.919984,67.670704 3.030544,67.698704 3.149424,67.698704 C3.291664,67.698704 3.422544,67.669104 3.531504,67.612944 C3.639024,67.548944 3.731824,67.466704 3.801264,67.352464 C3.876144,67.243664 3.924464,67.105744 3.964304,66.946704 C3.999664,66.784464 4.021264,66.604144 4.021264,66.401424 C4.021264,66.323344 4.011984,66.239184 4.007984,66.144624 C3.999664,66.052144 3.983664,65.959984 3.968624,65.865744 C3.947824,65.773584 3.915184,65.682864 3.880144,65.592944 C3.839664,65.503824 3.790544,65.425904 3.726544,65.362544 C3.655664,65.291344 3.578544,65.237584 3.482704,65.197584 C3.385104,65.154704 3.271984,65.133744 3.137104,65.133744 C3.051984,65.133744 2.959984,65.145104 2.857904,65.169584 C2.757744,65.193904 2.646224,65.231184 2.539024,65.283664 C2.435504,65.338544 2.321264,65.404624 2.207024,65.494064 C2.092784,65.580624 1.985904,65.690864 1.882384,65.819344 L1.481424,65.417904 C1.617264,65.243984 1.761584,65.103024 1.906864,64.992784 C2.054384,64.878864 2.199664,64.788144 2.347664,64.719984 C2.491824,64.653904 2.637744,64.603024 2.784144,64.577104 C2.925264,64.545744 3.062224,64.535024 3.190864,64.535024 C3.470384,64.535024 3.710544,64.577104 3.915184,64.671504 C4.121584,64.760464 4.296464,64.883984 4.431504,65.041584 C4.574704,65.201904 4.667504,65.393584 4.740304,65.619024 C4.810704,65.843024 4.847504,66.088144 4.847504,66.357584 C4.847504,66.674224 4.803504,66.954384 4.713904,67.199504 C4.624464,67.434064 4.505264,67.641424 4.352624,67.799344 C4.193264,67.959984 4.021264,68.078224 3.812624,68.160624 C3.605264,68.239184 3.385104,68.279184 3.149424,68.279184 C2.919984,68.279184 2.707184,68.240784 2.519344,68.171024 C2.321264,68.092784 2.148304,67.980624 2.010384,67.829744 C1.861424,67.670704 1.749584,67.480464 1.667024,67.237584 C1.578864,66.997264 1.540144,66.707984 1.540144,66.376784 L1.540144,66.289584 C1.545104,66.255504 1.545104,66.214704 1.556144,66.162704 L3.129744,66.162704 L3.129744,66.746064 L2.340944,66.746064 Z" id="Fill-8" fill="#211E1F" mask="url(#mask-2)"></path>
                        <path d="M4.697264,62.89664 L3.296944,62.89664 C3.241264,62.89664 3.188784,62.90464 3.137104,62.91312 C3.087344,62.9264 3.040944,62.94416 2.996784,62.9728 C2.957424,63.0008 2.919984,63.03616 2.896624,63.08032 C2.872304,63.1208 2.857904,63.17312 2.857904,63.23968 C2.857904,63.27168 2.859984,63.31568 2.881584,63.36416 C2.888944,63.41424 2.915984,63.46 2.944944,63.5008 C2.983504,63.4616 3.020944,63.43472 3.075664,63.40624 C3.117424,63.38016 3.169744,63.35616 3.217904,63.33552 C3.264624,63.32176 3.317744,63.30576 3.362064,63.29968 C3.418224,63.28944 3.460944,63.28512 3.503024,63.28512 C3.605264,63.28512 3.700784,63.30576 3.790544,63.33376 C3.880144,63.35952 3.973584,63.41424 4.068144,63.48976 C4.080464,63.48272 4.092144,63.4616 4.104464,63.43568 C4.116464,63.40992 4.121584,63.37216 4.121584,63.33376 L4.121584,63.28336 C4.121584,63.22496 4.112784,63.18288 4.084784,63.13552 L4.602064,63.13552 C4.604464,63.14912 4.614064,63.1712 4.620464,63.19088 C4.626384,63.22128 4.632784,63.2576 4.632784,63.29968 L4.632784,63.41424 C4.626384,63.48976 4.616144,63.55856 4.587984,63.6224 C4.557904,63.6808 4.521584,63.74128 4.472784,63.7896 C4.424144,63.83712 4.370224,63.88112 4.309904,63.91584 C4.244784,63.9496 4.184944,63.98432 4.112784,64.00368 C4.097104,64.00368 4.084784,64.00368 4.075504,64.00576 C4.064144,64.01536 4.060464,64.01536 4.054064,64.01536 C4.054064,64.01536 4.042064,64.00576 4.037104,64.00368 C4.037104,64.00368 4.022384,63.99136 4.021264,63.98432 C3.999664,63.95168 3.973584,63.91952 3.943504,63.88112 C3.911824,63.85104 3.880144,63.81296 3.836624,63.78528 C3.798224,63.75728 3.748464,63.73088 3.691344,63.70688 C3.627024,63.69088 3.566864,63.6792 3.492944,63.6792 C3.449904,63.6792 3.405904,63.68416 3.362064,63.69712 C3.317744,63.70688 3.271984,63.7232 3.226224,63.7472 C3.178064,63.76688 3.129744,63.79728 3.087344,63.83712 C3.040944,63.87376 2.996784,63.91952 2.957424,63.97328 C2.949104,63.98432 2.944944,63.988 2.944944,63.99136 C2.940624,64.00368 2.936624,64.00368 2.936624,64.00368 C2.928304,64.00576 2.919984,64.00576 2.919984,64.00576 C2.905904,64.00576 2.894704,64.00368 2.881584,64.00368 C2.804784,63.98432 2.736304,63.9496 2.671824,63.91024 C2.608784,63.87376 2.551024,63.81936 2.502864,63.75728 C2.456144,63.69088 2.418064,63.6224 2.387664,63.53248 C2.359024,63.44608 2.347664,63.34352 2.347664,63.2232 C2.347664,63.09328 2.371024,62.9728 2.426384,62.876 C2.477904,62.78016 2.551024,62.70032 2.643824,62.63728 C2.736304,62.58176 2.842224,62.53504 2.971344,62.5056 C3.103344,62.47696 3.241264,62.46352 3.390224,62.46352 L4.881904,62.46352 L4.697264,62.89664 Z" id="Fill-9" fill="#211E1F" mask="url(#mask-2)"></path>
                        <path d="M6.53664,66.7584 C6.53664,66.88032 6.56192,67.0048 6.60704,67.11536 C6.65488,67.23392 6.71824,67.33184 6.796,67.41424 C6.88032,67.50512 6.96544,67.5688 7.06688,67.62336 C7.17184,67.67072 7.2736,67.69872 7.3872,67.69872 C7.49872,67.69872 7.59584,67.67072 7.67104,67.63072 C7.75216,67.58128 7.81232,67.5168 7.85632,67.432 C7.9048,67.34576 7.93616,67.24736 7.96064,67.12912 C7.98064,67.0136 7.99232,66.88864 7.99232,66.7488 L7.99232,64.61952 L8.82848,64.61952 L8.82848,66.6696 C8.82848,66.88496 8.80944,67.06896 8.7744,67.23392 C8.73856,67.39424 8.69264,67.53616 8.63008,67.65312 C8.56592,67.77136 8.49424,67.87184 8.41376,67.94864 C8.33392,68.024 8.24608,68.0928 8.15584,68.13664 C8.056,68.1824 7.96688,68.21648 7.86768,68.2392 C7.77184,68.26112 7.67536,68.2688 7.58656,68.2688 C7.45072,68.2688 7.33472,68.2488 7.21312,68.2144 C7.10224,68.17872 6.99744,68.12864 6.90128,68.07024 C6.80112,68.008 6.71824,67.93984 6.64288,67.86752 C6.56192,67.79136 6.50384,67.71152 6.44512,67.63072 C6.44512,67.67072 6.44144,67.71744 6.44048,67.77136 C6.4344,67.81968 6.42816,67.87184 6.42816,67.91952 C6.42816,67.9776 6.4224,68.024 6.41936,68.07648 C6.41504,68.12032 6.41216,68.16064 6.41216,68.1968 L5.63856,68.1968 L5.652,67.95792 C5.66464,67.83776 5.67408,67.71344 5.68608,67.58128 C5.69408,67.44672 5.69584,67.30416 5.69584,67.14944 L5.69584,65.63536 C5.69584,65.5248 5.69408,65.43264 5.69008,65.34176 C5.68608,65.24928 5.67712,65.1648 5.66464,65.08464 C5.65936,65.00512 5.64496,64.9224 5.63664,64.84592 C5.62256,64.77376 5.61024,64.69824 5.60128,64.61952 L6.44512,64.61952 C6.46816,64.72176 6.49184,64.81856 6.4976,64.89664 C6.50688,64.97952 6.52,65.05728 6.52288,65.11536 C6.52832,65.18752 6.53136,65.252 6.53664,65.31408 L6.53664,66.7584 Z" id="Fill-10" fill="#211E1F" mask="url(#mask-2)"></path>
                        <polygon id="Fill-11" fill="#211E1F" mask="url(#mask-2)" points="11.13888 68.19872 11.97104 68.19872 11.97104 64.61792 11.13888 64.61792"></polygon>
                        <path d="M13.476096,66.746064 C13.476096,66.898384 13.499776,67.031184 13.540576,67.149424 C13.578656,67.268304 13.631776,67.366224 13.706496,67.446704 C13.777056,67.528464 13.860416,67.592944 13.959616,67.632944 C14.055936,67.670704 14.162016,67.698704 14.281696,67.698704 C14.425856,67.698704 14.554336,67.669104 14.666016,67.612944 C14.777856,67.548944 14.865056,67.466704 14.937536,67.352464 C15.012896,67.243664 15.064416,67.105744 15.100416,66.946704 C15.132736,66.784464 15.153856,66.604144 15.153856,66.401424 C15.153856,66.323344 15.148896,66.239184 15.144416,66.144624 C15.136896,66.052144 15.122496,65.959984 15.100416,65.865744 C15.081376,65.773584 15.051616,65.682864 15.014976,65.592944 C14.975936,65.503824 14.929056,65.425904 14.859616,65.362544 C14.796576,65.291344 14.712416,65.237584 14.614816,65.197584 C14.523296,65.154704 14.410816,65.133744 14.269536,65.133744 C14.186016,65.133744 14.097856,65.145104 13.992416,65.169584 C13.889216,65.193904 13.784736,65.231184 13.675456,65.283664 C13.566336,65.338544 13.455776,65.404624 13.341216,65.494064 C13.230016,65.580624 13.122176,65.690864 13.017376,65.819344 L12.617536,65.417904 C12.753376,65.243984 12.893696,65.103024 13.044736,64.992784 C13.186976,64.878864 13.335936,64.788144 13.482176,64.719984 C13.631776,64.653904 13.777056,64.603024 13.917216,64.577104 C14.063136,64.545744 14.198176,64.535024 14.326336,64.535024 C14.605856,64.535024 14.841856,64.577104 15.051616,64.671504 C15.259456,64.760464 15.430656,64.883984 15.566176,65.041584 C15.705856,65.201904 15.805376,65.393584 15.876896,65.619024 C15.947616,65.843024 15.981696,66.088144 15.981696,66.357584 C15.981696,66.674224 15.936256,66.954384 15.849056,67.199504 C15.765376,67.434064 15.642496,67.641424 15.485056,67.799344 C15.336256,67.959984 15.153856,68.078224 14.947456,68.160624 C14.738816,68.239184 14.521376,68.279184 14.281696,68.279184 C14.055936,68.279184 13.845536,68.240784 13.648736,68.171024 C13.455776,68.092784 13.283136,67.980624 13.142816,67.829744 C12.998656,67.670704 12.885376,67.480464 12.797216,67.237584 C12.717376,66.997264 12.676736,66.707984 12.676736,66.376784 C12.676736,66.360624 12.676736,66.331664 12.681056,66.289584 C12.681056,66.255504 12.681056,66.214704 12.689376,66.162704 L14.262176,66.162704 L14.262176,66.746064 L13.476096,66.746064 Z" id="Fill-12" fill="#211E1F" mask="url(#mask-2)"></path>
                        <path d="M18.778144,68.196736 L18.778144,66.425536 C18.683264,66.425536 18.584064,66.429056 18.474624,66.434176 C18.368064,66.443456 18.258144,66.455136 18.155424,66.475936 C18.050464,66.490976 17.941024,66.517696 17.841024,66.554016 C17.735584,66.587776 17.646784,66.631776 17.573024,66.681856 C17.488224,66.736416 17.424704,66.802176 17.379904,66.880256 C17.331904,66.958176 17.303104,67.045216 17.303104,67.149536 C17.303104,67.234016 17.328864,67.304096 17.351904,67.366176 C17.387904,67.431936 17.430944,67.492416 17.475424,67.542816 C17.531264,67.592896 17.584704,67.630656 17.653184,67.653056 C17.717504,67.680736 17.780704,67.698816 17.850144,67.698816 C17.908544,67.698816 17.964384,67.695136 18.017504,67.687136 C18.069824,67.678816 18.113984,67.661056 18.161664,67.646976 L18.339744,68.116576 C18.230144,68.146656 18.130624,68.178656 18.031744,68.198656 C17.929664,68.216416 17.830464,68.227136 17.745664,68.227136 C17.551264,68.227136 17.372864,68.198656 17.219264,68.143296 C17.067744,68.082816 16.934784,68.008096 16.825664,67.911456 C16.718464,67.819616 16.634944,67.702816 16.573184,67.584576 C16.517024,67.458336 16.489344,67.328096 16.489344,67.185536 C16.489344,66.958176 16.545344,66.764736 16.653984,66.604096 C16.762464,66.443456 16.918784,66.310656 17.114784,66.210336 C17.319424,66.106176 17.553344,66.030176 17.830464,65.983936 C18.113984,65.935616 18.423104,65.905856 18.761824,65.901536 L18.761824,65.792736 C18.761824,65.764896 18.759104,65.724896 18.759104,65.680736 C18.747744,65.630656 18.742144,65.580576 18.723424,65.528416 C18.707744,65.480736 18.683264,65.432576 18.647584,65.382336 C18.610464,65.332096 18.573824,65.283776 18.517664,65.247616 C18.465984,65.206976 18.392064,65.179136 18.316224,65.153056 C18.240544,65.130816 18.138304,65.115456 18.028704,65.115456 C17.850144,65.115456 17.668064,65.145056 17.467744,65.206976 C17.275104,65.268736 17.063264,65.366496 16.835264,65.503776 L16.579104,65.005216 C16.697984,64.929056 16.824544,64.865856 16.942144,64.810816 C17.067744,64.750816 17.191584,64.703936 17.328864,64.659936 C17.456384,64.617856 17.592384,64.588096 17.735584,64.567456 C17.872544,64.543296 18.023744,64.534976 18.182464,64.534976 C18.268544,64.534976 18.351104,64.537696 18.423104,64.545696 C18.494944,64.557696 18.569504,64.577056 18.639264,64.603136 C18.696384,64.625536 18.742144,64.649856 18.786464,64.686016 C18.824544,64.713696 18.861344,64.742336 18.893024,64.773856 C18.893024,64.747456 18.886624,64.716256 18.880384,64.692256 C18.877024,64.664576 18.877024,64.637536 18.877024,64.606176 L18.877024,64.531296 L18.877024,64.231136 L19.658464,64.231136 C19.650144,64.296576 19.650144,64.385056 19.643424,64.487616 C19.633984,64.583136 19.631104,64.693696 19.627424,64.810816 C19.623424,64.922336 19.620064,65.034656 19.615104,65.151456 C19.610624,65.268736 19.610624,65.367936 19.610624,65.458336 L19.610624,68.196736 L18.778144,68.196736 Z" id="Fill-13" fill="#211E1F" mask="url(#mask-2)"></path>
                        <path d="M23.059472,68.196736 L22.224912,68.196736 L22.224912,64.818496 C22.224912,64.721696 22.233392,64.629216 22.246672,64.541376 C22.265072,64.450816 22.292432,64.362976 22.320752,64.284896 C22.352592,64.204096 22.384912,64.132256 22.418032,64.065856 C22.457072,63.991296 22.491792,63.935616 22.530512,63.881216 C22.467472,63.857696 22.394672,63.825696 22.329232,63.791296 C22.257712,63.758656 22.183792,63.723136 22.114832,63.680736 C22.040272,63.642336 21.968432,63.602976 21.894992,63.565856 C21.822192,63.523776 21.755792,63.486176 21.687312,63.448736 C21.622832,63.410016 21.563792,63.372256 21.502672,63.335456 C21.440912,63.299776 21.392432,63.269696 21.350032,63.241376 L21.630192,62.707296 C21.714672,62.768736 21.800592,62.830176 21.883312,62.885696 C21.976912,62.944096 22.065072,63.002496 22.163792,63.057696 C22.257712,63.120736 22.362832,63.173216 22.469392,63.231296 C22.577872,63.285056 22.694192,63.343456 22.808752,63.398496 C22.846672,63.343456 22.886192,63.285056 22.939632,63.223296 C22.983632,63.163136 23.030512,63.101056 23.083472,63.036256 C23.135952,62.972896 23.178992,62.913056 23.239152,62.854656 C23.286192,62.798176 23.328272,62.748096 23.373072,62.700416 L23.814192,63.114656 C23.761872,63.177536 23.705072,63.241376 23.638832,63.305696 C23.580752,63.372256 23.526672,63.446016 23.464272,63.522176 C23.409872,63.600256 23.359312,63.679136 23.307632,63.768896 C23.261872,63.861056 23.215792,63.957696 23.173712,64.059776 C23.139952,64.166336 23.110192,64.278496 23.089552,64.404736 C23.071472,64.524896 23.059472,64.664576 23.059472,64.807776 L23.059472,68.196736 Z" id="Fill-14" fill="#211E1F" mask="url(#mask-2)"></path>
                        <path d="M24.692512,66.746064 C24.692512,66.898384 24.713472,67.031184 24.748192,67.149424 C24.788992,67.268304 24.843392,67.366224 24.918272,67.446704 C24.988992,67.528464 25.073152,67.592944 25.169632,67.632944 C25.266112,67.670704 25.380032,67.698704 25.495552,67.698704 C25.644192,67.698704 25.767712,67.669104 25.875552,67.612944 C25.989472,67.548944 26.076992,67.466704 26.147552,67.352464 C26.221312,67.243664 26.272672,67.105744 26.309472,66.946704 C26.345472,66.784464 26.360512,66.604144 26.360512,66.401424 C26.360512,66.323344 26.358272,66.239184 26.353152,66.144624 C26.348832,66.052144 26.332832,65.959984 26.314752,65.865744 C26.292992,65.773584 26.263392,65.682864 26.228672,65.592944 C26.189312,65.503824 26.136832,65.425904 26.072352,65.362544 C26.003872,65.291344 25.925152,65.237584 25.829952,65.197584 C25.738752,65.154704 25.619232,65.133744 25.486272,65.133744 C25.398112,65.133744 25.305952,65.145104 25.206112,65.169584 C25.105952,65.193904 24.998752,65.231184 24.888512,65.283664 C24.780032,65.338544 24.667392,65.404624 24.556192,65.494064 C24.438592,65.580624 24.333152,65.690864 24.228992,65.819344 L23.830272,65.417904 C23.966112,65.243984 24.104672,65.103024 24.253312,64.992784 C24.403552,64.878864 24.550272,64.788144 24.700192,64.719984 C24.843392,64.653904 24.988992,64.603024 25.133632,64.577104 C25.275552,64.545744 25.410752,64.535024 25.533952,64.535024 C25.815552,64.535024 26.057952,64.577104 26.263392,64.671504 C26.470112,64.760464 26.642752,64.883984 26.780032,65.041584 C26.918912,65.201904 27.021152,65.393584 27.091872,65.619024 C27.164032,65.843024 27.192032,66.088144 27.192032,66.357584 C27.192032,66.674224 27.142912,66.954384 27.064192,67.199504 C26.972992,67.434064 26.848512,67.641424 26.695872,67.799344 C26.543552,67.959984 26.369952,68.078224 26.161152,68.160624 C25.951392,68.239184 25.732032,68.279184 25.495552,68.279184 C25.266112,68.279184 25.056832,68.240784 24.861472,68.171024 C24.667392,68.092784 24.499872,67.980624 24.351872,67.829744 C24.211552,67.670704 24.095072,67.480464 24.014592,67.237584 C23.930432,66.997264 23.885312,66.707984 23.885312,66.376784 C23.885312,66.360624 23.885312,66.331664 23.890272,66.289584 C23.890272,66.255504 23.894752,66.214704 23.899392,66.162704 L25.479232,66.162704 L25.479232,66.746064 L24.692512,66.746064 Z" id="Fill-15" fill="#211E1F" mask="url(#mask-2)"></path>
                        <path d="M30.296288,66.198704 L31.390208,66.198704 L31.390208,65.538224 C31.390208,65.474384 31.372288,65.414224 31.354848,65.362544 C31.319808,65.307024 31.286368,65.256944 31.245088,65.225904 C31.194208,65.187504 31.142208,65.162864 31.074688,65.145104 C31.013568,65.125424 30.940768,65.115344 30.865088,65.115344 C30.764448,65.115344 30.659648,65.130704 30.556128,65.154704 C30.447968,65.181264 30.343328,65.215184 30.246528,65.256944 C30.143008,65.304144 30.043808,65.347824 29.953728,65.397904 C29.863808,65.450384 29.788608,65.498384 29.723808,65.544464 L29.471168,65.020944 C29.544608,64.972784 29.635008,64.914384 29.739328,64.852944 C29.838368,64.797744 29.953728,64.747344 30.070528,64.699984 C30.195488,64.649904 30.319008,64.606224 30.450848,64.577104 C30.582848,64.545744 30.716768,64.531344 30.849248,64.531344 C31.056928,64.531344 31.251008,64.555664 31.423008,64.601424 C31.592608,64.649904 31.739008,64.719984 31.855168,64.818544 C31.980288,64.906704 32.064768,65.028944 32.128288,65.164784 C32.192768,65.309104 32.223808,65.474384 32.223808,65.662704 L32.223808,68.196784 L31.390208,68.196784 L31.390208,66.784464 L30.296288,66.784464 L30.296288,66.198704 Z" id="Fill-16" fill="#211E1F" mask="url(#mask-2)"></path>
                        <polygon id="Fill-17" fill="#211E1F" mask="url(#mask-2)" points="30.062544 63.414288 31.486704 63.414288 31.486704 62.780208 32.305904 62.780208 32.305904 63.919568 29.846704 63.919568"></polygon>
                        <path d="M35.753808,66.932704 C35.753808,66.983104 35.753808,67.034944 35.766128,67.092704 C35.778288,67.149504 35.789968,67.209504 35.813008,67.263264 C35.833648,67.323744 35.858608,67.375904 35.898128,67.428704 C35.940528,67.482304 35.984528,67.528544 36.036048,67.568864 C36.094128,67.610944 36.158608,67.641344 36.234288,67.661024 C36.310128,67.687104 36.401328,67.698784 36.496848,67.698784 C36.592048,67.698784 36.688848,67.687104 36.764688,67.661024 C36.840528,67.641344 36.909008,67.610944 36.963088,67.568864 C37.018128,67.528544 37.064208,67.482304 37.101008,67.428704 C37.137968,67.375904 37.169328,67.323744 37.190448,67.263264 C37.210448,67.209504 37.225488,67.149504 37.238288,67.092704 C37.245168,67.034944 37.250608,66.983104 37.250608,66.932704 L37.250608,63.089024 L38.087728,63.089024 L38.087728,66.760064 C38.087728,66.880224 38.075728,67.003264 38.053008,67.123744 C38.034288,67.247264 37.994928,67.366144 37.945488,67.482304 C37.892368,67.592864 37.829648,67.698784 37.746128,67.799264 C37.663728,67.896064 37.563088,67.980704 37.446608,68.052384 C37.327408,68.122624 37.190448,68.180384 37.037808,68.219424 C36.876848,68.261184 36.700208,68.282944 36.496848,68.282944 C36.297488,68.282944 36.118448,68.261184 35.961168,68.219424 C35.807568,68.180384 35.675728,68.122624 35.552528,68.052384 C35.436528,67.980704 35.339408,67.896064 35.255568,67.799264 C35.167728,67.698784 35.109008,67.592864 35.055248,67.482304 C35.007408,67.366144 34.971088,67.247264 34.947088,67.123744 C34.922288,67.004864 34.913008,66.880224 34.913008,66.760064 L34.913008,65.635264 C34.913008,65.524864 34.913008,65.432704 34.902608,65.341824 C34.902608,65.249344 34.895568,65.164864 34.886608,65.084704 C34.877648,65.005184 34.867248,64.922304 34.851408,64.845824 C34.839088,64.773824 34.826128,64.698304 34.811088,64.619584 L35.657328,64.619584 C35.683088,64.704064 35.698768,64.784384 35.709808,64.862624 C35.721488,64.945344 35.729808,65.020864 35.741168,65.089664 C35.744528,65.164864 35.749488,65.243904 35.753808,65.314144 L35.753808,66.932704 Z" id="Fill-18" fill="#211E1F" mask="url(#mask-2)"></path>
                        <path d="M39.063872,67.354176 C39.162752,67.431936 39.255872,67.498816 39.344352,67.544576 C39.433632,67.592896 39.512992,67.623296 39.592192,67.646976 C39.668992,67.664736 39.736352,67.678656 39.801952,67.687136 C39.866272,67.693376 39.918752,67.695136 39.957792,67.695136 C40.051072,67.695136 40.135872,67.680736 40.204672,67.659776 C40.270752,67.633056 40.326912,67.604256 40.367552,67.562496 C40.411392,67.520096 40.443392,67.480416 40.464832,67.424256 C40.492192,67.374176 40.492192,67.323776 40.492192,67.268256 C40.492192,67.199616 40.475072,67.137056 40.443392,67.083616 C40.416352,67.026976 40.370912,66.981056 40.319872,66.937056 C40.269792,66.898336 40.204672,66.858976 40.131552,66.822176 C40.054752,66.790816 39.978592,66.760096 39.902752,66.726336 C39.733472,66.667616 39.585472,66.604096 39.453632,66.527936 C39.324352,66.451456 39.215552,66.368736 39.125312,66.276576 C39.035552,66.180256 38.963712,66.071776 38.920672,65.957856 C38.871872,65.842976 38.842432,65.711456 38.842432,65.568576 C38.842432,65.414336 38.879232,65.268736 38.941312,65.143456 C39.005792,65.013216 39.098272,64.902976 39.215552,64.818496 C39.332672,64.726016 39.468672,64.659936 39.629632,64.606176 C39.785952,64.557696 39.957792,64.537696 40.152832,64.537696 C40.260352,64.537696 40.365632,64.545696 40.464832,64.567456 C40.576352,64.588096 40.676512,64.607776 40.769312,64.645216 C40.867552,64.677216 40.959392,64.711936 41.042432,64.747456 C41.122272,64.788096 41.190752,64.820576 41.253152,64.848256 L41.005472,65.375776 C40.976992,65.364096 40.934912,65.339776 40.879872,65.309056 C40.821472,65.279616 40.751552,65.249376 40.672512,65.221216 C40.599712,65.193856 40.508832,65.169536 40.411392,65.145056 C40.314752,65.130816 40.219392,65.115456 40.110432,65.115456 C40.031392,65.115456 39.957792,65.130816 39.902752,65.145056 C39.837312,65.169536 39.785952,65.197536 39.749152,65.231296 C39.709632,65.268736 39.682752,65.309056 39.660992,65.355776 C39.643552,65.399936 39.631872,65.446656 39.631872,65.494016 C39.631872,65.552576 39.644672,65.612576 39.673312,65.662816 C39.706432,65.716416 39.747072,65.758976 39.801952,65.803936 C39.855392,65.842976 39.919712,65.885216 39.998592,65.929536 C40.071712,65.966336 40.159232,66.003616 40.255712,66.039776 C40.428032,66.114176 40.581632,66.186976 40.709312,66.258816 C40.836832,66.333216 40.947392,66.411136 41.032192,66.497536 C41.113952,66.587776 41.181472,66.688896 41.222432,66.792416 C41.268512,66.906336 41.290912,67.026976 41.290912,67.174176 C41.290912,67.323776 41.262592,67.466656 41.205472,67.598976 C41.153952,67.737536 41.062112,67.854016 40.957312,67.951936 C40.836832,68.055776 40.696832,68.132256 40.523552,68.196736 C40.346912,68.248736 40.142592,68.280896 39.906752,68.280896 C39.810272,68.280896 39.714432,68.274816 39.613152,68.248736 C39.511712,68.237376 39.409472,68.206816 39.312672,68.170976 C39.212512,68.130336 39.109952,68.082816 39.020512,68.032736 C38.920672,67.975616 38.833152,67.909536 38.747392,67.837696 L39.063872,67.354176 Z" id="Fill-19" fill="#211E1F" mask="url(#mask-2)"></path>
                        <path d="M43.863312,67.528496 C43.782832,67.562576 43.689392,67.592976 43.574192,67.618896 C43.464592,67.647056 43.350032,67.670736 43.230512,67.695056 C43.110672,67.717456 42.987152,67.737456 42.871472,67.751536 C42.751952,67.765296 42.637392,67.771216 42.533872,67.774896 C42.285072,67.774896 42.101872,67.735536 41.980912,67.643376 C41.860272,67.548816 41.803152,67.424336 41.818032,67.255696 C41.818032,67.233936 41.819312,67.199536 41.819312,67.161456 C41.828592,67.123696 41.835632,67.083696 41.851952,67.031216 C41.868752,66.981136 41.886352,66.919056 41.924752,66.848176 C41.952752,66.779696 41.996272,66.701616 42.057712,66.609456 L42.742672,66.828496 C42.702192,66.884976 42.672112,66.932656 42.652432,66.964816 C42.631792,67.003216 42.618032,67.037616 42.618032,67.076976 L42.618032,67.107376 C42.624432,67.119056 42.624432,67.135376 42.637392,67.143056 C42.642352,67.149456 42.659792,67.165776 42.682512,67.174096 C42.701232,67.179216 42.725872,67.185456 42.761392,67.185456 C42.822832,67.185456 42.889232,67.179216 42.967952,67.174096 C43.048592,67.165776 43.127632,67.149456 43.216112,67.137136 C43.303312,67.123696 43.397072,67.105616 43.483952,67.083696 C43.576112,67.060976 43.668912,67.037616 43.743472,67.013616 L43.863312,67.528496 Z M43.863312,65.734576 C43.782832,65.764976 43.689392,65.792656 43.574192,65.819376 C43.464592,65.849776 43.350032,65.875536 43.230512,65.898096 C43.110672,65.925936 42.987152,65.941616 42.871472,65.953296 C42.751952,65.968016 42.637392,65.976016 42.533872,65.977616 C42.285072,65.982256 42.101872,65.935536 41.980912,65.843056 C41.860272,65.753616 41.803152,65.628656 41.818032,65.458416 C41.818032,65.432656 41.819312,65.401616 41.819312,65.366576 C41.828592,65.332176 41.835632,65.283696 41.851952,65.231216 C41.868752,65.181136 41.886352,65.125456 41.924752,65.057296 C41.952752,64.983216 41.996272,64.903056 42.057712,64.818576 L42.742672,65.031216 C42.702192,65.089776 42.672112,65.133776 42.652432,65.169456 C42.631792,65.206896 42.618032,65.244016 42.618032,65.283696 L42.618032,65.314096 C42.624432,65.328176 42.624432,65.338416 42.637392,65.347856 C42.642352,65.357456 42.659792,65.367856 42.682512,65.375856 C42.701232,65.382256 42.725872,65.383856 42.761392,65.383856 C42.822832,65.383856 42.889232,65.382256 42.967952,65.375856 C43.048592,65.367856 43.127632,65.355856 43.216112,65.341776 C43.303312,65.332176 43.397072,65.309136 43.483952,65.289776 C43.576112,65.268656 43.668912,65.244016 43.743472,65.215216 L43.863312,65.734576 Z" id="Fill-20" fill="#211E1F" mask="url(#mask-2)"></path>
                        <path d="M44.72624,68.196736 L44.72624,66.164736 C44.72624,66.130176 44.72128,66.091776 44.71296,66.047776 C44.7056,66.003616 44.68944,65.959936 44.66512,65.919616 C44.63808,65.875456 44.60496,65.835136 44.55488,65.804096 C44.51552,65.773536 44.4584,65.750976 44.38496,65.740896 L44.26432,65.289696 C44.4768,65.125376 44.67376,64.984576 44.85824,64.886656 C45.0368,64.788096 45.21312,64.713696 45.37312,64.659936 C45.53168,64.603136 45.68672,64.572096 45.82464,64.555776 C45.96512,64.541376 46.1008,64.534976 46.2224,64.534976 C46.43808,64.534976 46.62272,64.555776 46.77968,64.593376 C46.94464,64.635936 47.07552,64.692256 47.18912,64.760416 C47.2976,64.830176 47.3888,64.914336 47.46064,65.010496 C47.53472,65.104736 47.59008,65.206976 47.6296,65.314176 C47.67392,65.423936 47.7024,65.534816 47.71808,65.646336 C47.73408,65.755296 47.7424,65.872096 47.7424,65.983936 L47.7424,68.196736 L46.90832,68.196736 L46.90832,65.883456 C46.90832,65.835136 46.90416,65.787616 46.89584,65.730816 C46.89152,65.677376 46.8856,65.618976 46.86688,65.562176 C46.84944,65.503776 46.82304,65.450336 46.79136,65.393536 C46.76,65.341856 46.71888,65.297696 46.67184,65.249376 C46.61568,65.211616 46.5512,65.179136 46.46912,65.153056 C46.38992,65.125376 46.29776,65.111136 46.18528,65.111136 C45.99296,65.111136 45.80784,65.143456 45.63184,65.201856 C45.46336,65.257056 45.29456,65.338496 45.14272,65.432576 C45.28368,65.502016 45.39584,65.609376 45.46336,65.740896 C45.52768,65.879136 45.55952,66.046176 45.55952,66.234816 L45.55952,68.196736 L44.72624,68.196736 Z" id="Fill-21" fill="#211E1F" mask="url(#mask-2)"></path>
                        <path d="M48.003264,63.919552 L46.100704,63.919552 C45.901024,63.911552 45.748864,63.861152 45.651264,63.763552 C45.551424,63.668352 45.506944,63.526432 45.506944,63.343552 L45.506944,63.012512 L46.207584,63.012512 L46.207584,63.271712 C46.207584,63.305792 46.217024,63.333792 46.222304,63.351552 C46.231264,63.372192 46.246624,63.385632 46.257344,63.398592 C46.275104,63.406272 46.297824,63.414272 46.316224,63.414272 C46.342464,63.414272 46.372544,63.421312 46.405984,63.424032 L48.219904,63.424032 L48.003264,63.919552 Z" id="Fill-22" fill="#211E1F" mask="url(#mask-2)"></path>
                        <path d="M48.628704,65.630672 C48.628704,65.524752 48.628704,65.432592 48.622784,65.341872 C48.617344,65.249392 48.611744,65.164752 48.599264,65.083312 C48.589024,65.000912 48.580544,64.922352 48.570304,64.845872 C48.557184,64.773712 48.543264,64.698352 48.528544,64.619472 L49.379424,64.619472 C49.399424,64.703952 49.418144,64.784432 49.427584,64.862512 C49.439584,64.945392 49.447904,65.020912 49.454624,65.089712 C49.461024,65.164752 49.463904,65.237712 49.465824,65.314192 L49.465824,66.748752 C49.471264,66.888592 49.480704,67.013552 49.500704,67.129072 C49.519104,67.247312 49.553984,67.345872 49.599904,67.431952 C49.648224,67.516752 49.705344,67.581232 49.785184,67.630672 C49.860384,67.670672 49.958144,67.698832 50.077344,67.698832 C50.185824,67.698832 50.292064,67.670672 50.389344,67.618992 C50.492544,67.568912 50.582944,67.498832 50.665504,67.409552 C50.740544,67.323792 50.806784,67.221872 50.855744,67.092752 C50.898464,66.975152 50.923264,66.844912 50.923264,66.706352 L50.923264,64.619472 L51.763104,64.619472 L51.763104,67.221872 C51.763104,67.293712 51.763104,67.370512 51.766144,67.431952 C51.766144,67.498832 51.771424,67.562512 51.771424,67.633072 C51.778784,67.702832 51.782784,67.787632 51.791264,67.871792 C51.798624,67.957872 51.802464,68.063792 51.810944,68.196752 L51.044864,68.196752 C51.040864,68.143312 51.035424,68.092912 51.035424,68.052432 C51.028064,68.007952 51.025184,67.967952 51.025184,67.919472 C51.019744,67.877072 51.015744,67.837712 51.015744,67.791312 C51.015744,67.743792 51.015744,67.691472 51.009024,67.630672 C50.948224,67.717552 50.880864,67.803952 50.804384,67.877072 C50.723584,67.957872 50.633824,68.023952 50.540224,68.078192 C50.441664,68.136592 50.337824,68.182352 50.219584,68.216432 C50.104384,68.248752 49.979264,68.264432 49.843264,68.264432 C49.756704,68.264432 49.666304,68.254832 49.571424,68.237392 C49.480704,68.216432 49.389184,68.182352 49.295584,68.136592 C49.207424,68.092912 49.122304,68.032752 49.035744,67.957872 C48.958944,67.883792 48.889184,67.787632 48.825024,67.670672 C48.769344,67.562512 48.721664,67.428592 48.684864,67.279632 C48.647104,67.123792 48.628704,66.948752 48.628704,66.748752 L48.628704,65.630672 Z" id="Fill-23" fill="#211E1F" mask="url(#mask-2)"></path>
                        <path d="M52.937264,66.164672 C52.937264,66.130272 52.933904,66.091872 52.925584,66.047712 C52.913904,66.003712 52.898864,65.960032 52.876784,65.919552 C52.850064,65.875552 52.815664,65.835072 52.774704,65.804032 C52.725264,65.773632 52.669424,65.750912 52.593584,65.740832 L52.477424,65.289632 C52.686864,65.125472 52.882224,64.984512 53.061904,64.888672 C53.244784,64.788192 53.419824,64.713632 53.574384,64.659872 C53.732464,64.603072 53.882704,64.572032 54.021904,64.555712 C54.157904,64.541312 54.292784,64.534912 54.414224,64.534912 C54.627984,64.534912 54.812464,64.555712 54.966384,64.593472 C55.125264,64.635872 55.261264,64.693632 55.369104,64.760352 C55.482864,64.830272 55.570384,64.914432 55.641264,65.008832 C55.712624,65.104672 55.770864,65.206912 55.808144,65.314112 C55.846544,65.423872 55.875664,65.528512 55.890704,65.648032 C55.902384,65.755232 55.912144,65.872192 55.912144,65.984032 L55.912144,68.196672 L55.081264,68.196672 L55.081264,65.883552 C55.081264,65.835072 55.076784,65.787712 55.069104,65.730912 C55.065264,65.677472 55.057904,65.618912 55.040144,65.562272 C55.024784,65.503712 55.003664,65.450432 54.973744,65.393632 C54.945264,65.341792 54.904144,65.299392 54.853424,65.249312 C54.799344,65.211552 54.735504,65.179232 54.660144,65.153152 C54.584304,65.125472 54.486864,65.111072 54.376944,65.111072 C54.186864,65.111072 54.001584,65.143392 53.841264,65.201952 C53.665904,65.256992 53.508944,65.338432 53.351344,65.432672 C53.500624,65.502112 53.604464,65.609312 53.672944,65.740832 C53.739344,65.879072 53.771824,66.046112 53.771824,66.239072 L53.771824,67.293792 C53.771824,67.454592 53.753104,67.587872 53.713744,67.702752 C53.672944,67.824992 53.620144,67.919552 53.548304,67.998752 C53.480944,68.076512 53.391024,68.132192 53.301584,68.174272 C53.206064,68.214432 53.098864,68.230752 52.986064,68.237472 C52.965264,68.237472 52.937264,68.237472 52.888144,68.230752 C52.838064,68.227072 52.787664,68.219392 52.733584,68.214432 C52.677424,68.208352 52.621744,68.200352 52.564944,68.186752 C52.508464,68.180352 52.456464,68.170912 52.416944,68.156352 L52.545904,67.652992 C52.608944,67.670752 52.665104,67.693472 52.701904,67.695072 C52.741904,67.702752 52.779024,67.702752 52.810384,67.702752 C52.846384,67.701152 52.866544,67.695072 52.882224,67.670752 C52.903184,67.652992 52.913904,67.632992 52.922544,67.612992 C52.929904,67.584512 52.937264,67.562592 52.937264,67.536192 L52.937264,67.480352 L52.937264,66.164672 Z" id="Fill-24" fill="#211E1F" mask="url(#mask-2)"></path>
                        <path d="M56.1772,63.919552 L54.27464,63.919552 C54.07272,63.911552 53.92184,63.861152 53.82152,63.763552 C53.7244,63.668352 53.67288,63.526432 53.67288,63.343552 L53.67288,63.012512 L54.38296,63.012512 L54.38296,63.271712 C54.38296,63.305792 54.39128,63.333792 54.39592,63.351552 C54.40232,63.372192 54.41128,63.385632 54.42664,63.398592 C54.44344,63.406272 54.46776,63.414272 54.49016,63.414272 C54.51576,63.414272 54.54728,63.421312 54.58424,63.424032 L56.38952,63.424032 L56.1772,63.919552 Z" id="Fill-25" fill="#211E1F" mask="url(#mask-2)"></path>
                        <path d="M58.336512,67.698784 C58.491392,67.698784 58.624032,67.670784 58.724192,67.633024 C58.826432,67.592864 58.910912,67.536224 58.968992,67.471104 C59.030752,67.398304 59.073792,67.323744 59.098272,67.243584 C59.120672,67.149504 59.132992,67.069024 59.132992,66.992864 L59.132992,64.617824 L59.968192,64.617824 L59.968192,66.915104 C59.968192,67.031264 59.960512,67.149504 59.936512,67.261664 C59.908032,67.375904 59.870912,67.484064 59.819232,67.584544 C59.765792,67.687104 59.697312,67.779264 59.611552,67.867424 C59.526592,67.948544 59.420512,68.024064 59.302912,68.082784 C59.183072,68.146624 59.042752,68.196704 58.884512,68.227104 C58.724192,68.261184 58.541792,68.279264 58.336512,68.279264 C58.233312,68.279264 58.120032,68.274944 58.004192,68.248864 C57.881312,68.237504 57.768192,68.206784 57.635232,68.168704 C57.524672,68.130304 57.412192,68.078144 57.295872,68.021664 C57.188352,67.959904 57.095552,67.885504 57.006112,67.812064 C56.927232,67.727584 56.858752,67.630624 56.814112,67.528544 C56.760192,67.414304 56.731232,67.300384 56.731232,67.169504 C56.731232,67.054944 56.750912,66.954464 56.782592,66.864544 C56.818432,66.774784 56.858752,66.692224 56.913152,66.617184 C56.972032,66.544384 57.039392,66.475904 57.115552,66.417504 C57.183072,66.357664 57.266912,66.302944 57.347712,66.255424 C57.266912,66.226144 57.191392,66.186944 57.117632,66.133504 C57.043392,66.084544 56.976992,66.026464 56.922592,65.957984 C56.861792,65.889824 56.818432,65.809024 56.782592,65.730944 C56.750912,65.640384 56.731232,65.548864 56.731232,65.453664 C56.731232,65.314144 56.766272,65.187584 56.827712,65.073344 C56.895232,64.963104 56.985952,64.870624 57.099552,64.794464 C57.207392,64.713664 57.342752,64.653824 57.491872,64.615904 C57.644512,64.577024 57.813792,64.555744 57.992192,64.555744 L58.025632,64.555744 C58.038912,64.555744 58.053632,64.555744 58.069632,64.557664 L58.120032,64.557664 L58.148512,64.557664 L58.315072,65.130784 C58.271072,65.125344 58.238272,65.125344 58.214912,65.121024 C58.187552,65.115424 58.169792,65.115424 58.158432,65.115424 C58.144512,65.115424 58.138112,65.111104 58.138112,65.111104 L58.116832,65.111104 C58.043232,65.111104 57.973472,65.125344 57.909472,65.143424 C57.845952,65.159104 57.785792,65.187584 57.733472,65.221184 C57.685952,65.252064 57.644512,65.299424 57.621792,65.341824 C57.589152,65.389984 57.571712,65.441984 57.571712,65.498464 C57.571712,65.562144 57.581152,65.622624 57.605152,65.677504 C57.632192,65.730944 57.668832,65.773664 57.712992,65.805344 C57.760832,65.843104 57.813792,65.872064 57.876992,65.893184 C57.942112,65.913504 58.010592,65.925824 58.094112,65.925824 C58.110752,65.925824 58.143552,65.925824 58.178272,65.921504 C58.218592,65.919584 58.263392,65.909504 58.315072,65.893184 L58.481792,66.367424 C58.408992,66.387104 58.331712,66.409344 58.259072,66.434144 C58.187552,66.455264 58.116832,66.487584 58.049312,66.517664 C57.982752,66.552064 57.921792,66.586144 57.864032,66.622144 C57.804832,66.656224 57.755712,66.698304 57.712992,66.746144 C57.668832,66.790784 57.632192,66.844864 57.612512,66.906304 C57.584352,66.961504 57.571712,67.024544 57.571712,67.097344 C57.571712,67.203584 57.597472,67.293664 57.635232,67.366144 C57.693312,67.441984 57.749472,67.508384 57.820832,67.556864 C57.889632,67.610944 57.973472,67.641344 58.064352,67.661024 C58.157472,67.687104 58.246752,67.698784 58.336512,67.698784" id="Fill-26" fill="#211E1F" mask="url(#mask-2)"></path>
                        <path d="M12.483968,20.413216 C14.235808,18.249056 16.281248,15.999136 18.895648,13.497376 C21.506048,10.984416 23.837088,9.035616 26.087008,7.344576 C28.573888,5.475136 31.748448,5.408416 34.192288,7.326656 C36.450528,9.029056 38.769728,10.981376 41.385408,13.497376 C43.996768,15.994336 46.045888,18.230016 47.807168,20.397696 C49.874048,22.943456 49.874048,25.631936 47.803168,28.174816 C46.032608,30.335296 43.995008,32.578816 41.381248,35.083456 C38.764288,37.595296 36.450528,39.537536 34.197568,41.229696 C31.698208,43.107456 28.587008,43.103936 26.095968,41.229696 C23.844288,39.537536 21.513728,37.578016 18.906528,35.077536 C16.294368,32.578816 14.258528,30.343136 12.507168,28.174816 C10.556608,25.796576 10.485088,22.760416 12.483968,20.413216" id="Fill-27" fill="#1B1464" mask="url(#mask-2)"></path>
                        <path d="M10.657456,24.799248 C10.885936,26.005968 11.451376,27.029008 12.392176,28.182608 C14.150576,30.343088 16.294416,32.578768 18.906416,35.077488 C21.513616,37.585808 23.844176,39.537488 26.096016,41.233328 C27.148176,42.025488 28.329296,42.491888 29.498416,42.602288 C27.099856,42.025488 23.595536,38.345648 25.449936,31.682928 C27.222256,25.344368 30.079376,20.725168 31.503856,17.883408 L31.547376,17.803568 C34.458896,12.343888 30.354896,10.491088 27.148176,13.221808 C29.423216,10.081968 34.637136,4.965168 36.450576,3.086128 C38.247856,1.209488 36.967696,-0.715312 33.367856,0.264208 C25.971856,2.487888 16.768656,9.440688 12.484016,17.632368 C11.042096,20.352368 10.430256,22.731248 10.657456,24.799248" id="Fill-28" fill="#E01F26" mask="url(#mask-2)"></path>
                    </g>
                </g>
            </g>
        </g>
    </g>
</svg>