<?xml version="1.0" encoding="UTF-8"?>
<svg width="92px" height="92px" viewBox="0 0 92 92" version="1.1" xmlns="http://www.w3.org/2000/svg" xmlns:xlink="http://www.w3.org/1999/xlink">
    <title>image/logo/insurance/muangthai</title>
    <defs>
        <polygon id="path-1" points="0 67.528 56.12 67.528 56.12 0 0 0"></polygon>
    </defs>
    <g id="Symbols" stroke="none" stroke-width="1" fill="none" fill-rule="evenodd">
        <g id="image/logo/insurance/muangthai">
            <rect id="Mask" stroke="#EBEBEB" fill="#FFFFFF" x="0.5" y="0.5" width="91" height="91" rx="12"></rect>
            <g id="Group-65" transform="translate(18.032000, 12.328000)">
                <path d="M4.97621795,67.4547407 L2.58783872,67.4547407 C1.06562712,67.4736871 0.306496161,66.912401 0.306496161,65.7728562 C0.306496161,65.418796 0.414717743,65.1101281 0.637085448,64.8488262 C0.819956224,64.6392321 1.0387692,64.4923977 1.2947093,64.4075338 C1.06681202,64.3652992 0.863402845,64.2472791 0.688431454,64.0558419 C0.48778706,63.8486161 0.385884986,63.6129707 0.385884986,63.3516687 C0.385884986,62.8949824 0.571125578,62.5397381 0.938447008,62.2875146 C1.27970047,62.0514745 1.72878054,61.9342438 2.28410734,61.9342438 C2.46697812,61.9342438 2.64826902,61.9476642 2.83153476,61.9745049 L2.83153476,62.910771 C2.68539613,62.8756413 2.53807259,62.8586685 2.39153899,62.8586685 C1.8449015,62.8586685 1.57158276,63.0307647 1.57158276,63.3757464 C1.57158276,63.7925664 1.92784505,63.9745304 2.63839479,63.9216385 L3.04442321,64.764357 C2.58270412,64.7256748 2.20827324,64.790803 1.92152554,64.9640833 C1.63596276,65.1361794 1.49179897,65.3777455 1.49179897,65.6879923 C1.49179897,66.2765137 1.94759352,66.5571567 2.86234237,66.5311055 L3.79052017,66.5046595 L3.79052017,61.9859516 L4.97621795,61.9859516 L4.97621795,67.4547407 Z" id="Fill-1" fill="#1695D4"></path>
                <polygon id="Fill-3" fill="#1695D4" points="4.97404562 61.3186449 0.533406012 61.3186449 0.94022437 60.5836838 4.97404562 60.5836838"></polygon>
                <path d="M5.8022172,58.8061991 L5.42936621,59.4701113 L3.1152412,59.4701113 L3.1152412,59.1961784 C3.1152412,58.9865843 3.00938943,58.8808004 2.8028205,58.8808004 L2.50185391,58.8808004 L2.8683854,58.1904423 L3.56787599,58.1904423 C3.97706416,58.1904423 4.18284316,58.3546441 4.18284316,58.6810741 L4.18284316,58.8061991 L5.8022172,58.8061991 Z" id="Fill-5" fill="#1695D4"></path>
                <path d="M10.3017072,65.7880922 C10.3017072,66.9481623 9.70293381,67.528 8.50617689,67.528 C7.93939598,67.528 7.4235661,67.3199847 6.95987216,66.9059277 L6.95987216,67.4676085 L5.77377942,67.4676085 L5.77377942,62.0059242 L6.95987216,62.0059242 L6.95987216,65.4711353 C6.95987216,65.732832 7.10008626,65.9866343 7.38248929,66.2349106 C7.66607723,66.4804239 8.00456591,66.60397 8.39479555,66.60397 C8.87784298,66.60397 9.1167994,66.3395104 9.1167994,65.8121699 L9.1167994,62.0071084 L10.3017072,62.0071084 L10.3017072,65.7880922 Z" id="Fill-7" fill="#1695D4"></path>
                <path d="M13.0617921,60.2296631 C12.8078268,60.3804446 12.6814366,60.6081957 12.6814366,60.9097587 L12.6814366,67.4478332 L11.4961338,67.4478332 L11.4961338,61.016332 C11.4961338,60.7459516 11.6422725,60.5099114 11.9341548,60.3105799 C11.9341548,60.2079537 11.8362024,60.1570354 11.6442473,60.1570354 L11.1560653,60.5296472 C11.044289,60.4364943 10.9210586,60.3551828 10.7828193,60.2841339 C10.4609194,60.1108536 10.0856985,59.9924389 9.65478705,59.9300737 L10.2887127,59.2835291 C10.6939512,59.3514202 10.9854386,59.4647037 11.1698892,59.6233795 L11.6304234,59.3233954 C11.9531133,59.2783978 12.2635591,59.3356316 12.5601811,59.4903602 C12.8943251,59.6640352 13.0617921,59.9103379 13.0617921,60.2296631" id="Fill-9" fill="#1695D4"></path>
                <path d="M18.7036912,67.4216241 L17.5195733,67.4216241 L17.5195733,62.9510715 L16.6344472,62.9250203 C16.1731231,62.9072581 15.7785487,63.0852749 15.4503293,63.4578868 C15.1221098,63.8316827 14.9585925,64.2619231 14.9585925,64.7501867 C14.9585925,65.2980524 15.1039412,65.7294769 15.3946386,66.0495915 C15.6865209,66.3697061 16.1020286,66.5295661 16.6383969,66.5295661 C16.7936198,66.5295661 16.9543723,66.5165404 17.1182845,66.4900945 L17.1182845,67.4216241 C16.9026313,67.4421493 16.6913228,67.453596 16.4855438,67.453596 C15.6063421,67.453596 14.9206755,67.1970307 14.4340733,66.6839 C13.9932876,66.1991888 13.7732897,65.5546177 13.7732897,64.7501867 C13.7732897,63.9682545 14.0470034,63.3086841 14.5968007,62.7679233 C15.1446231,62.2291361 15.8421388,61.9634923 16.6913228,61.9709919 L18.7036912,61.9978326 L18.7036912,67.4216241 Z" id="Fill-11" fill="#1695D4"></path>
                <path d="M19.6274059,60.5836049 L19.214268,61.3185659 L16.6406482,61.3185659 L16.6406482,61.0201607 C16.6406482,60.7860942 16.5233423,60.6692582 16.2871507,60.6692582 L15.9597212,60.6692582 L16.3677244,59.9200874 L17.1339648,59.9200874 C17.5869946,59.9200874 17.813707,60.1016568 17.813707,60.4592694 L17.813707,60.5836049 L19.6274059,60.5836049 Z" id="Fill-13" fill="#1695D4"></path>
                <mask id="mask-2" fill="white">
                    <use xlink:href="#path-1"></use>
                </mask>
                <g id="Clip-16"></g>
                <polygon id="Fill-15" fill="#1695D4" mask="url(#mask-2)" points="23.2155043 67.4545828 24.4008071 67.4545828 24.4008071 62.0059242 23.2155043 62.0059242"></polygon>
                <path d="M30.0002076,65.7880922 C30.0002076,66.9481623 29.4006442,67.528 28.2034923,67.528 C27.6375014,67.528 27.1216715,67.3199847 26.6567926,66.9059277 L26.6567926,67.4676085 L25.4714898,67.4676085 L25.4714898,62.0059242 L26.6567926,62.0059242 L26.6567926,65.4711353 C26.6567926,65.732832 26.7974017,65.9866343 27.0805947,66.2349106 C27.3645776,66.4804239 27.7018814,66.60397 28.0929009,66.60397 C28.5735786,66.60397 28.8145098,66.3395104 28.8145098,65.8121699 L28.8145098,62.0071084 L30.0002076,62.0071084 L30.0002076,65.7880922 Z" id="Fill-17" fill="#1695D4" mask="url(#mask-2)"></path>
                <polygon id="Fill-18" fill="#1695D4" mask="url(#mask-2)" points="30.0009975 61.2958698 25.5603579 61.3187633 25.9663863 60.5834075 27.6473756 60.5834075 27.6473756 59.8737083 28.413616 59.8737083 28.413616 60.5834075 28.8204344 60.5834075 28.8204344 59.8737083 30.0009975 59.8737083"></polygon>
                <polygon id="Fill-19" fill="#1695D4" mask="url(#mask-2)" points="28.8311775 59.4702692 30.0168753 59.4702692 30.0168753 58.3567755 28.8311775 58.3567755"></polygon>
                <path d="M35.8253725,64.7403977 C35.8253725,65.6707432 35.5694324,66.3867579 35.0579472,66.8848893 C34.5962281,67.311972 33.9848157,67.525908 33.2308193,67.525908 C32.4819576,67.525908 31.8768646,67.3107878 31.4139606,66.8785739 C30.8937861,66.3761005 30.6331064,65.652981 30.6331064,64.7131623 C30.6331064,64.3879164 30.6595693,64.1088523 30.7140751,63.8767593 L32.7995129,63.8767593 L32.7995129,64.8015787 L31.8195941,64.8015787 C31.8274935,65.3845741 31.9605981,65.8306031 32.219303,66.1380868 C32.476823,66.4471494 32.8133368,66.6030622 33.2308193,66.6030622 C33.6629157,66.6030622 34.0049591,66.4412287 34.2597143,66.1187457 C34.5144695,65.7966575 34.6408596,65.3332611 34.6408596,64.7277668 C34.6408596,64.1274039 34.5117047,63.6647969 34.2490501,63.3419192 C33.9899503,63.019831 33.6455371,62.8587869 33.2197602,62.8587869 C32.6553491,62.8587869 32.2682792,63.0900905 32.0593404,63.5515134 L30.7863544,63.5515134 C30.9684353,63.00049 31.29389,62.5844594 31.7595587,62.3073688 C32.1766463,62.0575136 32.6644334,61.9343622 33.2197602,61.9343622 C33.9761263,61.9343622 34.5859589,62.1577715 35.0520227,62.6038005 C35.5666676,63.0971954 35.8253725,63.8100523 35.8253725,64.7403977" id="Fill-20" fill="#1695D4" mask="url(#mask-2)"></path>
                <path d="M41.2266564,67.4547407 L40.0421435,67.4547407 L40.0421435,63.666652 C40.0421435,63.3836407 39.920888,63.1681258 39.6791668,63.0208968 C39.4816821,62.8973507 39.2328515,62.8353803 38.9354396,62.8353803 C38.3951216,62.8353803 38.0116065,62.9972138 37.7868689,63.3216703 L38.3812977,63.7337537 C38.0661122,63.8979555 37.9073346,64.1707043 37.9073346,64.553184 L37.9073346,67.4547407 L36.1746043,67.4547407 L36.1746043,66.5855763 L36.7216368,66.5855763 L36.7216368,64.5827877 C36.7216368,64.2559629 36.8823893,64.0230805 37.2015245,63.8857194 L36.462142,63.4400851 C36.6086756,62.9131393 36.9420297,62.5128974 37.4622042,62.2437011 C37.8785018,62.0214761 38.3702386,61.9113503 38.9354396,61.9113503 C39.5515917,61.9113503 40.0686065,62.042396 40.4868789,62.3104081 C40.9809855,62.6143394 41.2266564,63.0662891 41.2266564,63.6587577 L41.2266564,67.4547407 Z" id="Fill-21" fill="#1695D4" mask="url(#mask-2)"></path>
                <polygon id="Fill-22" fill="#1695D4" mask="url(#mask-2)" points="42.7590582 60.5836049 42.3522399 61.3185659 38.5980569 61.3185659 38.5980569 60.0633693 39.7904691 60.0633693 39.7904691 60.5836049"></polygon>
                <path d="M46.4923473,67.4547407 L44.1039681,67.4547407 C42.5821515,67.4736871 41.8218356,66.912401 41.8218356,65.7728562 C41.8218356,65.418796 41.932032,65.1101281 42.1532148,64.8488262 C42.3352957,64.6392321 42.5552936,64.4923977 42.8108387,64.4075338 C42.5833364,64.3652992 42.3803222,64.2472791 42.2057457,64.0558419 C42.0039164,63.8486161 41.9024093,63.6129707 41.9024093,63.3516687 C41.9024093,62.8949824 42.086465,62.5397381 42.4545764,62.2875146 C42.7958299,62.0514745 43.243725,61.9342438 43.8010267,61.9342438 C43.9842924,61.9342438 44.1655833,61.9476642 44.3480591,61.9745049 L44.3480591,62.910771 C44.2003406,62.8756413 44.0549919,62.8586685 43.9080633,62.8586685 C43.360241,62.8586685 43.0877121,63.0307647 43.0877121,63.3757464 C43.0877121,63.7925664 43.4419996,63.9745304 44.1545242,63.9216385 L44.5605526,64.764357 C44.0992285,64.7256748 43.7255875,64.790803 43.436865,64.9640833 C43.1501173,65.1361794 43.0067434,65.3777455 43.0067434,65.6879923 C43.0067434,66.2765137 43.4637229,66.5571567 44.3784718,66.5311055 L45.3070445,66.5046595 L45.3070445,61.9859516 L46.4923473,61.9859516 L46.4923473,67.4547407 Z" id="Fill-23" fill="#1695D4" mask="url(#mask-2)"></path>
                <path d="M51.819456,65.7880922 C51.819456,66.9481623 51.2198926,67.528 50.0223458,67.528 C49.4563548,67.528 48.939735,67.3199847 48.4748561,66.9059277 L48.4748561,67.4676085 L47.2899483,67.4676085 L47.2899483,62.0059242 L48.4748561,62.0059242 L48.4748561,65.4711353 C48.4748561,65.732832 48.6162551,65.9866343 48.8978682,66.2349106 C49.1826411,66.4804239 49.5207348,66.60397 49.9109644,66.60397 C50.3916421,66.60397 50.6325733,66.3395104 50.6325733,65.8121699 L50.6325733,62.0071084 L51.819456,62.0071084 L51.819456,65.7880922 Z" id="Fill-24" fill="#1695D4" mask="url(#mask-2)"></path>
                <path d="M55.6844279,67.4547407 L54.5007049,67.4547407 L54.5007049,63.6042869 C54.5007049,63.1077343 54.1566867,62.8586685 53.47181,62.8586685 C53.0373438,62.8586685 52.6411896,62.9549792 52.2872971,63.1460217 L52.2872971,62.1979141 C52.6321053,62.0226602 53.0736809,61.9342438 53.612419,61.9342438 C54.9952065,61.9342438 55.6844279,62.5140815 55.6844279,63.6757305 L55.6844279,67.4547407 Z" id="Fill-25" fill="#1695D4" mask="url(#mask-2)"></path>
                <polygon id="Fill-26" fill="#0794D2" mask="url(#mask-2)" points="0.312025731 55.771781 55.8083692 55.771781 55.8083692 0.311825579 0.312025731 0.311825579"></polygon>
                <path d="M0.624051461,55.4599554 L55.4959485,55.4599554 L55.4959485,0.623651157 L0.624051461,0.623651157 L0.624051461,55.4599554 Z M55.8083692,0 L0,0 L0,56.0836065 L56.12,56.0836065 L56.12,0 L55.8083692,0 Z" id="Fill-27" fill="#FEFEFE" mask="url(#mask-2)"></path>
                <polygon id="Fill-28" fill="#ED3124" mask="url(#mask-2)" points="4.28344183 40.249972 52.2149387 40.249972 52.2149387 39.6231632 4.28344183 39.6231632"></polygon>
                <polygon id="Fill-29" fill="#1D4C7E" mask="url(#mask-2)" points="4.27522647 44.7371421 4.27522647 41.8758464 4.7930312 41.8758464 5.55650682 44.2903237 6.299839 41.8758464 6.8346274 41.8758464 6.8346274 44.7371421 6.45348205 44.7371421 6.45348205 42.4679203 5.72278888 44.7371421 5.37995555 44.7371421 4.65874164 42.5026553 4.64847244 44.7371421"></polygon>
                <path d="M7.20704394,43.9164882 L7.20704394,41.8758069 L7.56725592,41.8758069 L7.56725592,43.925172 C7.56725592,44.1201617 7.64230008,44.2547598 7.77421982,44.3814636 C7.90929932,44.4919841 8.0625474,44.5338239 8.25094774,44.5338239 C8.41722981,44.5338239 8.57758734,44.4919841 8.69923788,44.3814636 C8.84024191,44.2547598 8.91370619,44.1201617 8.91370619,43.925172 L8.91370619,41.8758069 L9.29445658,41.8758069 L9.29445658,43.9164882 C9.29445658,44.1864739 9.1874199,44.4173827 8.96070754,44.5847423 C8.75690339,44.7556543 8.51241741,44.8156511 8.22882946,44.8156511 C7.96972962,44.8156511 7.74538707,44.7631539 7.56172635,44.6107935 C7.34172846,44.440671 7.231927,44.2137093 7.20704394,43.9164882" id="Fill-30" fill="#1D4C7E" mask="url(#mask-2)"></path>
                <path d="M10.8450665,42.3757936 L10.3916417,43.5690198 L11.2262118,43.5690198 L10.8450665,42.3757936 Z M9.64712465,44.7369842 L10.6112447,41.8756885 L11.0512404,41.8756885 L12.0406385,44.7369842 L11.6278956,44.7369842 L11.3332485,43.9163698 L10.3118579,43.9163698 L10.0590776,44.7369842 L9.64712465,44.7369842 Z" id="Fill-31" fill="#1D4C7E" mask="url(#mask-2)"></path>
                <polygon id="Fill-32" fill="#1D4C7E" mask="url(#mask-2)" points="12.3150236 44.7371421 12.3150236 41.8758464 12.7467251 41.8758464 14.084881 44.2137488 14.084881 41.8758464 14.4277143 41.8758464 14.4277143 44.7371421 14.0264255 44.7556938 12.6610167 42.4529211 12.6610167 44.7371421"></polygon>
                <polygon id="Fill-33" fill="#1D4C7E" mask="url(#mask-2)" points="32.5444812 44.7371421 32.5444812 41.8758464 32.9670983 41.8758464 34.3064392 44.2137488 34.3064392 41.8758464 34.655987 41.8758464 34.655987 44.7371421 34.2499585 44.7556938 32.8821799 42.4529211 32.8821799 44.7371421"></polygon>
                <path d="M14.7569607,43.1451739 C14.8110715,42.7638783 14.9362768,42.4603417 15.1353413,42.2329854 C15.370348,41.9622102 15.7001473,41.8426113 16.1259242,41.8426113 C16.4079323,41.8426113 16.6642674,41.9176073 16.8680715,42.0968084 C17.093599,42.2748252 17.1864167,42.4777092 17.1864167,42.7315116 L16.8558275,42.7315116 C16.8277846,42.6024395 16.746026,42.4777092 16.6160811,42.3758725 C16.4608582,42.2396955 16.2839119,42.1721991 16.103016,42.1721991 C15.8387816,42.1721991 15.6077245,42.2645626 15.4201141,42.4350799 C15.2151251,42.6371745 15.1104582,42.9257118 15.1104582,43.3074021 C15.1104582,43.6365952 15.1614092,43.8998707 15.2893793,44.0849925 C15.4398626,44.3403737 15.6946178,44.466288 16.0346863,44.466288 C16.1508073,44.466288 16.269693,44.4568149 16.3838392,44.4015546 C16.5343225,44.3470838 16.6508384,44.2547203 16.7397065,44.1449893 C16.8558275,43.9918395 16.9158628,43.8138226 16.9158628,43.5939659 L16.9158628,43.5438369 L16.0591744,43.5438369 L16.0591744,43.2055654 L17.2267036,43.2055654 L17.2267036,44.7370632 L16.9652339,44.7370632 L16.9158628,44.4015546 C16.7697242,44.5341792 16.6275352,44.634437 16.4608582,44.7102225 C16.2953661,44.7710087 16.1259242,44.8156116 15.9647768,44.8156116 C15.6258931,44.8156116 15.344675,44.687329 15.1191475,44.4331319 C14.881771,44.1532783 14.7569607,43.7901397 14.7569607,43.3405582 L14.7569607,43.1451739 Z" id="Fill-34" fill="#1D4C7E" mask="url(#mask-2)"></path>
                <polygon id="Fill-35" fill="#1D4C7E" mask="url(#mask-2)" points="21.3086716 44.6947496 21.3086716 42.1456742 20.4057718 42.1456742 20.4057718 41.8425324 22.5390009 41.8425324 22.5390009 42.1456742 21.6906069 42.1456742 21.6906069 44.6947496"></polygon>
                <polygon id="Fill-36" fill="#1D4C7E" mask="url(#mask-2)" points="22.8650086 44.6947496 22.8650086 41.8425324 23.2003375 41.8425324 23.2003375 43.0353639 24.5787803 43.0353639 24.5787803 41.8425324 24.9196388 41.8425324 24.9196388 44.6947496 24.5787803 44.6947496 24.5787803 43.3996867 23.2003375 43.3996867 23.2003375 44.6947496"></polygon>
                <path d="M26.4980545,42.3256647 L26.0620084,43.5259958 L26.8799898,43.5259958 L26.4980545,42.3256647 Z M25.3107768,44.6947496 L26.2705522,41.8425324 L26.7085731,41.8425324 L27.6967863,44.6947496 L27.2899679,44.6947496 L26.9846566,43.8729511 L25.9695856,43.8729511 L25.7128556,44.6947496 L25.3107768,44.6947496 Z" id="Fill-37" fill="#1D4C7E" mask="url(#mask-2)"></path>
                <polygon id="Fill-38" fill="#1D4C7E" mask="url(#mask-2)" points="27.9993722 44.694868 28.3512898 44.694868 28.3512898 41.8426508 27.9993722 41.8426508"></polygon>
                <polygon id="Fill-39" fill="#1D4C7E" mask="url(#mask-2)" points="31.6180808 44.7556543 31.9676286 44.7556543 31.9676286 41.8943586 31.6180808 41.8943586"></polygon>
                <path d="M34.9667488,43.8058494 L35.3230111,43.8058494 C35.3230111,44.027285 35.3909458,44.2033283 35.5414291,44.3327951 C35.6848029,44.449631 35.863724,44.5013388 36.0600238,44.5013388 C36.2286756,44.5013388 36.3629652,44.4571306 36.4925151,44.3813452 C36.6339141,44.3063492 36.7101432,44.1962234 36.7271269,44.0513627 L36.7271269,44.0016285 C36.7271269,43.7738774 36.5734838,43.6203329 36.2942405,43.543758 C36.0276363,43.4667884 35.760637,43.3929765 35.4821837,43.3250854 C35.1934612,43.1971974 35.0516672,42.9769459 35.0516672,42.6552525 L35.0662811,42.579467 C35.0662811,42.3588208 35.1519894,42.1898824 35.3230111,42.0450216 C35.4821837,41.9120024 35.7282496,41.8425324 36.0406703,41.8425324 C36.3282079,41.8425324 36.5612398,41.9120024 36.7472703,42.0450216 C36.9230316,42.1898824 37.0170343,42.3757936 37.0170343,42.6370955 L37.0170343,42.6895927 L36.6694614,42.6895927 L36.6694614,42.6552525 C36.6694614,42.5024974 36.6121908,42.3757936 36.4747415,42.2830353 C36.3384771,42.1898824 36.2033976,42.1456742 36.0244765,42.1456742 C35.863724,42.1456742 35.7211401,42.1898824 35.6002795,42.2573788 C35.4821837,42.3497423 35.414249,42.4776303 35.414249,42.6292012 C35.4387371,42.8001132 35.5931701,42.9355008 35.8755731,43.0112862 C36.134673,43.0862822 36.3878483,43.1636466 36.6516877,43.2402214 C36.9325109,43.3665305 37.0976081,43.5852032 37.1252559,43.8729511 L37.1252559,43.9084755 C37.1252559,44.1962234 37.0170343,44.4172643 36.7863723,44.5850186 C36.5734838,44.7369842 36.3345274,44.8040859 36.0406703,44.8040859 C35.7444433,44.8040859 35.4936378,44.7369842 35.2977331,44.5660722 C35.0662811,44.4062123 34.9588494,44.1531994 34.9588494,43.8397949 L34.9667488,43.8058494 Z" id="Fill-40" fill="#1D4C7E" mask="url(#mask-2)"></path>
                <path d="M37.4499602,43.8999102 L37.4499602,41.8667285 L37.8133319,41.8667285 L37.8133319,43.9081992 C37.8133319,44.1035836 37.8860062,44.2464708 38.0238505,44.3637014 C38.1502407,44.475406 38.3125731,44.5164564 38.4891243,44.5164564 C38.6688353,44.5164564 38.8252432,44.475406 38.9382044,44.3637014 C39.0831581,44.2464708 39.1526727,44.1035836 39.1526727,43.9081992 L39.1526727,41.8667285 L39.5357929,41.8667285 L39.5357929,43.8999102 C39.5357929,44.1777902 39.4232267,44.4015941 39.2032288,44.5657959 C38.9998196,44.7371026 38.7691575,44.8042043 38.480435,44.8042043 C38.2138307,44.8042043 37.9867234,44.7371026 37.8038526,44.5847423 C37.5941239,44.4331714 37.4760281,44.2034467 37.4499602,43.8999102" id="Fill-41" fill="#1D4C7E" mask="url(#mask-2)"></path>
                <path d="M40.2517537,42.197303 L40.2517537,43.1529103 L41.1657126,43.1529103 L41.2091593,43.1635676 C41.3138261,43.1635676 41.4165181,43.1043602 41.4931422,43.011602 C41.5792455,42.9093706 41.624272,42.8000343 41.624272,42.6796459 C41.624272,42.5541262 41.5792455,42.4353167 41.4966969,42.3496634 C41.4121735,42.2498003 41.2684047,42.197303 41.0871138,42.197303 L40.2517537,42.197303 Z M39.8982562,44.7270374 L39.8982562,41.8665311 L41.2522109,41.8665311 C41.456805,41.8665311 41.6140028,41.9261332 41.7411829,42.0623102 C41.8746825,42.1898034 41.9548613,42.3757146 41.9813242,42.6022816 C41.9813242,42.7574049 41.9726349,42.8758197 41.9295832,42.9669991 C41.8723127,43.1043602 41.7589565,43.2215909 41.6049185,43.3163227 C41.7076105,43.3664516 41.7929239,43.4335533 41.8347906,43.5259168 C41.8932461,43.6364373 41.9264235,43.7982708 41.9264235,44.0094438 L41.9264235,44.1961445 C41.9264235,44.3062702 41.9295832,44.3812662 41.9548613,44.4661302 C41.9726349,44.5340213 42.0129217,44.592834 42.0776967,44.6342791 L42.0776967,44.7270374 L41.6448104,44.7270374 C41.6049185,44.627569 41.5792455,44.4570517 41.5792455,44.213512 C41.5677914,43.9916816 41.5571272,43.839716 41.5255297,43.7481419 C41.4658893,43.6107808 41.3371293,43.5192067 41.1412245,43.4848664 L40.2517537,43.4848664 L40.2517537,44.7270374 L39.8982562,44.7270374 Z" id="Fill-42" fill="#1D4C7E" mask="url(#mask-2)"></path>
                <path d="M43.5897181,42.3588208 L43.166311,43.5528365 L43.9791578,43.5528365 L43.5897181,42.3588208 Z M42.4056002,44.7271163 L43.3697202,41.86661 L43.8033965,41.86661 L44.7987191,44.7271163 L44.3919007,44.7271163 L44.0826398,43.8997918 L43.0727033,43.8997918 L42.8151833,44.7271163 L42.4056002,44.7271163 Z" id="Fill-43" fill="#1D4C7E" mask="url(#mask-2)"></path>
                <polygon id="Fill-44" fill="#1D4C7E" mask="url(#mask-2)" points="45.0800952 44.7271163 45.0800952 41.86661 45.5035022 41.86661 46.843633 44.1962234 46.843633 41.86661 47.1959456 41.86661 47.1959456 44.7271163 46.7895222 44.7369842 45.4312229 42.435001 45.4312229 44.7271163"></polygon>
                <path d="M47.4908297,43.3405977 C47.4908297,43.0954791 47.5200574,42.8756224 47.6049758,42.6640546 C47.6875244,42.4165677 47.8103598,42.2239464 47.9699274,42.0877694 C48.1713617,41.9176468 48.4158477,41.8426508 48.7057552,41.8426508 C48.8416246,41.8426508 48.977494,41.8584394 49.09401,41.9121208 C49.2543675,41.9622497 49.3918168,42.0625076 49.4933239,42.1900008 C49.646177,42.3423611 49.7303055,42.5543236 49.7820465,42.8002316 L49.4186747,42.8002316 C49.3645639,42.6024789 49.2689814,42.4528816 49.1433811,42.3423611 C49.0130413,42.2330248 48.8661127,42.1722386 48.7073351,42.1722386 C48.4873372,42.1722386 48.3024915,42.2642074 48.1279151,42.4528816 C47.9592632,42.6553709 47.8703952,42.9356192 47.8703952,43.2821798 C47.8703952,43.6701855 47.9482041,43.9666172 48.1204107,44.1864739 C48.2669443,44.3814636 48.450605,44.475406 48.6725778,44.475406 C48.8661127,44.475406 49.0529332,44.4063307 49.2132907,44.2547598 C49.376018,44.1035836 49.4719956,43.9164882 49.4719956,43.6871583 L49.8405019,43.6871583 C49.8033748,43.9749062 49.7070023,44.2298927 49.5004334,44.4568543 C49.3013689,44.694868 49.0391092,44.8042043 48.7357728,44.8042043 L48.6781073,44.8042043 C48.296962,44.8042043 47.9924407,44.6609225 47.7756025,44.373964 C47.589572,44.1035836 47.4908297,43.7633385 47.4908297,43.3405977" id="Fill-45" fill="#1D4C7E" mask="url(#mask-2)"></path>
                <polygon id="Fill-46" fill="#1D4C7E" mask="url(#mask-2)" points="50.1591631 44.7271163 50.1591631 41.86661 52.0261829 41.86661 52.0261829 42.1721202 50.5118707 42.1721202 50.5118707 43.1044392 51.9744419 43.1044392 51.9744419 43.442316 50.5118707 43.442316 50.5118707 44.4014757 52.0838484 44.4014757 52.0838484 44.7271163"></polygon>
                <polygon id="Fill-47" fill="#FEFEFE" mask="url(#mask-2)" points="37.4854284 29.3532469 36.7555252 29.8730878 36.7555252 30.8638248 37.2610858 31.3785343 40.1668748 31.3785343 40.9169215 30.7758031 40.1352773 30.1797821 38.2220461 30.1797821 38.2220461 29.8624305"></polygon>
                <polygon id="Fill-48" fill="#FEFEFE" mask="url(#mask-2)" points="37.2987659 31.8398783 35.0016246 32.6908858 35.0016246 36.343587 34.7176417 36.343587 34.2045766 37.252223 34.7176417 38.1644115 35.8215808 38.1644115 35.8136814 38.1427021 35.8354047 38.1644115 36.6707648 37.3299821 36.6707648 33.531236 37.2873118 33.1013904 37.9089934 33.531236 37.9089934 37.3299821 38.7388239 38.1644115 39.5714191 37.3299821 39.5714191 32.6908858"></polygon>
                <polygon id="Fill-49" fill="#FEFEFE" mask="url(#mask-2)" points="43.9075499 31.8283131 44.7575238 32.6781365 44.7575238 37.3014441 42.4256251 38.1642931 40.1036008 37.3014441 40.1028108 35.0716939 40.5941526 34.5834303 40.1036008 34.1074029 40.1036008 32.6781365 40.9575243 31.8283131 41.8078932 32.6781365 41.8078932 33.7478166 42.646413 34.5834303 41.8078932 35.4241752 41.8078932 36.5045126 42.4256251 36.9418579 43.057576 36.5045126 43.057576 32.6781365"></polygon>
                <polygon id="Fill-50" fill="#FEFEFE" mask="url(#mask-2)" points="12.3157741 31.8398783 11.4740945 32.6679923 11.4740945 37.31893 13.7578069 38.1644115 16.0778565 37.31893 16.0778565 31.8888231 15.2191933 31.0528147 14.3632948 31.8888231 14.3632948 36.4821323 13.7578069 36.9135568 13.1511341 36.4821323 13.1511341 32.6679923"></polygon>
                <polygon id="Fill-51" fill="#FEFEFE" mask="url(#mask-2)" points="27.6879784 38.1642142 28.5237334 37.323864 28.5237334 32.6780576 26.2443657 31.8167874 23.9440646 32.6780576 23.9440646 37.323864 24.7810045 38.1642142 25.6222891 37.323864 25.6222891 33.5148553 26.2388361 33.0830361 26.8565681 33.5148553 26.8565681 37.323864"></polygon>
                <polygon id="Fill-52" fill="#FEFEFE" mask="url(#mask-2)" points="16.6245729 36.2665779 19.49126 36.2665779 19.49126 37.3188905 20.3293848 38.164372 21.1726442 37.3188905 21.1726442 34.5996926 18.3008226 34.5996926 18.3008226 33.3883094 20.3337294 34.1674786 21.175014 33.7703944 21.175014 32.6624268 18.9082853 31.8398388 16.6245729 32.6679528"></polygon>
                <polygon id="Fill-53" fill="#FEFEFE" mask="url(#mask-2)" points="22.5529828 31.8167479 21.715253 32.6626242 21.715253 33.7769072 22.5529828 34.6235729 23.3962422 33.7871698 23.3962422 32.6626242"></polygon>
                <polygon id="Fill-54" fill="#FEFEFE" mask="url(#mask-2)" points="26.446748 29.3081309 25.7148699 29.8303401 25.7148699 30.8250242 26.2228004 31.3409179 29.1372787 31.3409179 29.8853505 30.7370025 29.1116057 30.1326925 27.1908701 30.1326925 27.1908701 29.8181039"></polygon>
                <polygon id="Fill-55" fill="#FEFEFE" mask="url(#mask-2)" points="29.9185279 31.8167479 29.0760585 32.6677555 29.0760585 37.3186932 29.9153682 38.1641747 31.9921167 36.8091149 31.9921167 37.3186932 32.8282666 38.1641747 33.671526 37.3186932 33.671526 32.6677555 32.8420906 31.8167479 31.9921167 32.6677555 31.9921167 34.9993424 30.7515182 35.7244356 30.7515182 32.6677555"></polygon>
                <polygon id="Fill-56" fill="#FEFEFE" mask="url(#mask-2)" points="22.5529828 35.3757435 21.715253 36.210173 21.715253 37.3299821 22.5529828 38.176253 23.3962422 37.3465601 23.3962422 36.210173"></polygon>
                <polygon id="Fill-57" fill="#1D4C7E" mask="url(#mask-2)" points="42.7550295 26.877786 44.1074043 25.5503564 44.1074043 18.3041615 42.7696434 16.9648903 39.482709 18.891104 39.482709 18.3041615 38.1390236 16.9648903 36.8067922 18.3041615 36.8067922 25.5503564 38.1409984 26.8884433 39.482709 25.5503564 39.482709 21.9915976 41.4299076 20.8346852 41.4299076 25.5503564"></polygon>
                <polygon id="Fill-58" fill="#1D4C7E" mask="url(#mask-2)" points="14.7943643 16.9648114 13.4755619 18.3317126 13.4755619 23.0694879 11.506245 21.9177068 11.506245 18.3317126 10.1751986 16.9648114 8.85047161 18.3317126 8.85047161 21.9524418 8.30146431 21.9524418 7.50165152 23.3742085 8.30146431 24.8137375 8.85047161 24.8137375 8.85047161 25.5443567 10.1751986 26.8729705 11.506245 25.5443567 11.506245 24.7920281 14.7943643 26.8729705 16.1265957 25.5443567 16.1265957 18.3317126"></polygon>
                <polygon id="Fill-59" fill="#1D4C7E" mask="url(#mask-2)" points="26.4698932 20.2200336 25.1396366 21.5525946 25.1396366 25.6434304 28.7622949 26.8729705 32.4232651 25.6434304 32.4232651 18.3317126 31.0981432 16.9916521 29.7619621 18.3317126 29.7619621 24.2828446 28.773749 25.0691187 27.7934352 24.2828446 27.7934352 21.5525946"></polygon>
                <polygon id="Fill-60" fill="#1D4C7E" mask="url(#mask-2)" points="5.34286793 16.9863629 3.9972076 18.3315548 3.9972076 25.5501195 5.34286793 26.9067582 6.67944397 25.5501195 6.67944397 18.3315548"></polygon>
                <polygon id="Fill-61" fill="#1D4C7E" mask="url(#mask-2)" points="50.9012709 16.9648114 52.2350822 18.3040825 52.2350822 25.5502774 48.5808264 26.9065213 44.9396046 25.5502774 44.9396046 22.0570415 45.6987356 21.2928715 44.9396046 20.5405429 44.9396046 18.3040825 46.2694662 16.9648114 47.608807 18.3040825 47.608807 19.9812305 48.920105 21.2928715 47.608807 22.6116174 47.608807 24.2974491 48.5808264 24.9901755 49.5658798 24.2974491 49.5658798 18.3040825"></polygon>
                <polygon id="Fill-62" fill="#1D4C7E" mask="url(#mask-2)" points="20.6143946 16.9489833 16.9557942 18.2097059 16.9557942 20.4469558 18.2556381 20.9123259 19.6293412 20.4469558 19.6293412 19.5446352 20.6459922 18.8578295 21.6567185 19.5446352 21.6567185 24.2828051 20.6459922 24.9522433 19.6293412 24.2828051 19.6293412 22.6605227 18.2876306 21.3267776 16.9557942 22.6652593 16.9557942 25.6433909 20.6266387 26.872931 24.325131 25.550238 24.325131 18.2049694"></polygon>
                <polygon id="Fill-63" fill="#1D4C7E" mask="url(#mask-2)" points="16.1266352 16.1950364 16.1266352 13.2725597 15.4464981 12.6193049 14.7635962 13.2725597 14.0941233 12.6193049 13.4183308 13.2725597 13.4183308 14.0742278 12.4881782 13.7043789 8.83273749 14.9058942 8.83273749 16.1950364"></polygon>
                <polygon id="Fill-64" fill="#1D4C7E" mask="url(#mask-2)" points="34.0881001 13.5044948 30.1806691 13.5044948 28.8192099 14.8449501 30.1747445 16.1838265 33.2586646 16.1838265 33.2586646 25.5504353 34.5964256 26.877865 35.9333966 25.5504353 35.9333966 15.370317"></polygon>
            </g>
        </g>
    </g>
</svg>