<?xml version="1.0" encoding="UTF-8"?>
<svg width="92px" height="92px" viewBox="0 0 92 92" version="1.1" xmlns="http://www.w3.org/2000/svg" xmlns:xlink="http://www.w3.org/1999/xlink">
    <title>image/logo/insurance/sompo</title>
    <defs>
        <polygon id="path-1" points="0 64.84144 43.71184 64.84144 43.71184 0 0 0"></polygon>
        <linearGradient x1="50.0628472%" y1="100.248611%" x2="50.0628472%" y2="-0.0517361111%" id="linearGradient-3">
            <stop stop-color="#741113" offset="0%"></stop>
            <stop stop-color="#DC1E33" offset="100%"></stop>
        </linearGradient>
        <linearGradient x1="50.1364583%" y1="100.180208%" x2="50.1364583%" y2="-0.130208333%" id="linearGradient-4">
            <stop stop-color="#CCCCCC" offset="0%"></stop>
            <stop stop-color="#A6A6A6" offset="8.791211%"></stop>
            <stop stop-color="#262626" offset="40%"></stop>
            <stop stop-color="#E6E6E6" offset="50%"></stop>
            <stop stop-color="#BFBFBF" offset="100%"></stop>
        </linearGradient>
        <linearGradient x1="50.1473282%" y1="100.125573%" x2="50.1473282%" y2="-0.0702290076%" id="linearGradient-5">
            <stop stop-color="#404040" offset="0%"></stop>
            <stop stop-color="#999999" offset="27.47%"></stop>
            <stop stop-color="#E6E6E6" offset="50%"></stop>
            <stop stop-color="#999999" offset="86.26%"></stop>
            <stop stop-color="#262626" offset="100%"></stop>
        </linearGradient>
    </defs>
    <g id="Symbols" stroke="none" stroke-width="1" fill="none" fill-rule="evenodd">
        <g id="image/logo/insurance/sompo">
            <rect id="Mask" stroke="#EBEBEB" fill="#FFFFFF" x="0.5" y="0.5" width="91" height="91" rx="12"></rect>
            <g id="Group" transform="translate(6.000000, 6.000000)">
                <g id="Group-2" transform="translate(18.880000, 8.800000)">
                    <g id="Group-34">
                        <polygon id="Fill-1" fill="#231915" points="23.26088 45.949808 20.73112 52.414928 18.20136 45.949808 16.40408 45.949808 16.40408 53.641968 17.54136 53.641968 17.54136 46.916848 20.17816 53.641968 21.2868 53.641968 23.92152 46.916848 23.92152 53.641968 25.05976 53.641968 25.05976 45.949808"></polygon>
                        <g id="Group-22">
                            <path d="M0.704912,52.456064 C1.393552,52.768864 2.226992,52.994304 3.087952,52.994304 C4.046192,52.994304 5.016592,52.617984 5.016592,51.695104 C5.016592,50.921504 4.244112,50.501344 3.274992,50.139904 L2.578032,49.869024 C1.646192,49.500864 0.731152,48.948064 0.731152,47.911744 C0.731152,46.444544 2.385872,45.837024 3.880112,45.837024 C4.669712,45.837024 5.320912,45.929824 6.041552,46.133984 L5.952752,46.973184 C5.338192,46.754944 4.638832,46.606464 3.902832,46.606464 C2.951472,46.606464 2.066992,46.984064 2.066992,47.783904 C2.066992,48.416864 2.707472,48.761184 3.577872,49.098944 L4.254992,49.362624 C5.390352,49.789024 6.379792,50.374624 6.379792,51.525344 C6.379792,53.013184 4.944112,53.764384 3.163952,53.764384 C2.414352,53.764384 1.311472,53.585664 0.632432,53.352704 L0.704912,52.456064 Z" id="Fill-2" fill="#231915"></path>
                            <path d="M27.994848,49.781072 L29.220288,49.781072 C30.348448,49.781072 31.039328,49.189232 31.039328,48.175472 C31.039328,47.162992 30.272128,46.733712 29.220288,46.733712 L27.994848,46.733712 L27.994848,49.781072 Z M26.743488,53.641872 L26.743488,45.950992 L29.139488,45.950992 C30.823968,45.950992 32.358048,46.446352 32.358048,48.164592 C32.358048,49.952112 30.836608,50.574192 29.049248,50.574192 L27.994848,50.574192 L27.994848,53.641872 L26.743488,53.641872 Z" id="Fill-4" fill="#231915"></path>
                            <path d="M37.083888,52.943488 C38.925808,52.943488 39.657648,51.233728 39.657648,49.803488 C39.657648,48.371328 38.938608,46.663968 37.083888,46.663968 C35.268528,46.663968 34.511728,48.401728 34.511728,49.803488 C34.511728,51.203488 35.241968,52.943488 37.083888,52.943488 M33.179248,49.803488 C33.179248,47.650368 34.493168,45.831488 37.083888,45.831488 C39.724208,45.831488 40.988048,47.563808 40.988048,49.803488 C40.988048,52.043168 39.649648,53.774208 37.083888,53.774208 C34.519888,53.774208 33.179248,51.954528 33.179248,49.803488" id="Fill-6" fill="#231915"></path>
                            <path d="M11.174112,52.943488 C13.017472,52.943488 13.747552,51.233728 13.747552,49.803488 C13.747552,48.371328 13.029952,46.663968 11.174112,46.663968 C9.359072,46.663968 8.602272,48.401728 8.602272,49.803488 C8.602272,51.203488 9.333472,52.943488 11.174112,52.943488 M7.270112,49.803488 C7.270112,47.650368 8.585792,45.831488 11.174112,45.831488 C13.815712,45.831488 15.078592,47.563808 15.078592,49.803488 C15.078592,52.043168 13.739072,53.774208 11.174112,53.774208 C8.609472,53.774208 7.270112,51.954528 7.270112,49.803488" id="Fill-8" fill="#231915"></path>
                            <path d="M40.988064,57.150672 L5.244224,57.150672 C4.230464,60.180432 2.396064,62.833072 6.4e-05,64.841392 L40.988064,64.841392 L40.988064,57.150672 Z" id="Fill-10" fill="#CB1337"></path>
                            <mask id="mask-2" fill="white">
                                <use xlink:href="#path-1"></use>
                            </mask>
                            <g id="Clip-13"></g>
                            <polygon id="Fill-12" fill="#FFFFFF" mask="url(#mask-2)" points="7.65696 62.85584 8.30816 62.85584 8.30816 59.13632 7.65696 59.13632"></polygon>
                            <polygon id="Fill-14" fill="#FFFFFF" mask="url(#mask-2)" points="9.079024 59.136304 9.766704 59.136304 11.464944 61.876464 11.475344 61.876464 11.475344 59.136304 12.095024 59.136304 12.095024 62.855824 11.407504 62.855824 9.714544 60.120944 9.699024 60.120944 9.699024 62.855824 9.079024 62.855824"></polygon>
                            <path d="M13.29296,61.615936 C13.29296,61.758336 13.31744,61.879936 13.36592,61.980416 C13.41472,62.081376 13.4824,62.163936 13.56928,62.227936 C13.656,62.292416 13.756,62.339296 13.8688,62.368736 C13.9816,62.398176 14.104,62.412896 14.23584,62.412896 C14.3784,62.412896 14.49984,62.396416 14.60064,62.363616 C14.70128,62.330656 14.78288,62.288096 14.84544,62.235776 C14.908,62.183616 14.95312,62.123776 14.98096,62.056256 C15.00848,61.988576 15.02256,61.920096 15.02256,61.850336 C15.02256,61.708096 14.99024,61.602816 14.92624,61.535136 C14.86192,61.467616 14.79152,61.419616 14.71536,61.391776 C14.58336,61.343296 14.42944,61.297216 14.25424,61.253856 C14.07872,61.210496 13.86272,61.154336 13.60576,61.084576 C13.44592,61.042976 13.31296,60.988096 13.20704,60.920576 C13.10112,60.852896 13.01712,60.777216 12.95456,60.694016 C12.892,60.610496 12.84768,60.521856 12.8216,60.428256 C12.79568,60.334496 12.7824,60.238816 12.7824,60.141536 C12.7824,59.954176 12.8216,59.791776 12.89984,59.654656 C12.97792,59.517216 13.08112,59.403616 13.20976,59.313536 C13.33808,59.223136 13.48416,59.156416 13.6472,59.112736 C13.81072,59.069216 13.97552,59.047776 14.14224,59.047776 C14.3368,59.047776 14.51984,59.072896 14.692,59.123136 C14.86368,59.173696 15.01488,59.249056 15.14496,59.349696 C15.2752,59.450496 15.3784,59.574816 15.45504,59.722336 C15.53136,59.869696 15.5696,60.040896 15.5696,60.235456 L14.9184,60.235456 C14.90112,59.995776 14.81936,59.826496 14.67376,59.727456 C14.52768,59.628576 14.34192,59.578976 14.11616,59.578976 C14.03984,59.578976 13.96144,59.586656 13.88192,59.602656 C13.8016,59.618176 13.72896,59.644096 13.66288,59.680736 C13.59696,59.717216 13.54224,59.766496 13.49888,59.829216 C13.45552,59.891616 13.4336,59.969856 13.4336,60.063456 C13.4336,60.195456 13.47456,60.298976 13.55632,60.373376 C13.63776,60.448256 13.74448,60.504416 13.87648,60.542816 C13.89024,60.546496 13.94496,60.561056 14.0408,60.587136 C14.13632,60.613216 14.24272,60.641856 14.36096,60.673056 C14.4792,60.704096 14.5944,60.734656 14.70752,60.764256 C14.82032,60.793696 14.90112,60.815456 14.9496,60.829216 C15.07104,60.867456 15.17696,60.919616 15.26736,60.985696 C15.35776,61.051616 15.43312,61.127296 15.49392,61.212256 C15.55456,61.297216 15.59984,61.388576 15.62944,61.485856 C15.65872,61.583136 15.67376,61.680256 15.67376,61.777536 C15.67376,61.985856 15.6312,62.163936 15.54592,62.311456 C15.46096,62.458976 15.34912,62.579616 15.21024,62.673536 C15.07104,62.767296 14.91312,62.835776 14.736,62.879136 C14.55904,62.922496 14.3784,62.944416 14.19424,62.944416 C13.9824,62.944416 13.78288,62.918336 13.5952,62.866176 C13.40752,62.814176 13.24448,62.734336 13.1056,62.626656 C12.96656,62.518816 12.85552,62.380896 12.77232,62.212416 C12.6888,62.043936 12.64544,61.845216 12.64176,61.615936 L13.29296,61.615936 Z" id="Fill-15" fill="#FFFFFF" mask="url(#mask-2)"></path>
                            <path d="M16.19984,59.136304 L16.85104,59.136304 L16.85104,61.303344 C16.85104,61.428464 16.85696,61.555184 16.86928,61.683664 C16.88128,61.812304 16.916,61.927824 16.97344,62.030224 C17.03056,62.132464 17.11728,62.216944 17.23376,62.282704 C17.35024,62.348944 17.51408,62.381744 17.72608,62.381744 C17.93792,62.381744 18.10192,62.348944 18.21824,62.282704 C18.33472,62.216944 18.42144,62.132464 18.47888,62.030224 C18.536,61.927824 18.57072,61.812304 18.58304,61.683664 C18.59504,61.555184 18.60128,61.428464 18.60128,61.303344 L18.60128,59.136304 L19.25248,59.136304 L19.25248,61.516944 C19.25248,61.756624 19.21584,61.964944 19.14288,62.142064 C19.07024,62.319344 18.96672,62.467664 18.8328,62.587344 C18.69936,62.707344 18.53872,62.796944 18.35104,62.855824 C18.16384,62.914704 17.9552,62.944304 17.72608,62.944304 C17.4968,62.944304 17.28848,62.914704 17.1008,62.855824 C16.9136,62.796944 16.7528,62.707344 16.61904,62.587344 C16.48528,62.467664 16.38208,62.319344 16.30912,62.142064 C16.23632,61.964944 16.19984,61.756624 16.19984,61.516944 L16.19984,59.136304 Z" id="Fill-16" fill="#FFFFFF" mask="url(#mask-2)"></path>
                            <path d="M20.653456,60.829216 L21.721616,60.829216 C21.929776,60.829216 22.087696,60.779776 22.195536,60.680736 C22.302896,60.581696 22.356816,60.433376 22.356816,60.235456 C22.356816,60.117216 22.339376,60.021056 22.304816,59.946336 C22.269936,59.871616 22.222416,59.813536 22.161616,59.771616 C22.100656,59.730016 22.031216,59.702176 21.953136,59.688416 C21.875056,59.674656 21.794256,59.667456 21.711056,59.667456 L20.653456,59.667456 L20.653456,60.829216 Z M20.002256,59.136256 L21.778736,59.136256 C22.188336,59.136256 22.495696,59.224896 22.700656,59.401696 C22.905616,59.578976 23.008016,59.825856 23.008016,60.141536 C23.008016,60.318656 22.981936,60.465696 22.929936,60.581696 C22.877776,60.698176 22.817136,60.792096 22.747696,60.862976 C22.678256,60.934336 22.609616,60.985696 22.541776,61.016896 C22.474096,61.047936 22.424656,61.068896 22.393296,61.079296 L22.393296,61.089856 C22.448976,61.096736 22.508816,61.114016 22.573136,61.142016 C22.637136,61.169856 22.697296,61.214016 22.752656,61.274816 C22.808336,61.335616 22.854416,61.414496 22.891056,61.511776 C22.927536,61.609056 22.945616,61.730656 22.945616,61.876416 C22.945616,62.095136 22.961936,62.294176 22.995056,62.473056 C23.028016,62.651776 23.079216,62.779456 23.148656,62.855776 L22.450736,62.855776 C22.401936,62.775936 22.373296,62.687296 22.364816,62.590016 C22.355856,62.492736 22.351696,62.399136 22.351696,62.308736 C22.351696,62.138816 22.341296,61.991776 22.320656,61.868576 C22.299696,61.745376 22.261296,61.642976 22.206096,61.561216 C22.150256,61.479776 22.074576,61.419616 21.979216,61.381696 C21.883696,61.343296 21.761296,61.324256 21.612016,61.324256 L20.653456,61.324256 L20.653456,62.855776 L20.002256,62.855776 L20.002256,59.136256 Z" id="Fill-17" fill="#FFFFFF" mask="url(#mask-2)"></path>
                            <path d="M24.435344,61.376256 L25.571024,61.376256 L25.013584,59.777056 L24.997904,59.777056 L24.435344,61.376256 Z M24.664624,59.136256 L25.357424,59.136256 L26.789904,62.855776 L26.091984,62.855776 L25.742704,61.871296 L24.258224,61.871296 L23.909264,62.855776 L23.237104,62.855776 L24.664624,59.136256 Z" id="Fill-18" fill="#FFFFFF" mask="url(#mask-2)"></path>
                            <polygon id="Fill-19" fill="#FFFFFF" mask="url(#mask-2)" points="27.118112 59.136304 27.805792 59.136304 29.504032 61.876464 29.514432 61.876464 29.514432 59.136304 30.134272 59.136304 30.134272 62.855824 29.446592 62.855824 27.753632 60.120944 27.738112 60.120944 27.738112 62.855824 27.118112 62.855824"></polygon>
                            <path d="M33.416,60.318672 C33.38816,60.211312 33.34992,60.112112 33.30144,60.021872 C33.25264,59.931472 33.19008,59.853392 33.11376,59.787472 C33.03744,59.721392 32.948,59.670192 32.84544,59.633712 C32.74304,59.597232 32.62416,59.578992 32.48864,59.578992 C32.29088,59.578992 32.11968,59.618992 31.97536,59.698992 C31.83152,59.778832 31.71424,59.885712 31.62384,60.019152 C31.53344,60.152912 31.46672,60.304912 31.42336,60.475152 C31.38,60.645232 31.3584,60.818832 31.3584,60.995952 C31.3584,61.173072 31.38,61.346992 31.42336,61.516912 C31.46672,61.687152 31.53344,61.839152 31.62384,61.972752 C31.71424,62.106512 31.83152,62.213392 31.97536,62.293232 C32.11968,62.373072 32.29088,62.412912 32.48864,62.412912 C32.6344,62.412912 32.76304,62.387792 32.87408,62.337552 C32.98544,62.287152 33.0808,62.217872 33.1608,62.129232 C33.24064,62.040592 33.30288,61.937072 33.348,61.819152 C33.39328,61.700912 33.42288,61.574352 33.43664,61.438832 L34.07232,61.438832 C34.05856,61.661232 34.01056,61.864432 33.92896,62.048432 C33.84752,62.232432 33.73712,62.391312 33.59824,62.525072 C33.45936,62.658672 33.296,62.762032 33.10864,62.834832 C32.92112,62.907952 32.71424,62.944272 32.48864,62.944272 C32.21072,62.944272 31.9616,62.893232 31.74112,62.790672 C31.52064,62.688272 31.33392,62.548432 31.18128,62.371312 C31.02832,62.194192 30.91104,61.987632 30.8296,61.751632 C30.74784,61.515152 30.7072,61.263472 30.7072,60.995952 C30.7072,60.732272 30.74784,60.482032 30.8296,60.246032 C30.91104,60.009872 31.02832,59.803152 31.18128,59.625872 C31.33392,59.448752 31.52064,59.308112 31.74112,59.203952 C31.9616,59.099792 32.21072,59.047792 32.48864,59.047792 C32.69696,59.047792 32.89328,59.076112 33.07728,59.133552 C33.26128,59.190832 33.42384,59.274192 33.56448,59.383792 C33.70512,59.493072 33.81872,59.625872 33.9056,59.782032 C33.99232,59.938672 34.04624,60.117232 34.0672,60.318672 L33.416,60.318672 Z" id="Fill-20" fill="#FFFFFF" mask="url(#mask-2)"></path>
                            <polygon id="Fill-21" fill="#FFFFFF" mask="url(#mask-2)" points="34.665984 59.136304 37.343584 59.136304 37.343584 59.698864 35.317184 59.698864 35.317184 60.673104 37.192544 60.673104 37.192544 61.204464 35.317184 61.204464 35.317184 62.293264 37.380064 62.293264 37.380064 62.855824 34.665984 62.855824"></polygon>
                        </g>
                    </g>
                    <g id="Group" transform="translate(4.160000, 0.000000)" fill-rule="nonzero">
                        <path d="M16.56,6.72 C25.76,6.72 33.12,14.1588889 33.12,23.2 C33.12,32.3555556 25.645,39.68 16.56,39.68 C7.36,39.68 0,32.2411111 0,23.2 C0,14.1588889 7.36,6.72 16.56,6.72 Z" id="Path" fill="url(#linearGradient-3)"></path>
                        <path d="M29.1428571,33.8927659 C30.4,32.4085392 31.3142857,30.8101412 32,28.9834006 C29.7142857,30.8101412 26.7428571,31.8376827 23.6571429,31.8376827 C16.2285714,31.8376827 10.0571429,25.7866046 10.0571429,18.2512998 C10.0571429,13.3419345 12.6857143,9.11759699 16.5714286,6.72 C16.5714286,6.72 16.5714286,6.72 16.5714286,6.72 C14.6285714,6.72 12.8,7.06251386 11.0857143,7.63337028 C8.68571429,10.4876524 7.2,14.2553048 7.2,18.2512998 C7.2,27.3850026 14.6285714,34.6919649 23.6571429,34.6919649 C25.4857143,34.8061362 27.4285714,34.5777936 29.1428571,33.8927659 Z" id="Path" fill="#680508" opacity="0.5"></path>
                        <g transform="translate(6.720000, 0.000000)" id="Shape">
                            <path d="M0,16.48 C0,25.6355556 7.475,32.96 16.56,32.96 C25.76,32.96 33.12,25.5211111 33.12,16.48 C33.12,7.32444444 25.645,0 16.56,0 C7.475,0 0,7.32444444 0,16.48 Z M31.28,16.48 C31.28,24.4911111 24.725,31.0144444 16.675,31.0144444 C8.625,31.0144444 2.07,24.4911111 2.07,16.48 C2.07,8.46888889 8.625,1.94555556 16.675,1.94555556 C24.725,1.94555556 31.28,8.46888889 31.28,16.48 Z" fill="url(#linearGradient-4)"></path>
                            <path d="M1.495,16.48 C1.495,24.8344444 8.28,31.4722222 16.56,31.4722222 C24.84,31.4722222 31.625,24.72 31.625,16.48 C31.625,8.24 24.84,1.48777778 16.56,1.48777778 C8.28,1.48777778 1.495,8.24 1.495,16.48 Z M30.245,16.48 C30.245,24.0333333 24.15,30.0988889 16.56,30.0988889 C9.085,30.0988889 2.875,24.0333333 2.875,16.48 C2.875,8.92666667 8.97,2.86111111 16.56,2.86111111 C24.15,2.86111111 30.245,9.04111111 30.245,16.48 Z" fill="url(#linearGradient-5)"></path>
                        </g>
                    </g>
                </g>
            </g>
        </g>
    </g>
</svg>