<?xml version="1.0" encoding="UTF-8"?>
<svg width="92px" height="92px" viewBox="0 0 92 92" version="1.1" xmlns="http://www.w3.org/2000/svg" xmlns:xlink="http://www.w3.org/1999/xlink">
    <title>image/logo/insurance/thaivivat</title>
    <defs>
        <polygon id="path-1" points="0 72 72 72 72 0 0 0"></polygon>
    </defs>
    <g id="Symbols" stroke="none" stroke-width="1" fill="none" fill-rule="evenodd">
        <g id="image/logo/insurance/thaivivat">
            <rect id="Mask" stroke="#EBEBEB" fill="#FFFFFF" x="0.5" y="0.5" width="91" height="91" rx="12"></rect>
            <g id="Group-49-Copy" transform="translate(10.000000, 10.000000)">
                <polygon id="Fill-1" fill="#00A44F" points="0 72 72 72 72 0 0 0"></polygon>
                <g id="Group-48">
                    <path d="M25.74688,51.315056 C25.32592,51.315056 24.98672,51.203056 24.72752,50.976976 C24.46912,50.753616 24.33984,50.427376 24.33984,50.000656 L24.33984,47.833776 L25.03088,47.833776 L25.03088,49.932816 C25.03088,50.187696 25.08864,50.383856 25.2056,50.517616 C25.32176,50.650736 25.5024,50.717136 25.74688,50.717136 C25.99104,50.717136 26.17216,50.650736 26.28832,50.517616 C26.40496,50.383856 26.46416,50.187696 26.46416,49.932816 L26.46416,46.179536 L27.15472,46.179536 L27.15472,50.000656 C27.15472,50.427376 27.02384,50.753616 26.76208,50.976976 C26.50048,51.203056 26.16128,51.315056 25.74688,51.315056" id="Fill-2" fill="#FFFFFF"></path>
                    <path d="M30.313872,50.240224 C30.313872,50.382464 30.285872,50.517504 30.229552,50.645664 C30.172432,50.773024 30.088432,50.886464 29.977392,50.985984 C29.866352,51.085984 29.726032,51.165344 29.555632,51.225504 C29.384752,51.284224 29.185232,51.315104 28.957712,51.315104 C28.639472,51.315104 28.377232,51.268064 28.169392,51.174304 C27.961392,51.080544 27.755472,50.930624 27.550512,50.726144 L27.977072,50.266144 C28.125232,50.413824 28.268752,50.524544 28.408432,50.598784 C28.547632,50.672224 28.724912,50.708544 28.941552,50.708544 C29.196752,50.708544 29.374192,50.663904 29.474032,50.572864 C29.573872,50.481824 29.623792,50.371264 29.623792,50.240224 C29.623792,50.109344 29.572592,50.011424 29.470192,49.945504 C29.367632,49.881024 29.250992,49.834304 29.120112,49.804704 L28.846992,49.745184 C28.500432,49.666144 28.228432,49.558944 28.032752,49.425344 C27.836752,49.293024 27.738352,49.082944 27.738352,48.798624 C27.738352,48.520864 27.839472,48.281984 28.041552,48.085984 C28.242832,47.889984 28.546032,47.791904 28.949232,47.791904 C29.194032,47.791904 29.416592,47.832544 29.615152,47.911584 C29.814032,47.991424 30.013872,48.110304 30.212432,48.269984 L29.752112,48.704864 C29.619952,48.601984 29.493392,48.524224 29.367632,48.470304 C29.242672,48.415744 29.102992,48.389184 28.949232,48.389184 C28.756432,48.389184 28.618512,48.428224 28.535152,48.508864 C28.453232,48.588064 28.412272,48.685184 28.412272,48.798624 C28.412272,48.889664 28.460272,48.958944 28.557552,49.007264 C28.653872,49.055584 28.784752,49.102624 28.949232,49.148064 L29.265392,49.225184 C29.406832,49.259584 29.542032,49.301984 29.670512,49.352544 C29.798992,49.405024 29.910512,49.467904 30.007952,49.545024 C30.103792,49.621344 30.179792,49.716704 30.233872,49.830624 C30.287632,49.944864 30.313872,50.080864 30.313872,50.240224" id="Fill-4" fill="#FFFFFF"></path>
                    <path d="M31.209056,49.916128 C31.214176,50.007168 31.226176,50.080128 31.242976,50.133888 C31.260096,50.187648 31.282496,50.214368 31.311296,50.214368 L32.207456,50.214368 L32.207456,50.811648 L31.242976,50.811648 C31.168416,50.811648 31.093216,50.797728 31.012256,50.769568 C30.933536,50.740128 30.862016,50.690528 30.799456,50.619008 C30.737856,50.548448 30.684096,50.455968 30.642016,50.343168 C30.599136,50.229088 30.575296,50.087008 30.569536,49.916128 L31.209056,49.916128 Z M31.209056,48.252608 C31.214176,48.343648 31.226176,48.415808 31.242976,48.470208 C31.260096,48.524288 31.282496,48.550848 31.311296,48.550848 L32.207456,48.550848 L32.207456,49.148128 L31.242976,49.148128 C31.168416,49.148128 31.093216,49.134208 31.012256,49.106048 C30.933536,49.077408 30.862016,49.027648 30.799456,48.956288 C30.737856,48.884928 30.684096,48.792448 30.642016,48.679008 C30.599136,48.565568 30.575296,48.423488 30.569536,48.252608 L31.209056,48.252608 Z" id="Fill-6" fill="#FFFFFF"></path>
                    <path d="M33.568416,49.109504 L33.568416,51.294144 L32.884896,51.294144 L32.884896,49.262944 L32.553696,48.802304 C32.752096,48.473184 32.986336,48.225344 33.256256,48.060704 C33.526496,47.895424 33.846016,47.812864 34.216416,47.812864 C34.733856,47.812864 35.120736,47.931264 35.376256,48.167104 C35.631776,48.403104 35.760096,48.740704 35.760096,49.178144 L35.760096,51.294144 L35.077216,51.294144 L35.077216,49.229344 C35.077216,48.933824 35.002176,48.724544 34.851456,48.601984 C34.701376,48.479424 34.486816,48.418464 34.208096,48.418464 C34.065056,48.418464 33.918976,48.447264 33.769216,48.503744 C33.617376,48.561344 33.479136,48.652384 33.354336,48.777024 L33.568416,49.109504 Z" id="Fill-8" fill="#FFFFFF"></path>
                    <path d="M42.136608,46.510048 C42.136608,46.721408 42.173568,46.825728 42.247968,46.825728 L43.885888,46.825728 L43.885888,47.363488 L42.171168,47.363488 C42.091968,47.363488 42.011488,47.352928 41.932128,47.333408 C41.852928,47.312928 41.781568,47.272288 41.718528,47.210208 C41.655968,47.147648 41.603808,47.060288 41.560768,46.949568 C41.518048,46.838208 41.497408,46.692128 41.497408,46.510048 L42.136608,46.510048 Z" id="Fill-10" fill="#FFFFFF"></path>
                    <path d="M34.719504,46.510048 C34.719504,46.721408 34.756304,46.825728 34.830224,46.825728 L36.468304,46.825728 L36.468304,47.363488 L34.753904,47.363488 C34.674384,47.363488 34.594224,47.352928 34.514864,47.333408 C34.435344,47.312928 34.364144,47.272288 34.301264,47.210208 C34.238864,47.147648 34.186224,47.060288 34.143984,46.949568 C34.100944,46.838208 34.079184,46.692128 34.079184,46.510048 L34.719504,46.510048 Z" id="Fill-12" fill="#FFFFFF"></path>
                    <path d="M45.18072,49.706688 C44.89016,49.718048 44.68152,49.767648 44.55352,49.856768 C44.42568,49.944288 44.362,50.059008 44.362,50.201888 C44.362,50.338368 44.43736,50.453088 44.58712,50.547008 C44.73832,50.640768 44.93912,50.688448 45.18888,50.688448 C45.51336,50.688448 45.73096,50.607168 45.84104,50.444768 C45.95272,50.283008 46.00808,50.072928 46.00808,49.817408 L46.00808,47.804448 L46.70792,47.804448 L46.70792,49.817408 C46.70792,50.045088 46.6804,50.251488 46.62584,50.436288 C46.57192,50.620448 46.48584,50.777248 46.36648,50.905408 C46.24712,51.032128 46.09048,51.131008 45.8972,51.199648 C45.70344,51.268128 45.4676,51.301088 45.18888,51.301088 C44.86536,51.301088 44.60376,51.256768 44.40472,51.169248 C44.20504,51.081088 44.05144,50.974848 43.9436,50.849408 C43.83512,50.723968 43.76376,50.599488 43.73096,50.474208 C43.69592,50.348928 43.67896,50.247328 43.67896,50.167648 C43.67896,50.025408 43.70776,49.891648 43.76376,49.765568 C43.8212,49.641568 43.90952,49.531168 44.02936,49.433568 C43.91528,49.354048 43.8316,49.258848 43.77736,49.147328 C43.72376,49.037408 43.69048,48.913568 43.67896,48.777088 C43.67896,48.509568 43.76152,48.280448 43.9268,48.090208 C44.0916,47.900448 44.33336,47.804448 44.65176,47.804448 L45.18072,47.804448 L45.18072,48.418528 L44.72008,48.418528 C44.58424,48.418528 44.48936,48.448608 44.43864,48.508128 C44.38664,48.568288 44.362,48.659968 44.362,48.785408 C44.362,48.899488 44.42568,48.985568 44.55352,49.045888 C44.68152,49.105248 44.89016,49.138368 45.18072,49.143808 L45.18072,49.706688 Z" id="Fill-14" fill="#FFFFFF"></path>
                    <path d="M38.592816,51.256816 L38.592816,50.240176 C38.480656,50.382416 38.348336,50.519056 38.194096,50.647696 C38.038896,50.776496 37.865616,50.889456 37.671216,50.988016 C37.476336,51.085456 37.259536,51.163856 37.022256,51.221136 C36.783856,51.277936 36.523376,51.306576 36.240336,51.306576 L36.240336,47.816976 L36.992976,47.816976 L36.992976,50.551856 C37.173776,50.517616 37.360496,50.451696 37.551216,50.354416 C37.741616,50.255696 37.913936,50.133936 38.067536,49.986096 C38.221936,49.839056 38.348336,49.671856 38.446096,49.484016 C38.544176,49.296496 38.592816,49.093296 38.592816,48.875696 L38.592816,47.816976 L39.340816,47.816976 L39.340816,51.256816 L38.592816,51.256816 Z" id="Fill-16" fill="#FFFFFF"></path>
                    <path d="M42.815312,48.146128 C42.561872,47.910128 42.176752,47.791888 41.659312,47.791888 C41.289072,47.791888 40.969872,47.874448 40.699792,48.040368 C40.428752,48.204368 40.195472,48.452208 39.996112,48.781808 L40.319952,49.242448 L40.319952,50.325168 C40.319952,50.359408 40.318512,50.397808 40.315632,50.440528 C40.312592,50.483888 40.298032,50.521808 40.272752,50.555408 C40.247632,50.589648 40.205072,50.618288 40.145072,50.641488 C40.085552,50.663888 39.996112,50.672208 39.876432,50.666768 L39.876432,51.272208 L39.996112,51.272208 C40.081232,51.272208 40.182672,51.264048 40.298032,51.246448 C40.415312,51.229648 40.526192,51.191888 40.631472,51.131728 C40.736912,51.072048 40.826992,50.985168 40.900432,50.871088 C40.973552,50.757648 41.010992,50.600848 41.010992,50.401968 L41.010992,49.062768 L40.789072,48.739248 C40.919152,48.608208 41.059312,48.518768 41.207472,48.470288 C41.355152,48.421968 41.502512,48.397648 41.650352,48.397648 C41.929392,48.397648 42.142512,48.458288 42.289872,48.581008 C42.438032,48.703568 42.512592,48.912208 42.512592,49.208208 L42.512592,51.272208 L43.203632,51.272208 L43.203632,49.156528 C43.197392,48.719568 43.067792,48.382768 42.815312,48.146128" id="Fill-18" fill="#FFFFFF"></path>
                    <path d="M52.726576,26.522864 C52.726576,35.528944 45.426576,42.821584 36.411056,42.821584 C27.403056,42.821584 20.116176,35.528944 20.116176,26.522864 C20.116176,17.503504 27.403056,10.212144 36.411056,10.212144 C45.426576,10.212144 52.726576,17.503504 52.726576,26.522864" id="Fill-20" fill="#FFFFFF"></path>
                    <path d="M51.631648,26.50952 C51.631648,24.4428 51.218208,22.4732 50.470368,20.67736 C50.469088,20.67816 50.467648,20.67864 50.466848,20.67944 C48.175648,15.17832 42.751008,11.31496 36.420928,11.31496 C30.101088,11.31496 24.674848,15.1756 22.380928,20.67304 C22.379808,20.67304 22.378848,20.67256 22.377568,20.67176 C21.627008,22.46824 21.212288,24.44072 21.212288,26.50952 C21.212288,26.51224 21.212768,26.51512 21.212768,26.51784 C21.212768,26.52088 21.212288,26.5236 21.212288,26.52632 C21.212288,28.59448 21.627008,30.56744 22.377568,32.36408 C22.378848,32.3636 22.379808,32.3628 22.380928,32.362 C24.674848,37.8596 30.101088,41.72008 36.420928,41.72008 C42.751008,41.72008 48.175648,37.85688 50.466848,32.3564 C50.467648,32.35704 50.469088,32.35784 50.470368,32.35848 C51.218208,30.5628 51.631648,28.5932 51.631648,26.52632 C51.631648,26.5236 51.631168,26.52088 51.631168,26.51784 C51.631168,26.51512 51.631648,26.51224 51.631648,26.50952" id="Fill-22" fill="#FBED1D"></path>
                    <path d="M49.192608,34.743904 C49.680608,33.987744 50.111168,33.193984 50.459488,32.353504 C47.998848,31.041664 45.686688,29.350624 43.612768,27.275424 C40.163488,23.826624 37.767968,19.723744 36.427648,15.365984 C35.084928,19.723744 32.691328,23.826624 29.242688,27.275424 C27.164288,29.353504 24.848128,31.046944 22.382688,32.359904 C22.730848,33.196544 23.161568,33.989824 23.646688,34.743904 L49.192608,34.743904 Z" id="Fill-24" fill="#FFCA05"></path>
                    <path d="M36.424384,18.391296 L36.420864,15.374976 C35.079744,19.729216 32.685344,23.830176 29.240544,27.275456 C27.161344,29.353376 24.844384,31.046976 22.379104,32.359936 C33.907264,27.234176 36.424384,18.391296 36.424384,18.391296" id="Fill-26" fill="#F5EC6E"></path>
                    <path d="M36.417664,18.391296 L36.420864,15.374976 C37.762304,19.729216 40.157664,23.830176 43.602304,27.275456 C45.681024,29.353376 47.997344,31.046976 50.463104,32.359936 C38.934304,27.234176 36.417664,18.391296 36.417664,18.391296" id="Fill-28" fill="#F9A533"></path>
                    <path d="M24.332832,35.740896 C27.113792,39.376256 31.496512,41.720096 36.422592,41.720096 C41.354432,41.720096 45.738112,39.376256 48.515552,35.740896 L24.332832,35.740896 Z" id="Fill-30" fill="#4AC6E9"></path>
                    <path d="M24.332832,35.740896 C27.113792,38.491136 31.496512,40.264576 36.422592,40.264576 C41.354432,40.264576 45.738112,38.491136 48.515552,35.740896 L24.332832,35.740896 Z" id="Fill-32" fill="#70CCE9"></path>
                    <path d="M24.476688,60.494768 C23.777968,60.522608 23.274608,60.642288 22.966608,60.854608 C22.657968,61.067248 22.504368,61.344688 22.504368,61.687728 C22.504368,62.016208 22.685968,62.293328 23.048208,62.521008 C23.411888,62.745648 23.894928,62.859728 24.497648,62.859728 C25.279568,62.859728 25.802768,62.664368 26.069968,62.273168 C26.336688,61.882448 26.472048,61.378288 26.472048,60.762128 L26.472048,55.910768 L28.157008,55.910768 L28.157008,60.762128 C28.157008,61.310288 28.091568,61.807408 27.961328,62.252048 C27.830448,62.697808 27.622608,63.074128 27.335408,63.382768 C27.046928,63.691568 26.669648,63.927408 26.205008,64.091888 C25.738128,64.256528 25.168688,64.338608 24.497648,64.338608 C23.716368,64.338608 23.085168,64.232688 22.605648,64.021328 C22.126928,63.808528 21.755568,63.550768 21.497648,63.249808 C21.236048,62.948688 21.064208,62.647728 20.982288,62.345328 C20.900048,62.044048 20.858768,61.797648 20.858768,61.605168 C20.858768,61.262608 20.927088,60.940688 21.064208,60.638768 C21.201488,60.337168 21.413968,60.070448 21.703088,59.835888 C21.428848,59.646128 21.225648,59.415728 21.095728,59.148368 C20.965968,58.880208 20.886448,58.582608 20.858768,58.254128 C20.858768,57.610128 21.057648,57.059888 21.454928,56.599088 C21.852528,56.140528 22.435408,55.910768 23.203088,55.910768 L24.476688,55.910768 L24.476688,57.390768 L23.367408,57.390768 C23.037808,57.390768 22.812688,57.462288 22.689648,57.606608 C22.566448,57.749968 22.504368,57.974128 22.504368,58.275248 C22.504368,58.549648 22.657968,58.757648 22.966608,58.901808 C23.274608,59.046128 23.777968,59.125168 24.476688,59.139248 L24.476688,60.494768 Z" id="Fill-34" fill="#FFFFFF"></path>
                    <path d="M30.42944,62.00856 C30.64816,62.2828 30.91152,62.4948 31.2192,62.64536 C31.5272,62.79608 31.81664,62.86936 32.09024,62.86936 C32.66352,62.86936 33.08688,62.68616 33.36016,62.31704 C33.6328,61.94808 33.77088,61.49176 33.77088,60.9436 L33.77088,59.26376 C33.77088,58.74488 33.64064,58.30104 33.38048,57.93352 C33.1208,57.56248 32.69088,57.37832 32.09024,57.37832 C31.74848,57.37832 31.42016,57.48488 31.1056,57.69608 C30.79136,57.90904 30.53968,58.21288 30.34768,58.60904 L28.91312,57.89144 C29.24272,57.2628 29.68864,56.774 30.256,56.42664 C30.8224,56.07832 31.43424,55.9044 32.09024,55.9044 C33.14064,55.9044 33.95392,56.21112 34.52896,56.82584 C35.10144,57.43976 35.38848,58.25416 35.38848,59.26376 L35.38848,60.9644 C35.38848,61.41528 35.32352,61.846 35.19504,62.25544 C35.064,62.66584 34.86688,63.02424 34.59936,63.33224 C34.3328,63.63992 33.99216,63.88552 33.57552,64.06968 C33.15856,64.25288 32.66352,64.34632 32.09024,64.34632 C31.59824,64.34632 31.09632,64.22632 30.5832,63.98696 C30.07168,63.74824 29.63088,63.40376 29.26272,62.9516 L30.42944,62.00856 Z" id="Fill-36" fill="#FFFFFF"></path>
                    <path d="M37.866304,62.00856 C38.085344,62.2828 38.349024,62.4948 38.656064,62.64536 C38.962464,62.79608 39.253984,62.86936 39.527104,62.86936 C40.101184,62.86936 40.523904,62.68616 40.796544,62.31704 C41.069504,61.94808 41.208544,61.49176 41.208544,60.9436 L41.208544,59.26376 C41.208544,58.74488 41.077984,58.30104 40.817984,57.93352 C40.559104,57.56248 40.127744,57.37832 39.527104,57.37832 C39.185344,57.37832 38.857184,57.48488 38.543904,57.69608 C38.229024,57.90904 37.977024,58.21288 37.785504,58.60904 L36.350464,57.89144 C36.679584,57.2628 37.126624,56.774 37.692704,56.42664 C38.258784,56.07832 38.871424,55.9044 39.527104,55.9044 C40.577664,55.9044 41.392384,56.21112 41.965664,56.82584 C42.539104,57.43976 42.825984,58.25416 42.825984,59.26376 L42.825984,60.9644 C42.825984,61.41528 42.760384,61.846 42.632384,62.25544 C42.501664,62.66584 42.304224,63.02424 42.037024,63.33224 C41.769984,63.63992 41.428704,63.88552 41.011744,64.06968 C40.595424,64.25288 40.101184,64.34632 39.527104,64.34632 C39.035264,64.34632 38.533664,64.22632 38.020224,63.98696 C37.508544,63.74824 37.068704,63.40376 36.699264,62.9516 L37.866304,62.00856 Z" id="Fill-38" fill="#FFFFFF"></path>
                    <mask id="mask-2" fill="white">
                        <use xlink:href="#path-1"></use>
                    </mask>
                    <g id="Clip-41"></g>
                    <polygon id="Fill-40" fill="#FFFFFF" mask="url(#mask-2)" points="28.89392 54.44864 35.01984 54.44864 35.01984 53.15856 28.89392 53.15856"></polygon>
                    <path d="M39.803168,52.40104 C39.803168,52.90504 39.892128,53.15864 40.069728,53.15864 L44.003488,53.15864 L44.003488,54.44872 L39.884608,54.44872 C39.693408,54.44872 39.503008,54.42568 39.311488,54.37816 C39.120288,54.32904 38.949408,54.23192 38.798528,54.08072 C38.648128,53.93016 38.522368,53.72072 38.420448,53.45608 C38.316928,53.18872 38.266208,52.83784 38.266208,52.40104 L39.803168,52.40104 Z" id="Fill-42" fill="#FFFFFF" mask="url(#mask-2)"></path>
                    <path d="M18.171552,64.32864 L18.171552,57.74176 C17.726592,57.82208 17.278112,57.98112 16.821792,58.21712 C16.365952,58.4544 15.953632,58.74912 15.581792,59.10288 C15.210272,59.45632 14.908512,59.86032 14.671232,60.3112 C14.435232,60.76416 14.316672,61.2528 14.316672,61.77952 L14.316672,64.32864 L12.505952,64.32864 L12.505952,55.91984 L14.316672,55.91984 L14.316672,58.48032 C14.587552,58.13584 14.904992,57.81168 15.273632,57.50368 C15.640832,57.19712 16.058592,56.92528 16.528672,56.68944 C16.996832,56.45344 17.517632,56.26656 18.092032,56.12784 C18.663712,55.98992 19.292512,55.91984 19.974112,55.91984 L19.974112,64.32864 L18.171552,64.32864 Z" id="Fill-43" fill="#FFFFFF" mask="url(#mask-2)"></path>
                    <path d="M62.821264,64.341248 L62.821264,61.761888 C62.551504,62.107168 62.229904,62.436128 61.857424,62.747168 C61.484304,63.057728 61.063184,63.332928 60.592784,63.570368 C60.122544,63.807648 59.599504,63.994848 59.024144,64.133248 C58.447664,64.272608 57.818544,64.341248 57.133744,64.341248 L57.133744,55.900928 L58.953104,55.900928 L58.953104,62.513088 C59.392144,62.433248 59.842384,62.273088 60.303504,62.036928 C60.763344,61.799648 61.180464,61.502848 61.552944,61.147168 C61.925264,60.792928 62.229904,60.388288 62.467184,59.933088 C62.704304,59.480928 62.821264,58.988608 62.821264,58.461408 L62.821264,55.900928 L64.630384,55.900928 L64.630384,64.341248 L62.821264,64.341248 Z" id="Fill-44" fill="#FFFFFF" mask="url(#mask-2)"></path>
                    <path d="M65.214688,54.105008 L63.974848,54.105008 C63.759328,54.105008 63.600288,54.149328 63.495008,54.237488 C63.390528,54.325008 63.338688,54.465808 63.338688,54.661008 L63.338688,54.861808 L61.471808,54.861808 L61.471808,54.287248 C61.471808,54.105008 61.501408,53.934128 61.557408,53.772528 C61.615168,53.611568 61.704928,53.471408 61.824608,53.354608 C61.946688,53.237008 62.098848,53.142448 62.280128,53.072368 C62.461088,53.001008 62.676448,52.965328 62.923968,52.965328 L65.214688,52.965328 L65.214688,54.105008 Z" id="Fill-45" fill="#FFFFFF" mask="url(#mask-2)"></path>
                    <path d="M54.209824,55.963264 L54.209824,62.571424 C53.894784,62.517504 53.560064,62.409504 53.206624,62.249984 C52.852224,62.088864 52.526144,61.882464 52.229184,61.628224 C51.932064,61.374624 51.684384,61.080864 51.486304,60.745184 C51.289184,60.411904 51.191744,60.041024 51.191744,59.632864 L51.191744,59.032064 C51.191744,58.033024 50.868704,57.245984 50.224704,56.671264 C49.815424,56.314144 49.274464,56.075264 48.603744,55.952064 L47.597824,56.958144 L46.569984,55.952064 C46.255904,56.020704 45.961504,56.113824 45.687264,56.229984 C45.412864,56.346304 45.180704,56.493504 44.989024,56.671264 C44.674944,56.944864 44.430944,57.283744 44.259744,57.687744 C44.088064,58.091744 44.003584,58.539744 44.003584,59.032064 L44.003584,61.989504 C44.003584,62.700704 44.195744,63.269184 44.578464,63.692384 C44.961984,64.117184 45.543424,64.330144 46.324224,64.330144 L47.227264,64.330144 L47.227264,62.851264 L46.467744,62.851264 C46.152384,62.851264 45.940384,62.779904 45.830944,62.636544 C45.722304,62.492864 45.667264,62.269504 45.667264,61.969184 L45.667264,59.196544 C45.667264,58.854944 45.718144,58.553184 45.820704,58.292704 C45.923744,58.033024 46.069984,57.827904 46.261664,57.676704 L47.001664,58.415904 C47.152704,58.566624 47.353984,58.641984 47.607904,58.641984 C47.860864,58.641984 48.062624,58.566624 48.213504,58.415904 L48.972704,57.676704 C49.369504,58.005504 49.569184,58.512544 49.569184,59.196544 L49.569184,64.330144 L51.191744,64.330144 L51.191744,63.590624 L51.191744,62.550784 C51.425504,62.777344 51.695584,62.998464 51.997504,63.212544 C52.302784,63.426944 52.649344,63.616704 53.037024,63.783104 C53.423584,63.951104 53.861184,64.085824 54.349824,64.185184 C54.837024,64.286144 55.385024,64.328704 55.993664,64.316064 L55.993664,55.963264 L54.209824,55.963264 Z" id="Fill-46" fill="#FFFFFF" mask="url(#mask-2)"></path>
                    <path d="M10.05376,55.921344 C10.08656,55.494304 10.13904,55.127264 10.20816,54.820704 C10.27792,54.514784 10.36224,54.257824 10.46192,54.049184 C10.56128,53.841184 10.67712,53.659104 10.80912,53.504384 C10.9408,53.349024 11.08688,53.208224 11.24704,53.079264 C11.40736,52.951264 11.584,52.814784 11.77568,52.668384 L11.77568,51.274464 L11.12976,51.274464 C10.8344,51.416544 10.5472,51.525184 10.27008,51.597024 C9.99168,51.670624 9.7408,51.722464 9.51664,51.752544 C9.29232,51.782784 9.10112,51.798944 8.94544,51.800384 C8.78864,51.802304 8.68144,51.802944 8.62512,51.802944 C8.57808,51.802944 8.48672,51.800384 8.3496,51.795424 C8.212,51.789664 8.04784,51.770144 7.8552,51.736544 C7.66336,51.702784 7.45392,51.650304 7.22784,51.579104 C7.19648,51.569184 7.16496,51.553824 7.13312,51.542624 C6.684,51.360544 6.30432,51.102784 6.30432,51.102784 L6.30432,51.852064 L6.30432,52.653664 C6.39264,52.695104 6.48096,52.731264 6.56832,52.764864 C6.74976,52.832384 6.9272,52.886784 7.10016,52.927584 C7.27232,52.968864 7.4368,52.999744 7.59328,53.020704 C7.74992,53.042304 7.89376,53.056384 8.02336,53.063264 C8.15376,53.071104 8.26688,53.073824 8.36256,53.071904 C8.4592,53.070304 8.53536,53.068864 8.59248,53.068864 C8.63904,53.068864 8.70592,53.066144 8.79264,53.061184 C8.88016,53.055744 8.97696,53.047264 9.08368,53.034624 C9.1912,53.022144 9.29904,53.005824 9.4096,52.986304 C9.52016,52.966624 9.62144,52.942944 9.71408,52.914144 L9.72496,52.940704 C9.49328,53.154944 9.2976,53.360224 9.13712,53.557504 C8.97696,53.755104 8.84512,53.955264 8.74192,54.158304 C8.63904,54.361504 8.55792,54.575584 8.49904,54.799744 C8.44032,55.024384 8.39792,55.268864 8.37136,55.533984 C8.344,55.799424 8.32784,56.094304 8.32224,56.418304 C8.31776,56.741824 8.31456,57.105344 8.31456,57.507744 L8.31456,57.565184 L8.31312,57.565184 L8.31312,62.088384 C8.31312,62.735744 8.46192,63.272704 8.75728,63.695104 C9.05392,64.117984 9.58208,64.328704 10.34352,64.328704 L11.33664,64.328704 L11.33664,62.807264 L10.51168,62.807264 C10.2728,62.807264 10.12896,62.739424 10.07856,62.606304 C10.03024,62.471424 10.0064,62.306624 10.0064,62.109184 L10.0064,57.565184 L10.00368,57.565184 L10.00368,57.459424 C10.00368,56.861504 10.01952,56.348384 10.05376,55.921344" id="Fill-47" fill="#FFFFFF" mask="url(#mask-2)"></path>
                </g>
            </g>
        </g>
    </g>
</svg>