<?xml version="1.0" encoding="UTF-8"?>
<svg width="92px" height="92px" viewBox="0 0 92 92" version="1.1" xmlns="http://www.w3.org/2000/svg" xmlns:xlink="http://www.w3.org/1999/xlink">
    <title>image/logo/insurance/thanachart</title>
    <defs>
        <polygon id="path-1" points="0 0 7.325408 0 7.325408 7.50448 0 7.50448"></polygon>
        <polygon id="path-3" points="0 0 10.973344 0 10.973344 11.56848 0 11.56848"></polygon>
        <polygon id="path-5" points="0 65.02528 54.58496 65.02528 54.58496 0 0 0"></polygon>
    </defs>
    <g id="Symbols" stroke="none" stroke-width="1" fill="none" fill-rule="evenodd">
        <g id="image/logo/square-big/thanachart-+-image/logo/square-big/thanachart-Mask">
            <rect id="Mask" stroke="#EBEBEB" fill="#FFFFFF" x="0.5" y="0.5" width="91" height="91" rx="12"></rect>
            <g id="image/logo/square-big/thanachart" transform="translate(6.000000, 6.000000)">
                <g id="Group-56" transform="translate(12.640000, 7.520000)">
                    <path d="M13.971584,7.382256 C16.419584,1.209456 23.887424,1.6e-05 28.427584,1.6e-05 L48.665184,1.6e-05 C46.454144,5.575376 40.148064,7.113616 35.602304,7.359536 C35.249184,7.384016 34.209344,7.397296 34.209344,7.397296 L13.971584,7.382256 Z" id="Fill-1" fill="#EF5323"></path>
                    <path d="M11.584528,20.896384 C10.450448,17.059264 16.126128,12.112544 24.261328,9.847424 C25.925008,9.384704 27.562928,9.069184 29.125488,8.893824 C27.132688,9.474944 25.162128,10.675104 23.935408,13.019424 C23.529168,13.788864 21.656688,17.470784 20.548528,19.009984 C18.956688,21.221824 17.758768,21.176064 17.758768,21.176064 C25.101488,21.876704 29.166128,18.913664 30.651088,16.098464 C31.355728,14.599584 32.620368,12.208704 33.198128,11.250304 C33.878608,9.918144 34.660368,9.277504 35.216048,8.972224 C38.286288,9.480544 40.473648,10.762624 41.044528,12.694624 C42.178608,16.531744 36.503248,21.478624 28.367728,23.743104 C20.232368,26.007904 12.718448,24.733344 11.584528,20.896384" id="Fill-3" fill="#000000"></path>
                    <path d="M0.175248,45.896752 L0.175248,50.706992 C0.175248,52.650192 1.876848,53.555632 3.848528,53.555632 C5.985488,53.555632 7.625168,52.725872 7.625168,50.631792 L7.625168,43.236112 L5.695248,43.236112 L5.695248,50.857712 C5.695248,51.857712 4.927568,52.178512 3.910768,52.178512 C2.810768,52.178512 2.105328,51.706672 2.105328,50.687792 L2.105328,45.896752 L0.175248,45.896752 Z" id="Fill-5" fill="#000000"></path>
                    <path d="M13.221296,48.103776 L15.088816,48.103776 L15.088816,47.896256 C15.088816,46.311616 13.117456,45.689056 11.685296,45.689056 C10.295056,45.689056 8.282416,46.311616 8.282416,47.839776 C8.282416,50.782656 13.532656,49.763776 13.532656,51.272736 C13.532656,52.065056 12.494896,52.254176 11.810256,52.254176 C10.793296,52.254176 9.942256,51.914336 9.901136,50.876896 L8.012656,50.857696 C7.929616,52.820096 9.983856,53.518336 11.810256,53.518336 C13.511696,53.518336 15.379536,52.914016 15.379536,51.121856 C15.379536,48.311456 10.170896,49.160416 10.170896,47.858176 C10.170896,47.198016 10.959216,46.971616 11.561136,46.971616 C12.370256,46.971616 13.200656,47.254816 13.221296,48.103776" id="Fill-7" fill="#000000"></path>
                    <path d="M16.10568,46.55656 L16.10568,47.80152 C16.10568,48.38632 16.43752,48.70712 17.08104,48.70712 L20.0484,48.70712 L20.0484,47.74552 C17.78648,47.74552 17.80728,48.14136 17.80728,46.55656 L16.10568,46.55656 Z M16.10568,50.4804 L16.10568,51.726 C16.10568,52.3108 16.43752,52.63096 17.08104,52.63096 L20.0484,52.63096 L20.0484,51.6692 C17.78648,51.6692 17.80728,52.0652 17.80728,50.4804 L16.10568,50.4804 Z" id="Fill-9" fill="#000000"></path>
                    <path d="M28.739344,53.401088 L28.739344,48.612928 C28.739344,46.689088 27.016624,45.783328 25.066384,45.783328 C22.929104,45.783328 21.289424,46.594368 21.289424,48.688928 L21.289424,53.401088 L23.219344,53.401088 L23.219344,48.518688 C23.219344,47.519008 23.987184,47.160608 25.003824,47.160608 C26.103984,47.160608 26.809264,47.613248 26.809264,48.632128 L26.809264,53.401088 L28.739344,53.401088 Z" id="Fill-11" fill="#000000"></path>
                    <path d="M23.970176,42.482064 L23.970176,43.727184 C23.970176,44.311824 24.302336,44.632624 24.945856,44.632624 L30.133536,44.632624 L30.133536,43.670224 L26.190496,43.670224 C25.443776,43.670224 25.671776,42.953904 25.671776,42.482064 L23.970176,42.482064 Z" id="Fill-13" fill="#000000"></path>
                    <path d="M35.134416,52.25416 C34.760656,53.04664 33.370576,53.49928 32.498896,53.49928 C30.403056,53.49928 29.572976,52.17848 29.572976,50.4428 L29.572976,45.89688 L31.544336,45.89688 L31.544336,50.48024 C31.544336,51.44264 31.876336,52.0652 33.059216,52.0652 C34.345776,52.0652 35.134416,51.23528 35.134416,50.08456 L35.134416,45.89688 L37.043216,45.89688 L37.043216,53.4012 L35.134416,53.4012 L35.134416,52.25416 Z" id="Fill-15" fill="#000000"></path>
                    <path d="M46.21888,53.401088 L46.21888,48.612928 C46.21888,46.689088 44.51744,45.783328 42.54592,45.783328 C39.66128,45.783328 38.76896,46.971488 38.7896,48.669728 L38.7896,52.065088 L37.66944,52.065088 L37.66944,53.401088 L40.69888,53.401088 L40.69888,48.518688 C40.69888,47.519008 41.46672,47.160608 42.48336,47.160608 C43.58368,47.160608 44.31008,47.613248 44.31008,48.632128 L44.31008,53.401088 L46.21888,53.401088 Z" id="Fill-17" fill="#000000"></path>
                    <path d="M41.864496,42.482064 L41.864496,43.727184 C41.864496,44.311824 42.196336,44.632624 42.839696,44.632624 L48.027536,44.632624 L48.027536,43.670224 L44.084496,43.670224 C43.337776,43.670224 43.565936,42.953904 43.565936,42.482064 L41.864496,42.482064 Z" id="Fill-19" fill="#000000"></path>
                    <g id="Group-23" transform="translate(47.259552, 45.896608)">
                        <mask id="mask-2" fill="white">
                            <use xlink:href="#path-1"></use>
                        </mask>
                        <g id="Clip-22"></g>
                        <path d="M7.32544,7.50448 L7.32544,0 L5.39536,0 L5.39536,6.22528 L3.09216,6.22528 C2.44864,6.22528 1.93008,5.84784 1.93008,5.24432 C1.93008,4.56528 2.55264,4.33888 3.196,4.33888 L4.68992,4.33888 L4.68992,3.24464 C3.79792,3.24464 2.1168,3.45216 2.1168,2.22576 C2.1168,0.92416 3.75616,1.2448 4.71072,1.2448 L4.71072,0 L2.7808,0 C1.3696,0 0.3944,0.79248 0.3944,2.11232 C0.3944,2.848 0.85104,3.4896 1.63936,3.71632 C0.72656,3.848 0,4.47104 0,5.33856 C0,6.73232 1.33376,7.46448 2.70448,7.50448 L7.32544,7.50448 Z" id="Fill-21" fill="#000000" mask="url(#mask-2)"></path>
                    </g>
                    <g id="Group-26" transform="translate(0.000000, 29.268512)">
                        <mask id="mask-4" fill="white">
                            <use xlink:href="#path-3"></use>
                        </mask>
                        <g id="Clip-25"></g>
                        <path d="M8.042944,8.09248 C8.042944,9.1632 7.010464,9.48 5.761664,9.48 L3.115744,9.48 L3.118144,6.44864 L0.181344,6.44864 L0.174944,11.56848 L7.096544,11.56848 C9.063904,11.56848 10.973344,10.41888 10.973344,8.43904 C10.973344,6.09024 10.162944,5.3056 7.913024,4.64128 C6.226784,4.14352 2.952384,3.9224 3.140864,3.01104 C3.256864,2.44864 3.130624,2.356 4.973024,2.11376 C6.365664,1.932 10.220864,2.32752 10.595424,2.32752 L10.595424,0.30304 C9.746464,0.30304 8.494144,0 5.471104,0 C1.817184,0 0.098304,0.77632 0.000544,2.96336 C-0.032576,4.41248 1.401504,5.18656 2.689984,5.58944 C4.788704,6.24672 8.042944,6.34768 8.042944,8.09248" id="Fill-24" fill="#000000" mask="url(#mask-4)"></path>
                    </g>
                    <path d="M19.993392,39.115424 C19.432432,40.305184 17.344912,40.984864 16.036272,40.984864 C12.888912,40.984864 11.642672,39.001504 11.642672,36.395584 L11.642672,29.569344 L14.602672,29.569344 L14.602672,36.451904 C14.602672,37.897024 15.101552,38.831584 16.877232,38.831584 C18.809232,38.831584 19.993392,37.585344 19.993392,35.857664 L19.993392,29.569344 L22.859792,29.569344 L22.859792,40.837504 L19.993392,40.837504 L19.993392,39.115424 Z" id="Fill-27" fill="#000000"></path>
                    <path d="M35.0792,29.569328 C34.95456,30.985808 34.0512,32.599728 32.43088,32.939888 C34.30032,33.365488 35.0792,34.979408 35.0792,36.621968 C35.0792,39.624688 33.02288,40.984688 29.75088,40.984688 C26.44816,40.984688 24.42272,39.794928 24.42272,36.650608 L24.42272,29.569328 L27.32064,29.569328 L27.32064,36.933488 C27.32064,38.378608 28.03728,39.001648 29.6576,39.001648 C31.55808,39.001648 32.11904,37.811888 32.11904,36.366608 C32.11904,34.611248 31.05984,33.365488 29.12784,32.996528 C30.56096,32.458448 32.02576,31.297328 32.02576,29.767248 L32.02576,29.569328 L35.0792,29.569328 Z" id="Fill-29" fill="#000000"></path>
                    <path d="M39.319488,33.053728 C39.319488,31.127328 37.231968,31.636448 35.705248,31.636448 L35.705248,29.569248 L38.197728,29.569248 C40.379328,29.569248 42.217568,30.192288 42.217568,32.429408 L42.217568,40.837568 L39.319488,40.837568 L39.319488,33.053728 Z" id="Fill-31" fill="#000000"></path>
                    <path d="M51.718416,40.837392 L54.584816,40.837392 L54.584816,29.569392 L51.282096,29.569392 C50.939216,30.022192 50.440656,30.589072 49.755216,30.589072 C49.100816,30.589072 48.571056,30.022192 48.228336,29.569392 C44.271216,29.569392 42.993776,32.203152 42.993776,35.460912 C42.993776,39.426832 45.798416,40.785872 49.630576,40.843312 L49.630576,38.831472 C47.169136,38.831472 45.860176,37.556752 45.860176,35.290992 C45.860176,34.526192 45.984656,31.636272 47.387056,31.636272 C47.854416,32.260592 48.695696,32.769712 49.537296,32.769712 C50.409456,32.769712 51.188656,32.203152 51.718416,31.608592 L51.718416,40.837392 Z" id="Fill-33" fill="#000000"></path>
                    <mask id="mask-6" fill="white">
                        <use xlink:href="#path-5"></use>
                    </mask>
                    <g id="Clip-36"></g>
                    <polygon id="Fill-35" fill="#EF5323" mask="url(#mask-6)" points="0.17504 58.10624 54.5848 58.10624 54.5848 56.53792 0.17504 56.53792"></polygon>
                    <polygon id="Fill-37" fill="#000000" mask="url(#mask-6)" points="0.175248 61.242768 0.175248 61.841968 1.347248 61.836688 1.347248 64.973808 2.203248 64.973808 2.203248 61.836688 3.375088 61.841968 3.375088 61.242768"></polygon>
                    <path d="M4.414944,64.97376 L4.414944,63.03552 C4.545344,62.91184 4.799584,62.75168 5.134464,62.75168 C5.395104,62.75168 5.531264,62.86496 5.531264,63.2272 L5.531264,64.97376 L6.300224,64.97376 L6.300224,63.1336 C6.300224,62.5864 5.990464,62.2352 5.345184,62.2352 C4.967104,62.2352 4.650784,62.41056 4.414944,62.57584 L4.414944,61.24272 L3.646304,61.24272 L3.646304,64.97376 L4.414944,64.97376 Z" id="Fill-38" fill="#000000" mask="url(#mask-6)"></path>
                    <path d="M9.355744,64.97376 C9.306304,64.85472 9.293984,64.72048 9.293984,64.58624 L9.293984,63.32 C9.293984,62.51376 8.921664,62.2504 8.053504,62.2352 C7.582464,62.22448 7.049024,62.4416 6.850304,62.72544 L7.346624,63.0408 C7.495584,62.87024 7.693824,62.71008 8.053504,62.71008 C8.326624,62.71008 8.525024,62.82368 8.525024,63.03088 L8.525024,63.25776 C7.272384,63.38208 6.676864,63.70224 6.676864,64.31232 C6.676864,64.67936 6.968384,65.02528 7.551264,65.02528 C7.954304,65.02528 8.245824,64.91696 8.555904,64.74112 L8.605504,64.97376 L9.355744,64.97376 Z M8.525024,64.26544 C8.363744,64.3792 8.060064,64.55024 7.817984,64.55024 C7.601024,64.55024 7.446144,64.436 7.446144,64.23488 C7.446144,63.85712 8.010304,63.7696 8.525024,63.68688 L8.525024,64.26544 Z" id="Fill-39" fill="#000000" mask="url(#mask-6)"></path>
                    <path d="M10.5236,64.97376 L10.5236,63.03552 C10.65368,62.91184 10.90824,62.75168 11.2428,62.75168 C11.50328,62.75168 11.6396,62.86496 11.6396,63.2272 L11.6396,64.97376 L12.40856,64.97376 L12.40856,63.1336 C12.40856,62.5864 12.0988,62.2352 11.45352,62.2352 C11.07544,62.2352 10.7468,62.41056 10.46152,62.57584 L10.46152,62.28512 L9.75464,62.28512 L9.75464,64.97376 L10.5236,64.97376 Z" id="Fill-40" fill="#000000" mask="url(#mask-6)"></path>
                    <path d="M15.46408,64.97376 C15.41464,64.85472 15.40232,64.72048 15.40232,64.58624 L15.40232,63.32 C15.40232,62.51376 15.03,62.2504 14.162,62.2352 C13.6908,62.22448 13.15752,62.4416 12.95896,62.72544 L13.45528,63.0408 C13.60392,62.87024 13.80216,62.71008 14.162,62.71008 C14.43496,62.71008 14.63352,62.82368 14.63352,63.03088 L14.63352,63.25776 C13.38072,63.38208 12.7852,63.70224 12.7852,64.31232 C12.7852,64.67936 13.07688,65.02528 13.6596,65.02528 C14.06264,65.02528 14.35416,64.91696 14.6644,64.74112 L14.71384,64.97376 L15.46408,64.97376 Z M14.63352,64.26544 C14.47208,64.3792 14.1684,64.55024 13.92632,64.55024 C13.70936,64.55024 13.55448,64.436 13.55448,64.23488 C13.55448,63.85712 14.11864,63.7696 14.63352,63.68688 L14.63352,64.26544 Z" id="Fill-41" fill="#000000" mask="url(#mask-6)"></path>
                    <path d="M18.405648,62.9532 C18.225808,62.5036 17.742128,62.23512 17.134448,62.23512 C16.260208,62.23512 15.733008,62.77752 15.733008,63.62984 C15.733008,64.4828 16.260208,65.0252 17.134448,65.0252 C17.723728,65.03048 18.114128,64.834 18.423888,64.35368 L17.841168,64.0796 C17.686288,64.31752 17.493968,64.50872 17.159408,64.50872 C16.706608,64.50872 16.501968,64.22952 16.501968,63.62984 C16.501968,63.0308 16.706608,62.7516 17.134448,62.7516 C17.506448,62.7516 17.642768,62.93272 17.766928,63.1596 L18.405648,62.9532 Z" id="Fill-42" fill="#000000" mask="url(#mask-6)"></path>
                    <path d="M19.483216,64.97376 L19.483216,63.03552 C19.613456,62.91184 19.867856,62.75168 20.202576,62.75168 C20.462896,62.75168 20.599536,62.86496 20.599536,63.2272 L20.599536,64.97376 L21.368336,64.97376 L21.368336,63.1336 C21.368336,62.5864 21.058736,62.2352 20.413456,62.2352 C20.035056,62.2352 19.719056,62.41056 19.483216,62.57584 L19.483216,61.24272 L18.714416,61.24272 L18.714416,64.97376 L19.483216,64.97376 Z" id="Fill-43" fill="#000000" mask="url(#mask-6)"></path>
                    <path d="M24.424,64.97376 C24.37456,64.85472 24.36192,64.72048 24.36192,64.58624 L24.36192,63.32 C24.36192,62.51376 23.98992,62.2504 23.12176,62.2352 C22.65072,62.22448 22.11712,62.4416 21.91856,62.72544 L22.4152,63.0408 C22.56384,62.87024 22.76208,62.71008 23.12176,62.71008 C23.39456,62.71008 23.59328,62.82368 23.59328,63.03088 L23.59328,63.25776 C22.34064,63.38208 21.74512,63.70224 21.74512,64.31232 C21.74512,64.67936 22.03664,65.02528 22.61952,65.02528 C23.02256,65.02528 23.31376,64.91696 23.624,64.74112 L23.67376,64.97376 L24.424,64.97376 Z M23.59328,64.26544 C23.43184,64.3792 23.128,64.55024 22.88608,64.55024 C22.66928,64.55024 22.51408,64.436 22.51408,64.23488 C22.51408,63.85712 23.07856,63.7696 23.59328,63.68688 L23.59328,64.26544 Z" id="Fill-44" fill="#000000" mask="url(#mask-6)"></path>
                    <path d="M25.601008,64.97376 L25.601008,63.3408 C25.601008,63.27344 25.935888,62.90656 26.320208,62.90656 C26.376368,62.90656 26.419408,62.90656 26.456688,62.91184 L26.456688,62.2352 C25.997968,62.24512 25.737328,62.42624 25.551248,62.74624 L25.538928,62.74624 L25.538928,62.28512 L24.832208,62.28512 L24.832208,64.97376 L25.601008,64.97376 Z" id="Fill-45" fill="#000000" mask="url(#mask-6)"></path>
                    <path d="M26.736656,62.285216 L26.736656,62.801696 L27.183376,62.801696 L27.183376,64.405056 C27.183376,64.787456 27.406256,65.025216 27.976976,65.025216 C28.188176,65.025216 28.373936,65.004416 28.584496,64.983776 L28.584496,64.456576 C28.472816,64.477216 28.349136,64.508736 28.231056,64.508736 C28.039056,64.508736 27.952336,64.467296 27.952336,64.322336 L27.952336,62.801696 L28.584496,62.801696 L28.584496,62.285216 L27.952336,62.285216 L27.952336,61.397696 L27.183376,61.397696 L27.183376,62.285216 L26.736656,62.285216 Z" id="Fill-46" fill="#000000" mask="url(#mask-6)"></path>
                    <polygon id="Fill-47" fill="#000000" mask="url(#mask-6)" points="31.02864 64.97376 31.88432 64.97376 31.88432 61.24272 31.02864 61.24272"></polygon>
                    <path d="M33.211152,64.97376 L33.211152,63.03552 C33.341232,62.91184 33.595632,62.75168 33.930512,62.75168 C34.190832,62.75168 34.327472,62.86496 34.327472,63.2272 L34.327472,64.97376 L35.096272,64.97376 L35.096272,63.1336 C35.096272,62.5864 34.786352,62.2352 34.141392,62.2352 C33.762992,62.2352 33.434672,62.41056 33.148912,62.57584 L33.148912,62.28512 L32.442192,62.28512 L32.442192,64.97376 L33.211152,64.97376 Z" id="Fill-48" fill="#000000" mask="url(#mask-6)"></path>
                    <path d="M37.701824,62.643232 C37.422944,62.369312 36.995104,62.235072 36.566944,62.235072 C36.008864,62.235072 35.500384,62.513632 35.500384,63.014752 C35.500384,63.950112 37.112864,63.784832 37.112864,64.244832 C37.112864,64.425952 36.926784,64.550272 36.653824,64.550272 C36.325184,64.550272 36.083424,64.369152 35.903744,64.162432 L35.389024,64.482912 C35.674144,64.834112 36.095744,65.025152 36.610464,65.025152 C37.286624,65.025152 37.794944,64.777312 37.794944,64.219232 C37.794944,63.237152 36.182624,63.433632 36.182624,62.973952 C36.182624,62.813632 36.318944,62.710112 36.616704,62.710112 C36.858784,62.710112 37.063424,62.854912 37.218304,62.994592 L37.701824,62.643232 Z" id="Fill-49" fill="#000000" mask="url(#mask-6)"></path>
                    <path d="M40.046128,62.285216 L40.046128,64.224096 C39.916048,64.348256 39.661648,64.508736 39.326768,64.508736 C39.066128,64.508736 38.929808,64.395136 38.929808,64.033216 L38.929808,62.285216 L38.161008,62.285216 L38.161008,64.125856 C38.161008,64.673696 38.470768,65.025216 39.115888,65.025216 C39.493968,65.025216 39.822608,64.849536 40.107888,64.684256 L40.107888,64.973696 L40.815088,64.973696 L40.815088,62.285216 L40.046128,62.285216 Z" id="Fill-50" fill="#000000" mask="url(#mask-6)"></path>
                    <path d="M42.087296,64.97376 L42.087296,63.3408 C42.087296,63.27344 42.422176,62.90656 42.806496,62.90656 C42.862656,62.90656 42.906016,62.90656 42.942976,62.91184 L42.942976,62.2352 C42.484256,62.24512 42.223616,62.42624 42.037536,62.74624 L42.025216,62.74624 L42.025216,62.28512 L41.318496,62.28512 L41.318496,64.97376 L42.087296,64.97376 Z" id="Fill-51" fill="#000000" mask="url(#mask-6)"></path>
                    <path d="M45.582224,64.97376 C45.532624,64.85472 45.520144,64.72048 45.520144,64.58624 L45.520144,63.32 C45.520144,62.51376 45.148144,62.2504 44.279984,62.2352 C43.808784,62.22448 43.275184,62.4416 43.076784,62.72544 L43.573264,63.0408 C43.722064,62.87024 43.920144,62.71008 44.279984,62.71008 C44.552784,62.71008 44.751184,62.82368 44.751184,63.03088 L44.751184,63.25776 C43.498864,63.38208 42.903024,63.70224 42.903024,64.31232 C42.903024,64.67936 43.194864,65.02528 43.777584,65.02528 C44.180784,65.02528 44.471984,64.91696 44.782224,64.74112 L44.831984,64.97376 L45.582224,64.97376 Z M44.751184,64.26544 C44.590064,64.3792 44.286224,64.55024 44.044144,64.55024 C43.827184,64.55024 43.672304,64.436 43.672304,64.23488 C43.672304,63.85712 44.236784,63.7696 44.751184,63.68688 L44.751184,64.26544 Z" id="Fill-52" fill="#000000" mask="url(#mask-6)"></path>
                    <path d="M46.818224,64.97376 L46.818224,63.03552 C46.948304,62.91184 47.202864,62.75168 47.537424,62.75168 C47.797904,62.75168 47.934224,62.86496 47.934224,63.2272 L47.934224,64.97376 L48.703184,64.97376 L48.703184,63.1336 C48.703184,62.5864 48.393424,62.2352 47.748144,62.2352 C47.370064,62.2352 47.041424,62.41056 46.756144,62.57584 L46.756144,62.28512 L46.049264,62.28512 L46.049264,64.97376 L46.818224,64.97376 Z" id="Fill-53" fill="#000000" mask="url(#mask-6)"></path>
                    <path d="M51.681072,62.9532 C51.501072,62.5036 51.017712,62.23512 50.409872,62.23512 C49.535312,62.23512 49.008432,62.77752 49.008432,63.62984 C49.008432,64.4828 49.535312,65.0252 50.409872,65.0252 C50.999152,65.03048 51.389552,64.834 51.699312,64.35368 L51.116432,64.0796 C50.961552,64.31752 50.769392,64.50872 50.434672,64.50872 C49.981552,64.50872 49.777232,64.22952 49.777232,63.62984 C49.777232,63.0308 49.981552,62.7516 50.409872,62.7516 C50.781712,62.7516 50.918032,62.93272 51.042352,63.1596 L51.681072,62.9532 Z" id="Fill-54" fill="#000000" mask="url(#mask-6)"></path>
                    <path d="M52.63784,63.299344 C52.65016,62.927184 52.88584,62.710064 53.25768,62.710064 C53.62984,62.710064 53.86584,62.927184 53.87784,63.299344 L52.63784,63.299344 Z M54.58488,63.733744 L54.58488,63.469904 C54.58488,62.823824 54.11368,62.229904 53.27,62.235184 C52.39608,62.235184 51.86888,62.777584 51.86888,63.630064 C51.86888,64.482864 52.39608,65.025264 53.23304,65.025264 C53.85304,65.025264 54.28744,64.860144 54.58488,64.477264 L54.0268,64.187984 C53.83448,64.374544 53.66728,64.508784 53.30744,64.508784 C52.94792,64.508784 52.65016,64.291664 52.63784,63.733744 L54.58488,63.733744 Z" id="Fill-55" fill="#000000" mask="url(#mask-6)"></path>
                </g>
            </g>
        </g>
    </g>
</svg>