<?xml version="1.0" encoding="UTF-8"?>
<svg width="92px" height="92px" viewBox="0 0 92 92" version="1.1" xmlns="http://www.w3.org/2000/svg" xmlns:xlink="http://www.w3.org/1999/xlink">
    <title>image/logo/insurance/tokyomarinekumpai</title>
    <defs>
        <radialGradient cx="40.6794703%" cy="24.7799566%" fx="40.6794703%" fy="24.7799566%" r="76.0903708%" gradientTransform="translate(0.406795,0.247800),scale(1.000000,0.994317),rotate(60.907628),scale(1.000000,0.985428),translate(-0.406795,-0.247800)" id="radialGradient-1">
            <stop stop-color="#FFFFFF" offset="0%"></stop>
            <stop stop-color="#F4EAC5" offset="21.0297698%"></stop>
            <stop stop-color="#DBB254" offset="42.0595396%"></stop>
            <stop stop-color="#B28624" offset="63.5289759%"></stop>
            <stop stop-color="#8C681D" offset="81.5201766%"></stop>
            <stop stop-color="#6C531A" offset="100%"></stop>
        </radialGradient>
        <radialGradient cx="24.253417%" cy="32.166422%" fx="24.253417%" fy="32.166422%" r="82.7443485%" gradientTransform="translate(0.242534,0.321664),scale(1.000000,0.997348),rotate(55.283202),scale(1.000000,0.985428),translate(-0.242534,-0.321664)" id="radialGradient-2">
            <stop stop-color="#FFFFFF" offset="0%"></stop>
            <stop stop-color="#A7D9F5" offset="21.0297698%"></stop>
            <stop stop-color="#00A0E0" offset="42.0595396%"></stop>
            <stop stop-color="#0083B9" offset="63.5289759%"></stop>
            <stop stop-color="#006996" offset="80.868765%"></stop>
            <stop stop-color="#005F89" offset="100%"></stop>
        </radialGradient>
    </defs>
    <g id="Symbols" stroke="none" stroke-width="1" fill="none" fill-rule="evenodd">
        <g id="image/logo/insurance/tokyomarinekumpai">
            <rect id="Mask" stroke="#EBEBEB" fill="#FFFFFF" x="0.5" y="0.5" width="91" height="91" rx="12"></rect>
            <g id="image/logo/square-big/allianz-ayudhya-copy-11" transform="translate(6.000000, 6.000000)">
                <polygon id="Fill-1" fill="#231F20" points="15.68 43.7039324 64.21968 43.7039324 64.21968 43.5661724 15.68 43.5661724"></polygon>
                <g id="Group-54" transform="translate(15.680064, 36.970903)" fill="#231F20">
                    <path d="M1.41392,3.80222959 C1.41392,4.07534959 1.39152,4.39742959 1.14512,4.49070959 L1.12096,4.50030959 L1.12096,4.58446959 L2.51936,4.58446959 L2.51936,4.50430959 L2.49968,4.49374959 C2.1776,4.30446959 2.172,4.07038959 2.172,3.71982959 L2.172,0.671029588 L2.7344,0.671029588 C2.94368,0.671029588 3.19264,0.698709588 3.27184,0.914229588 L3.2824,0.937749588 L3.35744,0.937749588 L3.59152,0.0676695885 L3.51472,0.0676695885 C3.4392,0.105589588 3.34992,0.115349588 3.21504,0.115349588 L0.55792,0.115349588 C0.49296,0.115349588 0.36848,0.0935895885 0.31152,0.0676695885 L0.2544,0.0676695885 L0,0.937749588 L0.0848,0.937749588 C0.2656,0.764309588 0.55056,0.671029588 0.86512,0.671029588 L1.41392,0.671029588 L1.41392,3.80222959 Z" id="Fill-2"></path>
                    <path d="M4.385536,0.711077588 C3.935936,1.15059759 3.688096,1.72563759 3.688096,2.33587759 C3.688096,3.67907759 4.752096,4.69107759 6.163616,4.69107759 C7.563456,4.69107759 8.659136,3.64243759 8.659136,2.30339759 C8.659136,1.69987759 8.420576,1.13091759 7.986496,0.698757588 C7.531296,0.245317588 6.907616,-0.00236241154 6.230656,0.000677588464 C5.527616,-0.0148424115 4.872416,0.236677588 4.385536,0.711077588 M4.525536,2.27651759 C4.525536,1.26419759 5.208096,0.558117588 6.184096,0.558117588 C7.246976,0.558117588 7.821696,1.52579759 7.821696,2.43651759 C7.821696,3.43587759 7.155296,4.13459759 6.197696,4.13459759 C5.164736,4.13459759 4.525536,3.16963759 4.525536,2.27651759" id="Fill-4"></path>
                    <path d="M10.383952,3.69416559 L10.383952,1.00088559 C10.379632,0.708565588 10.375312,0.309045588 10.658992,0.208725588 L10.684272,0.199445588 L10.684272,0.115285588 L9.325552,0.115285588 L9.325552,0.199125588 L9.350192,0.208725588 C9.635152,0.313525588 9.630192,0.711125588 9.627152,1.00088559 L9.627152,3.69256559 C9.630192,3.98488559 9.635152,4.38504559 9.350192,4.49064559 L9.325552,4.50024559 L9.325552,4.58440559 L10.684272,4.58440559 L10.684272,4.50024559 L10.659632,4.49064559 C10.375312,4.38504559 10.379632,3.98584559 10.383952,3.69416559" id="Fill-6"></path>
                    <path d="M13.311616,4.49219759 C12.957376,4.31843759 12.715776,4.12931759 12.523776,3.87475759 C12.523776,3.87475759 11.350816,2.33411759 11.194656,2.12995759 C11.228736,2.08691759 12.632896,0.280677588 12.761696,0.115237588 L11.443616,0.115237588 L11.443616,0.197317588 L11.465376,0.206917588 C11.565056,0.250917588 11.621376,0.306917588 11.639456,0.376677588 C11.680256,0.533957588 11.516736,0.755077588 11.372416,0.948197588 L11.276416,1.07827759 L10.385216,2.26259759 L11.885216,4.28227759 C12.015936,4.46003759 12.338656,4.58451759 12.666816,4.58451759 L13.334016,4.58451759 L13.334016,4.50211759 L13.311616,4.49219759 Z" id="Fill-8"></path>
                    <path d="M13.579824,0.115285588 L13.579824,0.199125588 L13.603984,0.208725588 C13.885104,0.312245588 13.879504,0.689685588 13.873904,0.992885588 L13.873904,3.70008559 C13.877104,3.99080559 13.881424,4.39128559 13.605264,4.49064559 L13.579824,4.49960559 L13.579824,4.58440559 L14.924464,4.58440559 L14.924464,4.50024559 L14.899664,4.49064559 C14.621584,4.38504559 14.627184,3.98904559 14.630224,3.70008559 L14.630224,1.00616559 C14.627184,0.713525588 14.621584,0.313525588 14.899664,0.208725588 L14.924464,0.199125588 L14.924464,0.115285588 L13.579824,0.115285588 Z" id="Fill-10"></path>
                    <path d="M37.648416,0.115285588 L37.648416,0.199125588 L37.673216,0.208725588 C37.953696,0.312245588 37.948096,0.689685588 37.943136,0.992885588 L37.943136,3.70008559 C37.945696,3.99080559 37.950656,4.39128559 37.673856,4.49064559 L37.648416,4.49960559 L37.648416,4.58440559 L38.993056,4.58440559 L38.993056,4.50024559 L38.968256,4.49064559 C38.690176,4.38504559 38.695776,3.98904559 38.698816,3.70008559 L38.698816,1.00616559 C38.695776,0.713525588 38.690176,0.313525588 38.968256,0.208725588 L38.993056,0.199125588 L38.993056,0.115285588 L37.648416,0.115285588 Z" id="Fill-12"></path>
                    <path d="M16.291344,0.711077588 C15.841104,1.15059759 15.593264,1.72563759 15.593264,2.33587759 C15.593264,3.67907759 16.657424,4.69107759 18.069424,4.69107759 C19.467984,4.69107759 20.563664,3.64243759 20.563664,2.30339759 C20.563664,1.69987759 20.325104,1.13091759 19.891664,0.698757588 C19.435824,0.245317588 18.812784,-0.00236241154 18.136304,0.000677588464 C17.432144,-0.0148424115 16.776944,0.236677588 16.291344,0.711077588 M16.431344,2.27651759 C16.431344,1.26419759 17.113264,0.558117588 18.089904,0.558117588 C19.153424,0.558117588 19.727504,1.52579759 19.727504,2.43651759 C19.727504,3.43587759 19.059184,4.13459759 18.102864,4.13459759 C17.069904,4.13459759 16.431344,3.16963759 16.431344,2.27651759" id="Fill-14"></path>
                    <path d="M27.112016,0.562101588 L27.551856,3.84098159 C27.591376,4.14882159 27.624176,4.31778159 27.877456,4.49506159 L27.892976,4.50674159 L27.892976,4.58450159 L26.528656,4.58450159 L26.528656,4.49810159 L26.555856,4.49042159 C26.760176,4.42562159 26.803536,4.25842159 26.803536,4.02962159 C26.803536,4.02962159 26.472816,1.23634159 26.440656,0.962581588 C26.337776,1.22482159 24.980816,4.69410159 24.980816,4.69410159 L24.940656,4.66338159 C24.608656,4.41042159 24.507056,4.22738159 24.341136,3.84098159 C24.341136,3.84098159 23.226736,1.19442159 23.127056,0.957621588 C23.093616,1.20850159 22.761616,3.71826159 22.761616,3.71826159 C22.741936,3.86018159 22.725776,3.98370159 22.725776,4.08930159 C22.725776,4.27730159 22.777136,4.41170159 22.956176,4.49218159 L22.979056,4.50146159 L22.979056,4.58450159 L21.814096,4.58450159 L21.814096,4.50994159 L21.826416,4.49714159 C22.088496,4.26738159 22.132336,3.96770159 22.183216,3.62082159 C22.183216,3.62082159 22.188816,3.58578159 22.188816,3.58674159 L22.569136,0.788501588 L22.576496,0.738741588 C22.606256,0.553141588 22.639056,0.346261588 22.381456,0.206901588 L22.361616,0.194581588 L22.361616,0.115221588 L23.607696,0.115221588 C23.591536,0.212821588 23.640656,0.309461588 23.696976,0.445461588 C23.696976,0.445461588 24.846416,3.14258159 24.914576,3.30434159 C24.978896,3.14226159 25.990416,0.560181588 25.990416,0.560181588 C26.044176,0.419061588 26.087696,0.293301588 26.087696,0.158581588 L26.087696,0.115221588 L27.320176,0.115221588 L27.320176,0.201941588 C27.172016,0.217141588 27.094576,0.409461588 27.112016,0.562101588" id="Fill-16"></path>
                    <path d="M30.877024,0.115285588 L29.759104,0.115285588 L29.759104,0.199445588 L29.785024,0.209365588 C29.868064,0.233205588 29.920064,0.271925588 29.946144,0.325845588 C29.997504,0.434165588 29.931904,0.600565588 29.874304,0.747605588 L28.710624,3.65912559 C28.581024,3.99864559 28.459104,4.32184559 28.116544,4.49224559 L28.096064,4.50216559 L28.096064,4.58440559 L29.401664,4.58440559 L29.401664,4.50024559 L29.376384,4.49064559 C29.269824,4.45064559 29.206624,4.40232559 29.179424,4.34104559 C29.166944,4.31384559 29.160224,4.28040559 29.160224,4.24408559 C29.160224,4.14232559 29.206624,4.00840559 29.264864,3.85240559 C29.264864,3.85240559 29.550944,3.07912559 29.602944,2.93448559 L31.233184,2.93448559 L31.615264,3.93256559 C31.684064,4.10968559 31.724864,4.21448559 31.724864,4.29000559 C31.724864,4.38136559 31.662304,4.42344559 31.510624,4.49224559 L31.487744,4.50152559 L31.487744,4.58440559 L32.933344,4.58440559 L32.933344,4.50392559 L32.912224,4.49224559 C32.576544,4.32184559 32.448864,4.00072559 32.314464,3.66040559 L30.877024,0.115285588 Z M30.410624,0.823765588 C30.471424,0.981685588 30.973664,2.27304559 31.009504,2.36472559 L29.806144,2.36472559 C29.842144,2.27304559 30.349344,0.981685588 30.410624,0.823765588 L30.410624,0.823765588 Z" id="Fill-18"></path>
                    <path d="M34.323744,0.652853588 C34.485344,0.626453588 34.616704,0.610133588 34.741184,0.604533588 C34.981504,0.593973588 35.206944,0.672373588 35.360544,0.819733588 C35.493664,0.946453588 35.563744,1.11525359 35.563744,1.30805359 C35.563744,1.95941359 34.860064,2.16261359 34.440864,2.22501359 L34.382624,2.23285359 L35.029184,3.22437359 C35.030944,3.22821359 35.846144,4.23637359 35.846144,4.23637359 C36.049184,4.48789359 36.273504,4.58453359 36.650624,4.58453359 L37.396384,4.58453359 L37.285504,4.51413359 C36.870464,4.25125359 36.470464,3.90661359 36.211424,3.58677359 C36.211424,3.58677359 35.454624,2.63541359 35.285024,2.42293359 C35.809024,2.27925359 36.321184,1.83493359 36.321184,1.22789359 C36.321184,0.551253588 35.763744,0.115253588 34.900384,0.115253588 L33.273984,0.115253588 L33.273984,0.199253588 L33.297504,0.208693588 C33.577984,0.312213588 33.566304,0.675253588 33.566304,0.992853588 L33.566304,3.71061359 C33.569984,3.99861359 33.577984,4.39125359 33.298784,4.49061359 L33.273984,4.49957359 L33.273984,4.58453359 L34.624064,4.58453359 L34.624064,4.49957359 L34.599904,4.49061359 C34.347264,4.40117359 34.323104,4.07717359 34.323104,3.80133359 L34.323744,0.652853588 Z" id="Fill-20"></path>
                    <path d="M44.51704,0.115285588 L44.51704,0.194485588 L44.4996,0.205685588 C44.17144,0.394645588 44.17144,0.641685588 44.17144,1.01368559 L44.17144,4.81304559 L44.11944,4.79688559 C43.62136,4.62792559 43.41272,4.39128559 43.1284,4.02248559 C43.1284,4.02248559 41.03256,1.36568559 40.90616,1.20408559 L40.90616,3.71864559 C40.90616,4.07048559 40.91176,4.30456559 41.2332,4.49384559 L41.2524,4.50424559 L41.2524,4.58440559 L39.99512,4.58440559 L39.99512,4.50424559 L40.01432,4.49384559 C40.35,4.29704559 40.35,4.05128559 40.35,3.67896559 L40.35,1.01368559 C40.35,0.641685588 40.35,0.394645588 40.0212,0.205685588 L40.002,0.194485588 L40.002,0.115285588 L41.0444,0.115285588 C41.03992,0.192085588 41.15032,0.322485588 41.2388,0.436725588 C41.2388,0.436725588 43.48648,3.27400559 43.614,3.43496559 L43.614,0.973365588 C43.614,0.621845588 43.60776,0.387765588 43.28568,0.206965588 L43.26712,0.194485588 L43.26712,0.115285588 L44.51704,0.115285588 Z" id="Fill-22"></path>
                    <path d="M47.537552,0.115285588 L45.362992,0.115285588 L45.362992,0.199445588 L45.388432,0.208725588 C45.673392,0.313525588 45.667792,0.713525588 45.665232,1.00616559 L45.665232,3.69848559 C45.667792,3.99080559 45.673392,4.39128559 45.389072,4.49064559 L45.362992,4.49960559 L45.362992,4.58440559 L48.212752,4.58440559 L48.539632,3.63416559 L48.451152,3.63416559 L48.440592,3.64312559 C48.122832,3.92424559 47.670672,4.06792559 47.234672,4.02888559 C47.234672,4.02888559 46.484112,3.95640559 46.420272,3.95160559 L46.420272,2.44152559 L46.897232,2.44152559 C47.097872,2.44024559 47.346192,2.44024559 47.437872,2.60936559 L47.447792,2.62824559 L47.529552,2.62824559 L47.529552,1.84440559 L47.462032,1.84440559 L47.454672,1.84856559 C47.382032,1.88504559 47.276752,1.88504559 47.177712,1.88504559 L46.420272,1.88504559 L46.420272,0.713525588 C46.629552,0.679125588 46.851952,0.672405588 47.063792,0.672405588 C47.348752,0.672405588 47.621232,0.691925588 47.823152,0.924725588 L47.834192,0.938645588 L47.910992,0.938645588 L47.910992,0.0818455885 L47.842992,0.0818455885 C47.752432,0.130805588 47.650352,0.115285588 47.537552,0.115285588" id="Fill-24"></path>
                    <path d="M1.213264,8.36256559 L1.233104,8.36992559 C1.436784,8.44576559 1.432464,8.72144559 1.429424,8.94320559 C1.428784,8.96880559 1.428784,8.99360559 1.428784,9.01712559 L1.428784,10.8616056 C1.428784,10.8820856 1.428784,10.9036856 1.429424,10.9265656 C1.431824,11.1396856 1.435024,11.4308856 1.233104,11.5038456 L1.213264,11.5107256 L1.213264,11.5763256 L2.202384,11.5763256 L2.202384,11.5113656 L2.183184,11.5038456 C1.980624,11.4270456 1.984304,11.1377656 1.986224,10.9265656 C1.986864,10.9036856 1.986864,10.8820856 1.986864,10.8616056 L1.986864,9.01712559 C1.986864,8.99680559 1.986864,8.97504559 1.986224,8.95216559 C1.984304,8.73904559 1.980624,8.44672559 2.183184,8.36992559 L2.202384,8.36256559 L2.202384,8.29744559 L1.213264,8.29744559 L1.213264,8.36256559 Z" id="Fill-26"></path>
                    <path d="M5.263808,8.35946159 L5.278688,8.36810159 C5.518368,8.50346159 5.518368,8.67866159 5.517728,8.94346159 L5.517728,10.7273016 L3.781728,8.53530159 L3.711008,8.43498159 C3.678848,8.39850159 3.661568,8.37674159 3.644768,8.32730159 L3.644768,8.29754159 L2.871168,8.29754159 L2.871168,8.35946159 L2.886048,8.36778159 C3.125728,8.50586159 3.125728,8.68618159 3.125728,8.95834159 L3.125728,10.9105016 C3.125728,11.1829816 3.125728,11.3633016 2.881088,11.5063416 L2.866208,11.5145016 L2.866208,11.5762616 L3.791648,11.5762616 L3.791648,11.5145016 L3.776768,11.5063416 C3.537088,11.3657016 3.537088,11.1905016 3.537088,10.9253816 L3.537088,9.10266159 L5.162208,11.1633016 C5.370848,11.4338616 5.523968,11.6073016 5.890528,11.7311416 L5.929568,11.7442616 L5.929568,8.95834159 C5.929568,8.68618159 5.929568,8.50586159 6.169248,8.36778159 L6.184128,8.35946159 L6.184128,8.29754159 L5.263808,8.29754159 L5.263808,8.35946159 Z" id="Fill-28"></path>
                    <path d="M8.109712,9.67062959 C7.734352,9.49926959 7.380112,9.33734959 7.380112,9.04662959 C7.380112,8.74006959 7.703952,8.63126959 7.981552,8.63126959 C8.257712,8.63126959 8.551312,8.74838959 8.727792,8.93046959 L8.779152,8.98246959 L8.779152,8.33494959 L8.758192,8.32854959 C8.526512,8.25606959 8.278832,8.21942959 8.020592,8.21942959 C7.440112,8.21942959 6.763152,8.45014959 6.763152,9.10054959 C6.763152,9.67798959 7.270512,9.90470959 7.718352,10.1053496 C8.092272,10.2725496 8.446032,10.4304696 8.446032,10.7637496 C8.446032,11.0765496 8.057072,11.2431096 7.775792,11.2431096 C7.406192,11.2431096 7.012912,11.0938296 6.724272,10.8437496 L6.654832,10.7842296 L6.820912,11.5002296 L6.836272,11.5056696 C7.103792,11.6042296 7.401872,11.6544696 7.722032,11.6544696 C8.461552,11.6544696 9.062832,11.1867896 9.062832,10.6120696 C9.062832,10.1066296 8.556272,9.87494959 8.109712,9.67062959" id="Fill-30"></path>
                    <path d="M15.4292,10.8430456 L14.75352,9.99328559 C15.13624,9.88736559 15.50904,9.55984559 15.50904,9.11504559 C15.50904,8.61840559 15.09976,8.29744559 14.46664,8.29744559 L13.27256,8.29744559 L13.27256,8.36256559 L13.29176,8.36992559 C13.49624,8.44576559 13.49192,8.72176559 13.48872,8.94352559 C13.48808,8.96880559 13.48808,8.99392559 13.48808,9.01712559 L13.48808,10.8616056 C13.48808,10.8844856 13.48808,10.9086456 13.48872,10.9340856 C13.49192,11.1440056 13.49624,11.4313656 13.2924,11.5032056 L13.27256,11.5107256 L13.27256,11.5763256 L14.26664,11.5763256 L14.26664,11.5107256 L14.2468,11.5032056 C14.04008,11.4308856 14.04312,11.1396856 14.04552,10.9265656 C14.04616,10.9043256 14.04616,10.8827256 14.04616,10.8616056 L14.04616,8.69520559 C14.16456,8.67504559 14.25928,8.66448559 14.35032,8.66048559 C14.64568,8.64784559 14.95048,8.82368559 14.95048,9.17392559 C14.95048,9.64960559 14.4364,9.79824559 14.1292,9.84400559 L14.08392,9.85088559 L14.56088,10.5816056 L15.158,11.3204856 C15.30712,11.5044856 15.47256,11.5763256 15.74808,11.5763256 L16.3012,11.5763256 L16.20584,11.5348856 C15.94392,11.4462456 15.61752,11.0758456 15.4292,10.8430456" id="Fill-32"></path>
                    <path d="M18.115296,9.94619759 L17.238976,9.94619759 L17.679296,8.82491759 L18.115296,9.94619759 Z M19.075936,10.8962776 L18.022496,8.29755759 L17.199936,8.29755759 L17.199936,8.36379759 L17.221056,8.37035759 C17.280416,8.38923759 17.318176,8.41675759 17.336096,8.45515759 C17.374656,8.53387759 17.326336,8.65547759 17.284736,8.76235759 L16.458016,10.8263576 L16.431936,10.8949976 C16.337856,11.1445976 16.243616,11.4277976 15.998496,11.5231576 L15.981696,11.5130776 L15.981696,11.5762776 L16.941056,11.5762776 L16.941056,11.5106776 L16.921856,11.5039576 C16.793056,11.4556376 16.770656,11.3973976 16.765696,11.3465176 C16.757696,11.2692376 16.795456,11.1613976 16.841376,11.0381976 L17.089056,10.3679576 L18.280736,10.3679576 L18.537056,11.0388376 L18.559936,11.0981976 C18.674656,11.3911576 18.683936,11.4153176 18.484416,11.5045976 L18.467136,11.5125976 L18.467136,11.5762776 L19.529216,11.5762776 L19.529216,11.5130776 L19.513216,11.5050776 C19.267296,11.3805976 19.174496,11.1452376 19.075936,10.8962776 L19.075936,10.8962776 Z" id="Fill-34"></path>
                    <path d="M22.017232,8.35946159 L22.032752,8.36810159 C22.271792,8.50378159 22.271792,8.67866159 22.271792,8.94346159 L22.271792,10.7273016 L20.535152,8.53530159 L20.464432,8.43498159 C20.432912,8.39850159 20.414992,8.37674159 20.398832,8.32730159 L20.398832,8.29754159 L19.625232,8.29754159 L19.625232,8.35946159 L19.640112,8.36778159 C19.879152,8.50586159 19.879152,8.68618159 19.879152,8.95834159 L19.879152,10.9105016 C19.879152,11.1829816 19.879152,11.3633016 19.634672,11.5063416 L19.620272,11.5145016 L19.620272,11.5762616 L20.545072,11.5762616 L20.545072,11.5145016 L20.530832,11.5063416 C20.291152,11.3657016 20.291152,11.1905016 20.291152,10.9253816 L20.291152,9.10266159 L21.915632,11.1633016 C22.124912,11.4338616 22.278032,11.6073016 22.643952,11.7311416 L22.683632,11.7442616 L22.683632,8.95834159 C22.683632,8.68618159 22.683632,8.50586159 22.922672,8.36778159 L22.937552,8.35946159 L22.937552,8.29754159 L22.017232,8.29754159 L22.017232,8.35946159 Z" id="Fill-36"></path>
                    <path d="M26.273392,10.8845176 C26.030032,11.0238776 25.654672,11.1886776 25.245872,11.1886776 C24.554032,11.1886776 24.032592,10.6169976 24.032592,9.85827759 C24.032592,9.16771759 24.491632,8.68499759 25.148112,8.68499759 C25.447792,8.68499759 25.754992,8.77971759 26.036752,8.95923759 L26.082672,8.98803759 L26.082672,8.34803759 L26.059792,8.34243759 C25.705392,8.25843759 25.420592,8.21955759 25.162352,8.21955759 C24.134192,8.21955759 23.415792,8.92371759 23.415792,9.93203759 C23.415792,10.9941176 24.142832,11.6544376 25.314032,11.6544376 C25.600752,11.6544376 25.853552,11.6041976 26.065232,11.5051576 L26.075792,11.5001976 L26.347792,10.8808376 L26.279632,10.8808376 L26.273392,10.8845176 Z" id="Fill-38"></path>
                    <path d="M29.043136,10.8833176 C28.836256,11.0653976 28.553216,11.1693976 28.266496,11.1693976 C28.231136,11.1693976 28.195296,11.1676376 28.161216,11.1644376 L27.566016,11.1087576 L27.566016,10.0057176 L27.928256,10.0057176 C28.086176,10.0057176 28.246016,10.0149976 28.307936,10.1276376 L28.316576,10.1425176 L28.378656,10.1425176 L28.378656,9.56475759 L28.334016,9.56475759 L28.320896,9.56779759 C28.268256,9.59435759 28.192096,9.59435759 28.119136,9.59435759 L27.566016,9.59435759 L27.566016,8.73883759 C27.717696,8.71307759 27.880576,8.70939759 28.036096,8.70939759 C28.244096,8.70939759 28.442976,8.72363759 28.590336,8.89451759 L28.599136,8.90507759 L28.657216,8.90507759 L28.657216,8.27339759 L28.605216,8.27339759 L28.598496,8.27675759 C28.550656,8.30251759 28.489536,8.29963759 28.429376,8.29819759 C28.413856,8.29819759 28.398336,8.29755759 28.382976,8.29755759 L26.787456,8.29755759 L26.787456,8.36251759 L26.807296,8.37003759 C27.014176,8.44715759 27.010976,8.73915759 27.008576,8.95195759 C27.008576,8.97483759 27.007936,8.99643759 27.007936,9.01723759 L27.007936,10.8615576 C27.007936,10.8820376 27.008576,10.9031576 27.008576,10.9253976 C27.010976,11.1391576 27.014176,11.4308376 26.807296,11.5033176 L26.787456,11.5106776 L26.787456,11.5762776 L28.878336,11.5762776 L29.119296,10.8759576 L29.051776,10.8759576 L29.043136,10.8833176 Z" id="Fill-40"></path>
                    <path d="M33.547088,11.2852856 L33.547088,10.1326456 C33.547088,10.0608056 33.547088,9.98704559 33.569328,9.93376559 L33.571888,9.87808559 L32.763568,9.87808559 L32.763568,9.94256559 L32.782128,9.94992559 C32.973488,10.0260856 32.989008,10.2243256 32.989008,10.4752056 L32.989008,11.1571256 C32.786608,11.2134456 32.562288,11.2432056 32.338768,11.2432056 C31.570128,11.2432056 30.968688,10.6480056 30.968688,9.88800559 C30.968688,9.14784559 31.510128,8.63136559 32.284848,8.63136559 C32.463888,8.63136559 32.904848,8.65856559 33.133328,8.91472559 L33.141968,8.92464559 L33.199568,8.92464559 L33.199568,8.30800559 L33.176048,8.30304559 C32.909808,8.24672559 32.656528,8.21952559 32.401808,8.21952559 C31.175568,8.21952559 30.351888,8.91744559 30.351888,9.95680559 C30.351888,10.9880056 31.145328,11.6544056 32.372848,11.6544056 C32.761808,11.6544056 33.129648,11.5856056 33.518608,11.5126456 L33.583568,11.5001656 L33.569328,11.4660856 C33.545808,11.4116856 33.546448,11.3478456 33.547088,11.2852856" id="Fill-42"></path>
                    <path d="M36.449312,10.8430456 L35.773632,9.99328559 C36.156352,9.88736559 36.529152,9.55984559 36.529152,9.11504559 C36.529152,8.61840559 36.120512,8.29744559 35.486912,8.29744559 L34.292832,8.29744559 L34.292832,8.36256559 L34.312512,8.36992559 C34.516352,8.44576559 34.512032,8.72144559 34.508992,8.94320559 C34.508352,8.96880559 34.508352,8.99360559 34.508352,9.01712559 L34.508352,10.8616056 C34.508352,10.8844856 34.508352,10.9086456 34.508992,10.9340856 C34.512032,11.1440056 34.516352,11.4320056 34.312512,11.5032056 L34.292832,11.5107256 L34.292832,11.5763256 L35.286752,11.5763256 L35.286752,11.5107256 L35.267072,11.5032056 C35.060192,11.4308856 35.063872,11.1396856 35.066272,10.9265656 L35.066272,10.8616056 L35.066272,8.69488559 C35.185312,8.67504559 35.279392,8.66448559 35.371072,8.66048559 C35.665152,8.64624559 35.971232,8.82368559 35.971232,9.17392559 C35.971232,9.64960559 35.456512,9.79824559 35.149952,9.84400559 L35.104192,9.85088559 L35.581632,10.5816056 L36.178112,11.3204856 C36.327392,11.5044856 36.492672,11.5763256 36.768992,11.5763256 L37.321312,11.5763256 L37.234592,11.5212856 C36.931232,11.3299256 36.637632,11.0758456 36.449312,10.8430456" id="Fill-44"></path>
                    <path d="M39.012816,11.2431736 C38.257136,11.2431736 37.789616,10.5370936 37.789616,9.88301359 C37.789616,9.14285359 38.288816,8.62637359 39.002896,8.62637359 C39.781456,8.62637359 40.201456,9.33437359 40.201456,10.0007736 C40.201456,10.7321336 39.712016,11.2431736 39.012816,11.2431736 M39.046896,8.21453359 L39.037616,8.21453359 C38.013776,8.19037359 37.172816,8.96765359 37.172816,9.92701359 C37.172816,10.9118136 37.953136,11.6543736 38.988016,11.6543736 C40.014256,11.6543736 40.818256,10.8850936 40.818256,9.90285359 C40.818256,8.95581359 40.039696,8.21453359 39.046896,8.21453359" id="Fill-46"></path>
                    <path d="M44.327472,8.36997359 L44.354672,8.36005359 L44.333712,8.29749359 L43.353232,8.29749359 L43.353232,8.36261359 L43.372432,8.36997359 C43.574992,8.44677359 43.571792,8.73605359 43.568752,8.94709359 L43.568752,9.01221359 L43.568752,10.5067736 C43.568752,10.6707736 43.568752,10.7798936 43.470832,10.9130136 C43.326032,11.1192536 43.068432,11.2430936 42.781552,11.2430936 C42.278032,11.2430936 42.033392,10.9402136 42.033392,10.3184536 L42.033392,9.01221359 C42.033392,8.99189359 42.032752,8.97013359 42.032752,8.94709359 C42.030352,8.73605359 42.026672,8.44677359 42.229072,8.36997359 L42.248272,8.36261359 L42.248272,8.29749359 L41.259152,8.29749359 L41.259152,8.36261359 L41.278992,8.36997359 C41.483472,8.44581359 41.478512,8.73141359 41.475472,8.93973359 C41.475472,8.96517359 41.474832,8.98965359 41.474832,9.01221359 L41.474832,10.3555736 C41.474192,10.6968536 41.474192,11.0202136 41.731792,11.3026136 C41.937392,11.5261336 42.268112,11.6544536 42.639152,11.6544536 C42.939472,11.6544536 43.329072,11.5608536 43.568752,11.3050136 L43.568752,11.5763736 L44.347312,11.5763736 L44.347312,11.5106136 L44.327472,11.5038936 C44.120592,11.4264536 44.124272,11.1371736 44.126832,10.9254936 L44.126832,10.8616536 L44.126832,9.01717359 C44.126832,8.99637359 44.126832,8.97445359 44.126192,8.95189359 C44.124272,8.73909359 44.120592,8.44709359 44.327472,8.36997359" id="Fill-48"></path>
                    <path d="M46.176848,8.29749359 L44.957968,8.29749359 L44.957968,8.36229359 L44.976528,8.36965359 C45.179728,8.45077359 45.176688,8.74069359 45.174128,8.95221359 C45.173488,8.97509359 45.173488,8.99685359 45.173488,9.01717359 L45.173488,10.8616536 C45.173488,10.8819736 45.173488,10.9030936 45.174128,10.9254936 C45.176688,11.1390936 45.179728,11.4307736 44.972848,11.5032536 L44.953648,11.5106136 L44.953648,11.5763736 L45.986128,11.5763736 L45.986128,11.5144536 L45.971248,11.5058136 C45.731568,11.3701336 45.731568,11.1954136 45.731568,10.9304536 L45.731568,8.73413359 C45.834928,8.71733359 45.937808,8.70933359 46.044368,8.70933359 C46.292688,8.70933359 46.709488,8.78373359 46.709488,9.28133359 C46.709488,9.72453359 46.282768,9.98085359 45.861648,10.0050136 L45.850448,10.0614936 C45.952688,10.1102936 46.070448,10.1333336 46.220848,10.1333336 C46.764048,10.1333336 47.326288,9.77781359 47.326288,9.18341359 C47.326288,8.64565359 46.875568,8.29749359 46.176848,8.29749359" id="Fill-50"></path>
                    <path d="M12.359664,10.9254296 C12.359664,10.9030296 12.360304,10.8820696 12.360304,10.8615896 L12.360304,9.01726959 C12.360304,8.99646959 12.359664,8.97470959 12.359664,8.95182959 C12.357264,8.73902959 12.354224,8.44702959 12.560944,8.36990959 L12.575184,8.36478959 L12.575184,8.29742959 L11.586704,8.29742959 L11.586704,8.36254959 L11.605904,8.36990959 C11.807824,8.44670959 11.804784,8.73598959 11.802224,8.94718959 C11.801744,8.97006959 11.801744,8.99182959 11.801744,9.01230959 L11.801744,10.5067096 C11.801744,10.6715096 11.802224,10.7798296 11.704464,10.9129496 C11.559504,11.1191896 11.301264,11.2431896 11.014544,11.2431896 C10.510864,11.2431896 10.266384,10.9403096 10.266384,10.3183896 L10.266384,9.01230959 C10.266384,8.99182959 10.266384,8.97006959 10.265744,8.94718959 C10.263184,8.73598959 10.260144,8.44670959 10.462544,8.36990959 L10.481104,8.36254959 L10.481104,8.29742959 L9.492624,8.29742959 L9.492624,8.36254959 L9.511984,8.36990959 C9.716304,8.44590959 9.711984,8.73134959 9.708944,8.93982959 C9.708304,8.96526959 9.708304,8.98958959 9.708304,9.01230959 L9.708304,10.3555096 C9.707664,10.6967896 9.707024,11.0201496 9.965264,11.3025496 C10.170864,11.5262296 10.501744,11.6543896 10.872624,11.6543896 C11.172464,11.6543896 11.562544,11.5607896 11.801744,11.3051096 L11.801744,11.5763096 L12.580144,11.5763096 L12.580144,11.5107096 L12.560944,11.5038296 C12.354224,11.4263896 12.357264,11.1372696 12.359664,10.9254296" id="Fill-52"></path>
                </g>
                <g id="Group-27" transform="translate(26.240000, 5.440000)">
                    <path d="M2.34073841,10.5115432 C2.34073841,10.5115432 3.11396583,10.6510743 3.88840128,11.1854506 C4.66283672,11.719827 6.0526218,12.8594702 6.59776886,13.5506723 C7.14291591,14.2418744 7.86536695,14.9301093 8.26630983,15.4587455 C8.53360509,15.8111697 9.13713497,16.5753916 10.0768995,17.7514114 C9.79781234,15.2631016 9.65826877,14.0189468 9.65826877,14.0189468 C9.65826877,14.0189468 8.27623093,11.6169746 5.51215525,6.81303028 C5.0791365,6.43419236 4.70764671,6.16755329 4.39768588,6.01311307 C3.93274463,5.78145273 3.45106168,5.57186562 3.06023082,5.62806259 C2.74245428,5.70026141 2.44040931,5.73021176 2.10810569,6.24477341 C1.88656995,6.5878145 1.76087848,7.15909598 1.73103129,7.95861784 L1.89931514,10.6315986 C2.19359732,10.5515617 2.34073841,10.5115432 2.34073841,10.5115432 Z" id="Path-5" fill="#00567C"></path>
                    <path d="M9.82507409,5.34033129 C10.2813456,5.45126702 10.7309045,5.65504358 11.1737508,5.95166096 C11.8380202,6.39658704 13.1720832,7.37160673 13.9948556,8.33730659 C14.5433705,8.98110651 15.0978161,7.56939841 15.6581924,4.10218232 L14.7851209,2.82602697 C13.88366,2.00856878 13.1831329,1.43137401 12.6835398,1.09444266 C12.1583132,0.72274662 11.5887383,0.504680942 11.3812445,0.418666994 C11.1737508,0.332653046 10.574846,0.182116164 9.6831151,0.470883988 C9.1753006,0.75329291 8.89918876,1.08590012 8.85477956,1.46870563 L9.82507409,5.34033129 Z" id="Path-6" fill="#00567C"></path>
                    <ellipse id="Oval" fill="url(#radialGradient-1)" cx="20.9961601" cy="8.58282771" rx="7.16383994" ry="7.20478696"></ellipse>
                    <path d="M2.13727207,6.19143503 C1.92865432,6.79474841 1.86897949,7.43890794 1.95824758,8.12391362 C2.09214971,9.15142214 2.42571113,10.6673449 3.38860079,13.1875796 C4.35149046,15.7078143 5.17898017,17.3038021 5.5864217,18.0863955 C5.99386323,18.868989 7.33870855,21.2996616 8.11287008,22.4195553 C8.8870316,23.539449 9.63479036,24.6062766 10.5697123,25.6597452 C11.641672,26.7303828 12.4297929,27.3504678 12.9340749,27.52 C11.9159177,27.52 10.8519184,27.3480465 9.74207693,27.0041396 C8.07731471,26.4882791 6.88619506,25.9306823 5.5864217,24.6211714 C4.28664834,23.3116604 2.53161264,20.6201417 1.64524105,18.6516699 C0.758869455,16.683198 0.318621778,14.8732872 0.200693014,14.30682 C0.0827642487,13.7403528 -0.223197508,12.5421396 0.278483394,10.6984192 C0.780164296,8.85469881 1.04018858,7.98436219 2.13727207,6.19143503 Z M9.85891109,0.418666994 C9.5230146,0.700805764 9.39191183,1.42813493 9.46560278,2.60065448 C9.57613921,4.35943381 10.3795602,6.76439665 10.4705438,7.06915681 C10.5615273,7.37391697 11.956333,11.084233 12.3121021,11.7161078 C12.6678711,12.3479826 14.3641479,15.9138912 14.8837105,16.6907873 C15.3942444,17.54289 16.0175704,18.6199573 16.5467397,19.3273221 C17.0759091,20.0346869 18.28069,21.7581479 18.8864849,22.3732258 C19.4922798,22.9883038 20.5317804,24.1536929 21.3328981,24.4549591 C21.8669765,24.6558033 22.1761533,24.7240573 22.2604284,24.6597212 C21.9865749,24.9222316 21.7228325,25.1294001 21.4692012,25.2812267 C21.0887543,25.5089665 20.2801284,26.0175346 19.6571312,26.2901865 C19.2417997,26.4719544 18.7540178,26.6674178 18.1937855,26.8765766 C17.9165526,27.0128293 17.6385753,27.0128293 17.3598536,26.8765766 C16.941771,26.6721976 16.4868172,26.4536755 15.9553017,25.970045 C15.4237862,25.4864145 13.9222959,24.1067082 11.8644415,20.9441651 C9.80658716,17.781622 8.38586627,14.6386294 8.07600917,14.0111221 C7.76615207,13.3836147 6.77775452,11.0801941 6.27583917,9.6328291 C5.77392381,8.18546407 5.28628392,6.34022867 5.13211473,4.98041883 C4.97794553,3.620609 5.21616438,2.96972157 5.36908217,2.74540059 C5.52199996,2.52107961 6.67588835,1.82364609 6.9256047,1.67877682 C7.17532105,1.53390755 9.04939207,0.599518255 9.85891109,0.418666994 Z M15.8586256,0.0262812359 C16.2670363,0.0879737053 17.7301602,0.450753908 18.2557545,0.633764096 C18.7813488,0.816774285 19.8835007,1.24053751 20.1447884,1.43332408 C19.9100754,1.54184327 19.4120837,1.6659787 19.3665701,2.34905611 C19.3210565,3.03213352 19.4518111,3.59392016 19.5618599,4.21518692 C19.6719088,4.83645369 20.2020405,6.30544929 20.3336948,6.71642116 C20.4653491,7.12739303 21.4576465,9.37885216 21.7867552,9.94224728 C22.1158639,10.5056424 22.9914809,12.0639177 23.5264085,12.8133448 C24.0613361,13.5627718 24.8169893,14.4444721 25.2573214,14.9236563 C25.6976534,15.4028405 26.2892572,15.9294982 26.6669091,16.0110733 C27.044561,16.0926485 27.1503774,16.0705129 27.2972245,15.9618013 C27.3951225,15.889327 27.4450521,15.8403877 27.4470134,15.8149834 C27.3846958,16.2333872 27.3347662,16.5213388 27.2972245,16.6788381 C27.2409119,16.9150871 26.8864383,18.2657487 26.5492301,19.0556307 C26.212022,19.8455126 26.0032594,20.2773255 25.8899103,20.4158772 C25.7765612,20.5544288 25.6003311,20.7411907 25.3326948,20.7411907 C25.0650585,20.7411907 24.6558504,20.5544288 24.6558504,20.5544288 C24.6558504,20.5544288 23.8042603,20.0745069 23.0619958,19.3019368 C22.3197314,18.5293668 21.5157496,17.4925423 21.3247554,17.2725889 C21.1337611,17.0526355 19.4553486,14.7109986 19.0648809,14.06116 L18.9671553,13.9004253 L18.7693739,13.5827066 C18.4686935,13.1032808 18.144942,12.5912435 17.7301602,11.7793471 C17.1771178,10.6968186 16.5010434,9.15430083 16.1460258,8.18482446 C15.8071455,7.2594152 15.1361679,4.91042396 14.985183,4.37893421 L14.9672431,4.31572103 C14.862974,3.94795962 14.5910959,2.86293249 14.5910959,1.37518473 C14.5910959,-0.112563029 15.4502149,-0.0354112334 15.8586256,0.0262812359 Z" id="Combined-Shape" fill="url(#radialGradient-2)"></path>
                </g>
                <path d="M54.354208,64.3730364 C54.354208,70.2709564 47.947488,75.0522364 40.044448,75.0522364 C32.141408,75.0522364 25.734848,70.2709564 25.734848,64.3730364 C25.734848,58.4751164 32.141408,53.6938364 40.044448,53.6938364 C47.947488,53.6938364 54.354208,58.4751164 54.354208,64.3730364" id="Fill-56" fill="#BB851B"></path>
                <g id="Group-49" transform="translate(26.940000, 57.200000)" fill="#FFFFFF" fill-rule="nonzero">
                    <g id="Group">
                        <path d="M22.0157241,6.63339058 C22.8591219,6.47943702 23.588728,6.05104449 24.3584958,5.70966919 C24.4856748,5.65612012 24.5994666,5.54902199 24.7668074,5.61595832 C24.719952,5.82346095 24.4789812,5.80338005 24.3852703,5.94394635 C23.8163115,6.10459355 23.3009017,6.38572615 22.7721047,6.64008421 C22.9996882,6.62669695 23.2808208,6.75387598 23.4280808,6.53298608 C23.5418725,6.36564525 23.6891325,6.31209618 23.843086,6.23846622 C24.0305078,6.15144898 24.244704,6.11798082 24.3919639,5.95063999 C24.5325302,5.96402725 24.6396284,5.86362275 24.7601138,5.82346095 C24.8805992,5.78999279 25.0077782,5.57579652 25.1349572,5.83015459 C25.1684254,5.89709092 25.2554426,5.81676732 25.3089917,5.78999279 C25.4763325,5.70297556 25.6369797,5.60257106 25.7976269,5.51555382 C25.851176,5.48208566 25.9649678,5.42853659 25.9649678,5.46869839 C25.9984359,5.87701002 26.2594876,5.52894109 26.3866667,5.60926469 C26.3866667,5.65612012 26.3866667,5.69628192 26.3866667,5.74313735 C26.3398112,5.80338005 26.2728749,5.86362275 26.2594876,5.93055909 C26.1925513,6.23177258 25.9850487,6.35895162 25.7039161,6.41919432 C25.6168988,6.43927522 25.5031071,6.44596885 25.4696389,6.57984151 C25.5834307,6.63339058 25.6972224,6.45266248 25.8110142,6.58653515 C25.723997,6.81411868 25.4361707,6.67355238 25.2889108,6.89444228 C25.8110142,6.93460408 25.7574651,7.54372471 26.1657768,7.71775917 C26.2193258,7.74453371 26.2661813,7.85163184 26.2059386,7.9252618 C26.125615,8.01227904 26.0720659,7.9051809 26.0118232,7.8851 C25.7507715,7.81816367 25.6168988,7.65751647 25.5365752,7.40315841 C25.4361707,7.08186401 25.2688299,7.03500858 24.9006801,7.19565578 C24.719952,7.27597938 24.6396284,7.27597938 24.5659984,7.07517038 C24.4722875,6.83419958 24.3049467,6.80742505 24.1041377,6.99484678 C23.8230051,7.25589848 23.588728,7.23581758 23.3611444,6.94799135 C23.2741272,6.83419958 23.1603354,6.76726325 23.0130755,6.80742505 C22.839041,6.85428048 22.6717002,6.96807225 22.6783938,7.13541308 C22.6917811,7.52364381 22.4307294,7.75792097 22.2566949,8.03905357 C22.1429032,8.21978167 21.6877361,8.2264753 21.580638,8.03905357 C21.4936207,7.89179364 21.3865226,7.75792097 21.3865226,7.55711197 C21.3865226,7.30275391 21.2124881,7.20234941 21.0116791,7.35630298 C20.4828821,7.75122734 19.8402933,7.81147004 19.2512536,8.01227904 C19.0236701,8.09260264 18.896491,7.81816367 18.6822948,7.87171274 C18.6689075,7.87840637 18.6555202,7.79138914 18.7023757,7.76461461 C18.7492311,7.73114644 18.7960865,7.70437191 18.8496356,7.69098464 C19.9406978,7.44332021 20.9246619,6.86766775 22.0224178,6.64008421 C22.0291114,6.64008421 22.035805,6.62669695 22.0424987,6.61330968 C22.0291114,6.62000331 22.0157241,6.63339058 22.0157241,6.63339058 Z M22.4575039,7.28936664 C22.4441167,7.14880034 22.3637931,7.16888124 22.2834695,7.18226851 C22.109435,7.20904304 21.9755623,7.34960934 21.7881406,7.34291571 C21.6743488,7.33622208 21.5471698,7.36969024 21.5337825,7.50356291 C21.5137016,7.65751647 21.634187,7.76461461 21.7345915,7.8650191 C21.8216088,7.95872997 21.9420942,7.9855045 22.035805,7.91856817 C22.2500013,7.76461461 22.2834695,7.47009474 22.4575039,7.28936664 Z M25.8310951,5.81676732 C25.7373842,5.79668642 25.7039161,5.77660552 25.6771415,5.78999279 C24.9810037,6.06443175 24.3317212,6.45935612 23.5820343,6.59992241 C23.4816298,6.62000331 23.4749362,6.70032691 23.515098,6.78734415 C23.5753407,6.93460408 23.7025197,6.96807225 23.843086,6.94129771 C23.9234096,6.92791045 24.0773632,6.88105501 24.0238141,6.80742505 C23.8564733,6.60661605 24.0372014,6.63339058 24.1309123,6.59322878 C24.4522066,6.44596885 24.7801947,6.30540255 25.1014891,6.15814262 C25.322379,6.06443175 25.576737,6.01088269 25.8310951,5.81676732 Z M26.0452914,5.95063999 C26.0252105,5.92386545 26.0118232,5.90378455 25.9917423,5.87701002 C25.4294771,6.12467445 24.8739055,6.36564525 24.3116403,6.61330968 C24.3250276,6.64677785 24.3451085,6.68693965 24.3584958,6.72040781 C24.9006801,6.41919432 25.5298816,6.32548345 26.0452914,5.95063999 Z M20.830951,7.13541308 C21.3597481,7.18896214 21.834996,7.02831494 22.3771803,6.72710145 C21.7613661,6.74048871 21.3262799,7.04170221 20.830951,7.13541308 Z M20.5498184,7.33622208 C20.1281195,7.32952844 19.8335997,7.63743557 19.4587562,7.75122734 C19.8737615,7.75792097 20.1816686,7.45670747 20.5498184,7.33622208 Z M24.9274546,5.99080179 C24.9140673,5.96402725 24.9073737,5.93725272 24.8939864,5.91717182 C24.646322,6.01757632 24.3986576,6.11128719 24.1509932,6.21169168 C24.4522066,6.24515985 24.6998711,6.13806172 24.9274546,5.99080179 Z M25.3156853,6.45935612 C25.0613273,6.50621155 24.8872928,6.59322878 24.7266456,6.70032691 C24.6664029,6.73379508 24.6530156,6.80742505 24.6931774,6.87436138 C24.7333392,6.93460408 24.7868883,6.98145951 24.8538246,6.96137861 C24.9609228,6.92791045 24.8805992,6.86766775 24.8605183,6.81411868 C24.8270501,6.72040781 24.9073737,6.70702055 24.9609228,6.68693965 C25.0747145,6.64008421 25.2018936,6.62669695 25.3156853,6.45935612 Z" id="Shape"></path>
                        <path d="M21.5003144,5.65612012 C21.7212043,5.52894109 21.9621751,5.47539202 22.2232268,5.46869839 C21.580638,5.80338005 20.8778065,5.97072089 20.2017495,6.23177258 C20.5966739,6.21838532 20.9447428,6.07112539 21.306199,5.93725272 C21.4400717,5.88370365 21.6475743,5.69628192 21.7345915,5.91047819 C21.7881406,6.04435085 21.5137016,6.07781902 21.379829,6.13136809 C21.1120836,6.22507895 20.8175638,6.23177258 20.5632057,6.39241978 C21.1120836,6.25854712 21.6743488,6.17822352 22.183065,5.91047819 C22.2098395,5.89709092 22.2433077,5.87701002 22.2700822,5.86362275 C22.4240358,5.78999279 22.6449257,5.61595832 22.7319429,5.78999279 C22.8256538,5.97741452 22.5244403,5.97072089 22.4039549,6.06443175 C22.310244,6.13806172 21.9956432,6.12467445 22.2299204,6.41250068 C22.3169376,6.51959882 22.0491923,6.51959882 22.0090305,6.64008421 C22.0090305,6.64008421 22.0157241,6.63339058 22.0157241,6.63339058 C21.5940252,6.71371418 21.1589391,6.73379508 20.7640147,6.92121681 C20.5966739,7.00154041 20.4226394,7.05508948 20.2218304,7.00823404 C20.3289285,6.86097411 20.5431248,6.94799135 20.6368357,6.76726325 C20.2954604,6.76056961 19.974166,6.74718235 19.8603742,7.16218761 C19.8402933,7.24251121 19.773357,7.34291571 19.6662589,7.27597938 C19.5323862,7.20234941 19.6060162,7.08855764 19.6796461,7.02831494 C19.9273106,6.83419958 19.7398888,6.48613065 19.9607787,6.27193438 C20.0210214,6.21838532 19.900536,6.14475535 19.8335997,6.11128719 C19.6060162,5.98410815 19.6528716,5.85692912 19.7934379,5.68958829 C20.2753795,5.12062946 20.0611832,4.5048152 19.3248836,4.35086163 C19.1508491,4.31739347 19.0638319,4.2236826 19.043751,4.06972903 C19.0035892,3.80867734 18.842942,3.7819028 18.6287457,3.81537097 C18.4145494,3.84883914 18.2271277,3.92916274 18.0597869,4.07642267 C17.9326078,4.19690807 17.8054288,4.31069983 17.6247007,4.37094253 C17.4171981,4.43787887 17.4238917,4.63868786 17.4171981,4.81941596 C17.4105044,4.93990136 17.4439726,5.08046766 17.3034063,5.14071036 C17.0289673,5.25450213 16.9486437,5.48208566 16.888401,5.74313735 C16.8549329,5.89709092 16.8013838,6.05104449 16.6808984,6.15144898 C16.560413,6.25854712 16.3729913,6.39911342 16.2458122,6.27862802 C16.1320205,6.16483625 15.8910497,5.99749542 16.1320205,5.75652462 C16.2725868,5.61595832 16.2257313,5.44192386 16.1186332,5.26788939 C15.9379051,4.98006316 15.6366916,4.75247963 15.6099171,4.37094253 C15.6032235,4.25045713 15.5095126,4.21029533 15.3957208,4.3040062 C15.3354781,4.35086163 15.2752354,4.47804066 15.1882182,4.35755527 C15.1212819,4.27053803 15.1413628,4.1634399 15.2016055,4.07642267 C15.22838,4.02956723 15.2752354,3.99609907 15.3153972,3.95593727 C15.7437898,3.54762564 15.703628,3.13931401 15.1815246,2.82471324 C15.0543455,2.74438965 14.9472474,2.69084058 14.953941,2.50341885 C14.9606347,1.92776638 14.6728084,1.59977835 14.0837687,1.51276112 C13.896347,1.48598659 13.7156189,1.44582479 13.5281971,1.35211392 C13.4545672,1.52614839 13.5281971,1.67340832 13.5549717,1.81397462 C13.6687634,2.50341885 13.7223125,3.19955671 13.9097342,3.87561367 C13.9766706,4.10989083 14.0101387,4.35755527 13.8160234,4.5650579 C13.8160234,4.43787887 13.749087,4.3843298 13.6352953,4.37763617 C13.5348908,4.3642489 13.4813417,4.3240871 13.4813417,4.21029533 C13.4813417,4.11658447 13.5415844,3.9626309 13.3541627,3.9626309 C13.1935155,3.96932454 13.1868218,4.1031972 13.1600473,4.23037623 C13.1064982,4.5048152 12.9257701,4.5048152 12.7115739,4.47804066 C12.7182675,4.27723167 13.1064982,4.344168 12.9123829,4.07642267 C12.7249611,3.8220646 12.8856083,3.80867734 13.0864173,3.80867734 C13.3006136,3.80867734 13.5215035,3.91577547 13.7356998,3.76851554 C13.3140009,3.83545187 12.945851,3.55431927 12.5107649,3.56101291 C12.5910885,3.8019837 12.6847993,3.99609907 12.5777012,4.19021443 C12.544233,4.25045713 12.4505222,4.23706987 12.3902795,4.21029533 C12.1493087,4.1232781 12.3969731,3.92916274 12.3099559,3.77520917 C12.1827768,3.91577547 12.1158405,4.05634177 12.1693896,4.21029533 C12.2363259,4.41110433 12.4572158,4.29731257 12.5710076,4.3642489 C12.617863,4.51820246 12.4103604,4.4244916 12.4304413,4.55167063 C12.8989956,4.55167063 13.3608563,4.55167063 13.822717,4.55167063 C14.0837687,4.8261096 14.2578032,5.16079126 14.5790976,5.39506842 C14.8803111,5.60926469 15.0476519,5.94394635 15.1614437,6.30540255 C15.355559,6.90113591 15.6233044,7.46340111 16.0450032,7.93195544 C16.2658931,8.1863135 16.2993613,8.51430153 16.4667021,8.7887405 C16.4934767,8.83559593 16.4934767,8.90253226 16.433234,8.9293068 C16.3997658,8.94269406 16.3395231,8.92261316 16.3194422,8.89583863 C16.2658931,8.84228956 16.1989568,8.77535323 16.1922632,8.7084169 C16.1253268,8.1260708 15.6768534,7.78469551 15.3622527,7.34960934 L15.3756399,7.36299661 C15.2216864,7.00823404 15.0610392,6.64677785 14.9070856,6.29201528 L14.9137792,6.29870892 C14.8669238,6.06443175 14.7263575,5.87701002 14.5857912,5.68958829 C14.2711904,5.25450213 14.1908668,5.23442123 13.6486825,5.44861749 C13.7892488,5.58249016 13.949896,5.50886019 14.0904623,5.51555382 C14.1640923,5.52224746 14.224335,5.52224746 14.224335,5.60926469 C14.2310286,5.70297556 14.2042541,5.74983099 14.097156,5.75652462 C13.9699769,5.75652462 13.8361043,5.67620102 13.6754571,5.81676732 C13.9699769,5.84354185 14.224335,5.86362275 14.4853867,5.88370365 C14.5790976,5.89039729 14.6861957,5.90378455 14.6861957,6.01088269 C14.6795021,6.14475535 14.5456294,6.09789992 14.4786931,6.08451265 C14.097156,6.01757632 13.6888443,6.18491715 13.3140009,5.96402725 C13.2872263,5.95063999 13.22029,6.00418905 13.1667409,6.03096359 C13.1935155,5.73644372 13.5215035,5.29466393 13.749087,5.24780849 C13.6553762,5.08716129 13.494729,5.14071036 13.3608563,5.12732309 C13.1064982,5.10054856 12.8521402,5.09385493 12.5977821,5.08716129 C12.3367304,5.07377403 12.0355169,4.99345043 12.089066,5.44861749 C12.1024532,5.56240926 11.5937371,5.85692912 11.4732517,5.82346095 C11.2992173,5.77660552 11.3795409,5.67620102 11.4397836,5.60257106 C11.5401881,5.46869839 11.7209161,5.38168116 11.740997,5.14740399 C11.486639,5.28127666 11.3259918,5.46869839 11.1787319,5.66950739 C10.7838075,6.17822352 10.5763049,6.77395688 10.3219468,7.34960934 C10.2148487,7.59727377 10.0876696,7.83155094 9.88686063,8.01227904 C9.82661793,8.0658281 9.75298796,8.1260708 9.679358,8.07252174 C9.58564713,7.99889177 9.67266436,7.93195544 9.7195198,7.87840637 C10.0876696,7.49017564 10.2550105,6.99484678 10.4692067,6.51959882 C10.7302584,5.93725272 11.0247783,5.37498752 11.6405925,5.08046766 C11.7075289,5.04699949 11.7744652,5.00014406 11.8012397,4.91982046 C12.0221296,4.2036017 12.2697941,3.49407657 12.4639094,2.77116418 C12.6044757,2.25575442 12.7316548,1.72695739 12.8722211,1.19146672 C12.4036667,1.47929296 11.7811588,1.34542029 11.3996218,1.86752369 C11.1787319,2.16873718 11.1184892,2.46995068 11.011391,2.81801961 C11.2188937,2.81801961 11.3059109,2.64398515 11.4531708,2.61721061 C11.5401881,2.60382335 11.6405925,2.57704881 11.6807543,2.69084058 C11.7142225,2.78455144 11.6405925,2.84479414 11.5669626,2.87156868 C11.2657491,2.97866681 11.0515528,3.15270128 10.9846165,3.48738294 C10.9645356,3.59448107 10.8306629,3.6413365 10.7302584,3.68819194 C10.5829985,3.76851554 10.5026749,3.89569457 10.4692067,4.05634177 C10.4625131,4.1031972 10.4892876,4.15674627 10.5361431,4.15005263 C10.7101775,4.12997173 10.8975993,4.17013353 11.0314719,4.01617997 C11.1251828,3.90908184 11.2122,3.79529007 11.3126045,3.68819194 C11.35946,3.6413365 11.4263963,3.6011747 11.4933326,3.65472377 C11.5803498,3.72835374 11.5067199,3.80867734 11.4598645,3.84883914 C11.3059109,3.96932454 11.2122,4.10989083 11.1854255,4.31069983 C11.1653446,4.4646534 10.9913101,4.43787887 10.8775184,4.4244916 C10.609773,4.39771707 10.4156577,4.45126613 10.2750914,4.71901146 C10.1746869,4.91312683 9.9002479,4.85288413 9.72621343,4.97336953 C9.64588983,5.03361223 9.6391962,4.88635229 9.63250257,4.81941596 C9.5990344,4.51820246 9.51201717,4.4646534 9.2375782,4.59852606 C9.1371737,4.6453815 9.0166883,4.7056242 8.9765265,4.79264143 C8.84265384,5.08046766 8.52805307,5.00014406 8.32724408,5.13401673 C8.28038864,5.16748489 8.21345231,5.12732309 8.19337141,5.06708039 C8.15320961,4.97336953 8.18667778,4.87296503 8.27369501,4.83949686 C8.38079314,4.79264143 8.50797217,4.77925416 8.62845757,4.75247963 C8.72886207,4.73239873 8.8359602,4.7056242 8.84934747,4.5851388 C8.86273474,4.47134703 8.78241114,4.4044107 8.69539391,4.344168 C8.64853847,4.31739347 8.59498941,4.29061893 8.54813397,4.27053803 C8.09296691,4.1031972 7.28973092,4.41779797 7.06884102,4.85288413 C6.94835562,5.08716129 6.90150019,5.30805119 7.10900282,5.52224746 C7.26965002,5.68958829 7.21610095,5.83015459 7.03537285,5.91717182 C6.78770842,6.03765722 6.62706122,6.17152988 6.76762752,6.47943702 C6.80109569,6.55306698 6.79440205,6.67355238 6.71407845,6.72710145 C6.41955859,6.90782955 6.33254136,7.18226851 6.30576682,7.50356291 C6.29907319,7.61066104 6.21205596,7.69098464 6.10495783,7.69098464 C5.89076156,7.69098464 5.7568889,7.79808277 5.68995256,7.99889177 C5.52261173,7.89848727 5.7568889,7.74453371 5.60293533,7.67090374 C5.4757563,7.61066104 5.40212633,7.73114644 5.30172183,7.77130824 C4.94026564,7.91187454 3.93622064,7.87840637 3.65508805,7.67759737 C4.34453227,7.65082284 5.0339765,7.63743557 5.70333983,7.48348201 L5.6966462,7.49017564 C5.87068066,7.49017564 6.09157056,7.54372471 6.12503873,7.29606028 C6.15850689,7.04839584 6.02463423,6.86766775 5.76358253,6.82081231 C5.60293533,6.79403778 5.5560799,6.72040781 5.60293533,6.56645425 C5.6765653,6.31878982 5.56946716,6.18491715 5.32849637,6.13806172 C5.20801097,6.11128719 5.0942192,6.09789992 5.1544619,5.90378455 C5.2749473,5.48877929 5.04067013,5.26788939 4.59889034,5.39506842 C4.33783864,5.46869839 4.11025511,5.60257106 3.81573524,5.51555382 C3.66847531,5.47539202 3.56137718,5.63603922 3.54798991,5.79668642 C3.54129628,5.97741452 3.45427905,6.03096359 3.27355095,6.03765722 C2.73136665,6.04435085 2.51717039,6.18491715 2.37660409,6.73379508 C2.28958686,7.08855764 1.87458159,7.04839584 1.76748346,7.34291571 C1.65369169,7.18896214 1.4729636,7.26259211 1.33909093,7.20904304 C0.924085667,7.04170221 0.709889402,7.25589848 0.54254857,7.57719287 C0.455531337,7.75122734 0.328352305,7.83155094 0.140930573,7.79808277 C0.0806878736,7.79138914 -0.00632935901,7.77800187 0.000364274275,7.69098464 C0.000364274275,7.65082284 0.0673006071,7.59058014 0.107462407,7.58388651 C0.355126838,7.55041834 0.455531337,7.36969024 0.555935837,7.18226851 C0.703195769,6.90782955 0.937472934,6.81411868 1.22529916,6.89444228 C1.39264,6.94129771 1.5532872,6.93460408 1.72062803,6.94129771 C1.96159883,6.95468498 2.12893966,6.86097411 2.18248872,6.61330968 C2.28289322,6.14475535 2.59080035,5.89709092 3.04596742,5.81007369 C3.13298465,5.79668642 3.24008278,5.78329915 3.27355095,5.69628192 C3.40072998,5.35490662 3.68855621,5.32813209 3.98307608,5.30805119 C4.11025511,5.29466393 4.22404687,5.27458303 4.33114501,5.20764669 C4.66582667,5.00683769 5.06075103,5.10054856 5.42220723,4.98675679 C5.85059976,4.85288413 6.33923499,4.91312683 6.80778932,4.88635229 C6.79440205,4.7658669 6.70738482,4.81941596 6.65383576,4.8060287 C6.60698032,4.79264143 6.56012489,4.77925416 6.56681852,4.73239873 C6.57351216,4.69893056 6.61367396,4.65207513 6.64714212,4.6453815 C6.72077209,4.6253006 6.80109569,4.63199423 6.88141929,4.6253006 C6.98182379,4.61860696 7.11569645,4.59852606 7.09561555,4.47804066 C7.08222829,4.35755527 6.95504925,4.4244916 6.87472565,4.41110433 C6.52665672,4.3642489 6.29237956,4.7056242 5.94431063,4.6654624 C5.7970507,4.6453815 5.64309713,4.71231783 5.52930536,4.55167063 C5.4556754,4.4445725 5.32180273,4.51150883 5.2147046,4.51150883 C5.12099373,4.51150883 4.98042744,4.55167063 4.98042744,4.41110433 C4.98042744,4.27723167 5.12768737,4.31069983 5.22139823,4.31069983 C5.46906266,4.31069983 5.71003346,4.33078073 5.95769789,4.31739347 C6.47310766,4.29061893 6.98851742,4.2437635 7.49723355,4.17013353 C7.12908372,4.07642267 6.76093389,4.1232781 6.39278406,4.13666537 C5.60293533,4.17013353 4.8130866,4.19690807 4.02993151,4.21698897 C3.91613974,4.21698897 3.73541164,4.25045713 3.73541164,4.08980993 C3.73541164,3.9224691 3.91613974,3.9626309 4.02993151,3.96932454 C4.63905214,3.97601817 5.2548664,3.99609907 5.86398703,4.0027927 C5.95769789,4.0027927 6.08487693,4.06972903 6.05810239,3.85553277 C6.03802149,3.7015792 6.21205596,3.76851554 6.29237956,3.76851554 C7.70473618,3.76851554 9.10370554,3.54093201 10.5093685,3.44722114 C10.6432412,3.44052751 10.7771139,3.42714024 10.8574375,3.29326757 C10.9310674,3.16608854 10.9243738,3.03890951 10.8641311,2.91173048 C10.8038884,2.79124508 10.683403,2.79124508 10.5763049,2.80463234 C10.4357386,2.81801961 10.2884786,2.83810051 10.1479123,2.90503684 C10.2884786,2.90503684 10.4290449,2.90503684 10.5696112,2.90503684 C10.7235648,2.90503684 10.7302584,3.05229678 10.7637266,3.13262038 C10.8038884,3.22633124 10.6767094,3.23302487 10.6030794,3.23971851 C9.39153177,3.39367207 8.19337141,3.60786834 6.96843652,3.63464287 C6.84125749,3.6413365 6.70738482,3.63464287 6.57351216,3.6011747 C6.80109569,3.45391477 6.94835562,3.23971851 7.26965002,3.23302487 C7.60433168,3.23302487 7.95240061,3.22633124 8.26700138,3.06568404 C8.78241114,3.16608854 9.27104637,3.02552224 9.7596816,2.92511774 C9.2576591,2.90503684 8.76902387,3.07907131 8.26700138,3.06568404 C8.06619238,3.16608854 7.85199611,3.07907131 7.64449348,3.11923311 C7.45037812,3.15939491 7.41690995,2.99874771 7.41021632,2.87826231 C7.39682905,2.69753421 7.55747625,2.75777691 7.65788075,2.75108328 C8.43434221,2.70422785 9.1974164,2.52349975 9.96718423,2.44317615 C10.0207333,2.43648251 10.0742824,2.42309525 10.1345251,2.28922258 C9.82661793,2.34277165 9.5588726,2.38293345 9.29112727,2.42978888 C9.00999467,2.47664431 8.73555571,2.59043608 8.44103584,2.55696791 C8.36740588,2.55027428 8.26700138,2.53688701 8.28038864,2.42978888 C8.29377591,2.34277165 8.38748677,2.37623981 8.44772947,2.36954618 C8.74224934,2.34946528 9.0367692,2.32938438 9.33128907,2.28252895 C9.14386734,2.18881808 8.92967107,2.29591622 8.73555571,2.16204355 C9.31120817,1.93446002 9.97387786,2.16204355 10.6030794,1.84074915 C10.1947678,1.88091095 9.86677973,2.00139635 9.5187108,1.96792818 C9.44508083,1.96123455 9.33128907,1.98800908 9.32459543,1.88760459 C9.3179018,1.76711919 9.4383872,1.78050645 9.52540443,1.78050645 C9.83331156,1.77381282 10.1479123,1.80058735 10.5093685,1.67340832 C10.154606,1.62655289 9.82661793,1.80728099 9.5387917,1.55292292 C9.65258346,1.41235662 9.7998434,1.45251842 9.93371606,1.45251842 C10.609773,1.44582479 11.2724427,1.31864576 11.941806,1.21154762 C12.1894705,1.17138582 12.4371349,1.15130492 12.6847993,1.06428769 C12.9525447,0.970576826 13.0864173,0.83670416 13.1332728,0.568958829 C13.1667409,0.374843464 13.2336773,0.187421732 13.3273881,0 C13.3742436,0.307907131 13.4277926,0.622507895 13.4679544,0.930415026 C13.4880353,1.08436859 13.5415844,1.15799856 13.7022316,1.20485399 C14.0904623,1.32533939 14.4719994,1.42574389 14.8736174,1.27848396 C14.9070856,1.26509669 14.9606347,1.25170942 14.9673283,1.26509669 C15.1815246,1.64663379 15.4091081,1.23162852 15.629998,1.27848396 C15.6567725,1.28517759 15.6902407,1.29856486 15.7370961,1.31864576 C15.6701598,1.45921206 15.5228999,1.47929296 15.4091081,1.57300382 C15.8174197,1.57300382 16.1186332,1.27179032 16.5871875,1.21824126 C16.359604,1.51945475 16.0784714,1.55961655 15.8375006,1.64663379 C15.5965298,1.73365102 15.3354781,1.78720009 15.0945073,1.88760459 C15.7170152,1.92776638 16.2458122,1.54622929 16.8482392,1.43913116 C16.8482392,1.61316562 16.7009793,1.60647199 16.6541239,1.70018285 C16.8013838,1.74703829 16.8950947,1.60647199 17.0155801,1.59308472 C17.0959037,1.57969745 17.1963082,1.49937385 17.2431636,1.61985925 C17.2833254,1.73365102 17.1829209,1.77381282 17.0959037,1.80058735 C16.5938812,1.95454092 16.0985523,2.10180085 15.5965298,2.24906078 C15.4827381,2.28252895 15.355559,2.27583532 15.2886227,2.40970798 C15.3823336,2.50341885 15.4760444,2.44986978 15.5630617,2.42309525 C15.8508879,2.33607801 16.1387141,2.24906078 16.4265403,2.16204355 C16.7679156,2.05494542 16.8214647,2.03486452 16.8950947,2.28252895 C16.9553374,2.49672521 17.0222737,2.42978888 17.1494527,2.38962708 C17.3034063,2.34277165 17.4439726,2.13526902 17.6514752,2.34277165 C17.6983307,2.38293345 17.9526887,2.20220535 18.1133359,2.14196265 C18.2070468,2.10849448 18.3342258,1.98131545 18.4011622,2.13526902 C18.4614049,2.26914168 18.3007577,2.31599712 18.2070468,2.36285255 C18.039706,2.44317615 17.8589779,2.51011248 17.6849434,2.57704881 C17.4841344,2.65067878 17.3034063,2.73769601 17.1695336,2.91842411 C17.0490482,3.08576494 16.834852,3.12592674 16.6474302,3.19955671 C16.3729913,3.30665484 16.0784714,3.37359117 15.8241133,3.6413365 C16.2190377,3.67480467 16.4800894,3.39367207 16.8147711,3.36689754 C16.8214647,3.55431927 16.6742048,3.55431927 16.5871875,3.62794924 C16.761222,3.7015792 16.9017883,3.86892004 17.1226782,3.741741 C17.16284,3.7216601 17.2096954,3.76851554 17.2096954,3.81537097 C17.2096954,3.90908184 17.1427591,3.95593727 17.0691291,3.9827118 C16.7879965,4.07642267 16.5001703,4.1634399 16.2123441,4.25045713 C16.1052459,4.2839253 15.9713733,4.2638444 15.8910497,4.39771707 C16.085165,4.45795976 16.2458122,4.3843298 16.4064594,4.31739347 C16.4934767,4.27723167 16.5938812,4.19690807 16.6808984,4.2437635 C16.7946902,4.31069983 16.6407366,4.41779797 16.6808984,4.51150883 C16.6942857,4.53828336 16.6608175,4.5851388 16.6541239,4.6253006 C16.6742048,4.63199423 16.6942857,4.63868786 16.7143666,4.63868786 C16.8415456,4.6453815 16.9954992,4.4044107 17.0691291,4.61860696 C17.1226782,4.77256053 16.8950947,4.77256053 16.7879965,4.8261096 C16.7009793,4.8662714 16.5938812,4.85957776 16.5403321,4.95998226 C16.6273493,5.04030586 16.7009793,4.88635229 16.7946902,4.96667589 C16.7478347,5.11393583 16.6942857,5.23442123 16.560413,5.36160026 C16.3997658,5.50886019 16.4733958,5.77660552 16.4131531,5.98410815 C16.3930722,6.06443175 16.486783,6.07781902 16.5537194,6.05104449 C16.6407366,6.01757632 16.6942857,5.93725272 16.7143666,5.85023549 C16.7344475,5.77660552 16.7478347,5.69628192 16.7344475,5.62265196 C16.6808984,5.24111486 17.0825164,5.16079126 17.1963082,4.91982046 C17.3167936,4.67884966 17.23647,4.35086163 17.5912325,4.23037623 C17.6983307,4.19021443 17.8054288,4.1031972 17.8723651,4.00948634 C18.1066423,3.6814983 18.4480176,3.6011747 18.8161674,3.62794924 C19.1307682,3.64803014 19.4319817,3.6011747 19.7331952,3.50746384 C19.846987,3.47399567 20.0411023,3.27318667 20.1214259,3.58109381 C20.1348132,3.6413365 20.2352177,3.58109381 20.302154,3.56770654 C20.4159458,3.54093201 20.5230439,3.44722114 20.6836911,3.55431927 C20.2954604,3.9023882 19.7398888,3.72835374 19.2646409,4.04964813 C19.773357,4.0831163 20.1482004,3.9224691 20.5297375,3.80867734 C20.904581,3.69488557 21.2258754,3.40705934 21.6542679,3.47399567 C21.6542679,3.52085111 21.6542679,3.55431927 21.6475743,3.56101291 C21.1656327,3.6814983 20.8175638,4.08980993 20.3222349,4.15674627 C20.2552986,4.1634399 20.1883622,4.17682717 20.1281195,4.19690807 C20.0745705,4.21029533 20.0210214,4.2437635 20.0344087,4.31069983 C20.0477959,4.37763617 20.1214259,4.3843298 20.1682813,4.37094253 C20.3289285,4.33747437 20.4895757,4.27053803 20.6569166,4.2638444 C20.7840956,4.25715077 20.9715173,3.96932454 21.0652282,4.31069983 C21.0652282,4.31739347 21.2057945,4.2839253 21.2794245,4.2638444 C21.5471698,4.19021443 21.8082215,4.1031972 22.0692732,3.92916274 C22.1027414,4.21698897 22.1763713,4.43787887 22.5177466,4.2839253 C22.5445212,4.27053803 22.6181511,4.29061893 22.6315384,4.31739347 C22.6650066,4.37094253 22.6315384,4.4244916 22.5779893,4.45126613 C22.4708912,4.5048152 22.3570994,4.5650579 22.2433077,4.59183243 C21.7145106,4.73239873 21.1857136,4.85957776 20.6636102,4.98675679 C20.6100611,5.00014406 20.5565121,5.00683769 20.502963,5.02691859 C20.4159458,5.06038676 20.2686858,5.06038676 20.3088476,5.20095306 C20.3490094,5.32143846 20.4828821,5.26788939 20.5698993,5.24780849 C20.8376447,5.18087216 21.1187773,5.14071036 21.3597481,4.99345043 C21.4467653,4.93990136 21.5605571,4.8662714 21.6274934,4.95998226 C21.6944297,5.06038676 21.5739443,5.14071036 21.507008,5.20764669 C21.2794245,5.44861749 20.9380492,5.44192386 20.6636102,5.58249016 C20.576593,5.62934559 20.4694948,5.62265196 20.3623967,5.72305645 C21.1187773,5.72975009 21.6944297,5.22772759 22.4240358,5.08716129 C22.3504058,5.40176206 22.1228223,5.37498752 21.9688687,5.45531112 C21.781447,5.47539202 21.5404762,5.39506842 21.5003144,5.65612012 C21.3932162,5.58918379 21.2928117,5.62265196 21.1857136,5.64942649 C20.8778065,5.72305645 20.576593,5.83684822 20.2552986,5.85692912 C20.1816686,5.86362275 20.0411023,5.81676732 20.0611832,5.95733362 C20.0745705,6.05773812 20.2017495,6.05104449 20.2820731,6.03765722 C20.375784,6.01757632 20.4694948,5.97741452 20.5632057,5.95063999 C20.8778065,5.85692912 21.1723263,5.68958829 21.5003144,5.65612012 Z M5.89745519,6.53967972 C6.22544323,6.89444228 6.26560502,6.89444228 6.47980129,6.53298608 C6.31246046,6.53298608 6.16520053,6.53298608 6.01794059,6.53298608 C5.97777879,6.53298608 5.93092336,6.53967972 5.89076156,6.54637335 C5.83051886,6.37903252 5.88406793,6.31209618 6.06479603,6.29201528 C6.20536233,6.27193438 6.47310766,6.45266248 6.47310766,6.20499805 C6.47310766,5.93055909 6.18528143,6.15144898 6.03802149,6.09120629 C5.93761699,6.05104449 5.80374433,6.07112539 5.7769698,6.21838532 C5.7568889,6.33887072 5.6966462,6.49282428 5.89745519,6.53967972 Z M10.0006524,3.99609907 C9.6391962,4.1031972 9.25096547,4.02956723 8.90289654,4.2236826 C9.076931,4.1232781 9.1572546,4.4244916 9.25096547,4.33078073 C9.40491903,4.1634399 9.5789535,4.23037623 9.74629433,4.21698897 C10.1813805,4.17013353 10.2884786,4.07642267 10.4022704,3.57440017 C9.90694153,4.05634177 9.24427183,3.7819028 8.62845757,4.0831163 C9.14386734,4.04964813 9.5588726,3.88900094 10.0006524,3.99609907 Z M13.9164279,4.87296503 C13.8896533,4.85957776 13.8494915,4.8261096 13.8093297,4.81941596 C13.2537582,4.69893056 12.691493,4.75917326 12.1292278,4.6855433 C12.0622914,4.67884966 11.9819678,4.7257051 11.9886615,4.79264143 C11.9886615,4.89973956 12.0957596,4.88635229 12.1693896,4.88635229 C12.6781057,4.87965866 13.1868218,4.92651409 13.6888443,4.98675679 C13.7691679,5.00014406 13.8427979,4.98675679 13.9164279,4.87296503 Z M10.8440502,2.59712971 C10.8373566,2.54358065 10.8373566,2.49003158 10.8306629,2.43648251 C9.92702243,2.61051698 9.00999467,2.65067878 8.11974144,2.90503684 C9.0367692,2.82471324 9.93371606,2.65067878 10.8440502,2.59712971 Z M9.36475723,3.23302487 C8.57490851,3.13931401 7.81852795,3.33342937 7.04876012,3.42714024 C7.83191521,3.54093201 8.59498941,3.32004211 9.36475723,3.23302487 Z M9.61242167,3.68819194 C8.69539391,3.78859644 7.77167251,3.79529007 6.86133839,3.89569457 C7.78505978,3.98940544 8.70208754,3.85553277 9.61242167,3.68819194 Z M10.3152532,2.28252895 C11.0783274,2.52349975 11.0984083,1.78720009 11.5067199,1.49937385 C11.1519573,1.45921206 11.0783274,1.53284202 10.9846165,1.79389372 C10.9243738,1.96792818 10.8641311,2.22228625 10.556224,2.14865628 C10.4692067,2.12857538 10.3821895,2.16204355 10.3152532,2.28252895 Z M12.5308458,3.21294397 C12.9056892,3.43383387 13.2537582,3.15939491 13.5549717,3.34012301 C13.4612608,3.48068931 13.3006136,3.40705934 13.2002091,3.52085111 C13.2805327,3.52754474 13.3340818,3.54093201 13.3876308,3.53423837 C13.5081162,3.53423837 13.6754571,3.60786834 13.695538,3.39367207 C13.7156189,3.18616944 13.5616653,3.14600764 13.4144054,3.14600764 C13.14666,3.15939491 12.8856083,3.19286307 12.5308458,3.21294397 Z M5.40881997,5.52894109 C5.40881997,5.55571562 5.40881997,5.58918379 5.40881997,5.61595832 C5.82382523,5.58918379 6.24552413,5.56910289 6.66052939,5.54232836 C6.69399755,5.54232836 6.72746572,5.52224746 6.75424025,5.50886019 C6.82117659,5.46869839 6.85464475,5.40845569 6.81448295,5.34151936 C6.76093389,5.24780849 6.71407845,5.32143846 6.66722302,5.36160026 C6.57351216,5.44192386 6.45302676,5.39506842 6.34592862,5.40845569 C6.03132786,5.43523022 5.70333983,5.40845569 5.40881997,5.52894109 Z M13.5616653,2.70422785 C13.2872263,2.59712971 13.0730301,2.65737241 12.8253656,2.61051698 C13.1600473,2.99874771 12.6781057,2.79124508 12.6446375,2.95189228 C12.9391574,3.04560314 13.2269836,3.03890951 13.5884398,2.99874771 C13.4010181,2.84479414 13.2069027,3.01882861 13.0998046,2.83810051 C13.22029,2.71761511 13.3876308,2.79793871 13.5616653,2.70422785 Z M6.86803202,5.79668642 C6.86803202,5.74983099 6.86803202,5.70297556 6.86133839,5.65612012 C6.37939679,5.70297556 5.89745519,5.74313735 5.4155136,5.78999279 C5.42220723,5.83015459 5.42220723,5.87031639 5.42890086,5.91047819 C5.91084246,5.89709092 6.37939679,5.73644372 6.86803202,5.79668642 Z M12.8521402,2.49672521 C13.093111,2.51680611 13.2872263,2.53019338 13.5081162,2.54358065 C13.4746481,2.38293345 13.1332728,2.42309525 13.347469,2.20889898 C13.3140009,2.18881808 13.2738391,2.15534992 13.2403709,2.14865628 C13.1332728,2.14196265 13.0261746,2.11518812 12.9056892,2.16873718 C13.2269836,2.32269075 12.892302,2.35615891 12.8521402,2.49672521 Z M13.22029,0.629201528 C13.0328683,0.910334126 13.1734346,1.21824126 13.0060937,1.45251842 C12.9860128,1.47929296 13.0797237,1.55292292 13.1533537,1.55292292 C13.2604518,1.54622929 13.3407754,1.48598659 13.3006136,1.38558209 C13.22029,1.15130492 13.2671454,0.910334126 13.22029,0.629201528 Z M6.75424025,5.09385493 C6.74754662,5.05369313 6.74085299,5.00683769 6.73415935,4.96667589 C6.31915409,5.12732309 5.87068066,5.04030586 5.44898176,5.12732309 C5.4556754,5.16079126 5.4556754,5.18756579 5.46236903,5.22103396 C5.89076156,5.17417853 6.31915409,5.13401673 6.75424025,5.09385493 Z M9.81323066,4.29731257 C9.70613253,4.27723167 9.679358,4.33747437 9.68605163,4.41110433 C9.70613253,4.5650579 9.83331156,4.59183243 9.94710333,4.6052197 C10.1144442,4.6253006 10.208155,4.5248961 10.2349296,4.3642489 C10.2416232,4.31069983 10.2282359,4.25715077 10.1612996,4.2437635 C10.154606,4.2437635 10.1345251,4.2437635 10.1278314,4.25045713 C10.0408142,4.37763617 9.92702243,4.39102343 9.81323066,4.29731257 Z M20.8376447,4.55167063 C20.9648237,4.5248961 21.0920027,4.5048152 21.2124881,4.45795976 C21.3530544,4.4044107 21.4802335,4.4044107 21.6207998,4.47134703 C21.7345915,4.5248961 21.8684642,4.49142793 21.9354005,4.39771707 C21.5538634,4.31069983 21.1723263,4.2839253 20.8376447,4.55167063 Z M16.0918587,2.46325705 C16.085165,2.44986978 16.0784714,2.42978888 16.0717778,2.41640161 C15.8776624,2.45656341 15.6902407,2.49672521 15.4961253,2.53688701 C15.4358826,2.55027428 15.3488654,2.57035518 15.3823336,2.65737241 C15.4091081,2.73100238 15.4894317,2.72430875 15.5496744,2.69753421 C15.7370961,2.61721061 15.9178242,2.53688701 16.0918587,2.46325705 Z M20.5163503,6.57314788 C21.1187773,6.57314788 21.2258754,6.53967972 21.4199908,6.29870892 C21.1455518,6.46604975 20.8108701,6.43927522 20.5163503,6.57314788 Z M21.0986964,4.63199423 C20.8644192,4.7056242 20.5899802,4.61191333 20.3356222,4.83280323 C20.6435293,4.83280323 20.8778065,4.745786 21.0986964,4.63199423 Z" id="Shape"></path>
                        <path d="M15.3689463,7.34291571 C15.4961253,7.60396741 15.4224954,7.67759737 15.1413628,7.61066104 C14.7999875,7.53033744 14.4519185,7.59727377 14.1105432,7.61066104 C14.1105432,7.64412921 14.1105432,7.68429101 14.1105432,7.71775917 C14.3849822,7.71775917 14.6661148,7.73784007 14.9405538,7.71106554 C15.1212819,7.69767827 15.2953163,7.73784007 15.4693508,7.77130824 C15.6902407,7.81147004 15.7370961,7.97881087 15.6969343,8.17292624 C15.6567725,8.3670416 15.4827381,8.286718 15.4091081,8.2465562 C15.3087036,8.19300714 15.0342646,8.40050977 15.101201,8.0658281 C15.1078946,8.0256663 15.0208774,8.01227904 14.9941028,8.03905357 C14.7330511,8.3067989 14.425144,8.1863135 14.1239305,8.17292624 C14.1105432,8.17292624 14.0904623,8.19970077 14.0503005,8.2264753 C14.2578032,8.43397793 14.297965,8.67494873 14.1774796,8.96277496 C13.9967515,8.8489832 14.2109477,8.68164237 14.0302196,8.5879315 C13.9766706,8.9895495 13.9231215,9.37108659 13.9565897,9.77270459 C13.9699769,9.94673906 14.0436069,10.2479526 13.8294106,10.2546462 C13.6018271,10.2613398 13.7356998,9.97351359 13.7156189,9.81286639 C13.6821507,9.57858922 13.8160234,9.33761843 13.6888443,9.03640493 C13.5014226,9.37778023 13.6352953,9.70576826 13.5616653,10.0337563 C13.4411799,9.91327089 13.3876308,9.83294729 13.4344863,9.64552556 C13.6018271,8.96277496 13.4545672,8.3268798 13.0864173,7.73114644 C12.9860128,7.76461461 13.019481,7.82485731 13.0395619,7.87171274 C13.29392,8.49422063 13.4612608,9.13011579 13.3273881,9.80617276 C13.3206945,9.84633456 13.3140009,9.90657726 13.3340818,9.93335179 C13.6486825,10.3952125 13.6152144,10.9373968 13.7223125,11.4528065 C13.7290061,11.4862747 13.7290061,11.5197429 13.749087,11.5465174 C14.0369133,11.8544245 13.8093297,11.8811991 13.5549717,11.90128 C13.5014226,11.9079736 13.4545672,11.9213609 13.3943245,11.954829 C13.6286016,12.028459 13.8361043,12.1087826 13.9365088,12.356447 C13.9766706,12.4635452 14.1440114,12.3899152 14.2444159,12.4099961 C14.3381268,12.4233834 14.425144,12.4434643 14.4385313,12.5505624 C14.4452249,12.5840306 14.4385313,12.6241924 14.4184504,12.6442733 C14.3180459,12.7379841 14.3046586,12.6041115 14.2444159,12.5773369 C14.224335,12.5706433 14.1908668,12.5505624 14.1841732,12.557256 C13.9632833,12.7982268 13.7624743,12.4635452 13.5549717,12.5104006 C13.5081162,12.6643542 13.7624743,12.5974178 13.695538,12.7112096 C13.6419889,12.8116141 13.5081162,12.8383886 13.4010181,12.8049205 C13.0998046,12.704516 12.7852038,12.7781459 12.4772967,12.7379841 C12.2697941,12.7112096 12.1626959,12.6643542 12.2430195,12.4635452 C12.3835858,12.1087826 12.2697941,11.7607137 12.2831813,11.4059511 C12.289875,11.1850612 12.3568113,10.9842522 12.5375394,10.7700559 C12.1493087,10.9440904 12.0288233,11.1984485 12.1091469,11.7071646 C12.1493087,11.9481354 12.1292278,12.1288635 11.9484997,12.302898 C11.740997,12.503707 11.9618869,12.5505624 12.1493087,12.6041115 C12.0020487,12.7112096 11.8748697,12.7312905 11.7945461,12.6442733 C11.7209161,12.5639497 11.6807543,12.5438688 11.613818,12.6108051 C11.5067199,12.704516 11.3728472,12.7112096 11.3326854,12.5974178 C11.2791364,12.4166897 11.5000263,12.5505624 11.5535753,12.4434643 C11.4598645,12.3430598 11.2925236,12.302898 11.2456682,12.1422508 C11.4531708,11.9816036 11.687448,11.9615227 11.9953551,11.9882972 C11.8347079,11.8410373 11.6807543,11.9414418 11.5803498,11.8544245 C11.5736562,11.7473264 11.6539798,11.7607137 11.7142225,11.7607137 C11.9351124,11.7473264 11.9953551,11.6469219 11.9484997,11.426032 C11.8681761,11.0578822 12.0087424,10.7566687 12.3300368,10.5625533 C12.417054,10.5090043 12.4973776,10.4688425 12.5040712,10.3416634 C12.5174585,10.0404499 12.6044757,9.75262369 12.5777012,9.45141019 C12.544233,8.97616223 12.6044757,8.52099517 12.9056892,8.1260708 C12.9257701,8.1059899 12.9257701,8.0658281 12.9257701,8.03235994 C12.9257701,8.01227904 12.9056892,7.99889177 12.892302,7.97881087 C12.5107649,8.3469607 12.3635049,8.78204686 12.4371349,9.30415026 C12.4839903,9.61875102 12.4639094,9.93335179 12.3367304,10.3282762 C12.2296323,9.89318999 12.3166495,9.54512106 12.3300368,9.20374576 C12.3300368,9.11672853 12.3635049,9.0297113 12.3233431,8.94269406 C12.2965686,8.87575773 12.2363259,8.87575773 12.1827768,8.90253226 C12.1359214,8.9293068 12.1493087,8.9694686 12.1760832,9.0096304 C12.3501177,9.37778023 12.1493087,9.74593006 12.1693896,10.1140799 C12.1693896,10.1743226 12.142615,10.2412589 12.0756787,10.2077908 C11.9551933,10.1475481 11.7945461,10.1207735 11.7744652,9.94673906 C11.7610779,9.85302819 11.8347079,9.74593006 11.7008352,9.68568736 C11.6472862,9.65891282 11.6071244,9.61875102 11.6272053,9.55850832 C11.6606734,9.47818473 11.740997,9.49157199 11.8012397,9.50495926 C12.0087424,9.55850832 12.0288233,9.44471656 12.015436,9.29076299 C12.0020487,9.14350306 12.0288233,8.9694686 11.7811588,8.9694686 C11.4263963,8.97616223 11.0783274,8.97616223 10.683403,8.89583863 C10.8239693,9.31084389 10.7637266,9.69907462 10.7034839,10.093999 L10.7168712,10.0806117 C10.5763049,10.0337563 10.5763049,9.93335179 10.5963858,9.81286639 C10.6164667,9.70576826 10.6365476,9.59197649 10.6432412,9.48487836 C10.6499348,9.32423116 10.6365476,9.14350306 10.4357386,9.13011579 C10.2617041,9.11672853 10.1880741,9.27068209 10.1679932,9.41794203 C10.1412187,9.63213829 10.0675887,9.84633456 10.2282359,10.0538372 C10.3420277,10.1944035 10.0140397,10.2814207 10.2215423,10.4889234 C10.0140397,10.421987 9.9604906,10.3215825 9.97387786,10.2278717 C10.0542015,9.76601096 9.9404097,9.27737573 10.2148487,8.83559593 C10.408964,8.5276888 10.3688022,8.47413973 10.0140397,8.38042887 C9.93371606,8.36034797 9.85339246,8.32018617 9.9604906,8.2264753 C10.080976,8.11937717 10.1880741,7.97881087 10.3286404,7.91187454 C10.4692067,7.8449382 10.5896921,7.80477641 10.5696112,7.61735467 C10.556224,7.51695017 10.6499348,7.50356291 10.7302584,7.49686927 C11.1720382,7.47009474 11.613818,7.43662657 12.0555978,7.40985204 C12.1760832,7.40315841 12.2296323,7.42993294 12.1961641,7.58388651 C12.1359214,7.8449382 12.2631004,7.93195544 12.5241521,7.85163184 C12.7584293,7.77800187 12.8454465,7.59727377 12.8989956,7.38307751 C12.9257701,7.27597938 12.8789147,7.15549398 12.9860128,7.05508948 C13.1265791,7.24251121 13.1533537,7.45670747 13.2069027,7.66421011 C13.2671454,7.91187454 13.4144054,8.03905357 13.6553762,8.01227904 C13.949896,7.9855045 14.2310286,8.1662326 14.5991785,7.99889177 C14.3782886,7.97881087 14.2310286,7.97881087 14.0837687,7.95872997 C13.8361043,7.91856817 13.7022316,7.78469551 13.7356998,7.51695017 C13.7557807,7.34291571 13.5616653,7.30944754 13.4813417,7.27597938 C13.3140009,7.20234941 13.2470645,7.07517038 13.1533537,6.94799135 C13.3273881,6.86097411 13.3943245,6.63339058 13.6687634,6.67355238 C13.9833642,6.72040781 14.3113522,6.68693965 14.6326466,6.68024601 C14.7196639,6.68024601 14.8066811,6.64008421 14.8736174,6.73379508 C14.8334556,6.84758685 14.6661148,6.69363328 14.6393403,6.90113591 C15.1346691,6.68693965 15.1145882,7.21573668 15.3756399,7.36299661 C15.3823336,7.34960934 15.3689463,7.34291571 15.3689463,7.34291571 Z M10.6164667,8.5477697 C10.7905011,8.6682551 10.9243738,8.6481742 11.0649401,8.63478693 C11.1921191,8.62139967 11.3460727,8.57454423 11.4531708,8.6682551 C11.6673671,8.86237046 11.7343034,8.71511053 11.7945461,8.54107607 C11.8280143,8.4473652 11.8547888,8.3469607 11.9083379,8.2666371 C12.0622914,8.0256663 12.0555978,7.81147004 11.8079334,7.63743557 C11.7610779,7.60396741 11.740997,7.50356291 11.6606734,7.53703107 C11.6004307,7.56380561 11.5669626,7.63743557 11.6004307,7.70437191 C11.6941416,7.91856817 11.5334944,7.85163184 11.4330899,7.85832547 C11.1318764,7.8851 10.8239693,7.91856817 10.5227558,7.9453427 C10.810582,8.05913447 11.0984083,7.97881087 11.3795409,7.99889177 C11.4531708,8.0055854 11.5535753,7.99889177 11.5468817,8.11268354 C11.5468817,8.19970077 11.4665581,8.21978167 11.3996218,8.2063944 C11.1787319,8.17961987 10.9645356,8.31349253 10.7436457,8.23986257 C10.6566285,8.2063944 10.5428367,8.19300714 10.5361431,8.31349253 C10.5294494,8.41389703 10.6432412,8.40050977 10.7168712,8.40050977 C10.9846165,8.40050977 11.2523618,8.40050977 11.5268008,8.40050977 C11.2590555,8.5678506 10.957842,8.5076079 10.6164667,8.5477697 Z M13.1600473,9.10334126 C13.1533537,8.99624313 13.1600473,8.7485787 12.9860128,8.7485787 C12.7718166,8.7485787 12.8253656,8.99624313 12.8454465,9.15019669 C12.8789147,9.38447386 12.8989956,9.61205739 12.8588338,9.84633456 C12.8454465,9.92665816 12.7918975,10.0404499 12.9190765,10.0672245 C13.0395619,10.093999 13.0529492,9.97351359 13.0663364,9.89318999 C13.0998046,9.65221919 13.1265791,9.40455476 13.1600473,9.10334126 Z M12.9994001,11.024414 C13.1064982,11.1448994 13.2403709,11.1248185 13.3541627,11.0578822 C13.5081162,10.9641713 13.5281971,10.7968305 13.3541627,10.7298941 C13.1667409,10.6495705 12.945851,10.6361833 12.7115739,10.7298941 C12.8989956,10.8838477 13.1399664,10.7165069 13.29392,10.8637668 C13.2269836,11.0043331 13.0663364,10.9039286 12.9994001,11.024414 Z M13.22029,11.8142627 C12.6446375,11.6201474 12.5040712,11.6870837 12.490684,12.1221699 C12.490684,12.1891062 12.4036667,12.2895107 12.5174585,12.3229789 C12.6580248,12.356447 12.6446375,12.2225744 12.6446375,12.1489444 C12.6446375,11.8544245 12.7785102,11.75402 13.0596428,11.82765 C13.1131919,11.8343436 13.1667409,11.8142627 13.22029,11.8142627 Z M13.8160234,7.06178311 C14.1440114,7.17557488 14.4786931,7.18896214 14.8200684,7.12202581 C14.4920803,7.06178311 14.1640923,6.94799135 13.8160234,7.06178311 Z" id="Shape"></path>
                        <path d="M3.27355095,8.73519143 C3.04596742,8.67494873 2.83177115,8.71511053 2.65104305,8.61470603 C2.58410672,8.58123787 2.48370222,8.56115697 2.51047675,8.46075247 C2.53055765,8.38042887 2.61757489,8.4072034 2.67781759,8.40050977 C2.69789849,8.40050977 2.72467302,8.39381613 2.74475392,8.40050977 C3.09282285,8.53438243 3.40742361,8.6280933 3.74210528,8.31349253 C3.85589704,8.19970077 4.14372328,8.3268798 4.37130681,8.29341163 C5.6564844,8.1059899 6.92827472,7.87171274 8.20675868,7.63074194 C8.29377591,7.61735467 8.44772947,7.55041834 8.46781037,7.66421011 C8.49458491,7.81147004 8.32724408,7.78469551 8.22683958,7.80477641 C8.06619238,7.83824457 7.89885155,7.8650191 7.73820435,7.89848727 C7.67126801,7.91187454 7.67796165,7.93195544 7.64449348,8.0457472 C7.61102531,8.1662326 7.49053992,8.19970077 7.37674815,8.21308804 C7.05545375,8.23986257 6.73415935,8.2465562 6.41286496,8.286718 C5.4958372,8.3871225 4.58550307,8.5076079 3.66847531,8.60131877 C3.50782811,8.62139967 3.41411725,8.81551503 3.27355095,8.73519143 Z" id="Path"></path>
                        <path d="M9.96718423,12.5438688 C9.8600861,12.302898 10.1813805,12.1824126 10.0675887,11.9615227 C9.93371606,12.0351526 9.74629433,12.2091871 9.80653703,11.8477309 C9.82661793,11.7205519 9.7396007,11.7406328 9.6592771,11.7406328 C9.2375782,11.7339391 8.82926657,11.8075691 8.41426131,11.8611182 C8.10635418,11.90128 7.79175341,11.82765 7.42360358,11.9481354 C7.61102531,11.6803901 7.73151071,11.6134537 8.05949874,11.6870837 C8.38748677,11.7607137 8.67531301,11.553211 9.00330104,11.6335346 C9.1572546,11.6736964 9.23088457,11.2319166 9.09031827,11.0444949 C9.03007557,10.9574777 8.82257294,10.9708649 8.90289654,10.7901368 C8.9363647,10.7232005 9.00330104,10.7432814 9.0367692,10.7901368 C9.13048007,10.9240095 9.46516173,10.8369923 9.3580636,11.151593 C9.30451453,11.3055466 9.2375782,11.4862747 9.48524263,11.5465174 C9.56556623,11.5665983 9.6592771,11.6335346 9.679358,11.4728874 C9.69274526,11.3724829 9.73290706,11.3323211 9.82661793,11.4193384 C9.90694153,11.4929683 9.90694153,11.3925638 9.9203288,11.352402 C9.9404097,11.2921593 9.94710333,11.2185294 9.90694153,11.1582867 C9.87347336,11.1047376 9.8400052,11.1248185 9.7998434,11.1582867 C9.4986299,11.3858702 9.52540443,11.0578822 9.5588726,10.9775586 C9.66597073,10.696426 9.57225987,10.6696514 9.30451453,10.6495705 C9.1170928,10.6361833 8.9162838,10.495617 8.96983287,10.2077908 C8.98991377,10.093999 8.9564456,9.96681995 8.9363647,9.84633456 C8.92297744,9.75262369 8.92967107,9.66560646 9.02338194,9.61875102 C9.0568501,9.60536376 9.11039917,9.61205739 9.14386734,9.63213829 C9.2375782,9.69238099 9.24427183,9.78609186 9.19072277,9.86641546 C9.00999467,10.1542417 9.2174973,10.3885189 9.3982254,10.421987 C9.56556623,10.4554552 9.68605163,10.5625533 9.83331156,10.5759406 C10.0542015,10.6027151 10.0341206,10.7298941 10.0341206,10.8771541 C10.0341206,11.0645758 10.0341206,11.2519975 10.0207333,11.4394193 C10.007346,11.6201474 10.0140397,11.7741009 10.2282359,11.8343436 C10.2750914,11.8477309 10.355415,11.8878927 10.3085595,11.9414418 C10.1746869,12.1221699 10.1679932,12.3765279 9.96718423,12.5438688 Z" id="Path"></path>
                        <path d="M23.6088089,8.25994347 C23.6891325,8.21978167 23.789537,8.1662326 23.8296988,8.2666371 C23.8631669,8.3469607 23.7560688,8.3871225 23.6891325,8.42059067 C23.3009017,8.5879315 22.912671,8.7485787 22.5311339,8.91591953 C22.4508103,8.9493877 22.2500013,8.91591953 22.4240358,9.11672853 C22.4641976,9.16358396 22.3035504,9.26398846 22.2165331,9.29076299 C21.306199,9.57858922 20.4092521,9.90657726 19.4788371,10.1006926 C19.3985135,10.1207735 19.2780281,10.167629 19.2579472,10.0404499 C19.2378663,9.92665816 19.3650454,9.90657726 19.445369,9.88649636 C19.9607787,9.75931732 20.4828821,9.63883192 20.9849046,9.46479746 C21.2057945,9.39116749 21.4199908,9.31753753 21.634187,9.22382666 C20.9581301,9.31753753 20.3155413,9.60536376 19.5658544,9.61205739 C19.7331952,9.41124839 19.9206169,9.42463566 20.0812641,9.39786113 C21.0384537,9.25060119 21.9621751,8.98285586 22.8524283,8.5879315 C22.9327519,8.55446333 23.0264628,8.54107607 23.0733182,8.45405883 C23.2607399,8.4272843 23.387919,8.2264753 23.6088089,8.25994347 Z" id="Path"></path>
                        <path d="M16.888401,10.2814207 C16.7478347,10.5558597 16.5871875,10.6696514 16.3462167,10.7432814 C16.0650841,10.8369923 16.085165,10.6763451 16.085165,10.5290852 C16.085165,10.2814207 16.2257313,10.0471436 16.1186332,9.78609186 C16.085165,9.71246189 16.1721823,9.60536376 16.2725868,9.61875102 C16.3662976,9.63213829 16.3662976,9.73254279 16.359604,9.80617276 C16.3395231,9.97351359 16.3127486,10.1341608 16.285974,10.3015016 C16.2725868,10.3885189 16.2926677,10.4554552 16.3863785,10.4755361 C16.4800894,10.495617 16.5537194,10.5023106 16.5871875,10.3751316 C16.6206557,10.2412589 16.7210602,10.1274672 16.6407366,9.97351359 C16.5871875,9.86641546 16.5738003,9.73923642 16.6942857,9.63883192 C16.8616265,9.49826563 16.8549329,9.38447386 16.6273493,9.31753753 C16.5470257,9.29076299 16.486783,9.23721393 16.5001703,9.15019669 C16.5135576,9.03640493 16.6139621,9.06317946 16.687592,9.0698731 C16.8415456,9.08326036 16.8080774,9.01632403 16.7813029,8.91591953 C16.7478347,8.7887405 16.8013838,8.6280933 16.9017883,8.61470603 C17.0758228,8.59462513 17.0490482,8.7887405 17.0423546,8.889145 C17.0155801,9.19705213 17.0490482,9.52504016 16.8415456,9.79947912 C16.7879965,9.86641546 16.7009793,9.96681995 16.8616265,10.0337563 C17.1159846,10.1475481 17.1293718,10.3952125 17.0825164,10.5960215 C17.0155801,10.8570732 17.0825164,11.1248185 16.9821119,11.3791766 C16.9419501,11.4795811 16.9888055,11.5933728 17.0289673,11.700471 C17.0624355,11.7807946 17.1159846,11.8878927 16.9821119,11.9146672 C16.8616265,11.9414418 16.8214647,11.82765 16.834852,11.7473264 C16.8817074,11.426032 16.7076729,11.098044 16.8683201,10.7767496 C16.9352565,10.6696514 16.9553374,10.5156979 16.888401,10.2814207 Z" id="Path"></path>
                        <path d="M17.4975217,10.7232005 C17.5242962,10.5893279 17.3368745,10.5826342 17.3368745,10.4621488 C17.6849434,10.3952125 17.7786543,10.2613398 17.6514752,9.89988362 C17.5778453,9.68568736 17.5979262,9.50495926 17.6782498,9.30415026 C17.7987352,9.33761843 17.8121224,9.42463566 17.7987352,9.51165289 C17.7853479,9.59867012 17.7317988,9.69907462 17.7853479,9.76601096 C17.9526887,9.96012632 18.1066423,10.1408544 17.7920415,10.3349698 C17.7585734,10.3550507 17.8054288,10.4487616 17.8322033,10.4353743 C18.039706,10.3416634 18.2137404,10.5223915 18.4145494,10.4822297 C18.5417285,10.4554552 18.5818903,10.4019061 18.5818903,10.2881144 C18.5818903,10.2278717 18.5751966,10.1408544 18.6756011,10.1475481 C18.7626184,10.1542417 18.7626184,10.2412589 18.7492311,10.3015016 C18.6622139,10.6763451 18.695682,11.0444949 18.769312,11.4193384 C18.7893929,11.5197429 18.7425375,11.6134537 18.7291502,11.7138582 C18.6889884,11.9414418 18.5149539,12.028459 18.3476131,11.9882972 C18.166885,11.9481354 18.1534977,11.7339391 18.1267232,11.5599047 C18.1200296,11.5331301 18.1468041,11.499662 18.166885,11.4728874 C18.2672895,11.3390148 18.0865614,11.0444949 18.2672895,11.0444949 C18.4814858,11.0378013 18.3342258,11.3122402 18.3743876,11.4528065 C18.3944685,11.5063556 18.4212431,11.5665983 18.4814858,11.5599047 C18.5149539,11.5599047 18.5618094,11.5063556 18.568503,11.4728874 C18.5952775,11.3323211 18.6756011,11.1917548 18.5952775,11.0511885 C18.3944685,10.7031196 18.1334168,10.6161024 17.6983307,10.7098132 C17.638088,10.7232005 17.564458,10.7098132 17.5042153,10.7098132 L17.4975217,10.7232005 Z" id="Path"></path>
                        <path d="M25.8244015,8.32018617 C25.3893153,8.71511053 24.7935819,8.76196596 24.3250276,9.09664763 C24.773501,8.9293068 25.2286681,8.76196596 25.6771415,8.5879315 C25.7574651,8.55446333 25.8377887,8.51430153 25.9181123,8.48083337 C25.9716614,8.46075247 26.0319041,8.45405883 26.0720659,8.5076079 C26.1189213,8.57454423 26.0787595,8.64148057 26.0319041,8.68164237 C25.9850487,8.72180416 25.9181123,8.76196596 25.8578696,8.77535323 C25.248749,8.95608133 24.6597093,9.18366486 24.0773632,9.42463566 C23.9970396,9.45810383 23.8966351,9.50495926 23.8230051,9.44471656 C23.7359879,9.37778023 23.9100224,9.29745663 23.8564733,9.21713303 C23.7560688,9.15019669 23.6623579,9.30415026 23.5284853,9.16358396 C24.2915594,8.84228956 25.0814082,8.63478693 25.8244015,8.32018617 Z" id="Path"></path>
                        <path d="M18.9902019,10.1810162 C18.8897974,10.093999 18.9031847,9.91996452 18.7157629,9.89318999 C18.6019712,9.87980272 18.6086648,9.72584916 18.7358438,9.68568736 C18.8362483,9.65221919 18.9366528,9.63883192 18.9299592,9.50495926 C18.9299592,9.45141019 18.8764101,9.44471656 18.8295547,9.45141019 C18.695682,9.47818473 18.5283412,9.53173379 18.5417285,9.67230009 C18.5551157,9.85302819 18.4614049,10.0136754 18.4680985,10.1877099 C18.4680985,10.2680335 18.441324,10.3483571 18.3275322,10.3215825 C18.2472086,10.3015016 18.1869659,10.2546462 18.1936595,10.1609353 C18.2003532,10.0605308 18.1869659,9.94004542 18.240515,9.87310909 C18.4680985,9.59867012 18.441324,9.19035849 18.7492311,8.95608133 C18.8831038,8.85567683 18.8496356,8.71511053 18.7559247,8.60131877 C18.6822948,8.5076079 18.5885839,8.4272843 18.5015667,8.34026707 C18.4614049,8.29341163 18.4480176,8.23986257 18.4814858,8.1863135 C18.5216476,8.11937717 18.5751966,8.13945807 18.6220521,8.17961987 C18.8228611,8.3871225 19.0638319,8.5879315 19.0571382,8.89583863 C19.0236701,9.33761843 19.1843173,9.75262369 18.9902019,10.1810162 Z" id="Path"></path>
                        <path d="M11.011391,6.58653515 C11.2523618,6.57314788 11.4330899,6.57314788 11.613818,6.55306698 C11.7142225,6.53967972 11.7945461,6.53967972 11.8280143,6.64677785 C11.8480952,6.69363328 11.888257,6.74048871 11.8480952,6.80073141 C11.7878525,6.89444228 11.6941416,6.88774865 11.613818,6.86097411 C11.4063154,6.79403778 11.2122,6.78065051 10.9846165,6.93460408 C11.2992173,6.93460408 11.5736562,6.93460408 11.8480952,6.93460408 C11.8614824,7.04839584 11.7811588,7.05508948 11.7276098,7.06178311 C11.4397836,7.08186401 11.1519573,7.08855764 10.8641311,7.09525128 C10.7503393,7.09525128 10.6365476,7.11533218 10.757033,6.91452318 C10.8775184,6.72040781 10.9109865,6.47274338 10.9913101,6.25185348 C11.0582465,6.08451265 11.1787319,5.99749542 11.3795409,6.01088269 C11.613818,6.03096359 11.6004307,6.24515985 11.6673671,6.37233888 C11.7343034,6.50621155 11.5803498,6.47943702 11.5067199,6.48613065 C11.3527663,6.49951792 11.1988128,6.41250068 11.011391,6.58653515 Z" id="Path"></path>
                        <path d="M7.10900282,11.8544245 C6.78101479,11.9213609 6.59359306,11.8008755 6.66052939,11.5130492 C6.73415935,11.1716739 6.62706122,10.7365878 7.06214739,10.5290852 C7.10230919,10.5090043 7.14247098,10.4487616 7.08222829,10.3952125 C7.01529195,10.4688425 6.94835562,10.2345653 6.88811292,10.3952125 C6.86803202,10.4420679 6.84125749,10.4889234 6.79440205,10.5759406 C6.74085299,10.4152934 6.65383576,10.2747271 6.68730392,10.1944035 C6.75424025,10.0471436 6.95504925,10.0069818 7.04206649,9.83294729 C7.09561555,9.73254279 7.31650545,9.95343269 7.28973092,10.1542417 C7.24956912,10.4554552 7.18932642,10.749975 7.14247098,11.0511885 C6.98182379,11.0645758 7.09561555,10.8704604 6.91488745,10.8436859 C6.96843652,11.1047376 6.89480655,11.3323211 6.81448295,11.5665983 C6.76762752,11.700471 6.98851742,11.7339391 7.10900282,11.8544245 Z" id="Path"></path>
                        <path d="M3.43419815,9.64552556 C3.86259068,9.16358396 4.41816224,9.49157199 4.84655477,9.31084389 C4.70598847,9.51165289 4.48509857,9.44471656 4.23074051,9.49826563 C4.6524394,9.59867012 5.00720197,9.46479746 5.38204543,9.50495926 C5.22139823,9.68568736 4.21735324,9.75262369 3.43419815,9.64552556 Z" id="Path"></path>
                        <path d="M16.5269448,11.6870837 C16.4934767,11.6803901 16.4265403,11.6736964 16.359604,11.6670028 C16.1654886,11.6402283 16.0450032,11.6803901 16.1320205,11.9146672 C16.1721823,12.0217654 16.1521014,12.1154762 16.0583905,12.1757189 C15.9780669,12.229268 15.8910497,12.1957998 15.8107261,12.155638 C15.7504834,12.1221699 15.6902407,12.0887017 15.6902407,12.0150717 C15.6902407,11.9347481 15.7638707,11.954829 15.8107261,11.9414418 C15.9379051,11.9079736 15.9445987,11.8209564 15.9379051,11.7138582 C15.9245178,11.5197429 15.9312115,11.3189339 15.9312115,11.1248185 C15.9312115,11.0578822 15.9512924,10.9842522 16.031616,10.9708649 C16.1320205,10.9574777 16.1387141,11.0444949 16.1253268,11.1047376 C16.0583905,11.4327256 16.2190377,11.5130492 16.5068639,11.4795811 C16.6072684,11.4661938 16.7210602,11.499662 16.7277538,11.626841 C16.7277538,11.7272455 16.6407366,11.7272455 16.5269448,11.6870837 Z" id="Path"></path>
                        <path d="M9.42499993,9.45810383 C9.55217897,9.57189559 9.52540443,9.75931732 9.6592771,9.84633456 C9.7797625,9.75931732 9.7998434,9.63883192 9.72621343,9.53173379 C9.55217897,9.29076299 9.6994389,9.06317946 9.7195198,8.8289023 C9.72621343,8.7485787 9.7998434,8.64148057 9.92702243,8.66156147 C10.0006524,8.6682551 10.0475078,8.72180416 10.0608951,8.7887405 C10.080976,8.91591953 9.98726513,8.90253226 9.9002479,8.93600043 C9.76637523,8.98285586 9.82661793,9.09664763 9.85339246,9.19035849 C9.91363516,9.43132929 9.880167,9.66560646 9.8400052,9.90657726 C9.81323066,10.0605308 9.7195198,10.1207735 9.60572803,10.1408544 C9.478549,10.1609353 9.4584681,10.0337563 9.43169357,9.94004542 C9.3982254,9.78609186 9.2978209,9.63883192 9.42499993,9.45810383 Z" id="Path"></path>
                        <path d="M11.7343034,13.2266194 C11.7945461,13.1931512 11.8213206,13.1663767 11.8547888,13.159683 C12.4371349,13.1529894 13.0261746,13.1462958 13.6085207,13.1396021 C13.6687634,13.1396021 13.7290061,13.159683 13.7223125,13.2266194 C13.7223125,13.306943 13.6553762,13.3270239 13.5817462,13.3337175 C12.9860128,13.4073475 12.3835858,13.4073475 11.7343034,13.2266194 Z" id="Path"></path>
                        <path d="M12.0221296,7.12871944 C11.9551933,7.30944754 11.8414015,7.27597938 11.7476907,7.27597938 C11.4397836,7.28267301 11.1318764,7.25589848 10.8239693,7.33622208 C10.7503393,7.35630298 10.609773,7.37638388 10.5963858,7.27597938 C10.5763049,7.15549398 10.7101775,7.11533218 10.8038884,7.12871944 C11.2055064,7.16888124 11.6004307,7.12871944 12.0221296,7.12871944 Z" id="Path"></path>
                        <path d="M15.4894317,11.7406328 C15.5095126,11.8945863 15.5362871,12.0686208 15.5496744,12.2426553 C15.556368,12.3430598 15.6032235,12.5104006 15.4559635,12.5170942 C15.3354781,12.5237879 15.3823336,12.3631407 15.3689463,12.2694298 C15.355559,12.1087826 15.3957208,11.9414418 15.3287845,11.7807946 C15.2819291,11.6603092 15.2685418,11.4929683 15.3957208,11.4193384 C15.5429808,11.3323211 15.5095126,11.4728874 15.5095126,11.553211 C15.5095126,11.6067601 15.502819,11.6603092 15.4894317,11.7406328 Z" id="Path"></path>
                        <path d="M8.76902387,7.74453371 C9.00330104,7.79808277 9.1170928,8.01897267 9.3379827,8.07921537 C9.4183063,8.1059899 9.44508083,8.23316894 9.39153177,8.31349253 C9.32459543,8.41389703 9.24427183,8.3268798 9.20411004,8.28002437 C9.0568501,8.11268354 8.64184484,8.1461517 8.76902387,7.74453371 Z" id="Path"></path>
                        <path d="M8.20006504,8.0055854 C8.28708228,8.19970077 8.19337141,8.25994347 8.07957964,8.3268798 C7.96578788,8.39381613 7.79844705,8.39381613 7.73820435,8.56115697 C7.71142981,8.6481742 7.62441258,8.65486783 7.55078261,8.58123787 C7.49053992,8.51430153 7.53070172,8.45405883 7.58425078,8.41389703 C7.78505978,8.286718 7.98586878,8.15284534 8.20006504,8.0055854 Z" id="Path"></path>
                        <path d="M6.71407845,9.25060119 C6.88811292,9.39116749 6.89480655,9.52504016 6.85464475,9.67230009 C6.82117659,9.81286639 6.82117659,10.0605308 6.64044849,10.0136754 C6.44633312,9.96681995 6.61367396,9.77939822 6.64714212,9.65221919 C6.67391666,9.53173379 6.68730392,9.41124839 6.71407845,9.25060119 Z" id="Path"></path>
                        <path d="M15.2484609,12.0150717 C15.0543455,12.1422508 14.7732129,12.1489444 14.7196639,12.430077 C14.7129702,12.4434643 14.6661148,12.4702388 14.6393403,12.4635452 C14.5790976,12.4501579 14.5924848,12.4033025 14.5924848,12.356447 C14.6192594,12.102089 14.6928893,11.8945863 15.0141837,11.9347481 C15.0878137,11.9347481 15.1681373,11.8878927 15.2484609,12.0150717 Z" id="Path"></path>
                        <path d="M19.0906064,3.47399567 C18.9902019,3.46060841 18.8831038,3.49407657 18.8697165,3.39367207 C18.8496356,3.25310577 18.9768146,3.28657394 19.0504446,3.27318667 C19.2244791,3.24641214 19.3985135,3.21963761 19.5792416,3.19955671 C19.6127098,3.19286307 19.6796461,3.21294397 19.6930334,3.23971851 C19.7198079,3.29996121 19.6729525,3.34681664 19.6194034,3.36020391 C19.4319817,3.40705934 19.24456,3.44052751 19.0906064,3.47399567 Z" id="Path"></path>
                        <path d="M6.92158109,9.22382666 C6.96843652,8.96277496 7.07553465,8.80212776 7.22948822,8.67494873 C7.27634365,8.64148057 7.32319908,8.60131877 7.37674815,8.64148057 C7.43699085,8.688336 7.45037812,8.77535323 7.39682905,8.81551503 C7.24956912,8.93600043 7.16255188,9.12342216 6.92158109,9.22382666 Z" id="Path"></path>
                        <path d="M10.3888831,9.91996452 C10.2750914,9.84633456 10.2951723,9.73923642 10.2951723,9.64552556 C10.2951723,9.53173379 10.2349296,9.39786113 10.3487213,9.30415026 C10.3688022,9.29076299 10.4223513,9.29076299 10.4424322,9.30415026 C10.5629176,9.41124839 10.5093685,9.54512106 10.5026749,9.67230009 C10.4959813,9.75931732 10.482594,9.84633456 10.3888831,9.91996452 Z" id="Path"></path>
                        <path d="M10.4424322,12.9387931 C10.6365476,12.7647587 10.8440502,12.8785504 11.0381656,12.8250014 C11.085021,12.8116141 11.1051019,12.8718568 11.0984083,12.9187122 C11.085021,12.9856486 11.0381656,13.0057295 10.9779229,12.9990358 C10.7971948,12.9722613 10.6164667,12.9521804 10.4424322,12.9387931 Z" id="Path"></path>
                    </g>
                </g>
            </g>
        </g>
    </g>
</svg>