<?xml version="1.0" encoding="UTF-8"?>
<svg width="92px" height="92px" viewBox="0 0 92 92" version="1.1" xmlns="http://www.w3.org/2000/svg" xmlns:xlink="http://www.w3.org/1999/xlink">
    <title>image/logo/insurance/viriyah</title>
    <g id="Symbols" stroke="none" stroke-width="1" fill="none" fill-rule="evenodd">
        <g id="image/logo/insurance/viriyah">
            <rect id="Mask" stroke="#EBEBEB" fill="#FFFFFF" x="0.5" y="0.5" width="91" height="91" rx="12"></rect>
            <g id="Group" transform="translate(-12.000000, -12.000000)">
                <g id="image/logo/square-big/viriyah" transform="translate(18.000000, 18.000000)">
                    <g id="Group-7" transform="translate(9.440000, 18.560000)">
                        <path d="M36.4910196,41.41163 L35.1109959,39.1310291 L34.2742595,39.1310291 L34.2742595,42.9662708 L35.0011557,42.9662708 L35.0011557,40.506277 L36.4910196,42.9662708 L37.2188028,42.9662708 L37.2188028,39.1310291 L36.4910196,39.1310291 L36.4910196,41.41163 Z M32.8201713,42.9662708 L33.6919442,42.9662708 L33.6919442,39.1310291 L32.8201713,39.1310291 L32.8201713,42.9662708 Z M29.7314906,40.6871415 L28.5681905,40.6871415 L28.5681905,39.1310291 L27.6950871,39.1310291 L27.6950871,42.9662708 L28.5681905,42.9662708 L28.5681905,41.41163 L29.7314906,41.41163 L29.7314906,42.9662708 L30.6032634,42.9662708 L30.6032634,39.1310291 L29.7314906,39.1310291 L29.7314906,40.6871415 Z M19.8442528,42.9662708 L20.7160257,42.9662708 L20.7160257,39.1310291 L19.8442528,39.1310291 L19.8442528,42.9662708 Z M24.533081,39.1310291 L23.6976751,39.1310291 L22.8978971,40.5438038 L22.061752,39.1310291 L21.0808782,39.1310291 L22.3883158,41.3399612 L22.3883158,42.9662708 L23.26068,42.9662708 L23.26068,41.3399612 L24.2065173,39.711444 L24.533081,39.1310291 Z M25.5152854,41.41163 L25.1146572,41.41163 L25.5152854,40.1804558 L25.9515414,41.41163 L25.5152854,41.41163 Z M25.5152854,39.1310291 L25.1517633,39.1310291 L24.2065173,41.9905733 L23.8795101,42.9662708 L24.605815,42.9662708 L24.8980814,42.0984446 L26.1324893,42.0984446 L26.4597922,42.9662708 L27.3692625,42.9662708 L26.059164,39.1310291 L25.5152854,39.1310291 Z M18.4272708,40.6871415 C18.318909,40.7595462 18.2092167,40.7957486 18.0273818,40.7957486 L17.3730717,40.7957486 L17.3730717,39.9271865 L17.9910148,39.9271865 C18.2092167,39.9271865 18.355276,39.9647133 18.4636378,39.9995912 C18.5719996,40.0725846 18.6089579,40.1804558 18.6089579,40.3607317 C18.6089579,40.506277 18.5356326,40.6154727 18.4272708,40.6871415 L18.4272708,40.6871415 Z M19.3003742,41.01414 C19.408736,40.8325396 19.4814699,40.651675 19.4814699,40.4338723 C19.4814699,40.1804558 19.445103,39.9995912 19.3716298,39.8193153 C19.3003742,39.6390393 19.1549062,39.5298436 19.0082556,39.4219724 C18.8627877,39.3127767 18.6816919,39.240372 18.4636378,39.2047583 C18.318909,39.1672315 18.1727019,39.1310291 17.9910148,39.1310291 L16.5005596,39.1310291 L16.5005596,42.9662708 L17.3730717,42.9662708 L17.3730717,41.5195013 L17.9910148,41.5195013 L18.6089579,42.9662708 L19.5178369,42.9662708 L18.8627877,41.3399612 C19.0452139,41.266232 19.1892035,41.1583608 19.3003742,41.01414 L19.3003742,41.01414 Z M56.1179574,40.1804558 C56.1918741,40.0725846 56.2640167,39.9995912 56.3367507,39.9271865 C56.446443,39.8568421 56.5548048,39.8193153 56.7010119,39.7831129 C56.8457407,39.7831129 56.9177355,39.8193153 57.0274278,39.8568421 C57.1001618,39.8923086 57.1721566,39.9647133 57.2462211,40.0363822 C57.2818489,40.1449893 57.3545829,40.2181298 57.3909498,40.326001 C57.3909498,40.4338723 57.4265777,40.5438038 57.4265777,40.651675 L58.263314,40.5438038 C58.2263557,40.326001 58.1536217,40.1087869 58.0823661,39.9271865 C58.0081538,39.7469106 57.9363068,39.6022483 57.791578,39.4581748 C57.6804074,39.3495677 57.5000508,39.240372 57.3174767,39.1672315 C57.1721566,39.0962984 56.9539547,39.0593602 56.7010119,39.0593602 C56.4094847,39.0593602 56.1549158,39.0962984 55.9368617,39.2047583 C55.7565051,39.3127767 55.5740788,39.4581748 55.4278717,39.6752417 C55.2818124,39.8568421 55.2104089,40.0363822 55.1384141,40.2897987 C55.0643496,40.5438038 55.0273913,40.7957486 55.0273913,41.0490179 C55.0273913,41.3024343 55.0643496,41.5570281 55.1384141,41.8089729 C55.2104089,42.0275115 55.3181794,42.2438426 55.4642387,42.4248544 C55.5740788,42.6051303 55.7565051,42.7867307 55.97382,42.8597241 C56.1918741,42.9662708 56.446443,43.04 56.7010119,43.0039448 C56.9539547,43.0039448 57.1357896,42.9662708 57.3174767,42.8946019 C57.5000508,42.8221972 57.6453709,42.7505284 57.791578,42.6051303 C57.8999398,42.4972591 58.0081538,42.351861 58.0823661,42.1715851 C58.1907279,41.9905733 58.2263557,41.8089729 58.263314,41.5932305 L57.4630925,41.4832989 C57.4630925,41.5932305 57.4265777,41.6635749 57.3909498,41.7727706 C57.3909498,41.8464997 57.3174767,41.954371 57.2818489,42.0275115 C57.2085236,42.0984446 57.1721566,42.1359714 57.0637948,42.2077874 C56.9918,42.2438426 56.8819599,42.2438426 56.7730067,42.2438426 C56.5911718,42.2438426 56.4822187,42.2077874 56.3723785,42.1359714 C56.2640167,42.0622422 56.1918741,41.9905733 56.1549158,41.8806418 C56.0815905,41.737304 56.0459626,41.628697 56.0095957,41.4832989 C55.97382,41.3399612 55.97382,41.1583608 55.97382,41.01414 C55.97382,40.868742 55.97382,40.7246684 56.0095957,40.5779458 C56.0459626,40.4338723 56.0815905,40.2897987 56.1179574,40.1804558 L56.1179574,40.1804558 Z M53.8290547,41.41163 L52.4840675,39.1310291 L51.6115555,39.1310291 L51.6115555,42.9662708 L52.3380083,42.9662708 L52.3380083,40.506277 L53.8648304,42.9662708 L54.5924658,42.9662708 L54.5924658,39.1310291 L53.8290547,39.1310291 L53.8290547,41.41163 Z M58.6620204,42.9662708 L61.207266,42.9662708 L61.207266,42.2438426 L59.5357151,42.2438426 L59.5357151,41.41163 L60.8793718,41.41163 L60.8793718,40.6871415 L59.5357151,40.6871415 L59.5357151,39.8568421 L61.207266,39.8568421 L61.207266,39.1310291 L58.6620204,39.1310291 L58.6620204,42.9662708 Z M49.5401156,41.41163 L49.1396352,41.41163 L49.5401156,40.1804558 L49.9394133,41.41163 L49.5401156,41.41163 Z M49.5401156,39.1310291 L49.1767413,39.1310291 L47.8679733,42.9662708 L48.6306452,42.9662708 L48.9221724,42.0984446 L50.1582065,42.0984446 L50.4847702,42.9662708 L51.3927622,42.9662708 L50.0491055,39.1310291 L49.5401156,39.1310291 Z M43.36098,41.6635749 C43.36098,41.737304 43.3253522,41.8089729 43.3253522,41.8806418 C43.3253522,41.9905733 43.288246,42.0275115 43.2162512,42.0984446 C43.1798843,42.1359714 43.1071503,42.2077874 43.0336771,42.2077874 C42.961091,42.2438426 42.85199,42.2794563 42.7065221,42.2794563 C42.5981603,42.2794563 42.488468,42.2438426 42.4164732,42.2077874 C42.3067809,42.1715851 42.2340469,42.1359714 42.1976799,42.0622422 C42.1620521,42.0275115 42.1256851,41.954371 42.0879876,41.8464997 L42.0879876,39.1310291 L41.1804391,39.1310291 L41.1804391,41.5570281 C41.1804391,41.7727706 41.2168061,41.954371 41.2531731,42.1359714 C41.2882096,42.3156587 41.3615349,42.4610567 41.4706358,42.6051303 C41.5803281,42.7130015 41.7250569,42.8221972 41.9068919,42.8946019 C42.0879876,43.0039448 42.3437392,43.04 42.6345273,43.04 C42.9239848,43.04 43.1435173,43.0039448 43.3253522,42.9308043 C43.5049696,42.8597241 43.6525073,42.7505284 43.7614604,42.6426571 C43.8698222,42.5334614 43.978184,42.3879162 44.0152901,42.2077874 C44.0866936,42.0622422 44.0866936,41.8806418 44.0866936,41.7011017 L44.0866936,39.1310291 L43.36098,39.1310291 L43.36098,41.6635749 Z M40.3437027,40.9411467 C40.1989739,40.8325396 40.0529147,40.7957486 39.9087772,40.7246684 C39.7627179,40.6871415 39.5802917,40.6154727 39.4361542,40.6154727 C39.3628289,40.5779458 39.2531366,40.5438038 39.1811418,40.5438038 C39.1084078,40.506277 38.9993069,40.506277 38.9273121,40.4713991 C38.8182111,40.3984057 38.7441466,40.3607317 38.7441466,40.2897987 C38.7077796,40.2181298 38.7077796,40.1449893 38.7441466,40.0725846 C38.7818441,39.9995912 38.8182111,39.9271865 38.9273121,39.8923086 C38.9993069,39.8568421 39.1084078,39.8193153 39.2175088,39.8193153 C39.3991959,39.8568421 39.5075577,39.8923086 39.61725,39.9647133 C39.6886535,39.9995912 39.7627179,40.1087869 39.8347127,40.2528605 L40.5981238,40.0725846 C40.489762,39.711444 40.3437027,39.4936413 40.089873,39.3127767 C39.8347127,39.1672315 39.5452552,39.0962984 39.2175088,39.0962984 C39.036413,39.0962984 38.8539867,39.1310291 38.7077796,39.1672315 C38.527423,39.240372 38.3813637,39.3127767 38.2730019,39.3842984 C38.1267948,39.4936413 38.0542087,39.6022483 37.9451077,39.7469106 C37.8738521,39.8923086 37.8367459,40.0725846 37.8367459,40.2528605 C37.8367459,40.506277 37.9080016,40.6871415 37.982066,40.8325396 C38.0905757,40.9766132 38.200268,41.0844844 38.3449968,41.1944159 C38.527423,41.266232 38.6721518,41.3399612 38.8539867,41.3739561 C39.036413,41.41163 39.1811418,41.4478324 39.3264619,41.4832989 C39.4719299,41.5195013 39.61725,41.5570281 39.6886535,41.628697 C39.7998241,41.6635749 39.8724102,41.737304 39.8724102,41.8464997 C39.8724102,41.9905733 39.7998241,42.0984446 39.6886535,42.1715851 C39.5452552,42.2077874 39.3991959,42.2438426 39.1811418,42.2438426 C38.8182111,42.2794563 38.5630508,42.0984446 38.4546891,41.737304 L37.6550588,41.9181686 C37.6905388,42.0984446 37.764012,42.2794563 37.8738521,42.4248544 C37.982066,42.5334614 38.0905757,42.677535 38.200268,42.7505284 C38.3449968,42.8597241 38.4904647,42.9308043 38.6721518,42.9662708 C38.8182111,43.0039448 38.9993069,43.0039448 39.2175088,43.0039448 C39.3991959,43.0039448 39.5802917,43.0039448 39.7998241,42.9308043 C39.980772,42.8946019 40.1255008,42.8221972 40.2717079,42.7130015 C40.4177672,42.6051303 40.526129,42.4972591 40.63523,42.351861 C40.7072248,42.2077874 40.7441831,42.0275115 40.7441831,41.8089729 C40.7441831,41.5932305 40.7072248,41.41163 40.63523,41.266232 C40.5630873,41.1583608 40.453395,41.01414 40.3437027,40.9411467 L40.3437027,40.9411467 Z M46.5955722,40.6871415 C46.4872104,40.7595462 46.3418903,40.7957486 46.1950919,40.7957486 L45.5057453,40.7957486 L45.5057453,39.9271865 L46.1600554,39.9271865 C46.3418903,39.9271865 46.4872104,39.9647133 46.5955722,39.9995912 C46.7060037,40.0725846 46.740301,40.1804558 46.740301,40.3607317 C46.740301,40.506277 46.7060037,40.6154727 46.5955722,40.6871415 L46.5955722,40.6871415 Z M47.4318651,41.01414 C47.5408182,40.8325396 47.6141436,40.651675 47.6141436,40.4338723 C47.64918,40.1804558 47.6141436,39.9995912 47.5051904,39.8193153 C47.4318651,39.6390393 47.3233555,39.5298436 47.1409292,39.4219724 C46.9948699,39.3127767 46.8143655,39.240372 46.6313479,39.2047583 C46.4509913,39.1672315 46.3055233,39.1310291 46.1230971,39.1310291 L44.6326419,39.1310291 L44.6326419,42.9662708 L45.5057453,42.9662708 L45.5057453,41.5195013 L46.1230971,41.5195013 L46.740301,42.9662708 L47.6861384,42.9662708 L46.9948699,41.3399612 C47.1772962,41.266232 47.3233555,41.1583608 47.4318651,41.01414 L47.4318651,41.01414 Z M5.63318722,40.6871415 L4.46929579,40.6871415 L4.46929579,39.1310291 L3.59811426,39.1310291 L3.59811426,42.9662708 L4.46929579,42.9662708 L4.46929579,41.41163 L5.63318722,41.41163 L5.63318722,42.9662708 L6.50569925,42.9662708 L6.50569925,39.1310291 L5.63318722,39.1310291 L5.63318722,40.6871415 Z M13.1561273,41.7011017 L12.3570884,39.1310291 L11.4489485,39.1310291 L12.685574,42.9662708 L13.4847607,42.9662708 L14.7193164,39.1310291 L13.9208689,39.1310291 L13.1561273,41.7011017 Z M7.05031706,42.9662708 L9.63119051,42.9662708 L9.63119051,42.2438426 L7.92342043,42.2438426 L7.92342043,41.41163 L9.30418329,41.41163 L9.30418329,40.6871415 L7.92342043,40.6871415 L7.92342043,39.8568421 L9.63119051,39.8568421 L9.63119051,39.1310291 L7.05031706,39.1310291 L7.05031706,42.9662708 Z M0.436108183,39.8923086 L1.38135419,39.8923086 L1.38135419,42.9662708 L2.25312706,42.9662708 L2.25312706,39.8923086 L3.19822523,39.8923086 L3.19822523,39.1310291 L0.436108183,39.1310291 L0.436108183,39.8923086 Z M15.0849081,42.9662708 L15.9559418,42.9662708 L15.9559418,39.1310291 L15.0849081,39.1310291 L15.0849081,42.9662708 Z M42.6345273,37.2137762 L42.6345273,32.9087869 C42.6345273,32.2567031 42.4164732,31.8231579 41.9432588,31.4973367 C41.5439612,31.1725457 40.9267572,31.0632029 40.1989739,31.0632029 C39.653617,31.0632029 39.07278,31.1725457 38.4546891,31.388141 C37.9451077,31.606091 37.5444795,31.7869555 37.3284951,31.968556 L37.3284951,32.6191681 C37.4355264,32.6191681 37.6192832,32.654046 37.8367459,32.7271865 L37.9451077,32.7632417 C37.764012,32.9087869 37.6192832,33.0890629 37.5088517,33.2699274 C37.4004899,33.4877302 37.3284951,33.7766132 37.3284951,34.1036117 L37.3284951,37.2137762 L38.8182111,37.2137762 L38.8182111,33.1622034 C38.8182111,32.8363822 38.9273121,32.5831129 39.1447748,32.4035728 C39.3628289,32.1842984 39.6886535,32.1126295 40.0184695,32.1126295 C40.4177672,32.1126295 40.7072248,32.2219724 40.9267572,32.4377149 C41.071486,32.6191681 41.1434808,32.8363822 41.1434808,33.1622034 L41.1434808,37.2137762 L42.6345273,37.2137762 Z M46.1230971,37.2869167 C46.3055233,37.2137762 46.4509913,37.1413715 46.5599444,37.0335003 C46.8507325,36.8162862 47.0689344,36.4907593 47.285658,36.0557425 L47.3597225,37.2137762 L48.6677514,37.2137762 L48.6677514,31.1725457 L47.1772962,31.1725457 L47.1772962,34.5371569 C47.1772962,35.0063158 47.0689344,35.3333143 46.8507325,35.6583996 C46.6313479,35.9116689 46.4138851,36.0919448 46.1230971,36.1649382 L45.9056343,36.1649382 C45.5777401,36.1649382 45.286952,36.0557425 45.1422232,35.7675953 C44.996164,35.5505284 44.959797,35.2972591 44.959797,34.9346469 L44.959797,31.1725457 L43.4706723,31.1725457 L43.4706723,35.368928 C43.4706723,35.9840736 43.6887264,36.454557 44.0866936,36.8532243 C44.4886523,37.1775738 44.959797,37.3599101 45.5413731,37.3599101 C45.7594272,37.3599101 45.9420013,37.3229719 46.1230971,37.2869167 L46.1230971,37.2869167 Z M5.66955421,29.580231 L0.836736378,29.580231 L0.399741195,30.4841124 L5.66955421,30.4841124 L5.66955421,29.580231 Z M11.5936773,29.580231 L6.76012033,29.580231 L6.32401215,30.4841124 L11.5936773,30.4841124 L11.5936773,29.580231 Z M59.7531779,31.1725457 L59.7531779,35.0438426 C59.7531779,35.439861 59.71755,35.7306571 59.5713429,35.9116689 C59.4260228,36.1649382 59.1352347,36.2735452 58.735937,36.2735452 C58.2990897,36.2735452 57.9719346,36.1649382 57.791578,35.9478712 C57.5726369,35.7675953 57.5000508,35.5505284 57.5000508,35.2972591 L57.5000508,35.2248544 C57.5000508,35.1517138 57.5000508,35.1155115 57.5364178,35.1155115 C57.5726369,34.7905733 57.7173657,34.6088258 57.9719346,34.5011017 C58.1179939,34.391906 58.3367872,34.391906 58.6620204,34.391906 L58.6620204,33.5580746 C58.3367872,33.5580746 58.0446686,33.4877302 57.791578,33.3779458 C57.4630925,33.2337251 57.3174767,33.0166582 57.3174767,32.7632417 L57.3174767,32.654046 C57.3174767,32.4377149 57.3909498,32.3298436 57.5000508,32.2219724 C57.6091518,32.1126295 57.791578,32.1126295 57.9719346,32.1126295 C58.1536217,32.1126295 58.408782,32.1488319 58.6620204,32.2929055 L58.9170328,31.388141 C58.6997179,31.2802698 58.5171438,31.1725457 58.263314,31.1348717 C57.9719346,31.0986694 57.7173657,31.0986694 57.4265777,31.0986694 C56.9539547,31.0986694 56.6275388,31.2086009 56.3367507,31.4605457 C56.0095957,31.7152867 55.8633885,32.1126295 55.8633885,32.5474992 C55.8633885,32.9449893 55.8999034,33.2337251 56.0459626,33.4515278 C56.1918741,33.7766132 56.4094847,33.9582136 56.7010119,34.0660848 C56.5178465,34.1739561 56.4094847,34.2838876 56.3003837,34.391906 C56.0459626,34.6437036 55.8999034,34.9714379 55.8999034,35.3333143 C55.8999034,36.0557425 56.1918741,36.5624282 56.7010119,36.8894267 C57.1721566,37.2137762 57.8635728,37.3947879 58.6997179,37.3947879 C59.6078577,37.3947879 60.2627592,37.1775738 60.6976847,36.8162862 C61.0612067,36.454557 61.28,35.9478712 61.28,35.2595851 L61.28,31.1725457 L59.7531779,31.1725457 Z M24.2065173,37.3947879 L24.4247192,37.3947879 C24.8615666,37.3947879 25.2244973,37.3599101 25.5152854,37.2869167 C25.9515414,37.1775738 26.2423294,36.9972979 26.4961592,36.780231 C26.8595334,36.4190904 27.0413683,35.8762024 27.0413683,35.1879162 L27.0413683,28.64 L25.5516523,28.64 L25.5516523,35.2595851 C25.5516523,35.3333143 25.5516523,35.368928 25.5152854,35.439861 C25.4789184,35.6946019 25.4063322,35.8762024 25.1881303,36.0208646 C25.0062954,36.1649382 24.7155073,36.23749 24.3876131,36.23749 L24.2065173,36.23749 C23.9151379,36.2012877 23.6613082,36.1281472 23.4788819,36.0208646 C23.2977861,35.8386755 23.1894243,35.6221972 23.1894243,35.2595851 L23.1894243,31.1725457 L21.6989692,31.1725457 L21.6989692,35.1879162 C21.6989692,35.9116689 21.9164319,36.4190904 22.2441783,36.780231 C22.6448065,37.1775738 23.2977861,37.3599101 24.2065173,37.3947879 L24.2065173,37.3947879 Z M52.7022695,30.2308431 C52.994388,30.4124435 53.3194734,30.4841124 53.6466285,30.4841124 L56.6275388,30.4841124 L56.6275388,29.542557 L54.4101874,29.542557 C54.1192515,29.542557 53.9010495,29.5076791 53.6466285,29.3630169 C53.3929466,29.2176188 53.2474786,29.0735452 53.2111116,28.9294716 L52.1569125,29.6517527 C52.1931316,29.8335003 52.3749666,30.0505672 52.7022695,30.2308431 L52.7022695,30.2308431 Z M40.1255008,30.2308431 C40.4177672,30.4124435 40.7441831,30.4841124 41.1071138,30.4841124 L44.0516571,30.4841124 L44.0516571,29.542557 L41.8711162,29.542557 C41.5803281,29.542557 41.3259071,29.5076791 41.071486,29.3630169 C40.8526927,29.2176188 40.7072248,29.0735452 40.63523,28.9294716 L39.61725,29.6517527 C39.653617,29.8335003 39.7998241,30.0505672 40.1255008,30.2308431 L40.1255008,30.2308431 Z M52.5924293,32.1126295 C52.994388,32.1126295 53.2831064,32.2219724 53.4655327,32.4377149 C53.6117398,32.6191681 53.7193624,32.8363822 53.7193624,33.1622034 L53.7193624,37.2137762 L55.2104089,37.2137762 L55.2104089,32.9087869 C55.2104089,32.2567031 54.9552487,31.8231579 54.5197318,31.4973367 C54.0836237,31.1725457 53.5018997,31.0632029 52.7384886,31.0632029 C52.2302378,31.0632029 51.6486617,31.1725457 51.028501,31.388141 C50.4847702,31.606091 50.1218395,31.7869555 49.8660879,31.968556 L49.8660879,32.6191681 C49.9757802,32.6191681 50.1218395,32.654046 50.3029353,32.654046 C50.3762606,32.6915728 50.4126276,32.7271865 50.5209894,32.7632417 C50.3029353,32.9087869 50.1582065,33.0890629 50.0854725,33.2699274 C49.9757802,33.4877302 49.8660879,33.7766132 49.8660879,34.1036117 L49.8660879,36.3828881 L49.5401156,36.3828881 L49.5401156,37.2137762 L51.3927622,37.2137762 L51.3927622,33.1622034 C51.3927622,32.8363822 51.5026024,32.5831129 51.7206565,32.4035728 C51.9387106,32.1842984 52.2302378,32.1126295 52.5924293,32.1126295 L52.5924293,32.1126295 Z M34.0931637,33.0528605 C34.3839518,33.2699274 34.6740007,33.3779458 34.9649366,33.3779458 L36.3825099,33.3779458 L36.3825099,32.2567031 L35.4017839,32.2567031 C35.1829907,32.2567031 34.9649366,32.1842984 34.8202078,32.0034338 C34.7103677,31.9310291 34.6383729,31.7869555 34.6383729,31.6776127 L33.5470676,32.4377149 C33.6561685,32.654046 33.8016365,32.8725846 34.0931637,33.0528605 L34.0931637,33.0528605 Z M11.4125816,34.4272253 C11.2308945,34.1739561 11.0126925,33.9930915 10.7575323,33.8865447 C10.5037025,33.7424711 10.0675944,33.6325396 9.44891207,33.4877302 C8.50440523,33.3074543 7.99541524,33.0528605 7.99541524,32.7632417 C7.99541524,32.5831129 8.10510753,32.4377149 8.21361716,32.3298436 C8.39604343,32.2219724 8.65046451,32.1488319 9.04961437,32.1488319 C9.34040244,32.1488319 9.59482352,32.2219724 9.77739762,32.3298436 C9.92138724,32.4377149 10.0312274,32.654046 10.0675944,32.8363822 L11.4489485,32.6191681 C11.3042198,32.1126295 11.0126925,31.7152867 10.5771757,31.4243434 C10.1401805,31.1725457 9.63119051,31.0270005 9.04961437,31.0270005 C8.2862033,31.0270005 7.66826018,31.2086009 7.23200417,31.606091 C6.83285431,31.968556 6.61406105,32.4737701 6.61406105,33.1245294 C6.61406105,33.3779458 6.68738636,33.668742 6.83285431,33.8865447 C7.05031706,34.139814 7.26911032,34.3557036 7.56048972,34.5011017 C7.74099416,34.6088258 8.2862033,34.754371 9.23218848,34.9714379 C9.84939243,35.1155115 10.1765475,35.3333143 10.1765475,35.6221972 C10.1765475,35.8386755 10.0675944,36.0208646 9.81243411,36.1649382 C9.66903583,36.23749 9.41387558,36.2735452 9.12234835,36.2735452 C8.72245932,36.2735452 8.39604343,36.2012877 8.14014402,36.0557425 C7.88705344,35.9478712 7.74099416,35.7306571 7.66826018,35.439861 L6.28749733,35.6946019 C6.28749733,35.8386755 6.32401215,36.0208646 6.43370444,36.23749 C6.61406105,36.5624282 6.83285431,36.8162862 7.19578501,36.9972979 C7.66826018,37.2869167 8.2862033,37.3947879 9.08598136,37.3947879 C9.84939243,37.3947879 10.5037025,37.2137762 10.9763255,36.8532243 C11.4489485,36.4907593 11.7020391,35.9840736 11.7020391,35.3333143 C11.7020391,35.0063158 11.5936773,34.7181686 11.4125816,34.4272253 L11.4125816,34.4272253 Z M19.445103,35.3333143 C19.3003742,35.2248544 19.2255705,35.0787205 19.2255705,34.9714379 L18.1357436,35.6946019 C18.2092167,35.9478712 18.3909038,36.1649382 18.6816919,36.3828881 C18.936113,36.5624282 19.2255705,36.6723597 19.5542039,36.6723597 L20.9726643,36.6723597 L20.9726643,35.5505284 L19.9897208,35.5505284 C19.7716667,35.5505284 19.5898317,35.4773878 19.445103,35.3333143 L19.445103,35.3333143 Z M2.68923524,36.3828881 C2.36222802,36.3828881 2.07129212,36.2012877 1.81613187,35.9116689 C1.59866911,35.6221972 1.49030732,35.3333143 1.49030732,35.0438426 L0.109100962,35.2248544 C0.2900489,35.8762024 0.581576132,36.4190904 1.01650165,36.8162862 C1.49030732,37.2137762 2.07129212,37.4309903 2.7983362,37.4309903 C3.74358221,37.4309903 4.50551494,37.1413715 5.05087192,36.5268145 C5.55971408,35.9478712 5.81561349,35.2248544 5.81561349,34.3195013 C5.81561349,33.3779458 5.5962289,32.654046 5.08856941,32.0389004 C4.54321243,31.388141 3.74358221,31.0632029 2.72575006,31.0632029 C2.07129212,31.0632029 1.45394033,31.2802698 0.945098174,31.6776127 C0.399741195,32.1126295 0.109100962,32.654046 0,33.2699274 L1.38135419,33.4153255 C1.45394033,33.0528605 1.56244996,32.7632417 1.85323803,32.5474992 C2.07129212,32.3298436 2.39844717,32.1842984 2.76137788,32.1842984 C3.30658702,32.1842984 3.70721522,32.4035728 3.92526931,32.8363822 C4.14273207,33.1622034 4.2525722,33.6325396 4.2525722,34.1739561 C4.2525722,34.7905733 4.17983822,35.2595851 3.99667279,35.6221972 C3.74358221,36.1281472 3.30658702,36.3828881 2.68923524,36.3828881 L2.68923524,36.3828881 Z M17.5911258,35.2595851 L17.5911258,31.1725457 L16.0643036,31.1725457 L16.0643036,35.0438426 C16.0643036,35.439861 16.0279366,35.7306571 15.8832078,35.9116689 C15.7384791,36.1649382 15.4463605,36.2735452 15.0472106,36.2735452 C14.6109546,36.2735452 14.3200187,36.1649382 14.1013733,35.9478712 C13.8837627,35.7675953 13.8125071,35.5505284 13.8125071,35.2972591 L13.8125071,35.2248544 C13.8125071,35.1517138 13.8125071,35.1155115 13.8468044,35.1155115 C13.8837627,34.7905733 14.0299698,34.6088258 14.2837996,34.5011017 C14.4298588,34.391906 14.6473216,34.391906 14.9737375,34.391906 L14.9737375,33.5580746 C14.6473216,33.5580746 14.3563857,33.4877302 14.1013733,33.3779458 C13.7748096,33.2337251 13.6293416,33.0166582 13.6293416,32.7632417 L13.6293416,32.654046 C13.6293416,32.4377149 13.7020756,32.3298436 13.8125071,32.2219724 C13.9208689,32.1126295 14.1013733,32.1126295 14.2837996,32.1126295 C14.4662258,32.1126295 14.7193164,32.1488319 14.9737375,32.2929055 L15.2288977,31.388141 C15.0472106,31.2802698 14.8282695,31.1725457 14.5745876,31.1348717 C14.3200187,31.0986694 14.0299698,31.0986694 13.7384426,31.0986694 C13.2658196,31.0986694 12.9386645,31.2086009 12.6478765,31.4605457 C12.3570884,31.7152867 12.1752535,32.1126295 12.1752535,32.5474992 C12.1752535,32.9449893 12.2473961,33.2337251 12.3570884,33.4515278 C12.5018172,33.7766132 12.7206104,33.9582136 13.0113985,34.0660848 C12.8303027,34.1739561 12.7206104,34.2838876 12.6122486,34.391906 C12.3570884,34.6437036 12.2473961,34.9714379 12.2473961,35.3333143 C12.2473961,36.0557425 12.5018172,36.5624282 13.0113985,36.8894267 C13.4847607,37.2137762 14.1754378,37.3947879 15.0472106,37.3947879 C15.9195748,37.3947879 16.5732936,37.1775738 17.010141,36.8162862 C17.3730717,36.454557 17.5911258,35.9478712 17.5911258,35.2595851 L17.5911258,35.2595851 Z M36.3825099,36.6723597 L36.3825099,35.5505284 L35.4017839,35.5505284 C35.1829907,35.5505284 35.0011557,35.4773878 34.8202078,35.3333143 C34.7103677,35.2248544 34.6383729,35.0787205 34.6383729,34.9714379 L33.5470676,35.6946019 C33.6561685,35.9478712 33.8016365,36.1649382 34.0931637,36.3828881 C34.3839518,36.5624282 34.6740007,36.6723597 34.9649366,36.6723597 L36.3825099,36.6723597 Z M19.408736,32.0034338 C19.3003742,31.9310291 19.2255705,31.7869555 19.2255705,31.6776127 L18.1357436,32.4377149 C18.2092167,32.654046 18.3909038,32.8725846 18.6816919,33.0528605 C18.936113,33.2699274 19.2255705,33.3779458 19.5542039,33.3779458 L20.9726643,33.3779458 L20.9726643,32.2567031 L19.9897208,32.2567031 C19.7351518,32.2567031 19.5542039,32.1842984 19.408736,32.0034338 L19.408736,32.0034338 Z M32.8201713,34.4272253 C32.6019694,34.1739561 32.4208736,33.9930915 32.1664526,33.8865447 C31.9120315,33.7424711 31.4756276,33.6325396 30.8570932,33.4877302 C29.9118472,33.3074543 29.4035963,33.0528605 29.4035963,32.7632417 C29.4035963,32.5831129 29.5140278,32.4377149 29.6210591,32.3298436 C29.8042245,32.2219724 30.0580543,32.1488319 30.4572041,32.1488319 C30.7487314,32.1488319 31.0024133,32.2219724 31.1849874,32.3298436 C31.3303075,32.4377149 31.4394085,32.654046 31.4756276,32.8363822 L32.8563905,32.6191681 C32.7116617,32.1126295 32.4208736,31.7152867 31.9853568,31.4243434 C31.5483616,31.1725457 31.0758864,31.0270005 30.4572041,31.0270005 C29.6951236,31.0270005 29.0757021,31.2086009 28.6409244,31.606091 C28.2402962,31.968556 28.0222422,32.4737701 28.0222422,33.1245294 C28.0222422,33.3779458 28.0955675,33.668742 28.2759241,33.8865447 C28.4583503,34.139814 28.6765523,34.3557036 28.9674882,34.5011017 C29.1499144,34.6088258 29.7314906,34.754371 30.6396304,34.9714379 C31.2575735,35.1155115 31.5847286,35.3333143 31.5847286,35.6221972 C31.5847286,35.8386755 31.4756276,36.0208646 31.2204674,36.1649382 C31.0758864,36.23749 30.8214654,36.2735452 30.5306773,36.2735452 C30.1300491,36.2735452 29.8042245,36.2012877 29.5490643,36.0557425 C29.2946432,35.9478712 29.1499144,35.7306571 29.0757021,35.439861 L27.6950871,35.6946019 C27.6950871,35.8386755 27.7320454,36.0208646 27.8411464,36.23749 C28.0222422,36.5624282 28.2759241,36.8162862 28.6045575,36.9972979 C29.0757021,37.2869167 29.7314906,37.3947879 30.4949016,37.3947879 C31.2575735,37.3947879 31.9120315,37.2137762 32.3852458,36.8532243 C32.8563905,36.4907593 33.1109594,35.9840736 33.1109594,35.3333143 C33.1109594,35.0063158 33.0024498,34.7181686 32.8201713,34.4272253 L32.8201713,34.4272253 Z" id="Fill-1" fill="#204791"></path>
                        <path d="M23.0199891,0 L38.6570553,0 C41.2357078,0 43.328193,2.10760649 43.328193,4.6534939 L43.328193,20.2533623 C43.328193,22.8017189 41.2357078,24.9056216 38.6570553,24.9056216 L23.0199891,24.9056216 C20.4419558,24.9056216 18.3500897,22.8017189 18.3500897,20.2533623 L18.3500897,4.6534939 C18.3500897,2.10760649 20.4419558,0 23.0199891,0" id="Fill-3" fill="#204791"></path>
                        <path d="M35.7631758,10.6333431 L33.736163,13.7709098 L34.9172973,15.5795902 L32.8687699,18.7171568 L28.7898246,18.7171568 L26.7601806,15.5795902 L27.9439461,13.7709098 L25.9169334,10.6333431 L22.6818544,15.5795902 L26.7601806,21.8325008 L34.9172973,21.8325008 L38.9968617,15.5795902 L35.7631758,10.6333431 Z M29.1473689,17.1379566 L32.5294898,17.1379566 L32.5294898,12.9693495 L34.9172973,9.32853147 L33.2060379,6.71705625 L32.5294898,7.76893044 L32.191448,7.24422794 L32.8687699,6.2130332 L30.8391259,3.07438629 L28.7898246,6.2130332 L29.4860298,7.24422794 L29.1473689,7.76893044 L28.4519376,6.71705625 L26.7601806,9.32853147 L29.1473689,12.9693495 L29.1473689,17.1379566 Z" id="Fill-5" fill="#F6B917"></path>
                    </g>
                </g>
            </g>
        </g>
    </g>
</svg>