<svg width="109" height="64" viewBox="0 0 109 64" xmlns="http://www.w3.org/2000/svg">
    <defs>
        <linearGradient x1="0%" y1="51.442%" x2="100%" y2="48.558%" id="gtoitgwada">
            <stop stop-color="#005F2A" offset="0%"/>
            <stop stop-color="#1EB58F" offset="65.32%"/>
            <stop stop-color="#1B6AFF" offset="99.979%"/>
        </linearGradient>
    </defs>
    <g fill="none" fill-rule="evenodd">
        <path d="M15.677 15H104V6a6 6 0 0 0-6-6H33.267l-5.061 2.267L15.676 15z" fill="url(#gtoitgwada)" transform="translate(2.5 8)"/>
        <path stroke="#1D1D1D" stroke-width="1.5" stroke-linecap="round" stroke-linejoin="round" d="M3.5 33.867h5M37.5 28.477h5M48.5 28.477h5"/>
        <path d="m35.5 44.005 39 .09" stroke="#1D1D1D" stroke-width="1.5" fill="#FFF" stroke-linecap="round" stroke-linejoin="round"/>
        <path d="M12.462 50H6.5a4 4 0 0 1-4-4v-9.035a12 12 0 0 1 7.765-11.228L17.522 23h0L29.67 11.342A12 12 0 0 1 37.979 8H100.5a6 6 0 0 1 6 6v32a4 4 0 0 1-4 4h-4.978 0" stroke="#1D1D1D" stroke-width="1.5" stroke-linecap="round" stroke-linejoin="round"/>
        <path d="M97.5 47.5a8.5 8.5 0 1 1-17 0 8.5 8.5 0 0 1 17 0zM90.202 46.298l-2.404 2.404M21 39a8.5 8.5 0 1 1 0 17 8.5 8.5 0 0 1 0-17zM19.798 46.298l2.404 2.404" stroke="#1D1D1D" stroke-width="1.5" stroke-linecap="round" stroke-linejoin="round"/>
        <path stroke="#1D1D1D" stroke-width="1.5" fill="#FFF" stroke-linejoin="round" d="M17.352 23.031H106.5"/>
        <path stroke="#1D1D1D" stroke-width="1.5" fill="#FFF" d="M45.5 8v15"/>
        <path stroke="#1D1D1D" stroke-width="1.5" fill="#FFF" stroke-linecap="round" stroke-linejoin="round" d="M29.5 50h51"/>
    </g>
</svg>
