<?xml version="1.0" encoding="UTF-8"?>
<svg xmlns="http://www.w3.org/2000/svg" width="80" height="80" viewBox="0 0 80 80">
  <g fill="none" fill-rule="evenodd">
    <path d="M20.987 38.314c0 11.352 9.203 20.555 20.555 20.555 11.356 0 20.559-9.203 20.559-20.555h10.278C72.379 57.47 56.849 73 37.693 73 18.53 73 3 57.47 3 38.314z" stroke="#1DA578"></path>
    <path d="M77.964 14.123c-.144 1.641-.824 3.07-1.75 4.396-1.625 2.317-3.563 4.32-5.96 5.85-.82.523-1.685.952-2.671 1.076-.765.095-1.466-.127-2.153-.43a13.259 13.259 0 0 1-3.254-2.152 22.224 22.224 0 0 1-4.334-4.994 8.24 8.24 0 0 1-1.362-4.452c0-1.917.542-3.626 1.96-4.968 1.67-1.582 4.044-1.881 6.157-.835a7.16 7.16 0 0 1 2.428 1.98c.054.068.11.133.166.2a.19.19 0 0 0 .052.021c.243-.273.476-.56.734-.82a6.343 6.343 0 0 1 3.4-1.88 5.256 5.256 0 0 1 5.548 2.401c.906 1.407 1.183 2.959 1.039 4.607zM36.208 14.123c-.144 1.641-.824 3.07-1.75 4.396-1.624 2.317-3.563 4.32-5.96 5.85-.82.523-1.685.952-2.671 1.076-.765.095-1.466-.127-2.152-.43a13.259 13.259 0 0 1-3.255-2.152 22.224 22.224 0 0 1-4.334-4.994 8.24 8.24 0 0 1-1.362-4.452c0-1.917.542-3.626 1.96-4.968 1.67-1.582 4.044-1.881 6.157-.835a7.16 7.16 0 0 1 2.428 1.98c.054.068.11.133.166.2a.19.19 0 0 0 .052.021c.243-.273.476-.56.734-.82a6.343 6.343 0 0 1 3.4-1.88 5.256 5.256 0 0 1 5.548 2.401c.906 1.407 1.184 2.959 1.039 4.607z" stroke="#EB5748"></path>
  </g>
</svg>
