<?xml version="1.0" encoding="UTF-8"?>
<svg xmlns="http://www.w3.org/2000/svg" xmlns:xlink="http://www.w3.org/1999/xlink" width="160px" height="250px" viewBox="0 0 160 250" version="1.1">
  <title>illustrate/about-us/element-heygoody-logo-left</title>
  <defs>
    <rect id="path-1" x="0" y="0" width="160" height="250"></rect>
    <rect id="path-3" x="0" y="0" width="194" height="310"></rect>
  </defs>
  <g id="illustrate/about-us/element-heygoody-logo-left" stroke="none" stroke-width="1" fill="none" fill-rule="evenodd">
    <g id="illustrate/home/element-heygoody-left">
      <mask id="mask-2" fill="white">
        <use xlink:href="#path-1"></use>
      </mask>
      <g id="Mask"></g>
      <g mask="url(#mask-2)" id="Combined-Shape-Copy-2">
        <g transform="translate(-29.000000, -40.000000)">
          <mask id="mask-4" fill="white">
            <use xlink:href="#path-3"></use>
          </mask>
          <g id="Mask"></g>
          <path d="M11.7204384,276.499596 L9.20185997,276.52 L8.66656109,276.52 C-75.4470561,276.52 -143.634615,208.332441 -143.634615,124.218824 L-64.5248538,124.218824 C-64.5248538,174.06393 -24.1174112,214.471373 25.7276952,214.471373 L26.0449094,214.471373 C75.8900158,214.471373 116.297458,174.06393 116.297458,124.218824 L161.503036,124.218824 C161.503036,207.491305 94.6724095,275.154656 11.7204384,276.499596 Z M138.969638,-11.16 C160.776872,-11.16 178.455128,6.51825612 178.455128,28.3254902 C178.455128,49.9146519 161.128669,67.4570024 139.622603,67.8056905 L138.969638,67.8109804 L138.830857,67.8109804 C117.023623,67.8109804 99.3453666,50.1327243 99.3453666,28.3254902 C99.3453666,6.51825612 117.023623,-11.16 138.830857,-11.16 L138.969638,-11.16 Z M-44.6780228,-11.16 C-22.8707887,-11.16 -5.19253261,6.51825612 -5.19253261,28.3254902 C-5.19253261,49.9146519 -22.5189914,67.4570024 -44.025058,67.8056905 L-44.6780228,67.8109804 L-44.816804,67.8109804 C-66.6240381,67.8109804 -84.3022942,50.1327243 -84.3022942,28.3254902 C-84.3022942,6.51825612 -66.6240381,-11.16 -44.816804,-11.16 L-44.6780228,-11.16 Z" stroke="#FFFFFF" stroke-width="0.6208" mask="url(#mask-4)"></path>
        </g>
      </g>
    </g>
  </g>
</svg>
