<?xml version="1.0" encoding="UTF-8"?>
<svg xmlns="http://www.w3.org/2000/svg" xmlns:xlink="http://www.w3.org/1999/xlink" width="216px" height="300px" viewBox="0 0 216 300" version="1.1">
  <title>illustrate/about-us/element-heygoody-logo-right</title>
  <defs>
    <rect id="path-1" x="0" y="0" width="216" height="300"></rect>
    <rect id="path-3" x="0" y="0" width="226" height="361"></rect>
  </defs>
  <g id="illustrate/about-us/element-heygoody-logo-right" stroke="none" stroke-width="1" fill="none" fill-rule="evenodd">
    <g id="illustrate/home/element-heygoody-right">
      <mask id="mask-2" fill="white">
        <use xlink:href="#path-1"></use>
      </mask>
      <g id="Mask"></g>
      <g mask="url(#mask-2)" id="Combined-Shape">
        <g transform="translate(5.000000, -9.000000)">
          <mask id="mask-4" fill="white">
            <use xlink:href="#path-3"></use>
          </mask>
          <g id="Mask"></g>
          <path d="M188.288974,347.980239 L185.356049,348.004 L184.600766,348.004 C86.6491024,348.004 7.24358974,268.598487 7.24358974,170.646824 L99.4023842,170.646824 C99.4023842,228.692254 146.457503,275.747373 204.502933,275.747373 L204.950508,275.747373 C262.995939,275.747373 310.051057,228.692254 310.051057,170.646824 L362.713225,170.646824 C362.713225,267.618971 284.887882,346.414035 188.288974,347.980239 Z M336.480048,12.996 C361.874924,12.996 382.461538,33.5826144 382.461538,58.9774902 C382.461538,84.1184172 362.284598,104.546767 337.240436,104.95282 L336.480048,104.95898 L336.284234,104.95898 C310.889358,104.95898 290.302744,84.372366 290.302744,58.9774902 C290.302744,33.5826144 310.889358,12.996 336.284234,12.996 L336.480048,12.996 Z M122.53999,12.996 C147.934866,12.996 168.52148,33.5826144 168.52148,58.9774902 C168.52148,84.1184172 148.344539,104.546767 123.300378,104.95282 L122.53999,104.95898 L122.344176,104.95898 C96.9492999,104.95898 76.3626856,84.372366 76.3626856,58.9774902 C76.3626856,33.5826144 96.9492999,12.996 122.344176,12.996 L122.53999,12.996 Z" stroke="#FFFFFF" stroke-width="0.72192" mask="url(#mask-4)"></path>
        </g>
      </g>
    </g>
  </g>
</svg>
