<?xml version="1.0" encoding="UTF-8"?>
<svg xmlns="http://www.w3.org/2000/svg" width="24" height="24" viewBox="0 0 24 24">
  <g fill="none" fill-rule="evenodd">
    <path d="M15.49 13.884A5.582 5.582 0 0 0 12 12.665V19h5.56v-.852a5.46 5.46 0 0 0-2.07-4.264zM15.455 8.407C15.455 6.528 13.905 5 12 5v6.813c1.905 0 3.455-1.527 3.455-3.406zM8.51 13.884a5.46 5.46 0 0 0-2.07 4.264V19H12v-6.335a5.582 5.582 0 0 0-3.49 1.219z" fill="#096B65"></path>
    <path d="M12 11.813V5c-1.905 0-3.455 1.528-3.455 3.407s1.55 3.406 3.455 3.406z" fill="#088B86"></path>
    <g>
      <path d="M18.513 11.852c-1.45-.086-2.602-1.276-2.602-2.726 0-1.506 1.243-2.732 2.77-2.732l.169.005c1.45.086 2.601 1.276 2.601 2.727 0 1.506-1.242 2.73-2.77 2.73zM23 16.754c0-2.348-1.937-4.258-4.319-4.258a4.33 4.33 0 0 0-3.19 1.388 5.46 5.46 0 0 1 2.042 3.722H23v-.852zM8.51 13.884a4.33 4.33 0 0 0-3.191-1.388C2.937 12.496 1 14.406 1 16.754v.852h5.467a5.46 5.46 0 0 1 2.042-3.722zm-3.36-2.032c-1.449-.086-2.601-1.276-2.601-2.726 0-1.506 1.242-2.732 2.77-2.732l.168.005c1.45.086 2.602 1.276 2.602 2.727 0 1.506-1.243 2.73-2.77 2.73z" stroke="#FFF"></path>
      <path d="m12 12.665.281.007a5.578 5.578 0 0 1 3.21 1.212 5.46 5.46 0 0 1 2.07 4.264V19H6.44v-.852a5.46 5.46 0 0 1 2.07-4.264A5.582 5.582 0 0 1 12 12.665zm-.19-.857c-1.817-.097-3.265-1.585-3.265-3.401C8.545 6.528 10.095 5 12 5l.19.005c1.817.097 3.265 1.586 3.265 3.402 0 1.879-1.55 3.406-3.455 3.406z" fill="#1DA578"></path>
    </g>
  </g>
</svg>
