<?xml version="1.0" encoding="UTF-8"?>
<svg xmlns="http://www.w3.org/2000/svg" width="24" height="24" viewBox="0 0 24 24">
  <g fill="none" fill-rule="evenodd">
    <path d="M16.806 2c.807.01 3.031.133 4.084 1.186 1.479 1.48 1.48 5.559 0 7.04-.593.593-1.553.88-2.254 1.015a10.13 10.13 0 0 1-1.931.17c-.256-.001-.513-.01-.768-.029l-2.762 1.657v-2.34a2.775 2.775 0 0 1-.656-.473c-1.479-1.48-1.48-5.559 0-7.04C13.619 2.086 16.001 2 16.705 2z" fill="#1DA578" fill-rule="nonzero"></path>
    <path d="M14.352 6.118V4.94h4.705v1.177h-4.705zm0 2.353V7.294h4.705v1.177h-4.705z" fill="#FFF"></path>
    <g stroke="#FFF">
      <path d="M6.826 16.272c-1.142-1.18-2.18-2.345-2.997-3.449-1.334-1.8-2.084-3.44-1.75-4.725.08-.306.244-.588.474-.819l.13-.129.214-.215.27-.27.293-.292.285-.285.472-.472 1.598 1.556 1.73 1.771-.68.68a.567.567 0 0 0-.164.438c.037.562.577 1.433 1.227 2.288a26.292 26.292 0 0 0 1.906 2.207c.884.917 2.815 2.633 4.079 2.718a.567.567 0 0 0 .439-.165l.446-.446.21-.21.011-.011.002-.002.01-.01 1.453 1.446 1.874 1.882-1.664 1.663a1.803 1.803 0 0 1-.819.475c-1.368.355-2.835-.215-4.533-1.474-1.373-1.017-2.89-2.495-4.083-3.706z"></path>
      <path d="m6.327 3.505-2.11 2.11 3.327 3.328 2.11-2.11-3.327-3.328zM17.14 14.32l-2.11 2.11 3.328 3.328 2.11-2.11-3.327-3.328z"></path>
    </g>
  </g>
</svg>
