<?xml version="1.0" encoding="UTF-8"?>
<svg xmlns="http://www.w3.org/2000/svg" width="24" height="24" viewBox="0 0 24 24">
  <g fill="none" fill-rule="evenodd">
    <path d="M4.625 20.462h1.637v.828a.71.71 0 0 1-.71.71H3.184a.71.71 0 0 1-.71-.71v-2.81c0 1.255.868 1.982 2.15 1.982zM21.416 17.781v3.509a.71.71 0 0 1-.71.71h-2.368a.71.71 0 0 1-.71-.71l-.001-.829h1.637c1.283 0 2.151-.73 2.151-1.98v-.7z" stroke="#FFF" stroke-linecap="round" stroke-linejoin="round"></path>
    <path d="M3.91 10.464a.406.406 0 0 0-.436-.233l-1.109.192a.429.429 0 0 0-.365.425v.212c0 .205.145.376.345.421l1.57.351.365-.551-.37-.817zM21.635 10.423l-1.11-.188a.4.4 0 0 0-.435.233l-.37.821.37.552 1.565-.36a.43.43 0 0 0 .345-.42v-.213a.425.425 0 0 0-.365-.425z" stroke="#FFF" fill="#FFF" stroke-linecap="round" stroke-linejoin="round"></path>
    <path d="M4.368 10.97c.642-2.161 1.516-3.363 2.62-3.606 1.658-.364 6.804-.381 8.598-.131 1.793.25 2.516.201 3.541 2.324.684 1.415.882 1.886.593 1.414H4.368z"></path>
    <path d="m19.749 11.188-.113-.172-.952-2.25a2.327 2.327 0 0 0-1.775-1.402c-1.642-.25-3.3-.372-4.962-.364a31.95 31.95 0 0 0-4.958.364 2.334 2.334 0 0 0-1.78 1.401l-.948 2.251-.113.172-1.123 1.72a3.402 3.402 0 0 0-.551 1.855v3.717c0 1.255.868 1.982 2.15 1.982h14.64c1.283 0 2.151-.731 2.151-1.982v-3.717a3.326 3.326 0 0 0-.543-1.855l-1.123-1.72z" stroke="#FFF" stroke-linecap="round" stroke-linejoin="round"></path>
    <path d="M4.303 15.031s1.69.106 1.918.175c.228.069 1.104 1.746 1.104 1.746l-2.852-.406a.645.645 0 0 1-.531-.487 1.474 1.474 0 0 1-.046-.447c.038-.39.162-.58.407-.58zM19.59 15.031s-1.69.106-1.918.175c-.228.069-1.104 1.746-1.104 1.746l2.852-.406a.645.645 0 0 0 .531-.487c.038-.147.054-.297.042-.447-.033-.39-.158-.58-.403-.58zM9.497 17.2l-.85-1.815s2.088.263 3.3.263c1.212 0 3.3-.263 3.3-.263l-.851 1.815-2.47.194-2.429-.194z" fill="#FFF"></path>
    <path stroke="#FFF" stroke-linecap="square" stroke-linejoin="round" d="M4.273 10.971h15.454"></path>
    <g>
      <path d="M22.576 2.565 18.2 1.035a.598.598 0 0 0-.402 0l-4.375 1.53a.64.64 0 0 0-.424.609v3.444c0 4.203 4.562 6.246 4.756 6.33.157.07.33.07.488 0 .194-.085 4.756-2.127 4.756-6.33V3.174a.64.64 0 0 0-.424-.609" fill="#1DA578"></path>
      <path fill="#FFF" d="m20.156 4.8-2.122 2.122-.645.645-1.478-1.478L15 7l2.39 2.39.644-.645 3.034-3.034z"></path>
    </g>
  </g>
</svg>
